<svg width="24" height="24" viewBox="0 0 24 24" fill="none" xmlns="http://www.w3.org/2000/svg">
<path d="M11.6998 2.81029C11.8912 2.72665 12.1089 2.72665 12.3003 2.81029C16.0192 4.43512 19.5437 6.42137 22.8295 8.72456C23.0673 8.89124 23.1875 9.1802 23.1381 9.46636C23.0887 9.75251 22.8785 9.98441 22.5986 10.0617C21.9137 10.2507 21.2347 10.4544 20.5618 10.6714C17.8307 11.5521 15.2018 12.6604 12.6972 13.9738L12.6939 13.9755C12.5803 14.0351 12.467 14.095 12.354 14.1554C12.1331 14.2734 11.8679 14.2734 11.6471 14.1554C11.533 14.0945 11.4186 14.0339 11.3039 13.9738C10.0655 13.3243 8.79658 12.7251 7.5 12.1786V11.955C7.5 11.8236 7.56742 11.707 7.67173 11.6439C9.17685 10.732 10.7294 9.89065 12.3247 9.12436C12.6981 8.94502 12.8554 8.49696 12.6761 8.12358C12.4967 7.7502 12.0486 7.59291 11.6753 7.77225C10.036 8.55963 8.44086 9.42409 6.8945 10.3609C6.44111 10.6356 6.13632 11.0851 6.03607 11.5888C5.18115 11.2599 4.31499 10.9536 3.43829 10.6709C2.76546 10.4539 2.08644 10.2507 1.40154 10.0617C1.12162 9.9844 0.911461 9.75249 0.86204 9.46634C0.812619 9.18019 0.932824 8.89123 1.17061 8.72455C4.45645 6.42136 7.98098 4.43511 11.6998 2.81029Z" fill="#868E96"/>
<path d="M13.0609 15.4784C15.4997 14.1753 18.0621 13.0737 20.7258 12.1956C20.8601 13.6104 20.9458 15.0393 20.9813 16.4805C20.9889 16.7897 20.8059 17.0719 20.5205 17.1911C17.6693 18.3814 14.9574 19.839 12.4159 21.5327C12.1641 21.7005 11.836 21.7005 11.5841 21.5327C9.04268 19.839 6.33073 18.3814 3.4796 17.1911C3.19416 17.0719 3.01116 16.7897 3.01878 16.4805C3.05429 15.0392 3.14001 13.6102 3.27427 12.1953C4.19527 12.4989 5.10415 12.8292 6 13.1853V14.4557C5.55165 14.715 5.25 15.1998 5.25 15.755C5.25 16.2503 5.49008 16.6896 5.86022 16.9627C5.7707 17.3433 5.63822 17.7158 5.46277 18.0725C5.91546 18.2861 6.36429 18.5067 6.8091 18.7339C7.06244 18.2187 7.24612 17.6779 7.36014 17.1257C7.88449 16.892 8.25 16.3662 8.25 15.755C8.25 15.1998 7.94835 14.715 7.5 14.4557V13.8109C8.6714 14.3227 9.81885 14.8793 10.9402 15.4784C11.6028 15.8324 12.3983 15.8324 13.0609 15.4784Z" fill="#868E96"/>
<path d="M4.46222 19.4673C4.88136 19.0482 5.21502 18.5761 5.46277 18.0725C5.91546 18.2861 6.36429 18.5067 6.8091 18.7339C6.49055 19.3818 6.06164 19.9892 5.52288 20.528C5.22999 20.8209 4.75512 20.8209 4.46222 20.528C4.16933 20.2351 4.16933 19.7602 4.46222 19.4673Z" fill="#868E96"/>
</svg>
