<svg width="24" height="24" viewBox="0 0 24 24" fill="none" xmlns="http://www.w3.org/2000/svg">
<path fill-rule="evenodd" clip-rule="evenodd" d="M11.6998 2.81029C11.8912 2.72665 12.1089 2.72665 12.3003 2.81029C16.0192 4.43512 19.5437 6.42137 22.8295 8.72456C23.0673 8.89124 23.1875 9.18021 23.1381 9.46636C23.0887 9.75251 22.8785 9.98442 22.5986 10.0617C21.9137 10.2507 21.2346 10.4539 20.5618 10.6709C20.7917 12.5817 20.933 14.5197 20.9813 16.4805C20.9889 16.7897 20.8059 17.0719 20.5205 17.1911C17.6693 18.3814 14.9574 19.839 12.4159 21.5327C12.1641 21.7005 11.836 21.7005 11.5841 21.5327C10.0521 20.5117 8.45807 19.5765 6.80897 18.7339C6.49041 19.3818 6.06175 19.9892 5.52299 20.528C5.2301 20.8209 4.75523 20.8209 4.46233 20.528C4.16944 20.2351 4.16944 19.7602 4.46233 19.4673C4.88146 19.0482 5.21489 18.5761 5.46264 18.0725C4.80955 17.7642 4.1484 17.4703 3.4796 17.1911C3.19416 17.0719 3.01116 16.7897 3.01878 16.4805C3.06709 14.5197 3.20833 12.5817 3.43829 10.6709C2.76546 10.4539 2.08644 10.2507 1.40154 10.0617C1.12162 9.9844 0.911461 9.7525 0.86204 9.46634C0.812619 9.18019 0.932824 8.89123 1.17061 8.72455C4.45645 6.42136 7.98097 4.43511 11.6998 2.81029ZM4.89061 11.164C4.70713 12.7602 4.58707 14.3759 4.53302 16.0083C5.00132 16.2096 5.46588 16.418 5.92657 16.6332C5.97554 16.3428 6.00002 16.0489 6.00002 15.755V15.5543C5.55167 15.295 5.25002 14.8102 5.25002 14.255C5.25002 13.6998 5.55167 13.215 6.00002 12.9557V11.5748C5.63228 11.4337 5.26246 11.2967 4.89061 11.164ZM8.67521 11.0504C9.86427 10.3643 11.0815 9.72152 12.3248 9.12435C12.6981 8.94501 12.8554 8.49695 12.6761 8.12357C12.4967 7.7502 12.0487 7.5929 11.6753 7.77224C10.053 8.55147 8.47393 9.40619 6.94258 10.3318C6.13749 10.015 5.32254 9.71778 4.49831 9.44074C4.11246 9.31104 3.72458 9.18577 3.33473 9.06499C6.0725 7.25244 8.96945 5.6613 12.0001 4.31702C15.0307 5.6613 17.9276 7.25245 20.6654 9.065C20.2755 9.18579 19.8876 9.31107 19.5017 9.44078C16.9028 10.3144 14.3961 11.3886 12.0001 12.6451C10.914 12.0755 9.8051 11.5434 8.67521 11.0504ZM7.50002 12.1785V12.9557C7.94838 13.215 8.25002 13.6998 8.25002 14.255C8.25002 14.8102 7.94838 15.295 7.50002 15.5543V15.755C7.50002 16.2771 7.43973 16.7995 7.31915 17.3106C8.93223 18.1268 10.4945 19.0287 12 20.0103C14.3575 18.4733 16.8541 17.1316 19.467 16.0083C19.413 14.3759 19.2929 12.7603 19.1094 11.1641C16.7729 11.9978 14.516 12.9997 12.3535 14.1551C12.1327 14.2731 11.8675 14.2731 11.6466 14.1551C10.2998 13.4355 8.91646 12.7755 7.50002 12.1785Z" fill="#868E96"/>
</svg>
