<svg width="24" height="24" viewBox="0 0 24 24" fill="none" xmlns="http://www.w3.org/2000/svg">
<path fill-rule="evenodd" clip-rule="evenodd" d="M9 5.25488C8.58579 5.25488 8.25 5.59067 8.25 6.00488C8.25 6.4191 8.58579 6.75488 9 6.75488C9.41421 6.75488 9.75 6.4191 9.75 6.00488C9.75 5.59067 9.41421 5.25488 9 5.25488ZM6.87803 5.25488C7.18691 4.38099 8.02034 3.75488 9 3.75488C9.97966 3.75488 10.8131 4.38099 11.122 5.25488L20.25 5.25488C20.6642 5.25488 21 5.59067 21 6.00488C21 6.4191 20.6642 6.75488 20.25 6.75488H11.122C10.8131 7.62878 9.97966 8.25488 9 8.25488C8.02034 8.25488 7.18691 7.62878 6.87803 6.75488H3.75C3.33579 6.75488 3 6.4191 3 6.00488C3 5.59067 3.33579 5.25488 3.75 5.25488H6.87803ZM15 11.2549C14.5858 11.2549 14.25 11.5907 14.25 12.0049C14.25 12.4191 14.5858 12.7549 15 12.7549C15.4142 12.7549 15.75 12.4191 15.75 12.0049C15.75 11.5907 15.4142 11.2549 15 11.2549ZM12.878 11.2549C13.1869 10.381 14.0203 9.75488 15 9.75488C15.9797 9.75488 16.8131 10.381 17.122 11.2549L20.25 11.2549C20.6642 11.2549 21 11.5907 21 12.0049C21 12.4191 20.6642 12.7549 20.25 12.7549L17.122 12.7549C16.8131 13.6288 15.9797 14.2549 15 14.2549C14.0203 14.2549 13.1869 13.6288 12.878 12.7549H3.75C3.33579 12.7549 3 12.4191 3 12.0049C3 11.5907 3.33579 11.2549 3.75 11.2549H12.878ZM9 17.2549C8.58579 17.2549 8.25 17.5907 8.25 18.0049C8.25 18.4191 8.58579 18.7549 9 18.7549C9.41421 18.7549 9.75 18.4191 9.75 18.0049C9.75 17.5907 9.41421 17.2549 9 17.2549ZM6.87803 17.2549C7.18691 16.381 8.02034 15.7549 9 15.7549C9.97966 15.7549 10.8131 16.381 11.122 17.2549H20.25C20.6642 17.2549 21 17.5907 21 18.0049C21 18.4191 20.6642 18.7549 20.25 18.7549H11.122C10.8131 19.6288 9.97966 20.2549 9 20.2549C8.02034 20.2549 7.18691 19.6288 6.87803 18.7549L3.75 18.7549C3.33579 18.7549 3 18.4191 3 18.0049C3 17.5907 3.33579 17.2549 3.75 17.2549L6.87803 17.2549Z" fill="#868E96"/>
</svg>
