<svg width="24" height="24" viewBox="0 0 24 24" fill="none" xmlns="http://www.w3.org/2000/svg">
<path fill-rule="evenodd" clip-rule="evenodd" d="M20.2373 3.75C20.2373 4.16421 19.9015 4.5 19.4873 4.5L8.98633 4.5L8.98633 18.439L11.4564 15.9693C11.7493 15.6764 12.2242 15.6764 12.5171 15.9693C12.8099 16.2622 12.8099 16.7371 12.517 17.03L8.76662 20.7799C8.47374 21.0727 7.99892 21.0727 7.70603 20.7799L3.95567 17.03C3.66276 16.7371 3.66273 16.2622 3.9556 15.9693C4.24848 15.6764 4.72335 15.6764 5.01626 15.9693L7.48633 18.439L7.48633 3.75C7.48633 3.33579 7.82211 3 8.23633 3L19.4873 3C19.9015 3 20.2373 3.33579 20.2373 3.75Z" fill="#868E96"/>
</svg>
