<svg width="24" height="24" viewBox="0 0 24 24" fill="none" xmlns="http://www.w3.org/2000/svg">
<path fill-rule="evenodd" clip-rule="evenodd" d="M7.5 5.25C7.5 3.59315 8.84315 2.25 10.5 2.25H16.5C18.1569 2.25 19.5 3.59315 19.5 5.25V18.75C19.5 20.4069 18.1569 21.75 16.5 21.75H10.5C8.84315 21.75 7.5 20.4069 7.5 18.75V15C7.5 14.5858 7.83579 14.25 8.25 14.25C8.66421 14.25 9 14.5858 9 15V18.75C9 19.5784 9.67157 20.25 10.5 20.25H16.5C17.3284 20.25 18 19.5784 18 18.75V5.25C18 4.42157 17.3284 3.75 16.5 3.75H10.5C9.67157 3.75 9 4.42157 9 5.25V9C9 9.41421 8.66421 9.75 8.25 9.75C7.83579 9.75 7.5 9.41421 7.5 9V5.25ZM5.78033 8.46967C6.07322 8.76256 6.07322 9.23744 5.78033 9.53033L4.06066 11.25L15 11.25C15.4142 11.25 15.75 11.5858 15.75 12C15.75 12.4142 15.4142 12.75 15 12.75L4.06066 12.75L5.78033 14.4697C6.07322 14.7626 6.07322 15.2374 5.78033 15.5303C5.48744 15.8232 5.01256 15.8232 4.71967 15.5303L1.71967 12.5303C1.42678 12.2374 1.42678 11.7626 1.71967 11.4697L4.71967 8.46967C5.01256 8.17678 5.48743 8.17678 5.78033 8.46967Z" fill="#868E96"/>
</svg>
