<svg width="24" height="24" viewBox="0 0 24 24" fill="none" xmlns="http://www.w3.org/2000/svg">
<path fill-rule="evenodd" clip-rule="evenodd" d="M11.9922 2.25244C6.60741 2.25244 2.24219 6.61767 2.24219 12.0024C2.24219 17.3872 6.60741 21.7524 11.9922 21.7524C17.377 21.7524 21.7422 17.3872 21.7422 12.0024C21.7422 6.61767 17.377 2.25244 11.9922 2.25244ZM12.5225 7.72211C12.3819 7.58146 12.1911 7.50244 11.9922 7.50244C11.7933 7.50244 11.6025 7.58146 11.4619 7.72211L8.46186 10.7221C8.16896 11.015 8.16896 11.4899 8.46186 11.7828C8.75475 12.0757 9.22962 12.0757 9.52252 11.7828L11.2422 10.0631L11.2422 15.7524C11.2422 16.1667 11.578 16.5024 11.9922 16.5024C12.4064 16.5024 12.7422 16.1667 12.7422 15.7524L12.7422 10.0631L14.4619 11.7828C14.7547 12.0757 15.2296 12.0757 15.5225 11.7828C15.8154 11.4899 15.8154 11.015 15.5225 10.7221L12.5225 7.72211Z" fill="#868E96"/>
</svg>
