<svg width="24" height="24" viewBox="0 0 24 24" fill="none" xmlns="http://www.w3.org/2000/svg">
<path fill-rule="evenodd" clip-rule="evenodd" d="M12 3.75C7.44365 3.75 3.75 7.44365 3.75 12C3.75 16.5563 7.44365 20.25 12 20.25C16.5563 20.25 20.25 16.5563 20.25 12C20.25 7.44365 16.5563 3.75 12 3.75ZM2.25 12C2.25 6.61522 6.61522 2.25 12 2.25C17.3848 2.25 21.75 6.61522 21.75 12C21.75 17.3848 17.3848 21.75 12 21.75C6.61522 21.75 2.25 17.3848 2.25 12ZM12 7.5C12.4142 7.5 12.75 7.83579 12.75 8.25L12.75 13.9393L14.4697 12.2197C14.7626 11.9268 15.2374 11.9268 15.5303 12.2197C15.8232 12.5126 15.8232 12.9874 15.5303 13.2803L12.5303 16.2803C12.3897 16.421 12.1989 16.5 12 16.5C11.8011 16.5 11.6103 16.421 11.4697 16.2803L8.46967 13.2803C8.17678 12.9874 8.17678 12.5126 8.46967 12.2197C8.76256 11.9268 9.23744 11.9268 9.53033 12.2197L11.25 13.9393L11.25 8.25C11.25 7.83579 11.5858 7.5 12 7.5Z" fill="#868E96"/>
</svg>
