<svg width="24" height="24" viewBox="0 0 24 24" fill="none" xmlns="http://www.w3.org/2000/svg">
<path fill-rule="evenodd" clip-rule="evenodd" d="M3.73682 3.75245C3.73682 4.16667 4.07262 4.50246 4.48685 4.50246L14.9878 4.50246L14.9878 18.4414L12.5178 15.9717C12.2249 15.6788 11.75 15.6789 11.4571 15.9718C11.1642 16.2647 11.1642 16.7396 11.4571 17.0324L15.2075 20.7823C15.5004 21.0752 15.9753 21.0752 16.2682 20.7823L20.0185 17.0324C20.3114 16.7396 20.3115 16.2647 20.0186 15.9718C19.7257 15.6789 19.2508 15.6788 18.9579 15.9717L16.4879 18.4414L16.4879 3.75245C16.4879 3.33823 16.1521 3.00244 15.7378 3.00244L4.48685 3.00244C4.07262 3.00244 3.73682 3.33823 3.73682 3.75245Z" fill="#868E96"/>
</svg>
