<svg width="24" height="24" viewBox="0 0 24 24" fill="none" xmlns="http://www.w3.org/2000/svg">
<path fill-rule="evenodd" clip-rule="evenodd" d="M20.2363 3.75001C20.2363 4.16423 19.9005 4.50002 19.4863 4.50002L8.98535 4.50002L8.98535 18.4389L11.4553 15.9693C11.7483 15.6764 12.2232 15.6764 12.5161 15.9693C12.809 16.2622 12.8089 16.7371 12.516 17.03L8.76565 20.7799C8.47274 21.0727 7.99789 21.0727 7.70499 20.7799L3.95463 17.03C3.6617 16.7371 3.66168 16.2622 3.95457 15.9693C4.24747 15.6764 4.72236 15.6764 5.01528 15.9693L7.48528 18.4389L7.48528 3.75001C7.48528 3.33579 7.82108 3 8.23532 3L19.4863 3C19.9005 3 20.2363 3.33579 20.2363 3.75001Z" fill="#868E96"/>
</svg>
