<svg width="24" height="24" viewBox="0 0 24 24" fill="none" xmlns="http://www.w3.org/2000/svg">
<path fill-rule="evenodd" clip-rule="evenodd" d="M3.73389 20.2529C4.1481 20.2529 4.48389 19.9171 4.48389 19.5029L4.48389 9.00195L18.4229 9.00195L15.9531 11.472C15.6603 11.7649 15.6603 12.2398 15.9532 12.5327C16.2461 12.8256 16.721 12.8255 17.0139 12.5326L20.7638 8.78225C21.0566 8.48936 21.0566 8.01454 20.7638 7.72166L17.0139 3.9713C16.721 3.67838 16.2461 3.67835 15.9532 3.97123C15.6603 4.2641 15.6603 4.73897 15.9531 5.03188L18.4229 7.50195L3.73389 7.50195C3.31967 7.50195 2.98389 7.83774 2.98389 8.25195L2.98389 19.5029C2.98389 19.9171 3.31967 20.2529 3.73389 20.2529Z" fill="#868E96"/>
</svg>
