<svg width="24" height="24" viewBox="0 0 24 24" fill="none" xmlns="http://www.w3.org/2000/svg">
<path fill-rule="evenodd" clip-rule="evenodd" d="M20.2339 20.2529C19.8197 20.2529 19.4839 19.9171 19.4839 19.5029L19.4839 9.00195L5.54494 9.00195L8.01461 11.4719C8.3075 11.7649 8.30747 12.2398 8.01456 12.5327C7.72165 12.8256 7.24677 12.8255 6.95389 12.5326L3.20401 8.78225C2.91115 8.48934 2.91115 8.01449 3.20401 7.72159L6.95389 3.97123C7.24677 3.67831 7.72165 3.67828 8.01456 3.97118C8.30747 4.26407 8.3075 4.73896 8.01461 5.03189L5.54494 7.50188L20.2339 7.50188C20.6481 7.50188 20.9839 7.83769 20.9839 8.25192L20.9839 19.5029C20.9839 19.9171 20.6481 20.2529 20.2339 20.2529Z" fill="#868E96"/>
</svg>
