<svg width="24" height="24" viewBox="0 0 24 24" fill="none" xmlns="http://www.w3.org/2000/svg">
<path fill-rule="evenodd" clip-rule="evenodd" d="M3.73828 3.74951C4.15249 3.74951 4.48828 4.0853 4.48828 4.49951V15.0005H18.4273L15.9575 12.5304C15.6647 12.2375 15.6647 11.7626 15.9576 11.4698C16.2505 11.1769 16.7254 11.1769 17.0183 11.4698L20.7681 15.2202C21.061 15.5131 21.061 15.9879 20.7681 16.2808L17.0183 20.0311C16.7254 20.3241 16.2505 20.3241 15.9576 20.0312C15.6647 19.7383 15.6647 19.2635 15.9575 18.9706L18.4273 16.5005H3.73828C3.32407 16.5005 2.98828 16.1647 2.98828 15.7505V4.49951C2.98828 4.0853 3.32407 3.74951 3.73828 3.74951Z" fill="#868E96"/>
</svg>
