<svg width="24" height="24" viewBox="0 0 24 24" fill="none" xmlns="http://www.w3.org/2000/svg">
<path fill-rule="evenodd" clip-rule="evenodd" d="M20.2397 20.2519C20.2397 19.8377 19.9039 19.5019 19.4897 19.5019L8.98877 19.5019L8.98877 5.563L11.4588 8.03268C11.7517 8.32556 12.2266 8.32554 12.5195 8.03263C12.8124 7.73971 12.8123 7.26483 12.5194 6.97195L8.76907 3.22208C8.47616 2.92921 8.00131 2.92921 7.70841 3.22208L3.95804 6.97195C3.66512 7.26483 3.6651 7.73971 3.95799 8.03263C4.25089 8.32554 4.72578 8.32556 5.0187 8.03268L7.4887 5.563L7.4887 20.2519C7.4887 20.6662 7.8245 21.002 8.23873 21.002L19.4897 21.002C19.9039 21.002 20.2397 20.6662 20.2397 20.2519Z" fill="#868E96"/>
</svg>
