<svg width="24" height="24" viewBox="0 0 24 24" fill="none" xmlns="http://www.w3.org/2000/svg">
<path fill-rule="evenodd" clip-rule="evenodd" d="M3.7378 3.74951C4.15202 3.74951 4.48782 4.08531 4.48782 4.49955V15.0005H18.4267L15.9571 12.5305C15.6642 12.2376 15.6642 11.7627 15.9571 11.4698C16.25 11.1769 16.7249 11.1769 17.0178 11.4698L20.7677 15.2202C21.0605 15.5131 21.0605 15.988 20.7677 16.2809L17.0178 20.0312C16.7249 20.3241 16.25 20.3242 15.9571 20.0313C15.6642 19.7384 15.6642 19.2635 15.9571 18.9706L18.4267 16.5006H3.7378C3.32358 16.5006 2.98779 16.1648 2.98779 15.7505V4.49955C2.98779 4.08531 3.32358 3.74951 3.7378 3.74951Z" fill="#868E96"/>
</svg>
