<svg width="24" height="24" viewBox="0 0 24 24" fill="none" xmlns="http://www.w3.org/2000/svg">
<path fill-rule="evenodd" clip-rule="evenodd" d="M20.2388 3.74951C19.8245 3.74951 19.4887 4.08531 19.4887 4.49955V15.0005H5.54982L8.01949 12.5305C8.31238 12.2376 8.31236 11.7627 8.01944 11.4698C7.72653 11.1769 7.25165 11.1769 6.95877 11.4698L3.20889 15.2202C2.91603 15.5131 2.91603 15.988 3.20889 16.2809L6.95877 20.0312C7.25165 20.3241 7.72653 20.3242 8.01944 20.0313C8.31236 19.7384 8.31238 19.2635 8.01949 18.9706L5.54982 16.5006H20.2388C20.653 16.5006 20.9888 16.1648 20.9888 15.7505V4.49955C20.9888 4.08531 20.653 3.74951 20.2388 3.74951Z" fill="#868E96"/>
</svg>
