<svg width="24" height="24" viewBox="0 0 24 24" fill="none" xmlns="http://www.w3.org/2000/svg">
<path fill-rule="evenodd" clip-rule="evenodd" d="M11.4619 2.47211C11.7548 2.17922 12.2296 2.17922 12.5225 2.47211L17.0225 6.97211C17.3154 7.265 17.3154 7.73988 17.0225 8.03277C16.7296 8.32566 16.2548 8.32566 15.9619 8.03277L12.7422 4.8131L12.7422 16.5024C12.7422 16.9167 12.4064 17.2524 11.9922 17.2524C11.578 17.2524 11.2422 16.9167 11.2422 16.5024L11.2422 4.8131L8.02252 8.03277C7.72962 8.32566 7.25475 8.32566 6.96186 8.03277C6.66896 7.73988 6.66896 7.265 6.96186 6.97211L11.4619 2.47211ZM2.99219 15.7524C3.4064 15.7524 3.74219 16.0882 3.74219 16.5024V18.7524C3.74219 19.5809 4.41376 20.2524 5.24219 20.2524H18.7422C19.5706 20.2524 20.2422 19.5809 20.2422 18.7524V16.5024C20.2422 16.0882 20.578 15.7524 20.9922 15.7524C21.4064 15.7524 21.7422 16.0882 21.7422 16.5024V18.7524C21.7422 20.4093 20.399 21.7524 18.7422 21.7524H5.24219C3.58533 21.7524 2.24219 20.4093 2.24219 18.7524V16.5024C2.24219 16.0882 2.57797 15.7524 2.99219 15.7524Z" fill="#868E96"/>
</svg>
