<svg width="24" height="24" viewBox="0 0 24 24" fill="none" xmlns="http://www.w3.org/2000/svg">
<path fill-rule="evenodd" clip-rule="evenodd" d="M9.53033 2.47455C9.82322 2.76745 9.82322 3.24232 9.53033 3.53521L4.81066 8.25488H15C18.7279 8.25488 21.75 11.277 21.75 15.0049C21.75 18.7328 18.7279 21.7549 15 21.7549H12C11.5858 21.7549 11.25 21.4191 11.25 21.0049C11.25 20.5907 11.5858 20.2549 12 20.2549H15C17.8995 20.2549 20.25 17.9044 20.25 15.0049C20.25 12.1054 17.8995 9.75488 15 9.75488H4.81066L9.53033 14.4746C9.82322 14.7674 9.82322 15.2423 9.53033 15.5352C9.23744 15.8281 8.76256 15.8281 8.46967 15.5352L2.46967 9.53521C2.17678 9.24232 2.17678 8.76745 2.46967 8.47455L8.46967 2.47455C8.76256 2.18166 9.23744 2.18166 9.53033 2.47455Z" fill="#868E96"/>
</svg>
