<svg width="24" height="25" viewBox="0 0 24 25" fill="none" xmlns="http://www.w3.org/2000/svg">
<path fill-rule="evenodd" clip-rule="evenodd" d="M3.21967 3.24067C3.51256 2.94777 3.98744 2.94777 4.28033 3.24067L8.25 7.21034L8.25 4.521C8.25 4.10678 8.58579 3.771 9 3.771C9.41421 3.771 9.75 4.10678 9.75 4.521L9.75 9.021C9.75 9.43521 9.41421 9.771 9 9.771H4.5C4.08579 9.771 3.75 9.43521 3.75 9.021C3.75 8.60678 4.08579 8.271 4.5 8.271L7.18934 8.271L3.21967 4.30133C2.92678 4.00843 2.92678 3.53356 3.21967 3.24067ZM20.7803 3.24067C21.0732 3.53356 21.0732 4.00843 20.7803 4.30133L16.8107 8.271H19.5C19.9142 8.271 20.25 8.60678 20.25 9.021C20.25 9.43521 19.9142 9.771 19.5 9.771H15C14.5858 9.771 14.25 9.43521 14.25 9.021V4.521C14.25 4.10678 14.5858 3.771 15 3.771C15.4142 3.771 15.75 4.10678 15.75 4.521V7.21034L19.7197 3.24067C20.0126 2.94777 20.4874 2.94777 20.7803 3.24067ZM3.75 15.021C3.75 14.6068 4.08579 14.271 4.5 14.271L9 14.271C9.41421 14.271 9.75 14.6068 9.75 15.021V19.521C9.75 19.9352 9.41421 20.271 9 20.271C8.58579 20.271 8.25 19.9352 8.25 19.521L8.25 16.8317L4.28033 20.8013C3.98744 21.0942 3.51256 21.0942 3.21967 20.8013C2.92678 20.5084 2.92678 20.0336 3.21967 19.7407L7.18934 15.771H4.5C4.08579 15.771 3.75 15.4352 3.75 15.021ZM14.25 15.021C14.25 14.6068 14.5858 14.271 15 14.271H19.5C19.9142 14.271 20.25 14.6068 20.25 15.021C20.25 15.4352 19.9142 15.771 19.5 15.771H16.8107L20.7803 19.7407C21.0732 20.0336 21.0732 20.5084 20.7803 20.8013C20.4874 21.0942 20.0126 21.0942 19.7197 20.8013L15.75 16.8317V19.521C15.75 19.9352 15.4142 20.271 15 20.271C14.5858 20.271 14.25 19.9352 14.25 19.521L14.25 15.021Z" fill="#868E96"/>
</svg>
