<svg width="24" height="25" viewBox="0 0 24 25" fill="none" xmlns="http://www.w3.org/2000/svg">
<path fill-rule="evenodd" clip-rule="evenodd" d="M17.8336 6.18737C14.6118 2.96554 9.38819 2.96554 6.16637 6.18737C2.94454 9.40919 2.94454 14.6328 6.16637 17.8546C9.38819 21.0765 14.6118 21.0765 17.8336 17.8546C18.1265 17.5617 18.6014 17.5617 18.8943 17.8546C19.1872 18.1475 19.1872 18.6224 18.8943 18.9153C15.0867 22.7229 8.91332 22.7229 5.10571 18.9153C1.2981 15.1077 1.2981 8.93432 5.10571 5.12671C8.91332 1.31909 15.0867 1.31909 18.8943 5.12671C20.798 7.03037 21.75 9.52692 21.75 12.021C21.75 12.996 21.4545 13.9076 20.941 14.5923C20.4273 15.2773 19.6603 15.771 18.75 15.771C17.8462 15.771 17.0837 15.2843 16.57 14.6069C15.668 16.1977 13.9593 17.271 12 17.271C9.1005 17.271 6.75 14.9205 6.75 12.021C6.75 9.1215 9.1005 6.771 12 6.771C13.469 6.771 14.7971 7.37435 15.75 8.34676V8.271C15.75 7.85678 16.0858 7.521 16.5 7.521C16.9142 7.521 17.25 7.85678 17.25 8.271V12.021C17.25 12.7028 17.4582 13.2913 17.759 13.6923C18.0596 14.0931 18.4177 14.271 18.75 14.271C19.0823 14.271 19.4404 14.0931 19.741 13.6923C20.0418 13.2913 20.25 12.7029 20.25 12.021C20.25 9.90848 19.4447 7.79843 17.8336 6.18737ZM15.75 12.021C15.75 9.94993 14.0711 8.271 12 8.271C9.92893 8.271 8.25 9.94993 8.25 12.021C8.25 14.0921 9.92893 15.771 12 15.771C14.0711 15.771 15.75 14.0921 15.75 12.021Z" fill="#868E96"/>
</svg>
