<svg width="24" height="25" viewBox="0 0 24 25" fill="none" xmlns="http://www.w3.org/2000/svg">
<path fill-rule="evenodd" clip-rule="evenodd" d="M2.515 10.6952C1.78276 11.4274 1.78276 12.6146 2.51499 13.3468L8.89 19.7218C9.24163 20.0735 9.71854 20.271 10.2158 20.271H19.4998C21.1567 20.271 22.4998 18.9279 22.4998 17.271V6.771C22.4998 5.11414 21.1567 3.771 19.4998 3.771L10.2158 3.771C9.71854 3.771 9.24163 3.96854 8.89 4.32017L2.515 10.6952ZM12.5303 9.24067C12.2374 8.94777 11.7626 8.94777 11.4697 9.24067C11.1768 9.53356 11.1768 10.0084 11.4697 10.3013L13.1893 12.021L11.4697 13.7407C11.1768 14.0336 11.1768 14.5084 11.4697 14.8013C11.7626 15.0942 12.2374 15.0942 12.5303 14.8013L14.25 13.0817L15.9697 14.8013C16.2626 15.0942 16.7374 15.0942 17.0303 14.8013C17.3232 14.5084 17.3232 14.0336 17.0303 13.7407L15.3107 12.021L17.0303 10.3013C17.3232 10.0084 17.3232 9.53356 17.0303 9.24067C16.7374 8.94777 16.2626 8.94777 15.9697 9.24067L14.25 10.9603L12.5303 9.24067Z" fill="#868E96"/>
</svg>
