<svg width="24" height="24" viewBox="0 0 24 24" fill="none" xmlns="http://www.w3.org/2000/svg">
<path fill-rule="evenodd" clip-rule="evenodd" d="M3 5.25488C3 4.84067 3.33579 4.50488 3.75 4.50488H20.25C20.6642 4.50488 21 4.84067 21 5.25488C21 5.6691 20.6642 6.00488 20.25 6.00488H3.75C3.33579 6.00488 3 5.6691 3 5.25488ZM3 9.75488C3 9.34067 3.33579 9.00488 3.75 9.00488H20.25C20.6642 9.00488 21 9.34067 21 9.75488C21 10.1691 20.6642 10.5049 20.25 10.5049H3.75C3.33579 10.5049 3 10.1691 3 9.75488ZM3 14.2549C3 13.8407 3.33579 13.5049 3.75 13.5049H20.25C20.6642 13.5049 21 13.8407 21 14.2549C21 14.6691 20.6642 15.0049 20.25 15.0049H3.75C3.33579 15.0049 3 14.6691 3 14.2549ZM3 18.7549C3 18.3407 3.33579 18.0049 3.75 18.0049H20.25C20.6642 18.0049 21 18.3407 21 18.7549C21 19.1691 20.6642 19.5049 20.25 19.5049H3.75C3.33579 19.5049 3 19.1691 3 18.7549Z" fill="#868E96"/>
</svg>
