<svg width="24" height="24" viewBox="0 0 24 24" fill="none" xmlns="http://www.w3.org/2000/svg">
<path fill-rule="evenodd" clip-rule="evenodd" d="M2.25 4.50488C2.25 4.09067 2.58579 3.75488 3 3.75488H17.25C17.6642 3.75488 18 4.09067 18 4.50488C18 4.9191 17.6642 5.25488 17.25 5.25488H3C2.58579 5.25488 2.25 4.9191 2.25 4.50488ZM2.25 9.00488C2.25 8.59067 2.58579 8.25488 3 8.25488H12.75C13.1642 8.25488 13.5 8.59067 13.5 9.00488C13.5 9.4191 13.1642 9.75488 12.75 9.75488H3C2.58579 9.75488 2.25 9.4191 2.25 9.00488ZM16.5 10.8155L14.0303 13.2852C13.7374 13.5781 13.2626 13.5781 12.9697 13.2852C12.6768 12.9923 12.6768 12.5174 12.9697 12.2246L16.7197 8.47455C17.0126 8.18166 17.4874 8.18166 17.7803 8.47455L21.5303 12.2246C21.8232 12.5174 21.8232 12.9923 21.5303 13.2852C21.2374 13.5781 20.7626 13.5781 20.4697 13.2852L18 10.8155V21.0049C18 21.4191 17.6642 21.7549 17.25 21.7549C16.8358 21.7549 16.5 21.4191 16.5 21.0049V10.8155ZM2.25 13.5049C2.25 13.0907 2.58579 12.7549 3 12.7549H8.25C8.66421 12.7549 9 13.0907 9 13.5049C9 13.9191 8.66421 14.2549 8.25 14.2549H3C2.58579 14.2549 2.25 13.9191 2.25 13.5049Z" fill="#868E96"/>
</svg>
