<svg width="24" height="24" viewBox="0 0 24 24" fill="none" xmlns="http://www.w3.org/2000/svg">
<path fill-rule="evenodd" clip-rule="evenodd" d="M3.75 6.75488C2.09315 6.75488 0.75 8.09803 0.75 9.75488V15.7549C0.75 17.4117 2.09315 18.7549 3.75 18.7549H18.75C20.4069 18.7549 21.75 17.4117 21.75 15.7549V15.7174C22.6058 15.5436 23.25 14.787 23.25 13.8799V11.6299C23.25 10.7228 22.6058 9.96612 21.75 9.79239V9.75488C21.75 8.09803 20.4069 6.75488 18.75 6.75488H3.75ZM18.75 8.25488C19.5784 8.25488 20.25 8.92646 20.25 9.75488V15.7549C20.25 16.5833 19.5784 17.2549 18.75 17.2549H3.75C2.92157 17.2549 2.25 16.5833 2.25 15.7549V9.75488C2.25 8.92646 2.92157 8.25488 3.75 8.25488H18.75ZM4.5 9.75488C4.08579 9.75488 3.75 10.0907 3.75 10.5049V15.0049C3.75 15.4191 4.08579 15.7549 4.5 15.7549H18C18.4142 15.7549 18.75 15.4191 18.75 15.0049V10.5049C18.75 10.0907 18.4142 9.75488 18 9.75488H4.5Z" fill="#868E96"/>
</svg>
