<svg width="24" height="24" viewBox="0 0 24 24" fill="none" xmlns="http://www.w3.org/2000/svg">
<path d="M5.85024 3.50508C6.12648 3.19643 6.10021 2.72228 5.79157 2.44604C5.48292 2.16979 5.00878 2.19606 4.73253 2.5047C3.53158 3.84652 2.69593 5.52436 2.38448 7.3808C2.31594 7.7893 2.59154 8.17602 3.00005 8.24455C3.40855 8.31309 3.79527 8.03749 3.8638 7.62898C4.12691 6.06069 4.83289 4.64174 5.85024 3.50508Z" fill="#868E96"/>
<path d="M19.2669 2.5047C18.9906 2.19606 18.5165 2.16979 18.2078 2.44604C17.8992 2.72228 17.8729 3.19643 18.1492 3.50508C19.1665 4.64174 19.8725 6.06069 20.1356 7.62898C20.2041 8.03749 20.5909 8.31309 20.9994 8.24455C21.4079 8.17602 21.6835 7.7893 21.6149 7.3808C21.3035 5.52436 20.4678 3.84652 19.2669 2.5047Z" fill="#868E96"/>
<path fill-rule="evenodd" clip-rule="evenodd" d="M11.9999 2.25488C8.27203 2.25488 5.25 5.27685 5.24989 9.00469L5.24969 9.75488C5.24969 11.878 4.44867 13.8123 3.13114 15.2748C2.96464 15.4596 2.90061 15.7149 2.96021 15.9564C3.0198 16.1979 3.19527 16.3942 3.42863 16.4803C4.97275 17.0504 6.58921 17.4708 8.26028 17.7241C8.25339 17.8169 8.24989 17.9105 8.24989 18.0049C8.24989 20.076 9.92882 21.7549 11.9999 21.7549C14.071 21.7549 15.7499 20.076 15.7499 18.0049C15.7499 17.9105 15.7464 17.8169 15.7395 17.7241C17.4104 17.4708 19.0268 17.0503 20.5708 16.4803C20.8041 16.3942 20.9796 16.1979 21.0392 15.9564C21.0988 15.7149 21.0347 15.4596 20.8682 15.2748C19.5507 13.8123 18.7497 11.878 18.7497 9.75488V9.05407L18.7499 9.00488C18.7499 5.27696 15.7278 2.25488 11.9999 2.25488ZM9.74989 18.0049C9.74989 17.9711 9.75063 17.9375 9.75209 17.9042C10.4925 17.9708 11.2422 18.0049 11.9997 18.0049C12.7573 18.0049 13.5071 17.9708 14.2477 17.9041C14.2491 17.9375 14.2499 17.9711 14.2499 18.0049C14.2499 19.2475 13.2425 20.2549 11.9999 20.2549C10.7572 20.2549 9.74989 19.2475 9.74989 18.0049Z" fill="#868E96"/>
</svg>
