<svg width="24" height="24" viewBox="0 0 24 24" fill="none" xmlns="http://www.w3.org/2000/svg">
<path fill-rule="evenodd" clip-rule="evenodd" d="M12 3.75488C9.10052 3.75488 6.75001 6.10539 6.75001 9.00488L6.74981 9.75488C6.74981 9.75482 6.74981 9.75495 6.74981 9.75488C6.74977 11.8643 6.07916 13.8185 4.94026 15.414C6.31914 15.8529 7.75395 16.1666 9.23148 16.3419C10.139 16.4495 11.0628 16.5049 11.9998 16.5049C12.937 16.5049 13.8609 16.4495 14.7685 16.3418C16.2459 16.1666 17.6806 15.8528 19.0594 15.414C17.9204 13.8185 17.2498 11.8644 17.2498 9.75488V9.04804L17.25 9.00488C17.25 6.10539 14.8995 3.75488 12 3.75488ZM5.25001 9.00468C5.25012 5.27685 8.27215 2.25488 12 2.25488C15.7279 2.25488 18.75 5.27696 18.75 9.00488L18.7498 9.05407V9.75488C18.7498 11.878 19.5508 13.8123 20.8684 15.2748C21.0349 15.4596 21.0989 15.7149 21.0393 15.9564C20.9797 16.198 20.8042 16.3942 20.5709 16.4803C19.0269 17.0503 17.4105 17.4708 15.7396 17.7241C15.7465 17.8169 15.75 17.9105 15.75 18.0049C15.75 20.076 14.0711 21.7549 12 21.7549C9.92894 21.7549 8.25001 20.076 8.25001 18.0049C8.25001 17.9105 8.25351 17.8169 8.2604 17.7241C6.58934 17.4708 4.97287 17.0504 3.42875 16.4803C3.19539 16.3942 3.01992 16.198 2.96033 15.9564C2.90073 15.7149 2.96476 15.4596 3.13126 15.2748C4.44879 13.8123 5.24981 11.878 5.24981 9.75488L5.25001 9.00468C5.25001 9.00475 5.25001 9.00462 5.25001 9.00468ZM9.75221 17.9042C9.75075 17.9375 9.75001 17.9711 9.75001 18.0049C9.75001 19.2475 10.7574 20.2549 12 20.2549C13.2427 20.2549 14.25 19.2475 14.25 18.0049C14.25 17.9711 14.2493 17.9375 14.2478 17.9041C13.5072 17.9708 12.7574 18.0049 11.9998 18.0049C11.2424 18.0049 10.4927 17.9708 9.75221 17.9042ZM9.75001 8.25488C9.75001 7.84067 10.0858 7.50488 10.5 7.50488H13.5C13.7766 7.50488 14.0308 7.65712 14.1613 7.90099C14.2918 8.14486 14.2775 8.44077 14.124 8.67091L11.9014 12.0049H13.5C13.9142 12.0049 14.25 12.3407 14.25 12.7549C14.25 13.1691 13.9142 13.5049 13.5 13.5049H10.5C10.2234 13.5049 9.96927 13.3526 9.83876 13.1088C9.70824 12.8649 9.72255 12.569 9.87597 12.3389L12.0986 9.00488H10.5C10.0858 9.00488 9.75001 8.6691 9.75001 8.25488Z" fill="#868E96"/>
</svg>
