<svg width="24" height="24" viewBox="0 0 24 24" fill="none" xmlns="http://www.w3.org/2000/svg">
<path fill-rule="evenodd" clip-rule="evenodd" d="M12 2.25488C8.27215 2.25488 5.25012 5.27685 5.25001 9.00469L5.24981 9.75488C5.24981 11.878 4.44879 13.8123 3.13126 15.2748C2.96476 15.4596 2.90073 15.7149 2.96033 15.9564C3.01992 16.1979 3.19539 16.3942 3.42875 16.4803C4.97287 17.0504 6.58934 17.4708 8.2604 17.7241C8.25351 17.8169 8.25001 17.9105 8.25001 18.0049C8.25001 20.076 9.92894 21.7549 12 21.7549C14.0711 21.7549 15.75 20.076 15.75 18.0049C15.75 17.9105 15.7465 17.8169 15.7396 17.7241C17.4105 17.4708 19.0269 17.0503 20.5709 16.4803C20.8042 16.3942 20.9797 16.1979 21.0393 15.9564C21.0989 15.7149 21.0349 15.4596 20.8684 15.2748C19.5508 13.8123 18.7498 11.878 18.7498 9.75488V9.05407L18.75 9.00488C18.75 5.27696 15.7279 2.25488 12 2.25488ZM9.75001 18.0049C9.75001 17.9711 9.75075 17.9375 9.75221 17.9042C10.4927 17.9708 11.2424 18.0049 11.9998 18.0049C12.7574 18.0049 13.5072 17.9708 14.2478 17.9041C14.2493 17.9375 14.25 17.9711 14.25 18.0049C14.25 19.2475 13.2427 20.2549 12 20.2549C10.7574 20.2549 9.75001 19.2475 9.75001 18.0049ZM10.5 7.50488C10.0858 7.50488 9.75 7.84067 9.75 8.25488C9.75 8.6691 10.0858 9.00488 10.5 9.00488H12.0986L9.87596 12.3389C9.72253 12.569 9.70823 12.8649 9.83874 13.1088C9.96926 13.3526 10.2234 13.5049 10.5 13.5049H13.5C13.9142 13.5049 14.25 13.1691 14.25 12.7549C14.25 12.3407 13.9142 12.0049 13.5 12.0049H11.9014L14.124 8.67091C14.2775 8.44077 14.2918 8.14486 14.1613 7.90099C14.0307 7.65712 13.7766 7.50488 13.5 7.50488H10.5Z" fill="#868E96"/>
</svg>
