<svg width="24" height="24" viewBox="0 0 24 24" fill="none" xmlns="http://www.w3.org/2000/svg">
<path fill-rule="evenodd" clip-rule="evenodd" d="M5.79206 2.44604C6.1007 2.72228 6.12697 3.19643 5.85072 3.50508C4.83338 4.64174 4.1274 6.06069 3.86429 7.62898C3.79576 8.03749 3.40904 8.31309 3.00054 8.24455C2.59203 8.17602 2.31643 7.7893 2.38497 7.3808C2.69642 5.52436 3.53207 3.84652 4.73302 2.5047C5.00927 2.19606 5.48341 2.16979 5.79206 2.44604ZM18.2083 2.44604C18.517 2.16979 18.9911 2.19606 19.2674 2.5047C20.4683 3.84652 21.304 5.52436 21.6154 7.3808C21.684 7.7893 21.4083 8.17602 20.9998 8.24455C20.5913 8.31309 20.2046 8.03749 20.1361 7.62898C19.873 6.06069 19.167 4.64174 18.1497 3.50508C17.8734 3.19643 17.8997 2.72228 18.2083 2.44604ZM12.0002 3.75489C9.1007 3.75489 6.75019 6.1054 6.75019 9.00489L6.74999 9.75489C6.74999 9.75482 6.74999 9.75496 6.74999 9.75489C6.74995 11.8643 6.07934 13.8185 4.94044 15.414C6.31932 15.8529 7.75413 16.1666 9.23166 16.3419C10.1392 16.4495 11.0629 16.5049 12 16.5049C12.9372 16.5049 13.8611 16.4495 14.7687 16.3418C16.2461 16.1666 17.6808 15.8528 19.0595 15.414C17.9206 13.8185 17.25 11.8644 17.25 9.75489V9.04805L17.2502 9.00489C17.2502 6.1054 14.8997 3.75489 12.0002 3.75489ZM5.25019 9.00489C5.25019 5.27697 8.27227 2.25489 12.0002 2.25489C15.7281 2.25489 18.7502 5.27697 18.7502 9.00489L18.75 9.05408V9.75489C18.75 11.878 19.551 13.8123 20.8685 15.2748C21.035 15.4596 21.0991 15.7149 21.0395 15.9564C20.9799 16.198 20.8044 16.3942 20.5711 16.4804C19.0271 17.0503 17.4107 17.4708 15.7398 17.7241C15.7467 17.8169 15.7502 17.9105 15.7502 18.0049C15.7502 20.076 14.0713 21.7549 12.0002 21.7549C9.92912 21.7549 8.25019 20.076 8.25019 18.0049C8.25019 17.9105 8.25369 17.8169 8.26058 17.7241C6.58952 17.4708 4.97305 17.0504 3.42893 16.4804C3.19557 16.3942 3.0201 16.198 2.96051 15.9564C2.90091 15.7149 2.96494 15.4596 3.13144 15.2748C4.44898 13.8123 5.24999 11.878 5.24999 9.75489L5.25019 9.00489ZM9.75239 17.9042C9.75093 17.9375 9.75019 17.9711 9.75019 18.0049C9.75019 19.2475 10.7576 20.2549 12.0002 20.2549C13.2428 20.2549 14.2502 19.2475 14.2502 18.0049C14.2502 17.9711 14.2495 17.9375 14.248 17.9041C13.5074 17.9708 12.7576 18.0049 12 18.0049C11.2425 18.0049 10.4928 17.9708 9.75239 17.9042Z" fill="#868E96"/>
</svg>
