<svg width="24" height="24" viewBox="0 0 24 24" fill="none" xmlns="http://www.w3.org/2000/svg">
<path fill-rule="evenodd" clip-rule="evenodd" d="M5.24658 3.74906C5.24658 3.33483 5.58238 2.99902 5.9966 2.99902H13.1215C15.8139 2.99902 17.9964 5.18189 17.9964 7.87446C17.9964 9.27165 17.4087 10.5316 16.4671 11.4205C17.8437 12.367 18.7464 13.9532 18.7464 15.7502C18.7464 18.6499 16.396 21.0007 13.4965 21.0007H5.9966C5.58238 21.0007 5.24658 20.6649 5.24658 20.2507V3.74906ZM12.3715 10.4997C13.8211 10.4997 14.9964 9.32443 14.9964 7.87446C14.9964 6.42449 13.8211 5.24918 12.3715 5.24918H8.24659V10.4997H12.3715ZM8.24659 12.7499V18.7505H12.7465C14.4032 18.7505 15.7464 17.4073 15.7464 15.7502C15.7464 14.0931 14.4032 12.7499 12.7465 12.7499H8.24659Z" fill="#868E96"/>
</svg>
