<svg width="24" height="24" viewBox="0 0 24 24" fill="none" xmlns="http://www.w3.org/2000/svg">
<path fill-rule="evenodd" clip-rule="evenodd" d="M5.24707 3.74902C5.24707 3.33481 5.58286 2.99902 5.99707 2.99902H13.1221C15.8145 2.99902 17.9971 5.18186 17.9971 7.87438C17.9971 9.27157 17.4094 10.5315 16.4677 11.4204C17.8444 12.3669 18.7471 13.9531 18.7471 15.7501C18.7471 18.6497 16.3966 21.0005 13.4971 21.0005H5.99707C5.58286 21.0005 5.24707 20.6647 5.24707 20.2505V3.74902ZM8.24707 12.7497V18.7504H12.7471C14.4039 18.7504 15.7471 17.4072 15.7471 15.7501C15.7471 14.093 14.4039 12.7497 12.7471 12.7497H8.24707ZM8.24707 10.4997H12.3721C13.8218 10.4997 14.9971 9.32435 14.9971 7.87438C14.9971 6.42441 13.8218 5.24909 12.3721 5.24909H8.24707V10.4997Z" fill="#868E96"/>
</svg>
