<svg width="24" height="24" viewBox="0 0 24 24" fill="none" xmlns="http://www.w3.org/2000/svg">
<path fill-rule="evenodd" clip-rule="evenodd" d="M14.6147 1.59983C14.916 1.76778 15.0638 2.11951 14.9731 2.45225L12.9815 9.75491H20.2495C20.5482 9.75491 20.8184 9.93209 20.9374 10.206C21.0564 10.4799 21.0016 10.7983 20.7978 11.0166L10.2978 22.2666C10.0625 22.5188 9.68555 22.5779 9.38432 22.41C9.08308 22.242 8.93521 21.8903 9.02595 21.5576L11.0176 14.2549H3.74953C3.45088 14.2549 3.18069 14.0777 3.06167 13.8038C2.94264 13.5299 2.99746 13.2115 3.20124 12.9932L13.7012 1.74317C13.9366 1.49104 14.3135 1.43189 14.6147 1.59983ZM5.47544 12.7549H11.9995C12.2333 12.7549 12.4537 12.8639 12.5956 13.0497C12.7374 13.2354 12.7846 13.4767 12.7231 13.7022L11.2714 19.0251L18.5236 11.2549H11.9995C11.7658 11.2549 11.5454 11.1459 11.4035 10.9602C11.2616 10.7744 11.2144 10.5331 11.276 10.3076L12.7277 4.98468L5.47544 12.7549Z" fill="#868E96"/>
</svg>
