<svg width="24" height="24" viewBox="0 0 24 24" fill="none" xmlns="http://www.w3.org/2000/svg">
<path fill-rule="evenodd" clip-rule="evenodd" d="M3.75 4.81718V17.5179C4.47281 17.3471 5.22624 17.2568 6 17.2568C7.93246 17.2568 9.73455 17.8196 11.25 18.7897V6.39255C9.82325 5.21409 7.99501 4.50684 6 4.50684C5.21909 4.50684 4.46454 4.61513 3.75 4.81718ZM12.75 6.39255V18.7897C14.2655 17.8196 16.0675 17.2568 18 17.2568C18.7738 17.2568 19.5272 17.3471 20.25 17.5179V4.81718C19.5355 4.61513 18.7809 4.50684 18 4.50684C16.005 4.50684 14.1768 5.21409 12.75 6.39255ZM12 5.07113C10.3458 3.77809 8.26223 3.00684 6 3.00684C4.86178 3.00684 3.76756 3.20219 2.75007 3.56182C2.45037 3.66775 2.25 3.95109 2.25 4.26895V18.519C2.25 18.7624 2.36818 18.9907 2.56696 19.1313C2.76574 19.2719 3.02039 19.3072 3.24993 19.2261C4.10911 18.9224 5.03441 18.7568 6 18.7568C8.11345 18.7568 10.0397 19.5506 11.4998 20.8574C11.7846 21.1122 12.2154 21.1122 12.5002 20.8574C13.9603 19.5506 15.8865 18.7568 18 18.7568C18.9656 18.7568 19.8909 18.9224 20.7501 19.2261C20.9796 19.3072 21.2343 19.2719 21.433 19.1313C21.6318 18.9907 21.75 18.7624 21.75 18.519V4.26895C21.75 3.95109 21.5496 3.66775 21.2499 3.56182C20.2324 3.20219 19.1382 3.00684 18 3.00684C15.7378 3.00684 13.6542 3.77809 12 5.07113Z" fill="#868E96"/>
</svg>
