<svg width="24" height="24" viewBox="0 0 24 24" fill="none" xmlns="http://www.w3.org/2000/svg">
<path d="M11.25 4.5397C9.73455 3.56963 7.93246 3.00684 6 3.00684C4.86178 3.00684 3.76756 3.20219 2.75007 3.56182C2.45037 3.66775 2.25 3.95109 2.25 4.26895V18.519C2.25 18.7624 2.36818 18.9907 2.56696 19.1313C2.76574 19.2719 3.02039 19.3072 3.24993 19.2261C4.10911 18.9224 5.03441 18.7568 6 18.7568C7.99502 18.7568 9.82325 19.4641 11.25 20.6425V4.5397Z" fill="#868E96"/>
<path d="M12.75 20.6425C14.1768 19.4641 16.005 18.7568 18 18.7568C18.9656 18.7568 19.8909 18.9224 20.7501 19.2261C20.9796 19.3072 21.2343 19.2719 21.433 19.1313C21.6318 18.9907 21.75 18.7624 21.75 18.519V4.26895C21.75 3.95109 21.5496 3.66775 21.2499 3.56182C20.2324 3.20219 19.1382 3.00684 18 3.00684C16.0675 3.00684 14.2655 3.56963 12.75 4.5397V20.6425Z" fill="#868E96"/>
</svg>
