<svg width="24" height="24" viewBox="0 0 24 24" fill="none" xmlns="http://www.w3.org/2000/svg">
<path fill-rule="evenodd" clip-rule="evenodd" d="M6 3.00684C4.34315 3.00684 3 4.34998 3 6.00684V18.0068C3 19.6637 4.34315 21.0068 6 21.0068H18C19.6569 21.0068 21 19.6637 21 18.0068V6.00684C21 4.34998 19.6569 3.00684 18 3.00684H6ZM7.5 4.50684C7.08579 4.50684 6.75 4.84262 6.75 5.25684V16.5068C6.75 16.7668 6.88459 17.0082 7.1057 17.1448C7.32681 17.2815 7.60292 17.2939 7.83541 17.1777L12 15.0954L16.1646 17.1777C16.3971 17.2939 16.6732 17.2815 16.8943 17.1448C17.1154 17.0082 17.25 16.7668 17.25 16.5068V5.25684C17.25 4.84262 16.9142 4.50684 16.5 4.50684H7.5Z" fill="#868E96"/>
</svg>
