<svg width="24" height="24" viewBox="0 0 24 24" fill="none" xmlns="http://www.w3.org/2000/svg">
<path fill-rule="evenodd" clip-rule="evenodd" d="M2.46967 2.47651C2.76256 2.18361 3.23744 2.18361 3.53033 2.47651L4.54143 3.4876C4.99219 3.00178 5.6091 2.66677 6.32022 2.58425C8.18374 2.36798 10.079 2.25684 12 2.25684C13.921 2.25684 15.8163 2.36798 17.6798 2.58425C19.1772 2.75802 20.25 4.04406 20.25 5.51382V19.1962L21.5303 20.4765C21.8232 20.7694 21.8232 21.2443 21.5303 21.5372C21.2374 21.8301 20.7626 21.8301 20.4697 21.5372L2.46967 3.53717C2.17678 3.24427 2.17678 2.7694 2.46967 2.47651ZM18.75 17.6962V5.51382C18.75 4.76762 18.2107 4.15592 17.5069 4.07425C15.7006 3.86463 13.8631 3.75684 12 3.75684C10.137 3.75684 8.29938 3.86462 6.49314 4.07425C6.13775 4.11549 5.82609 4.29004 5.60336 4.54954L18.75 17.6962ZM4.5 7.99921C4.91421 7.99921 5.25 8.33499 5.25 8.74921V19.7933L11.6646 16.586C11.8757 16.4804 12.1243 16.4804 12.3354 16.586L14.3507 17.5936C14.7212 17.7789 14.8713 18.2294 14.6861 18.5999C14.5008 18.9704 14.0503 19.1205 13.6798 18.9353L12 18.0954L4.83541 21.6777C4.60292 21.7939 4.32681 21.7815 4.1057 21.6448C3.88459 21.5082 3.75 21.2668 3.75 21.0068V8.74921C3.75 8.33499 4.08579 7.99921 4.5 7.99921Z" fill="#868E96"/>
</svg>
