<svg width="24" height="24" viewBox="0 0 24 24" fill="none" xmlns="http://www.w3.org/2000/svg">
<path fill-rule="evenodd" clip-rule="evenodd" d="M7.49902 5.25684C7.49902 3.59998 8.84217 2.25684 10.499 2.25684H13.499C15.1559 2.25684 16.499 3.59998 16.499 5.25684V5.46181C17.4315 5.54717 18.3564 5.6588 19.2731 5.79595C20.7271 6.01352 21.749 7.27847 21.749 8.71252V11.7457C21.749 12.9569 21.0154 14.0981 19.8127 14.4979C17.3556 15.3148 14.7282 15.7568 11.9991 15.7568C9.26989 15.7568 6.64244 15.3148 4.18529 14.4979C2.98266 14.0981 2.24902 12.9568 2.24902 11.7457V8.71253C2.24902 7.27847 3.27093 6.01352 4.72498 5.79595C5.64163 5.6588 6.56656 5.54717 7.49902 5.46181V5.25684ZM14.999 5.25684V5.34766C14.0067 5.2874 13.0064 5.25684 11.999 5.25684C10.9917 5.25684 9.99138 5.2874 8.99902 5.34766V5.25684C8.99902 4.42841 9.6706 3.75684 10.499 3.75684H13.499C14.3274 3.75684 14.999 4.42841 14.999 5.25684ZM11.999 13.5068C12.4132 13.5068 12.749 13.1711 12.749 12.7568C12.749 12.3426 12.4132 12.0068 11.999 12.0068C11.5848 12.0068 11.249 12.3426 11.249 12.7568C11.249 13.1711 11.5848 13.5068 11.999 13.5068Z" fill="#868E96"/>
<path d="M2.99902 18.4068V15.6108C3.22206 15.7331 3.46 15.8375 3.71206 15.9213C6.31989 16.7883 9.10703 17.2568 11.9991 17.2568C14.8911 17.2568 17.6782 16.7883 20.286 15.9213C20.538 15.8375 20.776 15.7331 20.999 15.6108V18.4068C20.999 19.8587 19.9518 21.1343 18.4759 21.3303C16.3566 21.6117 14.1946 21.7568 11.999 21.7568C9.80349 21.7568 7.64149 21.6117 5.52216 21.3303C4.04626 21.1343 2.99902 19.8587 2.99902 18.4068Z" fill="#868E96"/>
</svg>
