<svg width="24" height="24" viewBox="0 0 24 24" fill="none" xmlns="http://www.w3.org/2000/svg">
<path d="M11.5821 2.3828C11.834 2.21485 12.1622 2.21485 12.4142 2.3828L21.4142 8.3828C21.7588 8.61256 21.8519 9.07821 21.6222 9.42286C21.3924 9.76751 20.9267 9.86064 20.5821 9.63087L11.9981 3.90822L3.41415 9.63087C3.06951 9.86064 2.60385 9.76751 2.37409 9.42286C2.14432 9.07821 2.23745 8.61256 2.5821 8.3828L11.5821 2.3828Z" fill="#868E96"/>
<path fill-rule="evenodd" clip-rule="evenodd" d="M20.248 10.3393V20.2568H20.998C21.4123 20.2568 21.748 20.5926 21.748 21.0068C21.748 21.421 21.4123 21.7568 20.998 21.7568H2.99805C2.58383 21.7568 2.24805 21.421 2.24805 21.0068C2.24805 20.5926 2.58383 20.2568 2.99805 20.2568H3.74805V10.3393C3.74805 9.97001 4.01692 9.65565 4.38179 9.5984C6.86383 9.20895 9.40759 9.00684 11.998 9.00684C14.5885 9.00684 17.1323 9.20895 19.6143 9.5984C19.9792 9.65565 20.248 9.97001 20.248 10.3393ZM12.748 12.7568C12.748 12.3426 12.4123 12.0068 11.998 12.0068C11.5838 12.0068 11.248 12.3426 11.248 12.7568V19.5068C11.248 19.921 11.5838 20.2568 11.998 20.2568C12.4123 20.2568 12.748 19.921 12.748 19.5068V12.7568ZM15.748 12.0068C16.1623 12.0068 16.498 12.3426 16.498 12.7568V19.5068C16.498 19.921 16.1623 20.2568 15.748 20.2568C15.3338 20.2568 14.998 19.921 14.998 19.5068V12.7568C14.998 12.3426 15.3338 12.0068 15.748 12.0068ZM8.99805 12.7568C8.99805 12.3426 8.66226 12.0068 8.24805 12.0068C7.83383 12.0068 7.49805 12.3426 7.49805 12.7568V19.5068C7.49805 19.921 7.83383 20.2568 8.24805 20.2568C8.66226 20.2568 8.99805 19.921 8.99805 19.5068V12.7568Z" fill="#868E96"/>
<path d="M11.998 7.88184C12.6194 7.88184 13.123 7.37816 13.123 6.75684C13.123 6.13552 12.6194 5.63184 11.998 5.63184C11.3767 5.63184 10.873 6.13552 10.873 6.75684C10.873 7.37816 11.3767 7.88184 11.998 7.88184Z" fill="#868E96"/>
</svg>
