<svg width="24" height="24" viewBox="0 0 24 24" fill="none" xmlns="http://www.w3.org/2000/svg">
<path fill-rule="evenodd" clip-rule="evenodd" d="M11.5821 2.3828C11.834 2.21485 12.1622 2.21485 12.4142 2.3828L21.4142 8.3828C21.7588 8.61256 21.8519 9.07821 21.6222 9.42286C21.3924 9.76751 20.9267 9.86064 20.5821 9.63087L11.9981 3.90822L3.41415 9.63087C3.06951 9.86064 2.60385 9.76751 2.37409 9.42286C2.14432 9.07821 2.23745 8.61256 2.5821 8.3828L11.5821 2.3828ZM11.2481 6.75684C11.2481 6.34262 11.5839 6.00684 11.9981 6.00684H12.0056C12.4198 6.00684 12.7556 6.34262 12.7556 6.75684V6.76434C12.7556 7.17855 12.4198 7.51434 12.0056 7.51434H11.9981C11.5839 7.51434 11.2481 7.17855 11.2481 6.76434V6.75684ZM5.24813 10.9852V20.2568H7.49813V12.7568C7.49813 12.3426 7.83391 12.0068 8.24813 12.0068C8.66234 12.0068 8.99813 12.3426 8.99813 12.7568V20.2568H11.2481V12.7568C11.2481 12.3426 11.5839 12.0068 11.9981 12.0068C12.4123 12.0068 12.7481 12.3426 12.7481 12.7568V20.2568H14.9981V12.7568C14.9981 12.3426 15.3339 12.0068 15.7481 12.0068C16.1623 12.0068 16.4981 12.3426 16.4981 12.7568V20.2568H18.7481V10.9852C16.5439 10.67 14.2903 10.5068 11.9981 10.5068C9.70596 10.5068 7.45233 10.67 5.24813 10.9852ZM20.2481 20.2568V10.3393C20.2481 9.97001 19.9792 9.65565 19.6144 9.5984C17.1323 9.20895 14.5886 9.00684 11.9981 9.00684C9.40767 9.00684 6.8639 9.20895 4.38187 9.5984C4.017 9.65565 3.74813 9.97001 3.74813 10.3393V20.2568H2.99813C2.58391 20.2568 2.24813 20.5926 2.24813 21.0068C2.24813 21.421 2.58391 21.7568 2.99813 21.7568H20.9981C21.4123 21.7568 21.7481 21.421 21.7481 21.0068C21.7481 20.5926 21.4123 20.2568 20.9981 20.2568H20.2481Z" fill="#868E96"/>
</svg>
