<svg width="24" height="24" viewBox="0 0 24 24" fill="none" xmlns="http://www.w3.org/2000/svg">
<path fill-rule="evenodd" clip-rule="evenodd" d="M3.75 3.00928C3.75 2.59506 4.08579 2.25928 4.5 2.25928H19.5C19.9142 2.25928 20.25 2.59506 20.25 3.00928C20.25 3.42349 19.9142 3.75928 19.5 3.75928V20.2593H20.25C20.6642 20.2593 21 20.5951 21 21.0093C21 21.4235 20.6642 21.7593 20.25 21.7593H3.75C3.33579 21.7593 3 21.4235 3 21.0093C3 20.5951 3.33579 20.2593 3.75 20.2593H4.5V3.75928C4.08579 3.75928 3.75 3.42349 3.75 3.00928ZM6 3.75928V20.2593H8.25V17.6343C8.25 16.5987 9.08947 15.7593 10.125 15.7593H13.875C14.9105 15.7593 15.75 16.5987 15.75 17.6343V20.2593H18V3.75928H6ZM14.25 20.2593V17.6343C14.25 17.4272 14.0821 17.2593 13.875 17.2593H10.125C9.91789 17.2593 9.75 17.4272 9.75 17.6343V20.2593H14.25ZM8.25 6.75928C8.25 6.34506 8.58579 6.00928 9 6.00928H10.5C10.9142 6.00928 11.25 6.34506 11.25 6.75928C11.25 7.17349 10.9142 7.50928 10.5 7.50928H9C8.58579 7.50928 8.25 7.17349 8.25 6.75928ZM12.75 6.75928C12.75 6.34506 13.0858 6.00928 13.5 6.00928H15C15.4142 6.00928 15.75 6.34506 15.75 6.75928C15.75 7.17349 15.4142 7.50928 15 7.50928H13.5C13.0858 7.50928 12.75 7.17349 12.75 6.75928ZM8.25 9.75928C8.25 9.34506 8.58579 9.00928 9 9.00928H10.5C10.9142 9.00928 11.25 9.34506 11.25 9.75928C11.25 10.1735 10.9142 10.5093 10.5 10.5093H9C8.58579 10.5093 8.25 10.1735 8.25 9.75928ZM12.75 9.75928C12.75 9.34506 13.0858 9.00928 13.5 9.00928H15C15.4142 9.00928 15.75 9.34506 15.75 9.75928C15.75 10.1735 15.4142 10.5093 15 10.5093H13.5C13.0858 10.5093 12.75 10.1735 12.75 9.75928ZM8.25 12.7593C8.25 12.3451 8.58579 12.0093 9 12.0093H10.5C10.9142 12.0093 11.25 12.3451 11.25 12.7593C11.25 13.1735 10.9142 13.5093 10.5 13.5093H9C8.58579 13.5093 8.25 13.1735 8.25 12.7593ZM12.75 12.7593C12.75 12.3451 13.0858 12.0093 13.5 12.0093H15C15.4142 12.0093 15.75 12.3451 15.75 12.7593C15.75 13.1735 15.4142 13.5093 15 13.5093H13.5C13.0858 13.5093 12.75 13.1735 12.75 12.7593Z" fill="#868E96"/>
</svg>
