<svg width="24" height="24" viewBox="0 0 24 24" fill="none" xmlns="http://www.w3.org/2000/svg">
<path d="M5.22237 2.25928C4.72509 2.25928 4.24818 2.45682 3.89655 2.80845L2.59737 4.10763C1.13291 5.57209 1.13291 7.94646 2.59737 9.41093C3.93453 10.7481 6.03026 10.8643 7.49931 9.75965C8.12571 10.2299 8.90501 10.5093 9.74902 10.5093C10.5932 10.5093 11.3726 10.2298 11.999 9.75944C12.6255 10.2298 13.4049 10.5093 14.249 10.5093C15.093 10.5093 15.8723 10.2299 16.4987 9.75965C17.9678 10.8643 20.0635 10.7481 21.4007 9.41093C22.8651 7.94646 22.8651 5.57209 21.4007 4.10763L20.1015 2.80846C19.7499 2.45683 19.273 2.25928 18.7757 2.25928L5.22237 2.25928Z" fill="#868E96"/>
<path fill-rule="evenodd" clip-rule="evenodd" d="M2.99902 20.2593V11.5044C4.41923 12.1778 6.07892 12.1774 7.49946 11.5036C8.18167 11.8275 8.94514 12.0093 9.74902 12.0093C10.5531 12.0093 11.3167 11.8275 11.999 11.5034C12.6813 11.8275 13.445 12.0093 14.249 12.0093C15.0529 12.0093 15.8164 11.8275 16.4986 11.5036C17.9191 12.1774 19.5788 12.1778 20.999 11.5044V20.2593H21.749C22.1632 20.2593 22.499 20.5951 22.499 21.0093C22.499 21.4235 22.1632 21.7593 21.749 21.7593H2.24902C1.83481 21.7593 1.49902 21.4235 1.49902 21.0093C1.49902 20.5951 1.83481 20.2593 2.24902 20.2593H2.99902ZM5.99902 14.2593C5.99902 13.8451 6.33481 13.5093 6.74902 13.5093H9.74902C10.1632 13.5093 10.499 13.8451 10.499 14.2593V17.2593C10.499 17.6735 10.1632 18.0093 9.74902 18.0093H6.74902C6.33481 18.0093 5.99902 17.6735 5.99902 17.2593V14.2593ZM14.249 13.5093C13.8348 13.5093 13.499 13.8451 13.499 14.2593V19.5093C13.499 19.9235 13.8348 20.2593 14.249 20.2593H17.249C17.6632 20.2593 17.999 19.9235 17.999 19.5093V14.2593C17.999 13.8451 17.6632 13.5093 17.249 13.5093H14.249Z" fill="#868E96"/>
</svg>
