<svg width="24" height="24" viewBox="0 0 24 24" fill="none" xmlns="http://www.w3.org/2000/svg">
<path d="M14.998 1.79346L14.2026 2.58896C13.7632 3.0283 13.7632 3.74061 14.2026 4.17995C14.6419 4.61929 15.3542 4.61929 15.7935 4.17995C16.2329 3.74061 16.2329 3.0283 15.7935 2.58896L14.998 1.79346Z" fill="#868E96"/>
<path d="M11.998 1.79346L11.2026 2.58896C10.7632 3.0283 10.7632 3.74061 11.2026 4.17995C11.6419 4.61929 12.3542 4.61929 12.7935 4.17995C13.2329 3.74061 13.2329 3.0283 12.7935 2.58896L11.998 1.79346Z" fill="#868E96"/>
<path d="M8.99804 1.79346L8.20255 2.58896C7.76321 3.0283 7.76321 3.74061 8.20255 4.17995C8.64189 4.61929 9.3542 4.61929 9.79354 4.17995C10.2329 3.74061 10.2329 3.0283 9.79354 2.58896L8.99804 1.79346Z" fill="#868E96"/>
<path d="M9.74805 7.55615C10.2463 7.53543 10.7464 7.52156 11.248 7.51464V6.75946C11.248 6.34525 11.5838 6.00946 11.998 6.00946C12.4123 6.00946 12.748 6.34525 12.748 6.75946V7.51464C13.2497 7.52156 13.7498 7.53543 14.248 7.55615V6.75946C14.248 6.34525 14.5838 6.00946 14.998 6.00946C15.4123 6.00946 15.748 6.34525 15.748 6.75946V7.63949C15.8504 7.64661 15.9527 7.65402 16.0549 7.66172C17.6051 7.77853 18.748 9.08878 18.748 10.6071V11.6257C16.5313 11.3837 14.2792 11.2595 11.998 11.2595C9.71691 11.2595 7.46478 11.3837 5.24805 11.6257V10.6071C5.24805 9.08878 6.39099 7.77853 7.94118 7.66172C8.04339 7.65402 8.14568 7.64661 8.24805 7.63949V6.75946C8.24805 6.34525 8.58383 6.00946 8.99805 6.00946C9.41226 6.00946 9.74805 6.34525 9.74805 6.75946V7.55615Z" fill="#868E96"/>
<path d="M11.998 12.7595C9.52652 12.7595 7.09748 12.9434 4.724 13.2986C3.26995 13.5161 2.24805 14.7811 2.24805 16.2151V16.5994C3.11657 16.4381 4.02508 16.5595 4.83346 16.9636C5.56658 17.3302 6.42951 17.3302 7.16264 16.9636C8.31805 16.3859 9.67804 16.3859 10.8335 16.9636C11.5666 17.3302 12.4295 17.3302 13.1626 16.9636C14.3181 16.3859 15.678 16.3859 16.8335 16.9636C17.5666 17.3302 18.4295 17.3302 19.1626 16.9636C19.971 16.5595 20.8795 16.4381 21.748 16.5994V16.2151C21.748 14.7811 20.7261 13.5161 19.2721 13.2986C16.8986 12.9434 14.4696 12.7595 11.998 12.7595Z" fill="#868E96"/>
<path d="M21.748 18.1407C21.1176 17.951 20.4322 18.0059 19.8335 18.3053C18.678 18.883 17.3181 18.883 16.1626 18.3053C15.4295 17.9387 14.5666 17.9387 13.8335 18.3053C12.678 18.883 11.3181 18.883 10.1626 18.3053C9.42951 17.9387 8.56658 17.9387 7.83346 18.3053C6.67804 18.883 5.31805 18.883 4.16264 18.3053C3.56388 18.0059 2.87854 17.951 2.24805 18.1407V20.6345C2.24805 21.67 3.08751 22.5095 4.12305 22.5095H19.873C20.9086 22.5095 21.748 21.67 21.748 20.6345V18.1407Z" fill="#868E96"/>
</svg>
