<svg width="24" height="25" viewBox="0 0 24 25" fill="none" xmlns="http://www.w3.org/2000/svg">
<path d="M12.75 12.7617C12.75 13.1759 12.4142 13.5117 12 13.5117C11.5858 13.5117 11.25 13.1759 11.25 12.7617C11.25 12.3475 11.5858 12.0117 12 12.0117C12.4142 12.0117 12.75 12.3475 12.75 12.7617Z" fill="#868E96"/>
<path d="M7.5 15.7617C7.91421 15.7617 8.25 15.4259 8.25 15.0117C8.25 14.5975 7.91421 14.2617 7.5 14.2617C7.08579 14.2617 6.75 14.5975 6.75 15.0117C6.75 15.4259 7.08579 15.7617 7.5 15.7617Z" fill="#868E96"/>
<path d="M8.25 17.2617C8.25 17.6759 7.91421 18.0117 7.5 18.0117C7.08579 18.0117 6.75 17.6759 6.75 17.2617C6.75 16.8475 7.08579 16.5117 7.5 16.5117C7.91421 16.5117 8.25 16.8475 8.25 17.2617Z" fill="#868E96"/>
<path d="M9.75 15.7617C10.1642 15.7617 10.5 15.4259 10.5 15.0117C10.5 14.5975 10.1642 14.2617 9.75 14.2617C9.33579 14.2617 9 14.5975 9 15.0117C9 15.4259 9.33579 15.7617 9.75 15.7617Z" fill="#868E96"/>
<path d="M10.5 17.2617C10.5 17.6759 10.1642 18.0117 9.75 18.0117C9.33579 18.0117 9 17.6759 9 17.2617C9 16.8475 9.33579 16.5117 9.75 16.5117C10.1642 16.5117 10.5 16.8475 10.5 17.2617Z" fill="#868E96"/>
<path d="M12 15.7617C12.4142 15.7617 12.75 15.4259 12.75 15.0117C12.75 14.5975 12.4142 14.2617 12 14.2617C11.5858 14.2617 11.25 14.5975 11.25 15.0117C11.25 15.4259 11.5858 15.7617 12 15.7617Z" fill="#868E96"/>
<path d="M12.75 17.2617C12.75 17.6759 12.4142 18.0117 12 18.0117C11.5858 18.0117 11.25 17.6759 11.25 17.2617C11.25 16.8475 11.5858 16.5117 12 16.5117C12.4142 16.5117 12.75 16.8475 12.75 17.2617Z" fill="#868E96"/>
<path d="M14.25 15.7617C14.6642 15.7617 15 15.4259 15 15.0117C15 14.5975 14.6642 14.2617 14.25 14.2617C13.8358 14.2617 13.5 14.5975 13.5 15.0117C13.5 15.4259 13.8358 15.7617 14.25 15.7617Z" fill="#868E96"/>
<path d="M15 17.2617C15 17.6759 14.6642 18.0117 14.25 18.0117C13.8358 18.0117 13.5 17.6759 13.5 17.2617C13.5 16.8475 13.8358 16.5117 14.25 16.5117C14.6642 16.5117 15 16.8475 15 17.2617Z" fill="#868E96"/>
<path d="M16.5 15.7617C16.9142 15.7617 17.25 15.4259 17.25 15.0117C17.25 14.5975 16.9142 14.2617 16.5 14.2617C16.0858 14.2617 15.75 14.5975 15.75 15.0117C15.75 15.4259 16.0858 15.7617 16.5 15.7617Z" fill="#868E96"/>
<path d="M15 12.7617C15 13.1759 14.6642 13.5117 14.25 13.5117C13.8358 13.5117 13.5 13.1759 13.5 12.7617C13.5 12.3475 13.8358 12.0117 14.25 12.0117C14.6642 12.0117 15 12.3475 15 12.7617Z" fill="#868E96"/>
<path d="M16.5 13.5117C16.9142 13.5117 17.25 13.1759 17.25 12.7617C17.25 12.3475 16.9142 12.0117 16.5 12.0117C16.0858 12.0117 15.75 12.3475 15.75 12.7617C15.75 13.1759 16.0858 13.5117 16.5 13.5117Z" fill="#868E96"/>
<path fill-rule="evenodd" clip-rule="evenodd" d="M6.75 2.26172C7.16421 2.26172 7.5 2.59751 7.5 3.01172V4.51172H16.5V3.01172C16.5 2.59751 16.8358 2.26172 17.25 2.26172C17.6642 2.26172 18 2.59751 18 3.01172V4.51172H18.75C20.4069 4.51172 21.75 5.85486 21.75 7.51172V18.7617C21.75 20.4186 20.4069 21.7617 18.75 21.7617H5.25C3.59315 21.7617 2.25 20.4186 2.25 18.7617V7.51172C2.25 5.85486 3.59315 4.51172 5.25 4.51172H6V3.01172C6 2.59751 6.33579 2.26172 6.75 2.26172ZM20.25 11.2617C20.25 10.4333 19.5784 9.76172 18.75 9.76172H5.25C4.42157 9.76172 3.75 10.4333 3.75 11.2617V18.7617C3.75 19.5901 4.42157 20.2617 5.25 20.2617H18.75C19.5784 20.2617 20.25 19.5901 20.25 18.7617V11.2617Z" fill="#868E96"/>
</svg>
