<svg width="24" height="25" viewBox="0 0 24 25" fill="none" xmlns="http://www.w3.org/2000/svg">
<path fill-rule="evenodd" clip-rule="evenodd" d="M6.75 2.26172C7.16421 2.26172 7.5 2.59751 7.5 3.01172V4.51172H16.5V3.01172C16.5 2.59751 16.8358 2.26172 17.25 2.26172C17.6642 2.26172 18 2.59751 18 3.01172V4.51172H18.75C20.4069 4.51172 21.75 5.85486 21.75 7.51172V18.7617C21.75 20.4186 20.4069 21.7617 18.75 21.7617H5.25C3.59315 21.7617 2.25 20.4186 2.25 18.7617V7.51172C2.25 5.85486 3.59315 4.51172 5.25 4.51172H6V3.01172C6 2.59751 6.33579 2.26172 6.75 2.26172ZM5.25 6.01172C4.42157 6.01172 3.75 6.68329 3.75 7.51172V8.66307C4.19126 8.40781 4.70357 8.26172 5.25 8.26172H18.75C19.2964 8.26172 19.8087 8.40781 20.25 8.66307V7.51172C20.25 6.68329 19.5784 6.01172 18.75 6.01172H5.25ZM20.25 11.2617C20.25 10.4333 19.5784 9.76172 18.75 9.76172H5.25C4.42157 9.76172 3.75 10.4333 3.75 11.2617V18.7617C3.75 19.5901 4.42157 20.2617 5.25 20.2617H18.75C19.5784 20.2617 20.25 19.5901 20.25 18.7617V11.2617Z" fill="#868E96"/>
</svg>
