<svg width="24" height="25" viewBox="0 0 24 25" fill="none" xmlns="http://www.w3.org/2000/svg">
<path fill-rule="evenodd" clip-rule="evenodd" d="M6.75 2.26172C7.16421 2.26172 7.5 2.59751 7.5 3.01172V4.51172H16.5V3.01172C16.5 2.59751 16.8358 2.26172 17.25 2.26172C17.6642 2.26172 18 2.59751 18 3.01172V4.51172H18.75C20.4069 4.51172 21.75 5.85486 21.75 7.51172V18.7617C21.75 20.4186 20.4069 21.7617 18.75 21.7617H5.25C3.59315 21.7617 2.25 20.4186 2.25 18.7617V7.51172C2.25 5.85486 3.59315 4.51172 5.25 4.51172H6V3.01172C6 2.59751 6.33579 2.26172 6.75 2.26172ZM5.25 6.01172C4.42157 6.01172 3.75 6.68329 3.75 7.51172V8.66307C4.19126 8.40781 4.70357 8.26172 5.25 8.26172H18.75C19.2964 8.26172 19.8087 8.40781 20.25 8.66307V7.51172C20.25 6.68329 19.5784 6.01172 18.75 6.01172H5.25ZM20.25 11.2617C20.25 10.4333 19.5784 9.76172 18.75 9.76172H5.25C4.42157 9.76172 3.75 10.4333 3.75 11.2617V18.7617C3.75 19.5901 4.42157 20.2617 5.25 20.2617H18.75C19.5784 20.2617 20.25 19.5901 20.25 18.7617V11.2617ZM11.25 12.7617C11.25 12.3475 11.5858 12.0117 12 12.0117H12.0075C12.4217 12.0117 12.7575 12.3475 12.7575 12.7617V12.7692C12.7575 13.1834 12.4217 13.5192 12.0075 13.5192H12C11.5858 13.5192 11.25 13.1834 11.25 12.7692V12.7617ZM13.5 12.7617C13.5 12.3475 13.8358 12.0117 14.25 12.0117H14.2575C14.6717 12.0117 15.0075 12.3475 15.0075 12.7617V12.7692C15.0075 13.1834 14.6717 13.5192 14.2575 13.5192H14.25C13.8358 13.5192 13.5 13.1834 13.5 12.7692V12.7617ZM15.75 12.7617C15.75 12.3475 16.0858 12.0117 16.5 12.0117H16.5075C16.9217 12.0117 17.2575 12.3475 17.2575 12.7617V12.7692C17.2575 13.1834 16.9217 13.5192 16.5075 13.5192H16.5C16.0858 13.5192 15.75 13.1834 15.75 12.7692V12.7617ZM6.75 15.0117C6.75 14.5975 7.08579 14.2617 7.5 14.2617H7.5075C7.92171 14.2617 8.2575 14.5975 8.2575 15.0117V15.0192C8.2575 15.4334 7.92171 15.7692 7.5075 15.7692H7.5C7.08579 15.7692 6.75 15.4334 6.75 15.0192V15.0117ZM9 15.0117C9 14.5975 9.33579 14.2617 9.75 14.2617H9.7575C10.1717 14.2617 10.5075 14.5975 10.5075 15.0117V15.0192C10.5075 15.4334 10.1717 15.7692 9.7575 15.7692H9.75C9.33579 15.7692 9 15.4334 9 15.0192V15.0117ZM11.25 15.0117C11.25 14.5975 11.5858 14.2617 12 14.2617H12.0075C12.4217 14.2617 12.7575 14.5975 12.7575 15.0117V15.0192C12.7575 15.4334 12.4217 15.7692 12.0075 15.7692H12C11.5858 15.7692 11.25 15.4334 11.25 15.0192V15.0117ZM13.5 15.0117C13.5 14.5975 13.8358 14.2617 14.25 14.2617H14.2575C14.6717 14.2617 15.0075 14.5975 15.0075 15.0117V15.0192C15.0075 15.4334 14.6717 15.7692 14.2575 15.7692H14.25C13.8358 15.7692 13.5 15.4334 13.5 15.0192V15.0117ZM15.75 15.0117C15.75 14.5975 16.0858 14.2617 16.5 14.2617H16.5075C16.9217 14.2617 17.2575 14.5975 17.2575 15.0117V15.0192C17.2575 15.4334 16.9217 15.7692 16.5075 15.7692H16.5C16.0858 15.7692 15.75 15.4334 15.75 15.0192V15.0117ZM6.75 17.2617C6.75 16.8475 7.08579 16.5117 7.5 16.5117H7.5075C7.92171 16.5117 8.2575 16.8475 8.2575 17.2617V17.2692C8.2575 17.6834 7.92171 18.0192 7.5075 18.0192H7.5C7.08579 18.0192 6.75 17.6834 6.75 17.2692V17.2617ZM9 17.2617C9 16.8475 9.33579 16.5117 9.75 16.5117H9.7575C10.1717 16.5117 10.5075 16.8475 10.5075 17.2617V17.2692C10.5075 17.6834 10.1717 18.0192 9.7575 18.0192H9.75C9.33579 18.0192 9 17.6834 9 17.2692V17.2617ZM11.25 17.2617C11.25 16.8475 11.5858 16.5117 12 16.5117H12.0075C12.4217 16.5117 12.7575 16.8475 12.7575 17.2617V17.2692C12.7575 17.6834 12.4217 18.0192 12.0075 18.0192H12C11.5858 18.0192 11.25 17.6834 11.25 17.2692V17.2617ZM13.5 17.2617C13.5 16.8475 13.8358 16.5117 14.25 16.5117H14.2575C14.6717 16.5117 15.0075 16.8475 15.0075 17.2617V17.2692C15.0075 17.6834 14.6717 18.0192 14.2575 18.0192H14.25C13.8358 18.0192 13.5 17.6834 13.5 17.2692V17.2617Z" fill="#868E96"/>
</svg>
