<svg width="24" height="25" viewBox="0 0 24 25" fill="none" xmlns="http://www.w3.org/2000/svg">
<path d="M18.375 2.26172C17.3395 2.26172 16.5 3.10118 16.5 4.13672V19.8867C16.5 20.9223 17.3395 21.7617 18.375 21.7617H19.125C20.1605 21.7617 21 20.9223 21 19.8867V4.13672C21 3.10118 20.1605 2.26172 19.125 2.26172H18.375Z" fill="#868E96"/>
<path d="M9.75 8.63672C9.75 7.60118 10.5895 6.76172 11.625 6.76172H12.375C13.4105 6.76172 14.25 7.60118 14.25 8.63672V19.8867C14.25 20.9223 13.4105 21.7617 12.375 21.7617H11.625C10.5895 21.7617 9.75 20.9223 9.75 19.8867V8.63672Z" fill="#868E96"/>
<path d="M3 13.1367C3 12.1012 3.83947 11.2617 4.875 11.2617H5.625C6.66053 11.2617 7.5 12.1012 7.5 13.1367V19.8867C7.5 20.9223 6.66053 21.7617 5.625 21.7617H4.875C3.83947 21.7617 3 20.9223 3 19.8867V13.1367Z" fill="#868E96"/>
</svg>
