<svg width="24" height="25" viewBox="0 0 24 25" fill="none" xmlns="http://www.w3.org/2000/svg">
<path fill-rule="evenodd" clip-rule="evenodd" d="M12.75 3.01172C12.75 2.59751 13.0858 2.26172 13.5 2.26172C18.0563 2.26172 21.75 5.95537 21.75 10.5117C21.75 10.9259 21.4142 11.2617 21 11.2617H13.5C13.0858 11.2617 12.75 10.9259 12.75 10.5117V3.01172ZM14.25 3.80292V9.76172H20.2088C19.8629 6.63301 17.3787 4.14878 14.25 3.80292ZM9.75 6.80292C6.37504 7.176 3.75 10.0373 3.75 13.5117C3.75 17.2396 6.77208 20.2617 10.5 20.2617C13.9744 20.2617 16.8357 17.6367 17.2088 14.2617H10.5C10.0858 14.2617 9.75 13.9259 9.75 13.5117V6.80292ZM2.25 13.5117C2.25 8.95537 5.94365 5.26172 10.5 5.26172C10.9142 5.26172 11.25 5.59751 11.25 6.01172V12.7617H18C18.4142 12.7617 18.75 13.0975 18.75 13.5117C18.75 18.0681 15.0563 21.7617 10.5 21.7617C5.94365 21.7617 2.25 18.0681 2.25 13.5117Z" fill="#868E96"/>
</svg>
