<svg width="24" height="25" viewBox="0 0 24 25" fill="none" xmlns="http://www.w3.org/2000/svg">
<path fill-rule="evenodd" clip-rule="evenodd" d="M4.84739 2.78272C7.18205 2.43945 9.57015 2.26172 11.9993 2.26172C14.4283 2.26172 16.8161 2.43942 19.1506 2.78263C21.129 3.07349 22.499 4.80617 22.499 6.75228V12.7712C22.499 14.7173 21.1289 16.45 19.1506 16.7408C18.0044 16.9093 16.8454 17.0379 15.6749 17.1252C15.5505 17.1345 15.4421 17.1992 15.3781 17.2952L12.6231 21.4277C12.484 21.6364 12.2498 21.7617 11.999 21.7617C11.7483 21.7617 11.5141 21.6364 11.375 21.4277L8.61995 17.2952C8.55592 17.1991 8.44755 17.1344 8.3231 17.1251C7.15261 17.0379 5.99354 16.9092 4.84738 16.7407C2.86906 16.4498 1.49902 14.7172 1.49902 12.7711V6.75236C1.49902 4.80627 2.86907 3.0736 4.84739 2.78272ZM11.9993 3.76172C9.64341 3.76172 7.32823 3.93408 5.06559 4.26677C3.87581 4.4417 2.99902 5.49629 2.99902 6.75236V12.7711C2.99902 14.0271 3.87581 15.0817 5.06559 15.2567C6.17643 15.42 7.29992 15.5447 8.43465 15.6293C9.01059 15.6723 9.54247 15.9748 9.86802 16.4631L11.999 19.6596L14.13 16.4632C14.4555 15.9749 14.9874 15.6723 15.5634 15.6294C16.6981 15.5448 17.8216 15.4201 18.9324 15.2568C20.1222 15.0819 20.999 14.0273 20.999 12.7712V6.75228C20.999 5.49619 20.1222 4.4416 18.9324 4.26668C16.67 3.93405 14.355 3.76172 11.9993 3.76172ZM6.74902 8.26172C6.74902 7.84751 7.08481 7.51172 7.49902 7.51172H16.499C16.9132 7.51172 17.249 7.84751 17.249 8.26172C17.249 8.67593 16.9132 9.01172 16.499 9.01172H7.49902C7.08481 9.01172 6.74902 8.67593 6.74902 8.26172ZM6.74902 11.2617C6.74902 10.8475 7.08481 10.5117 7.49902 10.5117H11.999C12.4132 10.5117 12.749 10.8475 12.749 11.2617C12.749 11.6759 12.4132 12.0117 11.999 12.0117H7.49902C7.08481 12.0117 6.74902 11.6759 6.74902 11.2617Z" fill="#868E96"/>
</svg>
