<svg width="24" height="25" viewBox="0 0 24 25" fill="none" xmlns="http://www.w3.org/2000/svg">
<path fill-rule="evenodd" clip-rule="evenodd" d="M5.33691 21.7315C5.15732 21.714 4.9793 21.6894 4.80365 21.6579C4.5396 21.6107 4.3209 21.426 4.23008 21.1736C4.13927 20.9212 4.19016 20.6395 4.36357 20.4348C4.76687 19.9588 5.05254 19.3821 5.17822 18.7485C5.20107 18.6333 5.15571 18.4318 4.92371 18.206C3.2746 16.6008 2.25 14.4222 2.25 12.0137C2.25 6.98301 6.67799 3.01367 12 3.01367C17.322 3.01367 21.75 6.98301 21.75 12.0137C21.75 17.0443 17.322 21.0137 12 21.0137C11.1668 21.0137 10.3569 20.9171 9.58317 20.735C8.54447 21.3867 7.3153 21.7637 6 21.7637C5.77647 21.7637 5.55516 21.7528 5.33691 21.7315Z" fill="#868E96"/>
</svg>
