<svg width="24" height="25" viewBox="0 0 24 25" fill="none" xmlns="http://www.w3.org/2000/svg">
<path fill-rule="evenodd" clip-rule="evenodd" d="M4.80365 21.6579C4.9793 21.6894 5.15732 21.714 5.33691 21.7315C5.55516 21.7528 5.77647 21.7637 6 21.7637C7.3153 21.7637 8.54447 21.3867 9.58317 20.735C10.3569 20.9171 11.1668 21.0137 12 21.0137C17.322 21.0137 21.75 17.0443 21.75 12.0137C21.75 6.98301 17.322 3.01367 12 3.01367C6.67799 3.01367 2.25 6.98301 2.25 12.0137C2.25 14.4222 3.2746 16.6008 4.92371 18.206C5.15571 18.4318 5.20107 18.6333 5.17822 18.7485C5.05254 19.3821 4.76687 19.9588 4.36357 20.4348C4.19016 20.6395 4.13927 20.9212 4.23008 21.1736C4.3209 21.426 4.5396 21.6107 4.80365 21.6579ZM8.25 10.8887C7.62868 10.8887 7.125 11.3924 7.125 12.0137C7.125 12.635 7.62868 13.1387 8.25 13.1387C8.87132 13.1387 9.375 12.635 9.375 12.0137C9.375 11.3924 8.87132 10.8887 8.25 10.8887ZM10.875 12.0137C10.875 11.3924 11.3787 10.8887 12 10.8887C12.6213 10.8887 13.125 11.3924 13.125 12.0137C13.125 12.635 12.6213 13.1387 12 13.1387C11.3787 13.1387 10.875 12.635 10.875 12.0137ZM15.75 10.8887C15.1287 10.8887 14.625 11.3924 14.625 12.0137C14.625 12.635 15.1287 13.1387 15.75 13.1387C16.3713 13.1387 16.875 12.635 16.875 12.0137C16.875 11.3924 16.3713 10.8887 15.75 10.8887Z" fill="#868E96"/>
</svg>
