<svg width="24" height="25" viewBox="0 0 24 25" fill="none" xmlns="http://www.w3.org/2000/svg">
<path fill-rule="evenodd" clip-rule="evenodd" d="M4.91307 2.6719C6.9877 2.40255 9.10296 2.26367 11.2503 2.26367C13.3974 2.26367 15.5124 2.40252 17.5869 2.67182C19.5953 2.93255 21 4.6803 21 6.65098V8.03724C21.9113 8.54689 22.5 9.53057 22.5 10.6219V14.9075C22.5 16.4152 21.372 17.7221 19.8307 17.8479C19.7206 17.8569 19.6103 17.8655 19.5 17.8738V20.2637C19.5 20.567 19.3173 20.8405 19.037 20.9566C18.7568 21.0727 18.4342 21.0085 18.2197 20.794L15.4384 18.0127C14.17 18.0049 12.9131 17.9493 11.6692 17.8478C11.4677 17.8314 11.2724 17.7944 11.0853 17.739L7.28033 21.544C7.06583 21.7585 6.74324 21.8227 6.46299 21.7066C6.18273 21.5905 6 21.317 6 21.0137V16.9842C5.63649 16.9453 5.27417 16.9023 4.91308 16.8555C2.90466 16.5947 1.5 14.847 1.5 12.8763V6.65105C1.5 4.68039 2.90466 2.93266 4.91307 2.6719ZM9.78068 16.9223C9.29126 16.3891 9 15.6756 9 14.9074V10.6219C9 9.11649 10.1248 7.81027 11.6641 7.68251C13.0114 7.57069 14.3741 7.51367 15.75 7.51367C17.0116 7.51367 18.2622 7.56161 19.5 7.6558V6.65098C19.5 5.37883 18.6012 4.31608 17.3938 4.15934C15.3832 3.89833 13.3327 3.76367 11.2503 3.76367C9.16771 3.76367 7.11695 3.89836 5.1062 4.15942C3.8988 4.31618 3 5.37891 3 6.65105V12.8763C3 14.1485 3.8988 15.2112 5.1062 15.3679C5.67416 15.4417 6.2453 15.5053 6.81944 15.5587C7.20508 15.5946 7.5 15.9182 7.5 16.3055V19.203L9.78068 16.9223ZM15.75 9.01367C14.4156 9.01367 13.0942 9.06897 11.7881 9.17737C11.0652 9.23737 10.5 9.85732 10.5 10.6219V14.9074C10.5 15.4685 10.8079 15.9571 11.2577 16.1969C11.4175 16.282 11.5969 16.3369 11.7912 16.3528C13.0963 16.4593 14.4166 16.5137 15.75 16.5137C15.9489 16.5137 16.1397 16.5927 16.2803 16.7333L18 18.453V17.1729C18 16.7764 18.3087 16.4483 18.7046 16.4243C19.0403 16.4039 19.375 16.3801 19.7087 16.3529C20.4332 16.2937 21 15.673 21 14.9075V10.6219C21 9.97105 20.5872 9.42106 20.0203 9.23866C19.923 9.20735 19.8199 9.18635 19.7119 9.17738C18.4058 9.06897 17.0844 9.01367 15.75 9.01367Z" fill="#868E96"/>
</svg>
