<svg width="24" height="25" viewBox="0 0 24 25" fill="none" xmlns="http://www.w3.org/2000/svg">
<path fill-rule="evenodd" clip-rule="evenodd" d="M12 4.51367C7.38089 4.51367 3.75 7.93163 3.75 12.0137C3.75 13.9823 4.58481 15.7829 5.96997 17.1312C6.4057 17.5553 6.808 18.2416 6.64955 19.0404C6.56488 19.4673 6.42854 19.8754 6.24738 20.258C7.27513 20.2104 8.22415 19.8678 9.01402 19.3129C9.19635 19.1848 9.42619 19.1444 9.64126 19.2026C10.3875 19.4048 11.179 19.5137 12 19.5137C16.6191 19.5137 20.25 16.0957 20.25 12.0137C20.25 7.93163 16.6191 4.51367 12 4.51367ZM5.33678 21.7315C5.15724 21.714 4.97926 21.6893 4.80365 21.6579C4.5396 21.6107 4.3209 21.426 4.23008 21.1736C4.13927 20.9212 4.19016 20.6395 4.36357 20.4348C4.76687 19.9588 5.05254 19.3821 5.17822 18.7485C5.20107 18.6333 5.15571 18.4318 4.92371 18.206C3.2746 16.6008 2.25 14.4222 2.25 12.0137C2.25 6.98301 6.67799 3.01367 12 3.01367C17.322 3.01367 21.75 6.98301 21.75 12.0137C21.75 17.0443 17.322 21.0137 12 21.0137C11.1668 21.0137 10.3569 20.9171 9.58316 20.735C8.54446 21.3867 7.3153 21.7637 6 21.7637C5.77643 21.7637 5.55508 21.7528 5.33678 21.7315ZM7.125 12.0137C7.125 11.3924 7.62868 10.8887 8.25 10.8887C8.87132 10.8887 9.375 11.3924 9.375 12.0137C9.375 12.635 8.87132 13.1387 8.25 13.1387C7.62868 13.1387 7.125 12.635 7.125 12.0137ZM10.875 12.0137C10.875 11.3924 11.3787 10.8887 12 10.8887C12.6213 10.8887 13.125 11.3924 13.125 12.0137C13.125 12.635 12.6213 13.1387 12 13.1387C11.3787 13.1387 10.875 12.635 10.875 12.0137ZM14.625 12.0137C14.625 11.3924 15.1287 10.8887 15.75 10.8887C16.3713 10.8887 16.875 11.3924 16.875 12.0137C16.875 12.635 16.3713 13.1387 15.75 13.1387C15.1287 13.1387 14.625 12.635 14.625 12.0137Z" fill="#868E96"/>
</svg>
