<svg width="24" height="25" viewBox="0 0 24 25" fill="none" xmlns="http://www.w3.org/2000/svg">
<path d="M4.91307 2.6719C6.9877 2.40255 9.10296 2.26367 11.2503 2.26367C13.3974 2.26367 15.5124 2.40252 17.5869 2.67182C19.5091 2.92136 20.8783 4.53304 20.9923 6.39862C20.6665 6.28981 20.3212 6.21764 19.96 6.18766C18.5715 6.07241 17.1673 6.01367 15.75 6.01367C14.3326 6.01367 12.9285 6.07241 11.54 6.18765C9.1817 6.38338 7.5 8.37834 7.5 10.6219V14.9074C7.5 16.598 8.45468 18.1463 9.9328 18.8915L7.28033 21.544C7.06583 21.7585 6.74324 21.8227 6.46299 21.7066C6.18273 21.5905 6 21.317 6 21.0137V16.9842C5.63649 16.9453 5.27417 16.9023 4.91308 16.8555C2.90466 16.5947 1.5 14.847 1.5 12.8763V6.65105C1.5 4.68039 2.90466 2.93266 4.91307 2.6719Z" fill="#868E96"/>
<path d="M15.75 7.51367C14.3741 7.51367 13.0114 7.57069 11.6641 7.68251C10.1248 7.81027 9 9.11649 9 10.6219V14.9074C9 16.415 10.128 17.722 11.6692 17.8478C12.9131 17.9493 14.17 18.0049 15.4384 18.0127L18.2197 20.794C18.4342 21.0085 18.7568 21.0727 19.037 20.9566C19.3173 20.8405 19.5 20.567 19.5 20.2637V17.8738C19.6103 17.8655 19.7206 17.8569 19.8307 17.8479C21.372 17.7221 22.5 16.4152 22.5 14.9075V10.6219C22.5 9.1165 21.3752 7.81028 19.836 7.68252C18.4886 7.57069 17.1259 7.51367 15.75 7.51367Z" fill="#868E96"/>
</svg>
