<svg width="24" height="25" viewBox="0 0 24 25" fill="none" xmlns="http://www.w3.org/2000/svg">
<path fill-rule="evenodd" clip-rule="evenodd" d="M4.84836 2.78467C7.18302 2.4414 9.57113 2.26367 12.0003 2.26367C14.4292 2.26367 16.8171 2.44137 19.1516 2.78458C21.1299 3.07544 22.5 4.80812 22.5 6.75423V12.7731C22.5 14.7192 21.1299 16.4519 19.1516 16.7428C17.2123 17.0279 15.2361 17.1988 13.2302 17.2485C13.1266 17.251 13.0318 17.2925 12.9638 17.3605L8.78033 21.544C8.56583 21.7585 8.24324 21.8227 7.96299 21.7066C7.68273 21.5905 7.5 21.317 7.5 21.0137V17.0587C6.60901 16.9771 5.72491 16.8715 4.84836 16.7427C2.87004 16.4518 1.5 14.7191 1.5 12.773V6.75431C1.5 4.80822 2.87004 3.07556 4.84836 2.78467ZM12.0003 3.76367C9.64439 3.76367 7.32921 3.93603 5.06657 4.26872C3.87679 4.44366 3 5.49824 3 6.75431V12.773C3 14.0291 3.87679 15.0837 5.06656 15.2586C6.13567 15.4158 7.2165 15.5372 8.30779 15.6215C8.69842 15.6517 9 15.9775 9 16.3693V19.203L11.9032 16.2999C12.2486 15.9544 12.7121 15.7608 13.193 15.7489C15.1382 15.7007 17.0539 15.535 18.9334 15.2587C20.1232 15.0838 21 14.0292 21 12.7731V6.75423C21 5.49815 20.1232 4.44356 18.9334 4.26863C16.6709 3.936 14.356 3.76367 12.0003 3.76367ZM7.125 9.76367C7.125 9.14235 7.62868 8.63867 8.25 8.63867C8.87132 8.63867 9.375 9.14235 9.375 9.76367C9.375 10.385 8.87132 10.8887 8.25 10.8887C7.62868 10.8887 7.125 10.385 7.125 9.76367ZM10.875 9.76367C10.875 9.14235 11.3787 8.63867 12 8.63867C12.6213 8.63867 13.125 9.14235 13.125 9.76367C13.125 10.385 12.6213 10.8887 12 10.8887C11.3787 10.8887 10.875 10.385 10.875 9.76367ZM14.625 9.76367C14.625 9.14235 15.1287 8.63867 15.75 8.63867C16.3713 8.63867 16.875 9.14235 16.875 9.76367C16.875 10.385 16.3713 10.8887 15.75 10.8887C15.1287 10.8887 14.625 10.385 14.625 9.76367Z" fill="#868E96"/>
</svg>
