<svg width="24" height="25" viewBox="0 0 24 25" fill="none" xmlns="http://www.w3.org/2000/svg">
<path fill-rule="evenodd" clip-rule="evenodd" d="M12.0003 2.26367C9.57113 2.26367 7.18302 2.4414 4.84836 2.78467C2.87004 3.07556 1.5 4.80822 1.5 6.75431V12.773C1.5 14.7191 2.87004 16.4518 4.84836 16.7427C5.72491 16.8715 6.60901 16.9771 7.5 17.0587V21.0137C7.5 21.317 7.68273 21.5905 7.96299 21.7066C8.24324 21.8227 8.56583 21.7585 8.78033 21.544L12.9638 17.3605C13.0318 17.2925 13.1266 17.251 13.2302 17.2485C15.2361 17.1988 17.2123 17.0279 19.1516 16.7428C21.1299 16.4519 22.5 14.7192 22.5 12.7731V6.75423C22.5 4.80812 21.1299 3.07544 19.1516 2.78458C16.8171 2.44137 14.4292 2.26367 12.0003 2.26367ZM8.25 8.63867C7.62868 8.63867 7.125 9.14235 7.125 9.76367C7.125 10.385 7.62868 10.8887 8.25 10.8887C8.87132 10.8887 9.375 10.385 9.375 9.76367C9.375 9.14235 8.87132 8.63867 8.25 8.63867ZM10.875 9.76367C10.875 9.14235 11.3787 8.63867 12 8.63867C12.6213 8.63867 13.125 9.14235 13.125 9.76367C13.125 10.385 12.6213 10.8887 12 10.8887C11.3787 10.8887 10.875 10.385 10.875 9.76367ZM15.75 8.63867C15.1287 8.63867 14.625 9.14235 14.625 9.76367C14.625 10.385 15.1287 10.8887 15.75 10.8887C16.3713 10.8887 16.875 10.385 16.875 9.76367C16.875 9.14235 16.3713 8.63867 15.75 8.63867Z" fill="#868E96"/>
</svg>
