<svg width="24" height="25" viewBox="0 0 24 25" fill="none" xmlns="http://www.w3.org/2000/svg">
<path fill-rule="evenodd" clip-rule="evenodd" d="M11.9993 3.76172C9.64341 3.76172 7.32823 3.93408 5.06559 4.26677C3.87581 4.4417 2.99902 5.49629 2.99902 6.75236V12.7711C2.99902 14.0271 3.87581 15.0817 5.06559 15.2567C6.1169 15.4112 7.17953 15.5312 8.25231 15.6154C8.9422 15.6695 9.58029 16.0315 9.97107 16.6177L11.999 19.6596L14.0269 16.6178C14.4177 16.0316 15.0558 15.6695 15.7457 15.6154C16.8185 15.5313 17.8811 15.4113 18.9324 15.2568C20.1222 15.0819 20.999 14.0273 20.999 12.7712V6.75228C20.999 5.49619 20.1222 4.4416 18.9324 4.26668C16.67 3.93405 14.355 3.76172 11.9993 3.76172ZM4.84739 2.78272C7.18205 2.43945 9.57015 2.26172 11.9993 2.26172C14.4283 2.26172 16.8161 2.43942 19.1506 2.78263C21.129 3.07349 22.499 4.80617 22.499 6.75228V12.7712C22.499 14.7173 21.1289 16.45 19.1506 16.7408C18.0659 16.9003 16.9696 17.024 15.863 17.1108C15.6193 17.1299 15.4037 17.2568 15.275 17.4498L12.6231 21.4277C12.484 21.6364 12.2498 21.7617 11.999 21.7617C11.7483 21.7617 11.5141 21.6364 11.375 21.4277L8.72299 17.4498C8.59433 17.2568 8.37869 17.1299 8.13501 17.1108C7.02841 17.024 5.93212 16.9002 4.84738 16.7407C2.86906 16.4498 1.49902 14.7172 1.49902 12.7711V6.75236C1.49902 4.80627 2.86907 3.0736 4.84739 2.78272Z" fill="#868E96"/>
</svg>
