<svg width="24" height="25" viewBox="0 0 24 25" fill="none" xmlns="http://www.w3.org/2000/svg">
<path fill-rule="evenodd" clip-rule="evenodd" d="M4.84836 2.78467C7.18302 2.4414 9.57113 2.26367 12.0003 2.26367C14.4292 2.26367 16.8171 2.44137 19.1516 2.78458C21.1299 3.07544 22.5 4.80812 22.5 6.75423V12.7731C22.5 14.7192 21.1299 16.4519 19.1516 16.7428C17.2123 17.0279 15.2361 17.1988 13.2302 17.2485C13.1266 17.251 13.0318 17.2925 12.9638 17.3605L8.78033 21.544C8.56583 21.7585 8.24324 21.8227 7.96299 21.7066C7.68273 21.5905 7.5 21.317 7.5 21.0137V17.0587C6.60901 16.9771 5.72491 16.8715 4.84836 16.7427C2.87004 16.4518 1.5 14.7191 1.5 12.773V6.75431C1.5 4.80822 2.87004 3.07556 4.84836 2.78467Z" fill="#868E96"/>
</svg>
