<svg width="24" height="25" viewBox="0 0 24 25" fill="none" xmlns="http://www.w3.org/2000/svg">
<path fill-rule="evenodd" clip-rule="evenodd" d="M12 4.51367C7.38089 4.51367 3.75 7.93163 3.75 12.0137C3.75 13.9062 4.52135 15.6427 5.81107 16.972C6.31827 17.4948 6.83561 18.3464 6.58585 19.3208C6.50236 19.6466 6.38845 19.96 6.24738 20.258C7.27513 20.2104 8.22415 19.8678 9.01402 19.3129C9.19635 19.1848 9.42619 19.1444 9.64126 19.2026C10.3875 19.4048 11.179 19.5137 12 19.5137C16.6191 19.5137 20.25 16.0957 20.25 12.0137C20.25 7.93163 16.6191 4.51367 12 4.51367ZM5.33678 21.7315C5.15724 21.714 4.97926 21.6893 4.80365 21.6579C4.5396 21.6107 4.3209 21.426 4.23008 21.1736C4.13927 20.9212 4.19016 20.6395 4.36357 20.4348C4.72409 20.0093 4.99059 19.5033 5.13282 18.9484C5.19154 18.7193 5.09249 18.3855 4.73452 18.0165C3.19647 16.4313 2.25 14.3284 2.25 12.0137C2.25 6.98301 6.67799 3.01367 12 3.01367C17.322 3.01367 21.75 6.98301 21.75 12.0137C21.75 17.0443 17.322 21.0137 12 21.0137C11.1668 21.0137 10.3569 20.9171 9.58316 20.735C8.54446 21.3867 7.3153 21.7637 6 21.7637C5.77643 21.7637 5.55508 21.7528 5.33678 21.7315Z" fill="#868E96"/>
</svg>
