<svg width="24" height="25" viewBox="0 0 24 25" fill="none" xmlns="http://www.w3.org/2000/svg">
<path fill-rule="evenodd" clip-rule="evenodd" d="M2.24902 12.0161C2.24902 6.63134 6.61425 2.26611 11.999 2.26611C17.3838 2.26611 21.749 6.63134 21.749 12.0161C21.749 17.4009 17.3838 21.7661 11.999 21.7661C6.61425 21.7661 2.24902 17.4009 2.24902 12.0161ZM15.6093 10.202C15.8501 9.86498 15.772 9.39657 15.435 9.15581C15.0979 8.91506 14.6295 8.99312 14.3887 9.33018L11.1533 13.8597L9.52935 12.2358C9.23646 11.9429 8.76159 11.9429 8.46869 12.2358C8.1758 12.5287 8.1758 13.0036 8.46869 13.2964L10.7187 15.5464C10.8746 15.7023 11.0912 15.7817 11.3109 15.7636C11.5306 15.7454 11.7312 15.6314 11.8593 15.452L15.6093 10.202Z" fill="#868E96"/>
</svg>
