<svg width="24" height="24" viewBox="0 0 24 24" fill="none" xmlns="http://www.w3.org/2000/svg">
<path fill-rule="evenodd" clip-rule="evenodd" d="M11.4697 10.7246C11.7626 10.4317 12.2374 10.4317 12.5303 10.7246L20.0303 18.2246C20.3232 18.5174 20.3232 18.9923 20.0303 19.2852C19.7374 19.5781 19.2626 19.5781 18.9697 19.2852L12 12.3155L5.03033 19.2852C4.73744 19.5781 4.26256 19.5781 3.96967 19.2852C3.67678 18.9923 3.67678 18.5174 3.96967 18.2246L11.4697 10.7246Z" fill="#868E96"/>
<path fill-rule="evenodd" clip-rule="evenodd" d="M11.4697 4.72455C11.7626 4.43166 12.2374 4.43166 12.5303 4.72455L20.0303 12.2246C20.3232 12.5174 20.3232 12.9923 20.0303 13.2852C19.7374 13.5781 19.2626 13.5781 18.9697 13.2852L12 6.31554L5.03033 13.2852C4.73744 13.5781 4.26256 13.5781 3.96967 13.2852C3.67678 12.9923 3.67678 12.5174 3.96967 12.2246L11.4697 4.72455Z" fill="#868E96"/>
</svg>
