<svg width="24" height="25" viewBox="0 0 24 25" fill="none" xmlns="http://www.w3.org/2000/svg">
<path fill-rule="evenodd" clip-rule="evenodd" d="M6.50178 4.15C5.08855 4.85661 4.5 5.69403 4.5 6.396C4.5 7.09796 5.08855 7.93538 6.50178 8.64199C7.87015 9.32617 9.81301 9.771 12 9.771C14.187 9.771 16.1299 9.32617 17.4982 8.64199C18.9114 7.93538 19.5 7.09796 19.5 6.396C19.5 5.69403 18.9114 4.85661 17.4982 4.15C16.1299 3.46582 14.187 3.021 12 3.021C9.81301 3.021 7.87015 3.46582 6.50178 4.15ZM19.5 9.13893C19.1041 9.46007 18.6513 9.74248 18.169 9.98363C16.5515 10.7924 14.3694 11.271 12 11.271C9.63064 11.271 7.4485 10.7924 5.83096 9.98363C5.34866 9.74248 4.89594 9.46007 4.5 9.13893V10.146C4.5 10.848 5.08855 11.6854 6.50178 12.392C7.87015 13.0762 9.81301 13.521 12 13.521C14.187 13.521 16.1299 13.0762 17.4982 12.392C18.9114 11.6854 19.5 10.848 19.5 10.146V9.13893ZM19.5 12.8889C19.1041 13.2101 18.6513 13.4925 18.169 13.7336C16.5515 14.5424 14.3694 15.021 12 15.021C9.63064 15.021 7.4485 14.5424 5.83096 13.7336C5.34866 13.4925 4.89594 13.2101 4.5 12.8889V13.896C4.5 14.598 5.08855 15.4354 6.50178 16.142C7.87015 16.8262 9.81301 17.271 12 17.271C14.187 17.271 16.1299 16.8262 17.4982 16.142C18.9114 15.4354 19.5 14.598 19.5 13.896V12.8889ZM19.5 16.6389C19.1041 16.9601 18.6513 17.2425 18.169 17.4836C16.5515 18.2924 14.3694 18.771 12 18.771C9.63064 18.771 7.4485 18.2924 5.83096 17.4836C5.34866 17.2425 4.89594 16.9601 4.5 16.6389V17.646C4.5 18.348 5.08855 19.1854 6.50178 19.892C7.87015 20.5762 9.81301 21.021 12 21.021C14.187 21.021 16.1299 20.5762 17.4982 19.892C18.9114 19.1854 19.5 18.348 19.5 17.646V16.6389ZM3 6.396C3 4.81979 4.25827 3.5947 5.83096 2.80836C7.4485 1.99959 9.63064 1.521 12 1.521C14.3694 1.521 16.5515 1.99959 18.169 2.80836C19.7417 3.5947 21 4.81979 21 6.396V17.646C21 19.2222 19.7417 20.4473 18.169 21.2336C16.5515 22.0424 14.3694 22.521 12 22.521C9.63064 22.521 7.4485 22.0424 5.83096 21.2336C4.25827 20.4473 3 19.2222 3 17.646V6.396Z" fill="#868E96"/>
</svg>
