<svg width="24" height="25" viewBox="0 0 24 25" fill="none" xmlns="http://www.w3.org/2000/svg">
<path fill-rule="evenodd" clip-rule="evenodd" d="M10.5 3.021C9.81411 3.021 9.23394 3.48199 9.0561 4.11249C9.01971 4.2415 9 4.37833 9 4.521H15C15 4.37833 14.9803 4.2415 14.9439 4.11249C14.7661 3.48199 14.1859 3.021 13.5 3.021H10.5ZM7.80654 3.19888C8.29511 2.20536 9.31692 1.521 10.5 1.521H13.5C14.6831 1.521 15.7049 2.20536 16.1935 3.19888C16.6911 3.24128 17.1865 3.29116 17.6798 3.34841C19.1772 3.52218 20.25 4.80822 20.25 6.27798V19.521C20.25 21.1779 18.9069 22.521 17.25 22.521H6.75C5.09315 22.521 3.75 21.1779 3.75 19.521V6.27798C3.75 4.80822 4.82283 3.52218 6.32022 3.34841C6.81347 3.29116 7.30894 3.24128 7.80654 3.19888Z" fill="#868E96"/>
</svg>
