<svg width="24" height="25" viewBox="0 0 24 25" fill="none" xmlns="http://www.w3.org/2000/svg">
<path fill-rule="evenodd" clip-rule="evenodd" d="M13.5 3.021C12.8267 3.021 12.2552 3.46512 12.0662 4.07816C12.0234 4.21721 12 4.36568 12 4.521H16.5C16.5 4.36568 16.4766 4.21721 16.4338 4.07816C16.2448 3.46512 15.6733 3.021 15 3.021H13.5ZM10.837 3.13864C11.3367 2.17792 12.3409 1.521 13.5 1.521H15C16.1591 1.521 17.1633 2.17792 17.663 3.13864C17.8877 3.15419 18.1121 3.17126 18.3359 3.18984C19.8752 3.3176 21 4.62382 21 6.12921V16.521C21 18.1778 19.6569 19.521 18 19.521H16.5V20.646C16.5 21.6815 15.6605 22.521 14.625 22.521H4.875C3.83947 22.521 3 21.6815 3 20.646V9.396C3 8.36046 3.83947 7.521 4.875 7.521H7.5V6.12922C7.5 4.62382 8.62475 3.3176 10.164 3.18984C10.3879 3.17126 10.6123 3.15419 10.837 3.13864ZM10.507 4.66704C10.434 4.67276 10.361 4.67865 10.2881 4.6847C9.56523 4.7447 9 5.36465 9 6.12922V7.521H14.625C15.6605 7.521 16.5 8.36046 16.5 9.396V18.021H18C18.8284 18.021 19.5 17.3494 19.5 16.521V6.12921C19.5 5.36465 18.9348 4.7447 18.2119 4.6847C18.139 4.67865 18.066 4.67276 17.993 4.66704C17.9196 5.42693 17.2792 6.021 16.5 6.021H12C11.2208 6.021 10.5804 5.42693 10.507 4.66704ZM15 9.396C15 9.18889 14.8321 9.021 14.625 9.021H4.875C4.66789 9.021 4.5 9.18889 4.5 9.396V20.646C4.5 20.8531 4.66789 21.021 4.875 21.021H14.625C14.8321 21.021 15 20.8531 15 20.646V9.396ZM6 12.021C6 11.6068 6.33579 11.271 6.75 11.271H6.7575C7.17171 11.271 7.5075 11.6068 7.5075 12.021V12.0285C7.5075 12.4427 7.17171 12.7785 6.7575 12.7785H6.75C6.33579 12.7785 6 12.4427 6 12.0285V12.021ZM8.25 12.021C8.25 11.6068 8.58579 11.271 9 11.271H12.75C13.1642 11.271 13.5 11.6068 13.5 12.021C13.5 12.4352 13.1642 12.771 12.75 12.771H9C8.58579 12.771 8.25 12.4352 8.25 12.021ZM6 15.021C6 14.6068 6.33579 14.271 6.75 14.271H6.7575C7.17171 14.271 7.5075 14.6068 7.5075 15.021V15.0285C7.5075 15.4427 7.17171 15.7785 6.7575 15.7785H6.75C6.33579 15.7785 6 15.4427 6 15.0285V15.021ZM8.25 15.021C8.25 14.6068 8.58579 14.271 9 14.271H12.75C13.1642 14.271 13.5 14.6068 13.5 15.021C13.5 15.4352 13.1642 15.771 12.75 15.771H9C8.58579 15.771 8.25 15.4352 8.25 15.021ZM6 18.021C6 17.6068 6.33579 17.271 6.75 17.271H6.7575C7.17171 17.271 7.5075 17.6068 7.5075 18.021V18.0285C7.5075 18.4427 7.17171 18.7785 6.7575 18.7785H6.75C6.33579 18.7785 6 18.4427 6 18.0285V18.021ZM8.25 18.021C8.25 17.6068 8.58579 17.271 9 17.271H12.75C13.1642 17.271 13.5 17.6068 13.5 18.021C13.5 18.4352 13.1642 18.771 12.75 18.771H9C8.58579 18.771 8.25 18.4352 8.25 18.021Z" fill="#868E96"/>
</svg>
