<svg width="24" height="25" viewBox="0 0 24 25" fill="none" xmlns="http://www.w3.org/2000/svg">
<path fill-rule="evenodd" clip-rule="evenodd" d="M17.6633 3.13865C17.8879 3.15419 18.1122 3.17125 18.336 3.18983C19.8753 3.31759 21 4.62381 21 6.1292V15.771C21 17.4278 19.6569 18.771 18 18.771V16.521C18 10.5991 13.4244 5.74584 7.61572 5.30381C7.93989 4.17226 8.91565 3.29345 10.1641 3.18983C10.3879 3.17125 10.6121 3.15419 10.8368 3.13865C11.3367 2.17746 12.3417 1.521 13.5 1.521H15C16.1584 1.521 17.1634 2.17746 17.6633 3.13865ZM12 4.521C12 3.69257 12.6716 3.021 13.5 3.021H15C15.8285 3.021 16.5 3.69257 16.5 4.521H12Z" fill="#868E96"/>
<path d="M3 8.646C3 7.61046 3.83947 6.771 4.875 6.771H5.25C7.32107 6.771 9 8.44993 9 10.521V12.396C9 13.4315 9.83947 14.271 10.875 14.271H12.75C14.8211 14.271 16.5 15.9499 16.5 18.021V20.646C16.5 21.6815 15.6605 22.521 14.625 22.521H4.875C3.83947 22.521 3 21.6815 3 20.646V8.646Z" fill="#868E96"/>
<path d="M10.5 10.521C10.5 9.20794 10.018 8.00747 9.22119 7.0869C12.6201 7.97477 15.2962 10.6509 16.1841 14.0498C15.2635 13.253 14.0631 12.771 12.75 12.771H10.875C10.6679 12.771 10.5 12.6031 10.5 12.396V10.521Z" fill="#868E96"/>
</svg>
