<svg width="24" height="25" viewBox="0 0 24 25" fill="none" xmlns="http://www.w3.org/2000/svg">
<path fill-rule="evenodd" clip-rule="evenodd" d="M12 2.271C6.61522 2.271 2.25 6.63622 2.25 12.021C2.25 17.4058 6.61522 21.771 12 21.771C17.3848 21.771 21.75 17.4058 21.75 12.021C21.75 6.63622 17.3848 2.271 12 2.271ZM12.75 6.021C12.75 5.60678 12.4142 5.271 12 5.271C11.5858 5.271 11.25 5.60678 11.25 6.021V12.021C11.25 12.4352 11.5858 12.771 12 12.771H16.5C16.9142 12.771 17.25 12.4352 17.25 12.021C17.25 11.6068 16.9142 11.271 16.5 11.271H12.75V6.021Z" fill="#868E96"/>
</svg>
