<svg width="24" height="25" viewBox="0 0 24 25" fill="none" xmlns="http://www.w3.org/2000/svg">
<path fill-rule="evenodd" clip-rule="evenodd" d="M10.5 3.771C7.18629 3.771 4.5 6.45729 4.5 9.771C4.5 9.93785 4.50683 10.1032 4.52024 10.2669C2.73627 11.105 1.5 12.9178 1.5 15.021C1.5 17.9205 3.85051 20.271 6.75 20.271H18C20.4853 20.271 22.5 18.2563 22.5 15.771C22.5 14.0863 21.5744 12.6191 20.2058 11.848C20.2349 11.6596 20.25 11.4669 20.25 11.271C20.25 9.19993 18.5711 7.521 16.5 7.521C16.3559 7.521 16.2135 7.52916 16.0733 7.54508C15.1893 5.33382 13.028 3.771 10.5 3.771ZM12.75 9.771C12.75 9.35678 12.4142 9.021 12 9.021C11.5858 9.021 11.25 9.35678 11.25 9.771V14.7103L9.53033 12.9907C9.23744 12.6978 8.76256 12.6978 8.46967 12.9907C8.17678 13.2836 8.17678 13.7584 8.46967 14.0513L11.4697 17.0513C11.7626 17.3442 12.2374 17.3442 12.5303 17.0513L15.5303 14.0513C15.8232 13.7584 15.8232 13.2836 15.5303 12.9907C15.2374 12.6978 14.7626 12.6978 14.4697 12.9907L12.75 14.7103V9.771Z" fill="#868E96"/>
</svg>
