<svg width="24" height="25" viewBox="0 0 24 25" fill="none" xmlns="http://www.w3.org/2000/svg">
<path fill-rule="evenodd" clip-rule="evenodd" d="M4.5 9.771C4.5 6.45729 7.18629 3.771 10.5 3.771C13.028 3.771 15.1893 5.33382 16.0733 7.54508C16.2135 7.52916 16.3559 7.521 16.5 7.521C18.5711 7.521 20.25 9.19993 20.25 11.271C20.25 11.4669 20.2349 11.6596 20.2058 11.848C21.5744 12.6191 22.5 14.0863 22.5 15.771C22.5 18.2563 20.4853 20.271 18 20.271H6.75C3.85051 20.271 1.5 17.9205 1.5 15.021C1.5 12.9178 2.73627 11.105 4.52024 10.2669C4.50683 10.1032 4.5 9.93785 4.5 9.771Z" fill="#868E96"/>
</svg>
