<svg width="24" height="25" viewBox="0 0 24 25" fill="none" xmlns="http://www.w3.org/2000/svg">
<path fill-rule="evenodd" clip-rule="evenodd" d="M10.5 5.271C8.01472 5.271 6 7.28571 6 9.771C6 10.0575 6.02669 10.3372 6.07751 10.6077C6.1469 10.9771 5.93213 11.3409 5.57515 11.4585C4.07863 11.9517 3 13.3614 3 15.021C3 17.0921 4.67893 18.771 6.75 18.771H18C19.6569 18.771 21 17.4278 21 15.771C21 14.4905 20.1974 13.3956 19.0653 12.9654C18.6851 12.821 18.4893 12.3998 18.6239 12.0161C18.7054 11.7839 18.75 11.5334 18.75 11.271C18.75 10.0284 17.7426 9.021 16.5 9.021C16.2563 9.021 16.023 9.05949 15.805 9.13016C15.6092 9.19367 15.3959 9.17389 15.2151 9.07547C15.0343 8.97705 14.9019 8.80863 14.8489 8.6097C14.337 6.68676 12.5829 5.271 10.5 5.271ZM4.5 9.771C4.5 6.45729 7.18629 3.771 10.5 3.771C13.028 3.771 15.1893 5.33382 16.0733 7.54508C16.2135 7.52916 16.3559 7.521 16.5 7.521C18.5711 7.521 20.25 9.19993 20.25 11.271C20.25 11.4669 20.2349 11.6596 20.2058 11.848C21.5744 12.6191 22.5 14.0863 22.5 15.771C22.5 18.2563 20.4853 20.271 18 20.271H6.75C3.85051 20.271 1.5 17.9205 1.5 15.021C1.5 12.9178 2.73627 11.105 4.52024 10.2669C4.50683 10.1032 4.5 9.93785 4.5 9.771ZM11.4697 9.24067C11.7626 8.94777 12.2374 8.94777 12.5303 9.24067L15.5303 12.2407C15.8232 12.5336 15.8232 13.0084 15.5303 13.3013C15.2374 13.5942 14.7626 13.5942 14.4697 13.3013L12.75 11.5817L12.75 16.521C12.75 16.9352 12.4142 17.271 12 17.271C11.5858 17.271 11.25 16.9352 11.25 16.521L11.25 11.5817L9.53033 13.3013C9.23744 13.5942 8.76256 13.5942 8.46967 13.3013C8.17678 13.0084 8.17678 12.5336 8.46967 12.2407L11.4697 9.24067Z" fill="#868E96"/>
</svg>
