<svg width="24" height="25" viewBox="0 0 24 25" fill="none" xmlns="http://www.w3.org/2000/svg">
<path fill-rule="evenodd" clip-rule="evenodd" d="M3 6.021C3 4.36414 4.34315 3.021 6 3.021H18C19.6569 3.021 21 4.36414 21 6.021V18.021C21 19.6779 19.6569 21.021 18 21.021H6C4.34315 21.021 3 19.6778 3 18.021V6.021ZM6 4.521C5.17157 4.521 4.5 5.19257 4.5 6.021V18.021C4.5 18.8494 5.17157 19.521 6 19.521H18C18.8284 19.521 19.5 18.8494 19.5 18.021V6.021C19.5 5.19257 18.8284 4.521 18 4.521H6ZM13.7197 9.24067C14.0126 8.94777 14.4874 8.94777 14.7803 9.24067L17.0303 11.4907C17.171 11.6313 17.25 11.8221 17.25 12.021C17.25 12.2199 17.171 12.4107 17.0303 12.5513L14.7803 14.8013C14.4874 15.0942 14.0126 15.0942 13.7197 14.8013C13.4268 14.5084 13.4268 14.0336 13.7197 13.7407L15.4393 12.021L13.7197 10.3013C13.4268 10.0084 13.4268 9.53356 13.7197 9.24067ZM10.2803 9.24067C10.5732 9.53356 10.5732 10.0084 10.2803 10.3013L8.56066 12.021L10.2803 13.7407C10.5732 14.0336 10.5732 14.5084 10.2803 14.8013C9.98744 15.0942 9.51256 15.0942 9.21967 14.8013L6.96967 12.5513C6.82902 12.4107 6.75 12.2199 6.75 12.021C6.75 11.8221 6.82902 11.6313 6.96967 11.4907L9.21967 9.24067C9.51256 8.94777 9.98744 8.94777 10.2803 9.24067Z" fill="#868E96"/>
</svg>
