<svg width="24" height="25" viewBox="0 0 24 25" fill="none" xmlns="http://www.w3.org/2000/svg">
<path fill-rule="evenodd" clip-rule="evenodd" d="M14.4473 3.04761C14.847 3.1566 15.0826 3.5689 14.9736 3.96852L10.4736 20.4685C10.3646 20.8681 9.95228 21.1037 9.55266 20.9948C9.15304 20.8858 8.91744 20.4735 9.02643 20.0738L13.5264 3.57385C13.6354 3.17423 14.0477 2.93862 14.4473 3.04761ZM16.7197 6.24085C17.0126 5.94796 17.4874 5.94796 17.7803 6.24085L23.0303 11.4909C23.3232 11.7837 23.3232 12.2586 23.0303 12.5515L17.7803 17.8015C17.4874 18.0944 17.0126 18.0944 16.7197 17.8015C16.4268 17.5086 16.4268 17.0337 16.7197 16.7409L21.4393 12.0212L16.7197 7.30151C16.4268 7.00862 16.4268 6.53375 16.7197 6.24085ZM7.28033 6.24085C7.57322 6.53375 7.57322 7.00862 7.28033 7.30151L2.56066 12.0212L7.28033 16.7409C7.57322 17.0337 7.57322 17.5086 7.28033 17.8015C6.98744 18.0944 6.51256 18.0944 6.21967 17.8015L0.96967 12.5515C0.676777 12.2586 0.676777 11.7837 0.96967 11.4909L6.21967 6.24085C6.51256 5.94796 6.98744 5.94796 7.28033 6.24085Z" fill="#868E96"/>
</svg>
