<svg width="24" height="25" viewBox="0 0 24 25" fill="none" xmlns="http://www.w3.org/2000/svg">
<path fill-rule="evenodd" clip-rule="evenodd" d="M9.60304 3.83775C9.75372 2.93365 10.536 2.271 11.4525 2.271H12.5465C13.4631 2.271 14.2453 2.93364 14.396 3.83775L14.545 4.73156C14.5659 4.8574 14.6715 5.00774 14.8736 5.09164C15.0708 5.17349 15.2468 5.14346 15.354 5.06687L16.0916 4.54003C16.8375 4.00728 17.8591 4.09184 18.5073 4.73996L19.2808 5.51351C19.9289 6.16162 20.0135 7.1833 19.4807 7.92915L18.9537 8.66699C18.8772 8.77413 18.8471 8.95005 18.9289 9.14705C19.0128 9.34903 19.163 9.45457 19.2888 9.47553L20.1828 9.62453C21.0869 9.77521 21.7495 10.5574 21.7495 11.474V12.568C21.7495 13.4846 21.0869 14.2668 20.1828 14.4175L19.2889 14.5664C19.1631 14.5874 19.0128 14.693 18.9289 14.8951C18.847 15.0922 18.8771 15.2682 18.9536 15.3755L19.4804 16.1129C20.0131 16.8588 19.9286 17.8804 19.2805 18.5286L18.5069 19.3021C17.8588 19.9502 16.8371 20.0348 16.0913 19.502L15.3537 18.9752C15.2465 18.8986 15.0705 18.8686 14.8735 18.9504C14.6715 19.0343 14.5659 19.1845 14.545 19.3103L14.396 20.2042C14.2453 21.1083 13.4631 21.771 12.5465 21.771H11.4525C10.536 21.771 9.75373 21.1083 9.60304 20.2042L9.45407 19.3104C9.4331 19.1846 9.32748 19.0343 9.12541 18.9504C8.9283 18.8685 8.75226 18.8985 8.64504 18.9751L7.90742 19.502C7.16157 20.0347 6.13989 19.9502 5.49177 19.3021L4.71822 18.5285C4.07011 17.8804 3.98555 16.8587 4.5183 16.1129L5.04533 15.375C5.12186 15.2679 5.15188 15.092 5.07009 14.895C4.98624 14.693 4.83598 14.5874 4.71023 14.5665L3.81626 14.4175C2.91216 14.2668 2.24951 13.4846 2.24951 12.568V11.474C2.24951 10.5574 2.91216 9.77521 3.81626 9.62453L4.71007 9.47556C4.83592 9.45458 4.98626 9.34896 5.07016 9.14687C5.15201 8.94974 5.12198 8.77369 5.04539 8.66646L4.51869 7.92909C3.98594 7.18324 4.0705 6.16156 4.71862 5.51344L5.49217 4.73989C6.14028 4.09178 7.16197 4.00722 7.90781 4.53997L8.64541 5.06682C8.75257 5.14336 8.92851 5.17338 9.12553 5.09159C9.32753 5.00772 9.43309 4.85746 9.45405 4.7317L9.60304 3.83775ZM11.4525 3.771C11.2692 3.771 11.1128 3.90353 11.0826 4.08435L10.9336 4.97829C10.8132 5.70091 10.293 6.23101 9.70069 6.47693C9.10307 6.72505 8.36654 6.71099 7.77355 6.28742L7.03595 5.76057C6.88679 5.65402 6.68245 5.67093 6.55283 5.80055L5.77928 6.5741C5.64965 6.70372 5.63274 6.90806 5.73929 7.05723L6.26599 7.7946C6.68962 8.38769 6.70367 9.12434 6.4555 9.72206C6.20954 10.3145 5.67937 10.8347 4.95667 10.9551L4.06286 11.1041C3.88204 11.1343 3.74951 11.2907 3.74951 11.474V12.568C3.74951 12.7513 3.88204 12.9077 4.06286 12.9379L4.95683 13.0869C5.67943 13.2073 6.20953 13.7275 6.45544 14.3198C6.70355 14.9174 6.68948 15.6539 6.26593 16.2469L5.7389 16.9847C5.63235 17.1339 5.64926 17.3382 5.77888 17.4679L6.55243 18.2414C6.68206 18.371 6.88639 18.388 7.03556 18.2814L7.77318 17.7545C8.36626 17.3309 9.10289 17.3169 9.70059 17.565C10.293 17.811 10.8132 18.3411 10.9337 19.0638L11.0826 19.9576C11.1128 20.1385 11.2692 20.271 11.4525 20.271H12.5465C12.7298 20.271 12.8863 20.1385 12.9164 19.9576L13.0654 19.0637C13.1858 18.3411 13.706 17.811 14.2983 17.5651C14.896 17.3169 15.6325 17.331 16.2255 17.7546L16.9631 18.2814C17.1123 18.388 17.3166 18.3711 17.4463 18.2414L18.2198 17.4679C18.3494 17.3383 18.3663 17.1339 18.2598 16.9848L17.733 16.2473C17.3094 15.6543 17.2954 14.9176 17.5435 14.3199C17.7895 13.7275 18.3196 13.2073 19.0423 13.0868L19.9362 12.9379C20.117 12.9077 20.2495 12.7513 20.2495 12.568V11.474C20.2495 11.2907 20.117 11.1343 19.9362 11.1041L19.0422 10.9551C18.3196 10.8347 17.7895 10.3145 17.5436 9.7222C17.2955 9.1246 17.3096 8.3881 17.7331 7.79513L18.2601 7.05729C18.3667 6.90813 18.3498 6.70379 18.2201 6.57417L17.4466 5.80062C17.317 5.67099 17.1126 5.65408 16.9635 5.76063L16.2259 6.28747C15.6328 6.7111 14.8962 6.72515 14.2984 6.47698C13.706 6.23102 13.1858 5.70086 13.0654 4.97816L12.9164 4.08435C12.8863 3.90353 12.7298 3.771 12.5465 3.771H11.4525ZM12.0002 9.77102C10.7576 9.77102 9.75021 10.7784 9.75021 12.021C9.75021 13.2637 10.7576 14.271 12.0002 14.271C13.2429 14.271 14.2502 13.2637 14.2502 12.021C14.2502 10.7784 13.2429 9.77102 12.0002 9.77102ZM8.25021 12.021C8.25021 9.94995 9.92914 8.27102 12.0002 8.27102C14.0713 8.27102 15.7502 9.94995 15.7502 12.021C15.7502 14.0921 14.0713 15.771 12.0002 15.771C9.92914 15.771 8.25021 14.0921 8.25021 12.021Z" fill="#868E96"/>
</svg>
