<svg width="24" height="25" viewBox="0 0 24 25" fill="none" xmlns="http://www.w3.org/2000/svg">
<path d="M17.0036 10.4279C17.142 10.8629 16.7879 11.2704 16.3314 11.2704H12.8665C12.5985 11.2704 12.3509 11.1274 12.217 10.8954L10.4842 7.89448C10.2558 7.49889 10.4318 6.98834 10.8782 6.89121C11.2396 6.81257 11.6148 6.77114 11.9998 6.77114C14.3438 6.77114 16.329 8.30734 17.0036 10.4279Z" fill="#868E96"/>
<path d="M8.11914 8.48509C8.42703 8.14739 8.95743 8.25002 9.18594 8.64578L10.9179 11.6454C11.0519 11.8774 11.0519 12.1633 10.9179 12.3954L9.18553 15.396C8.95701 15.7918 8.42655 15.8945 8.11867 15.5567C7.26828 14.6237 6.74976 13.383 6.74976 12.0211C6.74976 10.6591 7.26847 9.41811 8.11914 8.48509Z" fill="#868E96"/>
<path d="M10.8775 17.1509C10.4312 17.0537 10.2552 16.5432 10.4836 16.1477L12.217 13.1454C12.351 12.9133 12.5986 12.7704 12.8665 12.7704H16.3319C16.7883 12.7704 17.1424 13.1777 17.0042 13.6127C16.3301 15.7341 14.3444 17.2711 11.9998 17.2711C11.6146 17.2711 11.2391 17.2297 10.8775 17.1509Z" fill="#868E96"/>
<path fill-rule="evenodd" clip-rule="evenodd" d="M21.0005 12.7704C21.4147 12.7704 21.7505 12.4346 21.7505 12.0204C21.7505 11.6062 21.4147 11.2704 21.0005 11.2704H20.2169C20.175 10.8062 20.0948 10.3532 19.9793 9.9144L20.714 9.64697C21.1033 9.5053 21.304 9.07492 21.1623 8.68568C21.0206 8.29645 20.5902 8.09576 20.201 8.23743L19.4661 8.50489C19.2692 8.08747 19.0384 7.68922 18.7771 7.31372L19.3769 6.81044C19.6942 6.54419 19.7355 6.07112 19.4693 5.75382C19.203 5.43651 18.73 5.39512 18.4127 5.66138L17.8124 6.16508C17.4867 5.84181 17.1342 5.54551 16.7585 5.27984L17.1499 4.60192C17.357 4.2432 17.2341 3.78451 16.8754 3.5774C16.5167 3.3703 16.058 3.4932 15.8509 3.85192L15.4602 4.52865C15.0462 4.33718 14.6138 4.179 14.1662 4.05756L14.3018 3.28808C14.3738 2.88016 14.1014 2.49116 13.6935 2.41923C13.2855 2.34731 12.8966 2.61968 12.8246 3.0276L12.6887 3.79867C12.4618 3.77993 12.2322 3.77038 12.0005 3.77038C11.7687 3.77038 11.5392 3.77995 11.3121 3.79872L11.1762 3.02765C11.1042 2.61972 10.7153 2.34735 10.3073 2.41928C9.89941 2.4912 9.62704 2.8802 9.69896 3.28812L9.83468 4.05779C9.38725 4.17923 8.95481 4.33738 8.54088 4.52882L8.14994 3.85174C7.94282 3.49303 7.48412 3.37014 7.12541 3.57726C6.7667 3.78438 6.64381 4.24308 6.85093 4.60179L7.24249 5.27993C6.86698 5.54547 6.51459 5.84166 6.18897 6.16486L5.5882 5.66076C5.2709 5.3945 4.79783 5.43589 4.53158 5.7532C4.26533 6.0705 4.30671 6.54357 4.62402 6.80982L5.22424 7.31347C4.96284 7.68908 4.73185 8.08749 4.53484 8.50511L3.79981 8.23758C3.41058 8.09591 2.9802 8.2966 2.83853 8.68584C2.69686 9.07507 2.89755 9.50545 3.28678 9.64712L4.02171 9.91461C3.90623 10.3533 3.82596 10.8063 3.78413 11.2704H3.00049C2.58628 11.2704 2.25049 11.6062 2.25049 12.0204C2.25049 12.4346 2.58627 12.7704 3.00049 12.7704H3.78412C3.82594 13.2345 3.9062 13.6875 4.02168 14.1262L3.28653 14.3938C2.8973 14.5355 2.69661 14.9658 2.83828 15.3551C2.97995 15.7443 3.41033 15.945 3.79956 15.8033L4.53477 15.5357C4.7318 15.9534 4.96286 16.3519 5.22436 16.7277L4.62387 17.2316C4.30656 17.4978 4.26517 17.9709 4.53143 18.2882C4.79768 18.6055 5.27074 18.6469 5.58805 18.3806L6.18916 17.8762C6.51482 18.1994 6.8673 18.4957 7.24296 18.7613L6.85087 19.4404C6.64377 19.7991 6.76667 20.2578 7.12539 20.4649C7.48411 20.672 7.9428 20.5491 8.14991 20.1904L8.54137 19.5124C8.95515 19.7037 9.38747 19.8618 9.83489 19.9832L9.69896 20.7541C9.62703 21.1621 9.89941 21.5511 10.3073 21.623C10.7152 21.6949 11.1042 21.4225 11.1762 21.0146L11.3124 20.2421C11.5393 20.2608 11.7688 20.2704 12.0005 20.2704C12.2321 20.2704 12.4616 20.2608 12.6884 20.2421L12.8246 21.0147C12.8966 21.4226 13.2855 21.695 13.6935 21.623C14.1014 21.5511 14.3738 21.1621 14.3018 20.7542L14.1659 19.9833C14.6134 19.8619 15.0457 19.7038 15.4596 19.5124L15.8509 20.1902C16.058 20.5489 16.5167 20.6719 16.8754 20.4647C17.2342 20.2576 17.3571 19.7989 17.15 19.4402L16.758 18.7613C17.1338 18.4956 17.4863 18.1993 17.8121 17.8759L18.4128 18.38C18.7301 18.6462 19.2032 18.6049 19.4694 18.2876C19.7357 17.9703 19.6943 17.4972 19.377 17.2309L18.7768 16.7273C19.0382 16.3518 19.2692 15.9534 19.4661 15.5359L20.2012 15.8035C20.5905 15.9452 21.0209 15.7445 21.1625 15.3552C21.3042 14.966 21.1035 14.5356 20.7143 14.3939L19.9792 14.1264C20.0948 13.6876 20.175 13.2345 20.2169 12.7704H21.0005ZM18.3432 9.71174C18.3372 9.69511 18.3317 9.67841 18.3269 9.66166C18.0591 8.94361 17.6725 8.28343 17.1911 7.70499C17.1843 7.69755 17.1777 7.68995 17.1712 7.68218C17.1648 7.67457 17.1586 7.66688 17.1525 7.6591C16.6623 7.08054 16.0763 6.58564 15.4191 6.19887C15.4044 6.1916 15.3898 6.18381 15.3754 6.17548C15.3606 6.16693 15.3462 6.15794 15.3322 6.14855C14.6879 5.78224 13.9775 5.51888 13.2233 5.38086C13.2064 5.37905 13.1895 5.37665 13.1725 5.37366C13.1561 5.37076 13.1399 5.36734 13.1239 5.36343C12.7585 5.30223 12.3832 5.27038 12.0005 5.27038C11.6181 5.27038 11.2433 5.30211 10.8785 5.36308C10.862 5.36716 10.8453 5.3707 10.8283 5.3737C10.8107 5.3768 10.7932 5.37926 10.7757 5.38109C10.0047 5.5223 9.2802 5.79441 8.62524 6.17341C7.94733 6.56568 7.3442 7.07216 6.84207 7.66644C6.83803 7.67152 6.83391 7.67656 6.82971 7.68156C6.82758 7.6841 6.82544 7.68662 6.82328 7.68912C6.82103 7.69174 6.81875 7.69434 6.81647 7.69692C6.33173 8.27749 5.94284 8.9406 5.67384 9.66202C5.66904 9.6787 5.66363 9.69533 5.65761 9.7119C5.65158 9.72846 5.64502 9.74469 5.63797 9.76056C5.38702 10.4672 5.25049 11.2279 5.25049 12.0204C5.25049 12.8147 5.3877 13.577 5.63972 14.2849C5.64602 14.2993 5.6519 14.314 5.65736 14.329C5.6628 14.344 5.66774 14.359 5.67219 14.3741C6.21973 15.8456 7.26589 17.0746 8.60531 17.8556C8.60909 17.8577 8.61287 17.8597 8.61663 17.8618C8.61956 17.8635 8.62248 17.8651 8.62539 17.8668C8.63241 17.8709 8.63934 17.875 8.64617 17.8793C9.30406 18.2567 10.0316 18.5266 10.8047 18.6648C10.8126 18.6659 10.8204 18.6672 10.8283 18.6686C10.8356 18.6699 10.8429 18.6712 10.8501 18.6727C11.224 18.7369 11.6083 18.7704 12.0005 18.7704C12.3927 18.7704 12.7771 18.7369 13.151 18.6727C13.1581 18.6712 13.1653 18.6699 13.1725 18.6686C13.1803 18.6672 13.1881 18.666 13.1958 18.6649C13.9672 18.527 14.6933 18.2581 15.35 17.882C15.3584 17.8767 15.3668 17.8716 15.3754 17.8667C15.3837 17.8619 15.392 17.8573 15.4003 17.8529C16.0697 17.4619 16.6658 16.9589 17.1627 16.3696L17.1713 16.3592L17.1805 16.3484C17.6677 15.766 18.0584 15.1002 18.3282 14.3756C18.3328 14.36 18.3378 14.3446 18.3435 14.3292C18.3491 14.3137 18.3552 14.2986 18.3617 14.2837C18.6134 13.5762 18.7505 12.8143 18.7505 12.0204C18.7505 11.2278 18.6139 10.4672 18.363 9.76069C18.3559 9.74472 18.3493 9.72841 18.3432 9.71174Z" fill="#868E96"/>
</svg>
