<svg width="24" height="25" viewBox="0 0 24 25" fill="none" xmlns="http://www.w3.org/2000/svg">
<path fill-rule="evenodd" clip-rule="evenodd" d="M11.078 2.271C10.1614 2.271 9.37921 2.93365 9.22853 3.83775L9.04987 4.90973C9.02971 5.03063 8.93554 5.17079 8.75323 5.25846C8.40917 5.42392 8.07979 5.61479 7.76752 5.8286C7.60103 5.94259 7.43271 5.9542 7.31781 5.91115L6.29863 5.52933C5.44031 5.20777 4.47533 5.55388 4.01704 6.34766L3.09506 7.94458C2.63677 8.73835 2.81953 9.74711 3.52716 10.3297L4.36768 11.0216C4.46231 11.0995 4.53642 11.2508 4.52132 11.4517C4.50718 11.6398 4.5 11.8296 4.5 12.021C4.5 12.2125 4.50719 12.4024 4.52133 12.5905C4.53644 12.7914 4.46233 12.9427 4.3677 13.0206L3.52716 13.7126C2.81952 14.2951 2.63677 15.3039 3.09506 16.0977L4.01704 17.6946C4.47533 18.4884 5.44031 18.8345 6.29863 18.5129L7.31804 18.131C7.43293 18.088 7.60125 18.0996 7.76773 18.2135C8.07994 18.4273 8.40925 18.6181 8.75323 18.7835C8.93554 18.8712 9.02972 19.0114 9.04987 19.1323L9.22853 20.2042C9.37921 21.1083 10.1614 21.771 11.078 21.771H12.922C13.8386 21.771 14.6208 21.1083 14.7715 20.2042L14.9501 19.1323C14.9703 19.0114 15.0645 18.8712 15.2468 18.7835C15.5908 18.6181 15.9202 18.4272 16.2325 18.2134C16.399 18.0994 16.5673 18.0878 16.6822 18.1308L17.7014 18.5127C18.5597 18.8342 19.5247 18.4881 19.983 17.6943L20.9049 16.0974C21.3632 15.3036 21.1805 14.2949 20.4728 13.7123L19.6323 13.0204C19.5377 12.9425 19.4636 12.7912 19.4787 12.5903C19.4928 12.4022 19.5 12.2124 19.5 12.021C19.5 11.8295 19.4928 11.6396 19.4787 11.4515C19.4636 11.2506 19.5377 11.0993 19.6323 11.0214L20.4728 10.3294C21.1805 9.74687 21.3632 8.73811 20.9049 7.94433L19.983 6.34742C19.5247 5.55364 18.5597 5.20753 17.7014 5.52909L16.682 5.91099C16.5671 5.95404 16.3988 5.94243 16.2323 5.82846C15.9201 5.61471 15.5907 5.42388 15.2468 5.25846C15.0645 5.17079 14.9703 5.03063 14.9501 4.90973L14.7715 3.83775C14.6208 2.93364 13.8386 2.271 12.922 2.271H11.078ZM12.0001 15.771C14.0712 15.771 15.7501 14.0921 15.7501 12.021C15.7501 9.94993 14.0712 8.271 12.0001 8.271C9.92905 8.271 8.25012 9.94993 8.25012 12.021C8.25012 14.0921 9.92905 15.771 12.0001 15.771Z" fill="#868E96"/>
</svg>
