<svg width="24" height="24" viewBox="0 0 24 24" fill="none" xmlns="http://www.w3.org/2000/svg">
<path fill-rule="evenodd" clip-rule="evenodd" d="M2.25 6.00488C2.25 4.34803 3.59315 3.00488 5.25 3.00488H18.75C20.4069 3.00488 21.75 4.34803 21.75 6.00488V18.0049C21.75 19.6617 20.4069 21.0049 18.75 21.0049H5.25C3.59315 21.0049 2.25 19.6617 2.25 18.0049V6.00488ZM5.25 4.50488C4.42157 4.50488 3.75 5.17646 3.75 6.00488V18.0049C3.75 18.8333 4.42157 19.5049 5.25 19.5049H18.75C19.5784 19.5049 20.25 18.8333 20.25 18.0049V6.00488C20.25 5.17646 19.5784 4.50488 18.75 4.50488H5.25ZM6.15 7.05488C6.39853 6.72351 6.86863 6.65635 7.2 6.90488L10.2 9.15488C10.3889 9.29652 10.5 9.51882 10.5 9.75488C10.5 9.99095 10.3889 10.2132 10.2 10.3549L7.2 12.6049C6.86863 12.8534 6.39853 12.7863 6.15 12.4549C5.90147 12.1235 5.96863 11.6534 6.3 11.4049L8.5 9.75488L6.3 8.10488C5.96863 7.85635 5.90147 7.38625 6.15 7.05488ZM10.5 12.0049C10.5 11.5907 10.8358 11.2549 11.25 11.2549H14.25C14.6642 11.2549 15 11.5907 15 12.0049C15 12.4191 14.6642 12.7549 14.25 12.7549H11.25C10.8358 12.7549 10.5 12.4191 10.5 12.0049Z" fill="#868E96"/>
</svg>
