<svg width="24" height="24" viewBox="0 0 24 24" fill="none" xmlns="http://www.w3.org/2000/svg">
<path fill-rule="evenodd" clip-rule="evenodd" d="M2.25 5.25488C2.25 3.59803 3.59315 2.25488 5.25 2.25488H18.75C20.4069 2.25488 21.75 3.59803 21.75 5.25488V15.0049C21.75 16.6617 20.4069 18.0049 18.75 18.0049H15.75V18.2622C15.75 18.859 15.9871 19.4313 16.409 19.8532L17.0303 20.4746C17.2448 20.6891 17.309 21.0116 17.1929 21.2919C17.0768 21.5722 16.8033 21.7549 16.5 21.7549H7.5C7.19665 21.7549 6.92318 21.5722 6.80709 21.2919C6.691 21.0116 6.75517 20.6891 6.96967 20.4746L7.59099 19.8532C8.01295 19.4313 8.25 18.859 8.25 18.2622V18.0049H5.25C3.59315 18.0049 2.25 16.6617 2.25 15.0049V5.25488ZM3.75 5.25488V12.0049C3.75 12.8333 4.42157 13.5049 5.25 13.5049H18.75C19.5784 13.5049 20.25 12.8333 20.25 12.0049V5.25488C20.25 4.42646 19.5784 3.75488 18.75 3.75488H5.25C4.42157 3.75488 3.75 4.42646 3.75 5.25488ZM20.25 14.6035C19.8087 14.8588 19.2964 15.0049 18.75 15.0049H5.25C4.70357 15.0049 4.19126 14.8588 3.75 14.6035V15.0049C3.75 15.8333 4.42157 16.5049 5.25 16.5049H18.75C19.5784 16.5049 20.25 15.8333 20.25 15.0049V14.6035ZM14.25 18.0049H9.75V18.2622C9.75 18.9727 9.54837 19.6625 9.17679 20.2549H14.8232C14.4516 19.6625 14.25 18.9727 14.25 18.2622V18.0049Z" fill="#868E96"/>
</svg>
