<svg width="24" height="24" viewBox="0 0 24 24" fill="none" xmlns="http://www.w3.org/2000/svg">
<path d="M4.5 3.75488C2.84315 3.75488 1.5 5.09803 1.5 6.75488V7.50488H22.5V6.75488C22.5 5.09803 21.1569 3.75488 19.5 3.75488H4.5Z" fill="#868E96"/>
<path fill-rule="evenodd" clip-rule="evenodd" d="M22.5 9.75488H1.5V17.2549C1.5 18.9117 2.84315 20.2549 4.5 20.2549H19.5C21.1569 20.2549 22.5 18.9117 22.5 17.2549V9.75488ZM4.5 13.5049C4.5 13.0907 4.83579 12.7549 5.25 12.7549H11.25C11.6642 12.7549 12 13.0907 12 13.5049C12 13.9191 11.6642 14.2549 11.25 14.2549H5.25C4.83579 14.2549 4.5 13.9191 4.5 13.5049ZM5.25 15.7549C4.83579 15.7549 4.5 16.0907 4.5 16.5049C4.5 16.9191 4.83579 17.2549 5.25 17.2549H8.25C8.66421 17.2549 9 16.9191 9 16.5049C9 16.0907 8.66421 15.7549 8.25 15.7549H5.25Z" fill="#868E96"/>
</svg>
