<svg width="24" height="24" viewBox="0 0 24 24" fill="none" xmlns="http://www.w3.org/2000/svg">
<path fill-rule="evenodd" clip-rule="evenodd" d="M1.5 6.75488C1.5 5.09803 2.84315 3.75488 4.5 3.75488H19.5C21.1569 3.75488 22.5 5.09803 22.5 6.75488V17.2549C22.5 18.9117 21.1569 20.2549 19.5 20.2549H4.5C2.84315 20.2549 1.5 18.9117 1.5 17.2549V6.75488ZM3 9.75488V17.2549C3 18.0833 3.67157 18.7549 4.5 18.7549H19.5C20.3284 18.7549 21 18.0833 21 17.2549V9.75488H3ZM21 7.50488H3V6.75488C3 5.92646 3.67157 5.25488 4.5 5.25488H19.5C20.3284 5.25488 21 5.92646 21 6.75488V7.50488ZM4.5 14.2549C4.5 13.8407 4.83579 13.5049 5.25 13.5049H11.25C11.6642 13.5049 12 13.8407 12 14.2549C12 14.6691 11.6642 15.0049 11.25 15.0049H5.25C4.83579 15.0049 4.5 14.6691 4.5 14.2549ZM4.5 16.5049C4.5 16.0907 4.83579 15.7549 5.25 15.7549H8.25C8.66421 15.7549 9 16.0907 9 16.5049C9 16.9191 8.66421 17.2549 8.25 17.2549H5.25C4.83579 17.2549 4.5 16.9191 4.5 16.5049Z" fill="#868E96"/>
</svg>
