<svg width="24" height="24" viewBox="0 0 24 24" fill="none" xmlns="http://www.w3.org/2000/svg">
<path fill-rule="evenodd" clip-rule="evenodd" d="M11.6221 1.60705C11.8556 1.47083 12.1444 1.47083 12.3779 1.60705L21.3779 6.85705C21.6083 6.99146 21.75 7.23813 21.75 7.50488V16.5049C21.75 16.7716 21.6083 17.0183 21.3779 17.1527L12.3779 22.4027C12.1444 22.5389 11.8556 22.5389 11.6221 22.4027L2.6221 17.1527C2.39168 17.0183 2.25 16.7716 2.25 16.5049V7.50488C2.25 7.23813 2.39168 6.99146 2.6221 6.85705L11.6221 1.60705ZM3.75 8.81066L11.25 13.1857V20.4491L3.75 16.0741V8.81066ZM12.75 20.4491L20.25 16.0741V8.81066L12.75 13.1857V20.4491ZM12 11.8866L19.5115 7.50488L12 3.12316L4.48848 7.50488L12 11.8866Z" fill="#868E96"/>
</svg>
