<svg width="24" height="24" viewBox="0 0 24 24" fill="none" xmlns="http://www.w3.org/2000/svg">
<path d="M10.4636 8.75115C10.6908 8.57065 10.9607 8.43939 11.25 8.35737V11.1523C10.9552 11.0686 10.686 10.9353 10.4636 10.7586C10.0699 10.4458 9.91752 10.0778 9.91752 9.75488C9.91752 9.43193 10.0699 9.06393 10.4636 8.75115Z" fill="#868E96"/>
<path d="M12.75 15.6665V12.8432C13.0972 12.9277 13.4138 13.0707 13.6713 13.2639C14.0978 13.5837 14.25 13.9497 14.25 14.2549C14.25 14.56 14.0978 14.926 13.6713 15.2459C13.4138 15.439 13.0972 15.5821 12.75 15.6665Z" fill="#868E96"/>
<path fill-rule="evenodd" clip-rule="evenodd" d="M12 2.25488C6.61522 2.25488 2.25 6.62011 2.25 12.0049C2.25 17.3897 6.61522 21.7549 12 21.7549C17.3848 21.7549 21.75 17.3897 21.75 12.0049C21.75 6.62011 17.3848 2.25488 12 2.25488ZM12.75 6.00488C12.75 5.59067 12.4142 5.25488 12 5.25488C11.5858 5.25488 11.25 5.59067 11.25 6.00488V6.82051C10.6231 6.93157 10.0253 7.18362 9.53058 7.57664C8.81822 8.14254 8.41752 8.92618 8.41752 9.75488C8.41752 10.5836 8.81822 11.3672 9.53058 11.9331C10.033 12.3323 10.6327 12.5799 11.25 12.6892V15.6664C10.9028 15.582 10.5864 15.439 10.3289 15.2459L9.45001 14.5867C9.11865 14.3381 8.64854 14.4053 8.40001 14.7367C8.15147 15.068 8.21862 15.5381 8.54999 15.7867L9.42886 16.4458C9.96206 16.8458 10.5979 17.0904 11.25 17.1952V18.0049C11.25 18.4191 11.5858 18.7549 12 18.7549C12.4142 18.7549 12.75 18.4191 12.75 18.0049V17.1952C13.4021 17.0905 14.0381 16.8458 14.5714 16.4458C15.3164 15.887 15.75 15.1014 15.75 14.2549C15.75 13.4083 15.3164 12.6227 14.5714 12.0639C14.0381 11.6639 13.4021 11.4192 12.75 11.3145V8.35745C13.0392 8.43948 13.309 8.57071 13.5361 8.75115L13.951 9.08074C14.2753 9.33838 14.7471 9.28433 15.0048 8.95999C15.2624 8.63566 15.2084 8.16388 14.884 7.90623L14.4691 7.57664C13.9745 7.18368 13.3768 6.93165 12.75 6.82056V6.00488Z" fill="#868E96"/>
</svg>
