<svg width="24" height="24" viewBox="0 0 24 24" fill="none" xmlns="http://www.w3.org/2000/svg">
<path fill-rule="evenodd" clip-rule="evenodd" d="M12 3.75488C7.44365 3.75488 3.75 7.44853 3.75 12.0049C3.75 16.5612 7.44365 20.2549 12 20.2549C16.5563 20.2549 20.25 16.5612 20.25 12.0049C20.25 7.44853 16.5563 3.75488 12 3.75488ZM2.25 12.0049C2.25 6.62011 6.61522 2.25488 12 2.25488C17.3848 2.25488 21.75 6.62011 21.75 12.0049C21.75 17.3897 17.3848 21.7549 12 21.7549C6.61522 21.7549 2.25 17.3897 2.25 12.0049ZM12 5.25488C12.4142 5.25488 12.75 5.59067 12.75 6.00488V6.82058C13.3768 6.93167 13.9745 7.1837 14.4691 7.57667L14.884 7.90626C15.2084 8.1639 15.2624 8.63569 15.0048 8.96002C14.7471 9.28435 14.2753 9.33841 13.951 9.08076L13.5361 8.75117C13.309 8.57074 13.0392 8.43951 12.75 8.35748V11.3145C13.4021 11.4192 14.0381 11.6639 14.5714 12.0639C15.3164 12.6227 15.75 13.4084 15.75 14.2549C15.75 15.1014 15.3164 15.887 14.5714 16.4459C14.0381 16.8458 13.4021 17.0905 12.75 17.1953V18.0049C12.75 18.4191 12.4142 18.7549 12 18.7549C11.5858 18.7549 11.25 18.4191 11.25 18.0049V17.1952C10.5979 17.0905 9.96206 16.8458 9.42886 16.4459L8.54999 15.7867C8.21862 15.5381 8.15147 15.068 8.40001 14.7367C8.64854 14.4053 9.11865 14.3382 9.45001 14.5867L10.3289 15.2459C10.5864 15.439 10.9028 15.582 11.25 15.6665V12.6892C10.6327 12.5799 10.033 12.3323 9.53058 11.9332C8.81822 11.3673 8.41752 10.5836 8.41752 9.75491C8.41752 8.92621 8.81822 8.14256 9.53058 7.57667C10.0253 7.18364 10.6231 6.9316 11.25 6.82054V6.00488C11.25 5.59067 11.5858 5.25488 12 5.25488ZM11.25 8.3574C10.9607 8.43942 10.6908 8.57068 10.4636 8.75117C10.0699 9.06395 9.91752 9.43196 9.91752 9.75491C9.91752 10.0779 10.0699 10.4459 10.4636 10.7586C10.686 10.9353 10.9552 11.0686 11.25 11.1524V8.3574ZM12.75 12.8432V15.6665C13.0972 15.5821 13.4138 15.4391 13.6713 15.2459C14.0978 14.926 14.25 14.56 14.25 14.2549C14.25 13.9498 14.0978 13.5837 13.6713 13.2639C13.4138 13.0707 13.0972 12.9277 12.75 12.8432Z" fill="#868E96"/>
</svg>
