<svg width="24" height="24" viewBox="0 0 24 24" fill="none" xmlns="http://www.w3.org/2000/svg">
<g clip-path="url(#clip0_394_22747)">
<path fill-rule="evenodd" clip-rule="evenodd" d="M8.25 2.25684C7.42157 2.25684 6.75 2.92841 6.75 3.75684V20.2568C6.75 21.0853 7.42157 21.7568 8.25 21.7568H15.75C16.5784 21.7568 17.25 21.0853 17.25 20.2568V3.75684C17.25 2.92841 16.5784 2.25684 15.75 2.25684H14.25V3.00684C14.25 3.42105 13.9142 3.75684 13.5 3.75684H10.5C10.0858 3.75684 9.75 3.42105 9.75 3.00684V2.25684H8.25ZM5.25 3.75684C5.25 2.09998 6.59315 0.756836 8.25 0.756836H15.75C17.4069 0.756836 18.75 2.09998 18.75 3.75684V20.2568C18.75 21.9137 17.4069 23.2568 15.75 23.2568H8.25C6.59315 23.2568 5.25 21.9137 5.25 20.2568V3.75684ZM9.75 20.2568C9.75 19.8426 10.0858 19.5068 10.5 19.5068H13.5C13.9142 19.5068 14.25 19.8426 14.25 20.2568C14.25 20.671 13.9142 21.0068 13.5 21.0068H10.5C10.0858 21.0068 9.75 20.671 9.75 20.2568Z" fill="#868E96"/>
</g>
<defs>
<clipPath id="clip0_394_22747">
<rect width="24" height="24" fill="white" transform="translate(0 0.00683594)"/>
</clipPath>
</defs>
</svg>
