<svg width="24" height="24" viewBox="0 0 24 24" fill="none" xmlns="http://www.w3.org/2000/svg">
<path fill-rule="evenodd" clip-rule="evenodd" d="M3.75 4.50684C3.75 2.84998 5.09315 1.50684 6.75 1.50684H17.25C18.9069 1.50684 20.25 2.84998 20.25 4.50684V19.5068C20.25 21.1637 18.9069 22.5068 17.25 22.5068H6.75C5.09315 22.5068 3.75 21.1637 3.75 19.5068V4.50684ZM6.75 3.00684C5.92157 3.00684 5.25 3.67841 5.25 4.50684V19.5068C5.25 20.3353 5.92157 21.0068 6.75 21.0068H17.25C18.0784 21.0068 18.75 20.3353 18.75 19.5068V4.50684C18.75 3.67841 18.0784 3.00684 17.25 3.00684H6.75ZM9.75 19.5068C9.75 19.0926 10.0858 18.7568 10.5 18.7568H13.5C13.9142 18.7568 14.25 19.0926 14.25 19.5068C14.25 19.921 13.9142 20.2568 13.5 20.2568H10.5C10.0858 20.2568 9.75 19.921 9.75 19.5068Z" fill="#868E96"/>
</svg>
