<svg width="24" height="24" viewBox="0 0 24 24" fill="none" xmlns="http://www.w3.org/2000/svg">
<path fill-rule="evenodd" clip-rule="evenodd" d="M5.62402 3.00928C5.41692 3.00928 5.24902 3.17717 5.24902 3.38428V20.6343C5.24902 20.8414 5.41692 21.0093 5.62402 21.0093H18.374C18.5811 21.0093 18.749 20.8414 18.749 20.6343V11.6343C18.749 10.1845 17.5738 9.00928 16.124 9.00928H14.624C13.5885 9.00928 12.749 8.16981 12.749 7.13428V5.63428C12.749 4.18453 11.5738 3.00928 10.124 3.00928H5.62402ZM13.7561 3.67713C14.0705 4.25947 14.249 4.92603 14.249 5.63428V7.13428C14.249 7.34138 14.4169 7.50928 14.624 7.50928H16.124C16.8323 7.50928 17.4988 7.68778 18.0812 8.00223C17.2478 6.06477 15.6935 4.51051 13.7561 3.67713ZM20.249 20.6343C20.249 21.6698 19.4096 22.5093 18.374 22.5093H5.62402C4.58849 22.5093 3.74902 21.6698 3.74902 20.6343V3.38428C3.74902 2.34874 4.58849 1.50928 5.62402 1.50928H10.499C15.8838 1.50928 20.249 5.8745 20.249 11.2593V20.6343ZM15.435 11.399C15.772 11.6397 15.8501 12.1081 15.6093 12.4452L11.8593 17.6952C11.7312 17.8746 11.5306 17.9885 11.3109 18.0067C11.0912 18.0249 10.8746 17.9455 10.7187 17.7896L8.46869 15.5396C8.1758 15.2467 8.1758 14.7718 8.46869 14.4789C8.76159 14.1861 9.23646 14.1861 9.52935 14.4789L11.1533 16.1029L14.3887 11.5733C14.6295 11.2363 15.0979 11.1582 15.435 11.399Z" fill="#868E96"/>
</svg>
