<svg width="24" height="24" viewBox="0 0 24 24" fill="none" xmlns="http://www.w3.org/2000/svg">
<path fill-rule="evenodd" clip-rule="evenodd" d="M5.625 1.50928H9C11.0711 1.50928 12.75 3.18821 12.75 5.25928V7.13428C12.75 8.16981 13.5895 9.00928 14.625 9.00928H16.5C18.5711 9.00928 20.25 10.6882 20.25 12.7593V20.6343C20.25 21.6698 19.4105 22.5093 18.375 22.5093H5.625C4.58947 22.5093 3.75 21.6698 3.75 20.6343V3.38428C3.75 2.34874 4.58947 1.50928 5.625 1.50928ZM12.5303 11.4789C12.3897 11.3383 12.1989 11.2593 12 11.2593C11.8011 11.2593 11.6103 11.3383 11.4697 11.4789L8.46967 14.4789C8.17678 14.7718 8.17678 15.2467 8.46967 15.5396C8.76256 15.8325 9.23744 15.8325 9.53033 15.5396L11.25 13.8199L11.25 18.0093C11.25 18.4235 11.5858 18.7593 12 18.7593C12.4142 18.7593 12.75 18.4235 12.75 18.0093L12.75 13.8199L14.4697 15.5396C14.7626 15.8325 15.2374 15.8325 15.5303 15.5396C15.8232 15.2467 15.8232 14.7718 15.5303 14.4789L12.5303 11.4789Z" fill="#868E96"/>
<path d="M14.25 5.25928C14.25 3.94622 13.768 2.74576 12.9712 1.82518C16.3701 2.71305 19.0462 5.38915 19.9341 8.78808C19.0135 7.99132 17.8131 7.50928 16.5 7.50928H14.625C14.4179 7.50928 14.25 7.34138 14.25 7.13428V5.25928Z" fill="#868E96"/>
</svg>
