<svg width="24" height="24" viewBox="0 0 24 24" fill="none" xmlns="http://www.w3.org/2000/svg">
<path fill-rule="evenodd" clip-rule="evenodd" d="M5.625 3.00928C5.41789 3.00928 5.25 3.17717 5.25 3.38428V20.6343C5.25 20.8414 5.41789 21.0093 5.625 21.0093H18.375C18.5821 21.0093 18.75 20.8414 18.75 20.6343V11.6343C18.75 10.1845 17.5747 9.00928 16.125 9.00928H14.625C13.5895 9.00928 12.75 8.16981 12.75 7.13428V5.63428C12.75 4.18453 11.5747 3.00928 10.125 3.00928H5.625ZM5.625 1.50928C4.58947 1.50928 3.75 2.34874 3.75 3.38428V20.6343C3.75 21.6698 4.58947 22.5093 5.625 22.5093H18.375C19.4105 22.5093 20.25 21.6698 20.25 20.6343V11.2593C20.25 5.8745 15.8848 1.50928 10.5 1.50928H5.625ZM13.757 3.67713C14.0715 4.25947 14.25 4.92603 14.25 5.63428V7.13428C14.25 7.34138 14.4179 7.50928 14.625 7.50928H16.125C16.8332 7.50928 17.4998 7.68778 18.0822 8.00223C17.2488 6.06477 15.6945 4.51051 13.757 3.67713ZM12 10.5093C12.1989 10.5093 12.3897 10.5883 12.5303 10.7289L15.5303 13.7289C15.8232 14.0218 15.8232 14.4967 15.5303 14.7896C15.2374 15.0825 14.7626 15.0825 14.4697 14.7896L12.75 13.0699L12.75 17.2593C12.75 17.6735 12.4142 18.0093 12 18.0093C11.5858 18.0093 11.25 17.6735 11.25 17.2593L11.25 13.0699L9.53033 14.7896C9.23744 15.0825 8.76256 15.0825 8.46967 14.7896C8.17678 14.4967 8.17678 14.0218 8.46967 13.7289L11.4697 10.7289C11.6103 10.5883 11.8011 10.5093 12 10.5093Z" fill="#868E96"/>
</svg>
