<svg width="24" height="24" viewBox="0 0 24 24" fill="none" xmlns="http://www.w3.org/2000/svg">
<path fill-rule="evenodd" clip-rule="evenodd" d="M5.625 3.00928C5.41789 3.00928 5.25 3.17717 5.25 3.38428V20.6343C5.25 20.8414 5.41789 21.0093 5.625 21.0093H18.375C18.5821 21.0093 18.75 20.8414 18.75 20.6343V11.6343C18.75 10.1845 17.5747 9.00928 16.125 9.00928H14.625C13.5895 9.00928 12.75 8.16981 12.75 7.13428V5.63428C12.75 4.18453 11.5747 3.00928 10.125 3.00928H5.625ZM5.625 1.50928C4.58947 1.50928 3.75 2.34874 3.75 3.38428V20.6343C3.75 21.6698 4.58947 22.5093 5.625 22.5093H18.375C19.4105 22.5093 20.25 21.6698 20.25 20.6343V11.2593C20.25 5.8745 15.8848 1.50928 10.5 1.50928H5.625ZM13.757 3.67713C14.0715 4.25947 14.25 4.92603 14.25 5.63428V7.13428C14.25 7.34138 14.4179 7.50928 14.625 7.50928H16.125C16.8332 7.50928 17.4998 7.68778 18.0822 8.00223C17.2488 6.06477 15.6945 4.51051 13.757 3.67713ZM15 11.2593C15.4142 11.2593 15.75 11.5951 15.75 12.0093V17.2593C15.75 17.6735 15.4142 18.0093 15 18.0093C14.5858 18.0093 14.25 17.6735 14.25 17.2593V12.0093C14.25 11.5951 14.5858 11.2593 15 11.2593ZM12 13.5093C12.4142 13.5093 12.75 13.8451 12.75 14.2593V17.2593C12.75 17.6735 12.4142 18.0093 12 18.0093C11.5858 18.0093 11.25 17.6735 11.25 17.2593V14.2593C11.25 13.8451 11.5858 13.5093 12 13.5093ZM9 15.7593C9.41421 15.7593 9.75 16.0951 9.75 16.5093V17.2593C9.75 17.6735 9.41421 18.0093 9 18.0093C8.58579 18.0093 8.25 17.6735 8.25 17.2593V16.5093C8.25 16.0951 8.58579 15.7593 9 15.7593Z" fill="#868E96"/>
</svg>
