<svg width="24" height="25" viewBox="0 0 24 25" fill="none" xmlns="http://www.w3.org/2000/svg">
<path d="M11.625 16.5117C12.6605 16.5117 13.5 15.6723 13.5 14.6367C13.5 13.6012 12.6605 12.7617 11.625 12.7617C10.5895 12.7617 9.75 13.6012 9.75 14.6367C9.75 15.6723 10.5895 16.5117 11.625 16.5117Z" fill="#868E96"/>
<path fill-rule="evenodd" clip-rule="evenodd" d="M5.625 1.51172H9C11.0711 1.51172 12.75 3.19065 12.75 5.26172V7.13672C12.75 8.17225 13.5895 9.01172 14.625 9.01172H16.5C18.5711 9.01172 20.25 10.6907 20.25 12.7617V20.6367C20.25 21.6723 19.4105 22.5117 18.375 22.5117H5.625C4.58947 22.5117 3.75 21.6723 3.75 20.6367V3.38672C3.75 2.35118 4.58947 1.51172 5.625 1.51172ZM11.625 18.0117C12.2854 18.0117 12.9016 17.822 13.4219 17.4941L14.4698 18.5421C14.7627 18.835 15.2376 18.835 15.5305 18.5421C15.8234 18.2492 15.8234 17.7743 15.5305 17.4814L14.4825 16.4334C14.8103 15.9132 15 15.2971 15 14.6367C15 12.7728 13.489 11.2617 11.625 11.2617C9.76104 11.2617 8.25 12.7728 8.25 14.6367C8.25 16.5007 9.76104 18.0117 11.625 18.0117Z" fill="#868E96"/>
<path d="M14.25 5.26172C14.25 3.94866 13.768 2.7482 12.9712 1.82762C16.3701 2.71549 19.0462 5.3916 19.9341 8.79053C19.0135 7.99376 17.8131 7.51172 16.5 7.51172H14.625C14.4179 7.51172 14.25 7.34383 14.25 7.13672V5.26172Z" fill="#868E96"/>
</svg>
