<svg width="24" height="24" viewBox="0 0 24 24" fill="none" xmlns="http://www.w3.org/2000/svg">
<path d="M5.62305 1.50684C4.58751 1.50684 3.74805 2.3463 3.74805 3.38184V20.6318C3.74805 21.6674 4.58751 22.5068 5.62305 22.5068H18.373C19.4086 22.5068 20.248 21.6674 20.248 20.6318V12.7568C20.248 10.6858 18.5691 9.00684 16.498 9.00684H14.623C13.5875 9.00684 12.748 8.16737 12.748 7.13184V5.25684C12.748 3.18577 11.0691 1.50684 8.99805 1.50684H5.62305Z" fill="#868E96"/>
<path d="M12.9692 1.82274C13.766 2.74331 14.248 3.94378 14.248 5.25684V7.13184C14.248 7.33894 14.4159 7.50684 14.623 7.50684H16.498C17.8111 7.50684 19.0116 7.98887 19.9321 8.78564C19.0443 5.38671 16.3682 2.71061 12.9692 1.82274Z" fill="#868E96"/>
</svg>
