<svg width="24" height="24" viewBox="0 0 24 24" fill="none" xmlns="http://www.w3.org/2000/svg">
<path fill-rule="evenodd" clip-rule="evenodd" d="M5.62305 1.50684H8.99805C11.0691 1.50684 12.748 3.18577 12.748 5.25684V7.13184C12.748 8.16737 13.5875 9.00684 14.623 9.00684H16.498C18.5691 9.00684 20.248 10.6858 20.248 12.7568V20.6318C20.248 21.6674 19.4086 22.5068 18.373 22.5068H5.62305C4.58751 22.5068 3.74805 21.6674 3.74805 20.6318V3.38184C3.74805 2.3463 4.58751 1.50684 5.62305 1.50684ZM11.4677 18.5372C11.7606 18.8301 12.2355 18.8301 12.5284 18.5372L15.5284 15.5372C15.8213 15.2443 15.8213 14.7694 15.5284 14.4765C15.2355 14.1836 14.7606 14.1836 14.4677 14.4765L12.748 16.1962L12.748 12.0068C12.748 11.5926 12.4123 11.2568 11.998 11.2568C11.5838 11.2568 11.248 11.5926 11.248 12.0068L11.248 16.1962L9.52838 14.4765C9.23548 14.1836 8.76061 14.1836 8.46772 14.4765C8.17482 14.7694 8.17482 15.2443 8.46772 15.5372L11.4677 18.5372Z" fill="#868E96"/>
<path d="M14.248 5.25684C14.248 3.94378 13.766 2.74331 12.9692 1.82274C16.3682 2.71061 19.0443 5.38671 19.9321 8.78564C19.0116 7.98887 17.8111 7.50684 16.498 7.50684H14.623C14.4159 7.50684 14.248 7.33894 14.248 7.13184V5.25684Z" fill="#868E96"/>
</svg>
