<svg width="24" height="25" viewBox="0 0 24 25" fill="none" xmlns="http://www.w3.org/2000/svg">
<path fill-rule="evenodd" clip-rule="evenodd" d="M9.375 3.01172C9.16789 3.01172 9 3.17961 9 3.38672V16.1367C9 16.3438 9.16789 16.5117 9.375 16.5117H19.125C19.3321 16.5117 19.5 16.3438 19.5 16.1367V11.6367C19.5 10.187 18.3247 9.01172 16.875 9.01172H15.375C14.3395 9.01172 13.5 8.17225 13.5 7.13672V5.63672C13.5 4.18697 12.3247 3.01172 10.875 3.01172H9.375ZM14.5069 3.67928C14.8214 4.26169 15 4.92835 15 5.63672V7.13672C15 7.34383 15.1679 7.51172 15.375 7.51172H16.875C17.5832 7.51172 18.2498 7.6902 18.8321 8.00464C17.9986 6.0671 16.4443 4.5126 14.5069 3.67928ZM21 16.1367C21 17.1723 20.1605 18.0117 19.125 18.0117H16.5V20.6367C16.5 21.6723 15.6605 22.5117 14.625 22.5117H4.875C3.83947 22.5117 3 21.6723 3 20.6367V7.88672C3 6.85118 3.83947 6.01172 4.875 6.01172H6.75C7.00224 6.01172 7.25236 6.02131 7.5 6.04017V3.38672C7.5 2.35118 8.33947 1.51172 9.375 1.51172H11.25C11.8028 1.51172 12.3454 1.5578 12.8741 1.64649C17.4859 2.42022 21 6.42986 21 11.2617V16.1367ZM7.5 7.5453C7.25313 7.52308 7.00297 7.51172 6.75 7.51172H4.875C4.66789 7.51172 4.5 7.67961 4.5 7.88672V20.6367C4.5 20.8438 4.66789 21.0117 4.875 21.0117H14.625C14.8321 21.0117 15 20.8438 15 20.6367V18.0117H9.375C8.33947 18.0117 7.5 17.1723 7.5 16.1367V7.5453Z" fill="#868E96"/>
</svg>
