<svg width="24" height="25" viewBox="0 0 24 25" fill="none" xmlns="http://www.w3.org/2000/svg">
<path fill-rule="evenodd" clip-rule="evenodd" d="M5.625 3.01172C5.41789 3.01172 5.25 3.17961 5.25 3.38672V19.8867C5.25 20.0938 5.41789 20.2617 5.625 20.2617H18.375C18.5821 20.2617 18.75 20.0938 18.75 19.8867V11.6367C18.75 10.187 17.5747 9.01172 16.125 9.01172H14.625C13.5895 9.01172 12.75 8.17225 12.75 7.13672V5.63672C12.75 4.18697 11.5747 3.01172 10.125 3.01172H5.625ZM5.625 1.51172C4.58947 1.51172 3.75 2.35118 3.75 3.38672V19.8867C3.75 20.9223 4.58947 21.7617 5.625 21.7617H18.375C19.4105 21.7617 20.25 20.9223 20.25 19.8867V11.2617C20.25 5.87694 15.8848 1.51172 10.5 1.51172H5.625ZM13.757 3.67957C14.0715 4.26191 14.25 4.92847 14.25 5.63672V7.13672C14.25 7.34383 14.4179 7.51172 14.625 7.51172H16.125C16.8332 7.51172 17.4998 7.69022 18.0822 8.00467C17.2488 6.06721 15.6945 4.51295 13.757 3.67957ZM11.625 12.0117C10.5895 12.0117 9.75 12.8512 9.75 13.8867C9.75 14.9223 10.5895 15.7617 11.625 15.7617C12.1423 15.7617 12.6107 15.5522 12.95 15.2134C12.9503 15.2131 12.9505 15.2128 12.9508 15.2125C13.2437 14.9197 13.7186 14.9197 14.0115 15.2125L14.4825 15.6835C14.2128 16.1114 13.8497 16.4745 13.4218 16.7442" fill="#868E96"/>
</svg>
