<svg width="24" height="25" viewBox="0 0 24 25" fill="none" xmlns="http://www.w3.org/2000/svg">
<path fill-rule="evenodd" clip-rule="evenodd" d="M4.5 12.0117C4.5 11.1833 5.17157 10.5117 6 10.5117C6.82843 10.5117 7.5 11.1833 7.5 12.0117C7.5 12.8401 6.82843 13.5117 6 13.5117C5.17157 13.5117 4.5 12.8401 4.5 12.0117ZM10.5 12.0117C10.5 11.1833 11.1716 10.5117 12 10.5117C12.8284 10.5117 13.5 11.1833 13.5 12.0117C13.5 12.8401 12.8284 13.5117 12 13.5117C11.1716 13.5117 10.5 12.8401 10.5 12.0117ZM16.5 12.0117C16.5 11.1833 17.1716 10.5117 18 10.5117C18.8284 10.5117 19.5 11.1833 19.5 12.0117C19.5 12.8401 18.8284 13.5117 18 13.5117C17.1716 13.5117 16.5 12.8401 16.5 12.0117Z" fill="#868E96"/>
</svg>
