<svg width="24" height="25" viewBox="0 0 24 25" fill="none" xmlns="http://www.w3.org/2000/svg">
<path fill-rule="evenodd" clip-rule="evenodd" d="M10.5 6.01172C10.5 5.18329 11.1716 4.51172 12 4.51172C12.8284 4.51172 13.5 5.18329 13.5 6.01172C13.5 6.84015 12.8284 7.51172 12 7.51172C11.1716 7.51172 10.5 6.84015 10.5 6.01172ZM10.5 12.0117C10.5 11.1833 11.1716 10.5117 12 10.5117C12.8284 10.5117 13.5 11.1833 13.5 12.0117C13.5 12.8401 12.8284 13.5117 12 13.5117C11.1716 13.5117 10.5 12.8401 10.5 12.0117ZM10.5 18.0117C10.5 17.1833 11.1716 16.5117 12 16.5117C12.8284 16.5117 13.5 17.1833 13.5 18.0117C13.5 18.8401 12.8284 19.5117 12 19.5117C11.1716 19.5117 10.5 18.8401 10.5 18.0117Z" fill="#868E96"/>
</svg>
