<svg width="24" height="25" viewBox="0 0 24 25" fill="none" xmlns="http://www.w3.org/2000/svg">
<path fill-rule="evenodd" clip-rule="evenodd" d="M1.5 6.76172C1.5 5.10486 2.84315 3.76172 4.5 3.76172H19.5C21.1569 3.76172 22.5 5.10486 22.5 6.76172V17.2617C22.5 18.9186 21.1569 20.2617 19.5 20.2617H4.5C2.84315 20.2617 1.5 18.9186 1.5 17.2617V6.76172ZM3 6.76172V7.00443C3 7.52532 3.27023 8.00892 3.71385 8.28192L11.2139 12.8973C11.696 13.194 12.304 13.194 12.7861 12.8973L20.2861 8.28192C20.7298 8.00892 21 7.52532 21 7.00443V6.76172C21 5.93329 20.3284 5.26172 19.5 5.26172H4.5C3.67157 5.26172 3 5.93329 3 6.76172ZM21 9.60389L13.5723 14.1748C12.6081 14.7682 11.3919 14.7682 10.4277 14.1748L3 9.60389V17.2617C3 18.0901 3.67157 18.7617 4.5 18.7617H19.5C20.3284 18.7617 21 18.0901 21 17.2617V9.60389Z" fill="#868E96"/>
</svg>
