<svg width="24" height="25" viewBox="0 0 24 25" fill="none" xmlns="http://www.w3.org/2000/svg">
<path d="M19.5 22.5119C21.1569 22.5119 22.5 21.1688 22.5 19.5119V11.3381L15.6212 15.36L19.1056 17.2362C19.4703 17.4326 19.6067 17.8874 19.4104 18.2522C19.214 18.6169 18.7591 18.7533 18.3944 18.5569L12.7112 15.4967C12.2672 15.2576 11.7328 15.2576 11.2889 15.4967L5.60558 18.5569C5.24087 18.7533 4.78603 18.6169 4.58965 18.2522C4.39327 17.8874 4.52972 17.4326 4.89442 17.2362L8.37878 15.36L1.5 11.3381V19.5119C1.5 21.1688 2.84315 22.5119 4.5 22.5119L19.5 22.5119Z" fill="#868E96"/>
<path d="M1.5 9.60057V8.85584C1.5 7.7522 2.10597 6.73767 3.0777 6.21443L10.5777 2.17597C11.4656 1.69785 12.5344 1.69785 13.4223 2.17597L20.9223 6.21443C21.894 6.73767 22.5 7.7522 22.5 8.85585V9.60057L14.0742 14.527L13.4223 14.176C12.5344 13.6979 11.4656 13.6979 10.5777 14.176L9.92585 14.527L1.5 9.60057Z" fill="#868E96"/>
</svg>
