<svg width="24" height="25" viewBox="0 0 24 25" fill="none" xmlns="http://www.w3.org/2000/svg">
<path fill-rule="evenodd" clip-rule="evenodd" d="M9.40136 3.01695C10.5558 1.01584 13.444 1.01584 14.5985 3.01695L21.9528 15.7644C23.1066 17.7644 21.6632 20.2636 19.3542 20.2636H4.64559C2.33661 20.2636 0.893183 17.7644 2.04703 15.7644L9.40136 3.01695ZM12.0001 8.26355C12.4143 8.26355 12.7501 8.59934 12.7501 9.01355V12.7635C12.7501 13.1778 12.4143 13.5135 12.0001 13.5135C11.5859 13.5135 11.2501 13.1778 11.2501 12.7635V9.01355C11.2501 8.59934 11.5859 8.26355 12.0001 8.26355ZM12.0001 16.5135C12.4143 16.5135 12.7501 16.1778 12.7501 15.7635C12.7501 15.3493 12.4143 15.0135 12.0001 15.0135C11.5859 15.0135 11.2501 15.3493 11.2501 15.7635C11.2501 16.1778 11.5859 16.5135 12.0001 16.5135Z" fill="#868E96"/>
</svg>
