<svg width="24" height="25" viewBox="0 0 24 25" fill="none" xmlns="http://www.w3.org/2000/svg">
<path d="M3.53033 2.48334C3.23744 2.19045 2.76256 2.19045 2.46967 2.48334C2.17678 2.77623 2.17678 3.25111 2.46967 3.544L20.4697 21.544C20.7626 21.8369 21.2374 21.8369 21.5303 21.544C21.8232 21.2511 21.8232 20.7762 21.5303 20.4833L3.53033 2.48334Z" fill="#868E96"/>
<path d="M22.6759 12.567C22.1319 14.2024 21.2226 15.6712 20.0447 16.8764L16.9462 13.7779C17.1429 13.2265 17.25 12.6326 17.25 12.0137C17.25 9.11418 14.8995 6.76367 12 6.76367C11.3811 6.76367 10.7871 6.87078 10.2358 7.06746L7.75898 4.59067C9.06783 4.05748 10.4998 3.76367 12.0005 3.76367C16.9708 3.76367 21.1864 6.98639 22.6755 11.4541C22.7959 11.8152 22.796 12.2058 22.6759 12.567Z" fill="#868E96"/>
<path d="M15.75 12.0137C15.75 12.1938 15.7373 12.371 15.7127 12.5444L11.4692 8.30094C11.6426 8.27638 11.8198 8.26367 12 8.26367C14.0711 8.26367 15.75 9.9426 15.75 12.0137Z" fill="#868E96"/>
<path d="M12.5307 15.7264L8.28727 11.4829C8.2627 11.6563 8.25 11.8335 8.25 12.0137C8.25 14.0847 9.92893 15.7637 12 15.7637C12.1802 15.7637 12.3574 15.751 12.5307 15.7264Z" fill="#868E96"/>
<path d="M6.75 12.0137C6.75 11.3947 6.8571 10.8008 7.05379 10.2494L3.95492 7.15058C2.77687 8.3559 1.86747 9.82481 1.32341 11.4604C1.20328 11.8215 1.2034 12.2122 1.32374 12.5732C2.81284 17.041 7.02847 20.2637 11.9988 20.2637C13.4997 20.2637 14.9318 19.9698 16.2408 19.4365L13.7642 16.9599C13.2129 17.1566 12.6189 17.2637 12 17.2637C9.1005 17.2637 6.75 14.9132 6.75 12.0137Z" fill="#868E96"/>
</svg>
