<svg width="24" height="25" viewBox="0 0 24 25" fill="none" xmlns="http://www.w3.org/2000/svg">
<path d="M12 15.0137C13.6569 15.0137 15 13.6705 15 12.0137C15 10.3568 13.6569 9.01367 12 9.01367C10.3431 9.01367 9 10.3568 9 12.0137C9 13.6705 10.3431 15.0137 12 15.0137Z" fill="#868E96"/>
<path fill-rule="evenodd" clip-rule="evenodd" d="M1.32341 11.4604C2.81066 6.98938 7.02791 3.76367 12.0005 3.76367C16.9708 3.76367 21.1864 6.98639 22.6755 11.4541C22.7959 11.8152 22.796 12.2058 22.6759 12.567C21.1886 17.038 16.9714 20.2637 11.9988 20.2637C7.02847 20.2637 2.81284 17.041 1.32374 12.5732C1.2034 12.2122 1.20328 11.8215 1.32341 11.4604ZM17.25 12.0137C17.25 14.9132 14.8995 17.2637 12 17.2637C9.1005 17.2637 6.75 14.9132 6.75 12.0137C6.75 9.11418 9.1005 6.76367 12 6.76367C14.8995 6.76367 17.25 9.11418 17.25 12.0137Z" fill="#868E96"/>
</svg>
