<svg width="24" height="25" viewBox="0 0 24 25" fill="none" xmlns="http://www.w3.org/2000/svg">
<path fill-rule="evenodd" clip-rule="evenodd" d="M12.001 5.26367C7.69357 5.26367 4.03669 8.05741 2.74722 11.9338C2.72943 11.9873 2.72944 12.0454 2.74727 12.0989C4.03834 15.9725 7.69382 18.7637 11.9993 18.7637C16.3067 18.7637 19.9636 15.9699 21.253 12.0935C21.2708 12.04 21.2708 11.9819 21.253 11.9284C19.9619 8.05481 16.3064 5.26367 12.001 5.26367ZM1.3239 11.4604C2.81115 6.98938 7.0284 3.76367 12.001 3.76367C16.9713 3.76367 21.1869 6.98639 22.676 11.4541C22.7964 11.8152 22.7965 12.2058 22.6764 12.567C21.1891 17.038 16.9719 20.2637 11.9993 20.2637C7.02896 20.2637 2.81332 17.041 1.32423 12.5732C1.20389 12.2122 1.20377 11.8215 1.3239 11.4604ZM12.0002 9.76367C10.7576 9.76367 9.7502 10.771 9.7502 12.0137C9.7502 13.2563 10.7576 14.2637 12.0002 14.2637C13.2428 14.2637 14.2502 13.2563 14.2502 12.0137C14.2502 10.771 13.2428 9.76367 12.0002 9.76367ZM8.2502 12.0137C8.2502 9.9426 9.92913 8.26367 12.0002 8.26367C14.0713 8.26367 15.7502 9.9426 15.7502 12.0137C15.7502 14.0847 14.0713 15.7637 12.0002 15.7637C9.92913 15.7637 8.2502 14.0847 8.2502 12.0137Z" fill="#868E96"/>
</svg>
