<svg width="24" height="25" viewBox="0 0 24 25" fill="none" xmlns="http://www.w3.org/2000/svg">
<path fill-rule="evenodd" clip-rule="evenodd" d="M11.999 2.26367C6.61425 2.26367 2.24902 6.6289 2.24902 12.0137C2.24902 17.3984 6.61425 21.7637 11.999 21.7637C17.3838 21.7637 21.749 17.3984 21.749 12.0137C21.749 6.6289 17.3838 2.26367 11.999 2.26367ZM9.37402 8.26367C8.83335 8.26367 8.54576 8.68248 8.43804 8.89793C8.30788 9.15824 8.24902 9.46538 8.24902 9.76367C8.24902 10.062 8.30788 10.3691 8.43804 10.6294C8.54576 10.8449 8.83335 11.2637 9.37402 11.2637C9.9147 11.2637 10.2023 10.8449 10.31 10.6294C10.4402 10.3691 10.499 10.062 10.499 9.76367C10.499 9.46538 10.4402 9.15824 10.31 8.89793C10.2023 8.68248 9.9147 8.26367 9.37402 8.26367ZM13.688 8.89793C13.7958 8.68248 14.0833 8.26367 14.624 8.26367C15.1647 8.26367 15.4523 8.68248 15.56 8.89793C15.6902 9.15824 15.749 9.46538 15.749 9.76367C15.749 10.062 15.6902 10.3691 15.56 10.6294C15.4523 10.8449 15.1647 11.2637 14.624 11.2637C14.0833 11.2637 13.7958 10.8449 13.688 10.6294C13.5579 10.3691 13.499 10.062 13.499 9.76367C13.499 9.46538 13.5579 9.15824 13.688 8.89793ZM9.34771 16.8619C9.05482 17.1548 8.57995 17.1548 8.28705 16.8619C7.99416 16.569 7.99416 16.0941 8.28705 15.8012C9.31663 14.7717 10.669 14.259 12.0174 14.2636C13.3538 14.2681 14.6913 14.7809 15.7117 15.8012C16.0046 16.0941 16.0046 16.569 15.7117 16.8619C15.4188 17.1548 14.9439 17.1548 14.651 16.8619C13.9219 16.1328 12.9688 15.7668 12.0123 15.7636C11.0471 15.7603 10.0834 16.1263 9.34771 16.8619Z" fill="#868E96"/>
</svg>
