<svg width="24" height="25" viewBox="0 0 24 25" fill="none" xmlns="http://www.w3.org/2000/svg">
<path fill-rule="evenodd" clip-rule="evenodd" d="M19.5 21.0186C21.1569 21.0186 22.5 19.6754 22.5 18.0186V9.01855C22.5 7.3617 21.1569 6.01855 19.5 6.01855H14.1213C13.9224 6.01855 13.7316 5.93954 13.591 5.79889L11.4697 3.67756C11.0477 3.25561 10.4754 3.01855 9.87868 3.01855H4.5C2.84315 3.01855 1.5 4.3617 1.5 6.01855V18.0186C1.5 19.6754 2.84315 21.0186 4.5 21.0186H19.5ZM9 12.7686C8.58579 12.7686 8.25 13.1043 8.25 13.5186C8.25 13.9328 8.58579 14.2686 9 14.2686H15C15.4142 14.2686 15.75 13.9328 15.75 13.5186C15.75 13.1043 15.4142 12.7686 15 12.7686H9Z" fill="#868E96"/>
</svg>
