<svg width="24" height="25" viewBox="0 0 24 25" fill="none" xmlns="http://www.w3.org/2000/svg">
<path d="M19.5 21.0186C21.1569 21.0186 22.5 19.6754 22.5 18.0186V13.5186C22.5 11.8617 21.1569 10.5186 19.5 10.5186H4.5C2.84315 10.5186 1.5 11.8617 1.5 13.5186V18.0186C1.5 19.6754 2.84315 21.0186 4.5 21.0186H19.5Z" fill="#868E96"/>
<path d="M1.5 10.1644V6.01855C1.5 4.3617 2.84315 3.01855 4.5 3.01855H9.87868C10.4754 3.01855 11.0477 3.25561 11.4697 3.67756L13.591 5.79889C13.7316 5.93954 13.9224 6.01855 14.1213 6.01855H19.5C21.1569 6.01855 22.5 7.3617 22.5 9.01855V10.1644C21.7039 9.45184 20.6525 9.01855 19.5 9.01855H4.5C3.34747 9.01855 2.29613 9.45184 1.5 10.1644Z" fill="#868E96"/>
</svg>
