<svg width="24" height="25" viewBox="0 0 24 25" fill="none" xmlns="http://www.w3.org/2000/svg">
<path fill-rule="evenodd" clip-rule="evenodd" d="M4.5 4.51855C3.67157 4.51855 3 5.19013 3 6.01855V18.0186C3 18.847 3.67157 19.5186 4.5 19.5186H19.5C20.3284 19.5186 21 18.847 21 18.0186V9.01855C21 8.19013 20.3284 7.51855 19.5 7.51855H14.1213C13.5246 7.51855 12.9523 7.2815 12.5303 6.85955L10.409 4.73822C10.2684 4.59757 10.0776 4.51855 9.87868 4.51855H4.5ZM1.5 6.01855C1.5 4.3617 2.84315 3.01855 4.5 3.01855H9.87868C10.4754 3.01855 11.0477 3.25561 11.4697 3.67756L13.591 5.79889C13.7316 5.93954 13.9224 6.01855 14.1213 6.01855H19.5C21.1569 6.01855 22.5 7.3617 22.5 9.01855V18.0186C22.5 19.6754 21.1569 21.0186 19.5 21.0186H4.5C2.84315 21.0186 1.5 19.6754 1.5 18.0186V6.01855ZM11.25 10.5186C11.25 10.1043 11.5858 9.76855 12 9.76855C12.4142 9.76855 12.75 10.1043 12.75 10.5186L12.75 14.7079L14.4697 12.9882C14.7626 12.6953 15.2374 12.6953 15.5303 12.9882C15.8232 13.2811 15.8232 13.756 15.5303 14.0489L12.5303 17.0489C12.3897 17.1895 12.1989 17.2686 12 17.2686C11.8011 17.2686 11.6103 17.1895 11.4697 17.0489L8.46967 14.0489C8.17678 13.756 8.17678 13.2811 8.46967 12.9882C8.76256 12.6953 9.23744 12.6953 9.53033 12.9882L11.25 14.7079L11.25 10.5186Z" fill="#868E96"/>
</svg>
