<svg width="24" height="25" viewBox="0 0 24 25" fill="none" xmlns="http://www.w3.org/2000/svg">
<path fill-rule="evenodd" clip-rule="evenodd" d="M4.49902 4.51855C3.6706 4.51855 2.99902 5.19013 2.99902 6.01855V18.0186C2.99902 18.847 3.6706 19.5186 4.49902 19.5186H19.499C20.3274 19.5186 20.999 18.847 20.999 18.0186V9.01855C20.999 8.19013 20.3274 7.51855 19.499 7.51855H14.1203C13.5236 7.51855 12.9513 7.2815 12.5294 6.85955L10.408 4.73822C10.2674 4.59757 10.0766 4.51855 9.8777 4.51855H4.49902ZM1.49902 6.01855C1.49902 4.3617 2.84217 3.01855 4.49902 3.01855H9.8777C10.4744 3.01855 11.0467 3.25561 11.4687 3.67756L13.59 5.79889C13.7307 5.93954 13.9214 6.01855 14.1203 6.01855H19.499C21.1559 6.01855 22.499 7.3617 22.499 9.01855V18.0186C22.499 19.6754 21.1559 21.0186 19.499 21.0186H4.49902C2.84217 21.0186 1.49902 19.6754 1.49902 18.0186V6.01855ZM11.999 9.76855C12.4132 9.76855 12.749 10.1043 12.749 10.5186V12.7686H14.999C15.4132 12.7686 15.749 13.1043 15.749 13.5186C15.749 13.9328 15.4132 14.2686 14.999 14.2686H12.749V16.5186C12.749 16.9328 12.4132 17.2686 11.999 17.2686C11.5848 17.2686 11.249 16.9328 11.249 16.5186V14.2686H8.99902C8.58481 14.2686 8.24902 13.9328 8.24902 13.5186C8.24902 13.1043 8.58481 12.7686 8.99902 12.7686H11.249V10.5186C11.249 10.1043 11.5848 9.76855 11.999 9.76855Z" fill="#868E96"/>
</svg>
