<svg width="24" height="25" viewBox="0 0 24 25" fill="none" xmlns="http://www.w3.org/2000/svg">
<path fill-rule="evenodd" clip-rule="evenodd" d="M3.79154 2.95924C6.46066 2.50661 9.20314 2.271 12.0001 2.271C14.7969 2.271 17.5394 2.50661 20.2085 2.95922C21.1108 3.11224 21.75 3.89776 21.75 4.79502V5.83902C21.75 6.63467 21.4339 7.39773 20.8713 7.96034L14.6893 14.1423C14.408 14.4236 14.25 14.8052 14.25 15.203V18.1304C14.25 19.2667 13.608 20.3055 12.5916 20.8137L10.8354 21.6918C10.6029 21.8081 10.3268 21.7956 10.1057 21.659C9.88459 21.5223 9.75 21.2809 9.75 21.021V15.203C9.75 14.8052 9.59196 14.4236 9.31066 14.1423L3.12868 7.96034C2.56607 7.39773 2.25 6.63466 2.25 5.83902V4.79504C2.25 3.89778 2.88917 3.11227 3.79154 2.95924Z" fill="#868E96"/>
</svg>
