<svg width="24" height="25" viewBox="0 0 24 25" fill="none" xmlns="http://www.w3.org/2000/svg">
<path fill-rule="evenodd" clip-rule="evenodd" d="M9.375 3.021C8.33947 3.021 7.5 3.86046 7.5 4.896C7.5 5.93153 8.33947 6.771 9.375 6.771H11.25V4.896C11.25 3.86046 10.4105 3.021 9.375 3.021ZM12 2.7745C11.3813 2.00987 10.4352 1.521 9.375 1.521C7.51104 1.521 6 3.03204 6 4.896C6 5.5898 6.20935 6.23471 6.56833 6.771H3.375C2.33947 6.771 1.5 7.61046 1.5 8.646V10.146C1.5 11.0531 2.14416 11.8098 3 11.9835V19.521C3 20.7636 4.00736 21.771 5.25 21.771H19.5C20.7426 21.771 21.75 20.7636 21.75 19.521V11.9835C22.6058 11.8098 23.25 11.0531 23.25 10.146V8.646C23.25 7.61046 22.4105 6.771 21.375 6.771H17.4317C17.7906 6.23471 18 5.5898 18 4.896C18 3.03204 16.489 1.521 14.625 1.521C13.5648 1.521 12.6187 2.00987 12 2.7745ZM12.75 8.271V10.521H21.375C21.5821 10.521 21.75 10.3531 21.75 10.146V8.646C21.75 8.43889 21.5821 8.271 21.375 8.271H12.75ZM20.25 12.021H12.75V20.271H19.5C19.9142 20.271 20.25 19.9352 20.25 19.521V12.021ZM11.25 20.271V12.021H4.5V19.521C4.5 19.9352 4.83579 20.271 5.25 20.271H11.25ZM11.25 10.521V8.271H3.375C3.16789 8.271 3 8.43889 3 8.646V10.146C3 10.3531 3.16789 10.521 3.375 10.521H11.25ZM12.75 6.771H14.625C15.6605 6.771 16.5 5.93153 16.5 4.896C16.5 3.86046 15.6605 3.021 14.625 3.021C13.5895 3.021 12.75 3.86046 12.75 4.896V6.771Z" fill="#868E96"/>
</svg>
