<svg width="24" height="25" viewBox="0 0 24 25" fill="none" xmlns="http://www.w3.org/2000/svg">
<path d="M9.375 3.021C8.33947 3.021 7.5 3.86046 7.5 4.896C7.5 5.93153 8.33947 6.771 9.375 6.771H11.25V11.271H3.375C2.33947 11.271 1.5 10.4315 1.5 9.396V8.646C1.5 7.61046 2.33947 6.771 3.375 6.771H6.56833C6.20935 6.23471 6 5.5898 6 4.896C6 3.03203 7.51104 1.521 9.375 1.521C10.4352 1.521 11.3813 2.00987 12 2.7745C12.6187 2.00987 13.5648 1.521 14.625 1.521C16.489 1.521 18 3.03203 18 4.896C18 5.5898 17.7906 6.23471 17.4317 6.771H21.375C22.4105 6.771 23.25 7.61046 23.25 8.646V9.396C23.25 10.4315 22.4105 11.271 21.375 11.271H12.75V6.771H14.625C15.6605 6.771 16.5 5.93153 16.5 4.896C16.5 3.86046 15.6605 3.021 14.625 3.021C13.5895 3.021 12.75 3.86046 12.75 4.896V6.771H11.25V4.896C11.25 3.86046 10.4105 3.021 9.375 3.021Z" fill="#868E96"/>
<path d="M11.25 12.771H3V19.521C3 20.7636 4.00736 21.771 5.25 21.771H11.25V12.771Z" fill="#868E96"/>
<path d="M12.75 12.771V21.771H19.5C20.7426 21.771 21.75 20.7636 21.75 19.521V12.771H12.75Z" fill="#868E96"/>
</svg>
