<svg width="24" height="25" viewBox="0 0 24 25" fill="none" xmlns="http://www.w3.org/2000/svg">
<path fill-rule="evenodd" clip-rule="evenodd" d="M5.1392 7.43757C5.73654 7.89793 6.38132 8.29955 7.06498 8.63383C7.30482 7.3932 7.67417 6.26768 8.1472 5.32162C8.29118 5.03366 8.44837 4.7561 8.61825 4.49361C7.20101 5.13126 5.99608 6.15755 5.1392 7.43757ZM12 2.271C8.3534 2.271 5.17543 4.27326 3.50379 7.23478C2.70535 8.64932 2.25 10.2831 2.25 12.021C2.25 12.8627 2.35682 13.6805 2.55803 14.4611C3.64146 18.6646 7.45701 21.771 12 21.771C16.543 21.771 20.3585 18.6646 21.442 14.4611C21.6432 13.6805 21.75 12.8627 21.75 12.021C21.75 10.2831 21.2947 8.64932 20.4962 7.23478C18.8246 4.27326 15.6466 2.271 12 2.271ZM12 3.771C11.1945 3.771 10.2633 4.44349 9.48884 5.99245C9.0479 6.87433 8.69814 7.97152 8.48423 9.21093C9.5902 9.57442 10.772 9.771 12 9.771C13.228 9.771 14.4098 9.57442 15.5158 9.21093C15.3019 7.97152 14.9521 6.87433 14.5112 5.99245C13.7367 4.44349 12.8055 3.771 12 3.771ZM16.935 8.63383C16.6952 7.3932 16.3258 6.26768 15.8528 5.32162C15.7088 5.03366 15.5516 4.7561 15.3817 4.49361C16.799 5.13126 18.0039 6.15755 18.8608 7.43757C18.2635 7.89793 17.6187 8.29955 16.935 8.63383ZM15.7017 10.7251C14.53 11.0801 13.2872 11.271 12 11.271C10.7128 11.271 9.46996 11.0801 8.29832 10.7251C8.26657 11.1466 8.25 11.5793 8.25 12.021C8.25 13.2445 8.37714 14.3992 8.60185 15.4365C9.70027 15.6559 10.8365 15.771 12 15.771C13.1635 15.771 14.2997 15.6559 15.3981 15.4365C15.6229 14.3992 15.75 13.2445 15.75 12.021C15.75 11.5793 15.7334 11.1466 15.7017 10.7251ZM17.0027 15.0346C17.1639 14.0827 17.25 13.0689 17.25 12.021C17.25 11.3943 17.2192 10.7798 17.16 10.1835C18.023 9.8011 18.8356 9.32579 19.5851 8.7703C20.0129 9.76721 20.25 10.8657 20.25 12.021C20.25 12.6234 20.1856 13.2099 20.0634 13.7744C19.0944 14.2878 18.0705 14.7116 17.0027 15.0346ZM14.9409 17.0416C13.9826 17.1926 13.0004 17.271 12 17.271C10.9996 17.271 10.0174 17.1926 9.0591 17.0416C9.18976 17.4021 9.33365 17.7392 9.48884 18.0495C10.2633 19.5985 11.1945 20.271 12 20.271C12.8055 20.271 13.7367 19.5985 14.5112 18.0495C14.6664 17.7392 14.8102 17.4021 14.9409 17.0416ZM15.3819 19.5482C15.5517 19.2857 15.7089 19.0083 15.8528 18.7204C16.1562 18.1135 16.417 17.4328 16.6283 16.6952C17.5649 16.4574 18.4735 16.1491 19.348 15.7762C18.4955 17.441 17.0936 18.7779 15.3819 19.5482ZM8.61812 19.5482C8.44828 19.2858 8.29114 19.0083 8.1472 18.7204C7.84377 18.1135 7.583 17.4328 7.37171 16.6952C6.4351 16.4574 5.52652 16.1491 4.65199 15.7762C5.50454 17.441 6.9064 18.7779 8.61812 19.5482ZM3.93656 13.7744C4.90563 14.2878 5.92951 14.7116 6.99729 15.0346C6.83612 14.0827 6.75 13.0689 6.75 12.021C6.75 11.3943 6.7808 10.7798 6.84003 10.1835C5.97701 9.8011 5.16437 9.32579 4.41491 8.7703C3.98705 9.76721 3.75 10.8657 3.75 12.021C3.75 12.6234 3.81444 13.2099 3.93656 13.7744Z" fill="#868E96"/>
</svg>
