<svg width="24" height="25" viewBox="0 0 24 25" fill="none" xmlns="http://www.w3.org/2000/svg">
<path fill-rule="evenodd" clip-rule="evenodd" d="M9.58465 4.12999C9.51716 4.32479 9.42947 4.51295 9.32248 4.69127L7.91058 7.04443C7.85622 7.13503 7.8905 7.25272 7.98499 7.29997C8.0536 7.33427 8.1392 7.32113 8.19536 7.26497C8.51077 6.94956 8.93962 6.771 9.38709 6.771H9.56802C9.96584 6.771 10.3474 6.61296 10.6287 6.33166L11.159 6.86199L10.6287 6.33166L10.7197 6.24066C10.9479 6.0124 11.2967 5.95581 11.5854 6.10018L12.2503 6.43263C13.0573 6.83614 13.4625 7.75722 13.2146 8.62478L13.0062 9.35448C12.7378 10.2937 11.7934 10.8695 10.8356 10.678L9.65774 10.4424C9.03613 10.3181 8.40348 10.5979 8.07733 11.1415L7.98791 11.2905C7.89109 11.4519 7.8255 11.6301 7.79456 11.8157L7.78752 11.8579C7.67164 12.5532 8.05554 13.2354 8.71003 13.4972L9.36417 13.7589C10.5031 14.2145 11.25 15.3176 11.25 16.5443V17.7158C11.25 17.8844 11.3866 18.021 11.5552 18.021C12.033 18.021 12.4758 17.7703 12.7216 17.3606L14.0362 15.1695C14.1761 14.9364 14.25 14.6696 14.25 14.3978V13.987C14.25 13.4897 14.4475 13.0128 14.7992 12.6612L15.3295 13.1915L14.7992 12.6612L14.9993 12.461C15.1667 12.2937 15.1391 12.0151 14.9422 11.8838L14.3554 11.4927C13.779 11.1084 13.5064 10.4032 13.6744 9.73109C13.8992 8.83199 14.824 8.29784 15.7151 8.55245L16.988 8.91613C17.015 8.92384 17.044 8.91631 17.0639 8.89647C17.6255 8.33485 18.5723 8.48849 18.9275 9.19889L18.2567 9.5343L18.9275 9.19889L20.0075 11.359C20.07 11.484 20.1496 11.5995 20.244 11.7023C20.0765 7.29367 16.4496 3.771 12 3.771C11.1586 3.771 10.3478 3.89671 9.58465 4.12999ZM20.0858 13.6675L19.2278 12.8095C18.9998 12.5815 18.8101 12.3182 18.6659 12.0298L17.7643 10.2267C17.4059 10.422 16.9796 10.4738 16.5759 10.3584L15.303 9.99473C15.2273 9.97309 15.1487 10.0185 15.1296 10.0949C15.1153 10.152 15.1385 10.2119 15.1875 10.2446L15.7742 10.6358C16.7587 11.2921 16.8966 12.685 16.06 13.5217L15.5297 12.9913L16.06 13.5217L15.8598 13.7218C15.7895 13.7921 15.75 13.8875 15.75 13.987V14.3978C15.75 14.9415 15.6022 15.475 15.3225 15.9413L14.0079 18.1323C13.4909 18.9938 12.5599 19.521 11.5552 19.521C10.5582 19.521 9.75 18.7128 9.75 17.7158V16.5443C9.75 15.931 9.37657 15.3794 8.80709 15.1516L8.15294 14.8899C6.84396 14.3664 6.07616 13.002 6.30793 11.6113L6.31497 11.5691C6.37685 11.1978 6.50803 10.8415 6.70168 10.5188L6.79109 10.3698C7.44339 9.28262 8.70869 8.72288 9.95191 8.97153L11.1298 9.20709C11.3213 9.24541 11.5102 9.13024 11.5639 8.9424L11.7724 8.2127C11.8219 8.03919 11.7409 7.85497 11.5795 7.77427L11.37 7.66952C10.8534 8.05765 10.2217 8.271 9.56802 8.271H9.38709C9.33886 8.271 9.29113 8.29052 9.25603 8.32563C8.74525 8.83641 7.96269 8.96587 7.31417 8.64161C6.43816 8.2036 6.12044 7.11253 6.62434 6.27269L7.2033 5.30776C5.11207 6.80473 3.75 9.25437 3.75 12.021C3.75 16.5773 7.44365 20.271 12 20.271C15.9922 20.271 19.3232 17.4348 20.0858 13.6675ZM8.71162 2.83966C9.73996 2.47131 10.8474 2.271 12 2.271C17.3848 2.271 21.75 6.63622 21.75 12.021C21.75 12.5334 21.7104 13.0371 21.634 13.529C20.9086 18.1979 16.8723 21.771 12 21.771C6.61522 21.771 2.25 17.4058 2.25 12.021C2.25 7.78898 4.94588 4.18855 8.71162 2.83966Z" fill="#868E96"/>
</svg>
