<svg width="24" height="25" viewBox="0 0 24 25" fill="none" xmlns="http://www.w3.org/2000/svg">
<path fill-rule="evenodd" clip-rule="evenodd" d="M12 3.771C7.44365 3.771 3.75 7.46465 3.75 12.021C3.75 12.9607 3.90684 13.8627 4.1955 14.7029L4.51512 14.0637C5.13847 12.817 6.85587 12.6622 7.69217 13.7772L8.37142 14.6829C8.43108 14.7624 8.53909 14.7879 8.62802 14.7435C8.72373 14.6956 8.76678 14.5824 8.72704 14.483L8.30364 13.4245C8.15878 13.0624 8.3157 12.6496 8.66459 12.4752L11.2926 11.1611C11.4849 11.065 11.5494 10.8222 11.4302 10.6433C10.7508 9.62432 11.2264 8.2383 12.3882 7.85102L12.5305 7.80361C12.8469 7.69813 13.1192 7.49018 13.3042 7.21263L13.8152 6.44609L14.4393 6.86212L13.8152 6.44609C13.9215 6.28664 13.8905 6.07268 13.7433 5.95L12.6747 5.05949C12.2863 4.73585 12.0467 4.27068 12.0062 3.771C12.0041 3.771 12.0021 3.771 12 3.771ZM13.6758 3.94118L14.7035 4.79767L14.2587 5.33147L14.7035 4.79767C15.4397 5.4111 15.5948 6.48086 15.0633 7.27814L14.5738 6.95185L15.0633 7.27814L14.5523 8.04469C14.1822 8.59977 13.6377 9.01567 13.0048 9.22663L12.8626 9.27405C12.639 9.34856 12.5475 9.61522 12.6782 9.81127C13.2979 10.7408 12.9627 12.0032 11.9635 12.5028L9.95265 13.5082L10.1198 13.9259C10.4492 14.7496 10.0923 15.6884 9.29884 16.0851L9.01135 15.5101L9.29884 16.0851C8.56151 16.4538 7.66603 16.2424 7.17142 15.5829L6.49217 14.6772L7.09217 14.2272L6.49217 14.6772C6.32491 14.4542 5.98143 14.4852 5.85676 14.7345L5.17082 16.1064C5.12316 16.2017 5.05639 16.2846 4.97591 16.3507C6.42992 18.7044 9.03261 20.271 12 20.271C12.397 20.271 12.7871 20.243 13.1685 20.189C12.9641 19.7838 12.5465 19.521 12.0828 19.521C11.2356 19.521 10.5126 18.9085 10.3733 18.0728L10.3003 17.635C10.1436 16.6944 10.7178 15.7859 11.6347 15.5239L12.6235 15.2414C12.8486 15.1771 13.0363 15.0213 13.141 14.8119L13.1775 14.7389C13.5507 13.9925 14.3136 13.521 15.1481 13.521C15.7324 13.521 16.2928 13.7531 16.7059 14.1663L16.8107 14.271H17.1283C18.0792 14.271 18.9516 14.7191 19.5085 15.4446C19.9847 14.4021 20.25 13.2431 20.25 12.021C20.25 8.03893 17.4283 4.71525 13.6758 3.94118ZM18.6067 16.9629L18.5513 16.7967C18.3471 16.1841 17.7739 15.771 17.1283 15.771H16.5C16.3011 15.771 16.1103 15.692 15.9697 15.5513L15.6453 15.2269C15.5134 15.0951 15.3346 15.021 15.1481 15.021C14.8818 15.021 14.6383 15.1715 14.5192 15.4097L14.4827 15.4827C14.1899 16.0682 13.6649 16.5039 13.0355 16.6837L12.0468 16.9662C11.8634 17.0186 11.7486 17.2003 11.7799 17.3884L11.8529 17.8262C11.8716 17.9386 11.9689 18.021 12.0828 18.021C13.2377 18.021 14.2646 18.751 14.6458 19.8378C16.2397 19.2985 17.6165 18.2845 18.6067 16.9629ZM2.25 12.021C2.25 6.63622 6.61522 2.271 12 2.271C12.2732 2.271 12.5439 2.28225 12.8117 2.30434C17.8171 2.71728 21.75 6.90946 21.75 12.021C21.75 14.0558 21.1259 15.947 20.0585 17.5109C18.7274 19.4613 16.7056 20.9047 14.3424 21.4876C13.5913 21.6729 12.8066 21.771 12 21.771C8.12905 21.771 4.78645 19.5151 3.21243 16.2496C2.59542 14.9696 2.25 13.5346 2.25 12.021ZM15.7498 8.271C16.164 8.271 16.4998 8.60678 16.4998 9.021C16.4998 10.1411 16.0077 11.1473 15.2304 11.8333C14.9199 12.1074 14.4459 12.0778 14.1718 11.7673C13.8977 11.4567 13.9273 10.9828 14.2378 10.7087C14.7062 10.2953 14.9998 9.6929 14.9998 9.021C14.9998 8.60678 15.3355 8.271 15.7498 8.271Z" fill="#868E96"/>
</svg>
