<svg width="24" height="25" viewBox="0 0 24 25" fill="none" xmlns="http://www.w3.org/2000/svg">
<path d="M21.7214 12.7727C21.7404 12.5246 21.75 12.2739 21.75 12.0209C21.75 10.4968 21.4003 9.05427 20.7767 7.76935C19.5396 8.94369 18.0671 9.87245 16.4374 10.4775C16.4789 10.9865 16.5 11.5013 16.5 12.0209C16.5 13.1221 16.4051 14.2012 16.2229 15.2503C18.2163 14.7487 20.0717 13.9002 21.7214 12.7727Z" fill="#868E96"/>
<path d="M14.6343 15.5711C14.874 14.4253 15 13.2378 15 12.0209C15 11.6525 14.9885 11.2869 14.9657 10.9242C14.0141 11.1509 13.021 11.2709 12 11.2709C10.979 11.2709 9.98594 11.1509 9.0343 10.9242C9.01155 11.2869 9 11.6525 9 12.0209C9 13.2378 9.12601 14.4253 9.3657 15.5711C10.2246 15.7027 11.1043 15.7709 12 15.7709C12.8957 15.7709 13.7754 15.7027 14.6343 15.5711Z" fill="#868E96"/>
<path d="M9.77224 17.14C10.5028 17.2264 11.2462 17.2709 12 17.2709C12.7538 17.2709 13.4972 17.2264 14.2278 17.14C13.714 18.7956 12.9575 20.3445 12 21.745C11.0425 20.3445 10.286 18.7956 9.77224 17.14Z" fill="#868E96"/>
<path d="M7.77705 15.2503C7.59493 14.2012 7.5 13.1221 7.5 12.0209C7.5 11.5013 7.52114 10.9865 7.56261 10.4775C5.93286 9.87245 4.46039 8.94369 3.22333 7.76934C2.59973 9.05427 2.25 10.4968 2.25 12.0209C2.25 12.2739 2.25964 12.5246 2.27856 12.7727C3.92826 13.9002 5.78374 14.7487 7.77705 15.2503Z" fill="#868E96"/>
<path d="M21.3561 14.7735C20.3404 18.2314 17.4597 20.8915 13.8776 21.5903C14.744 20.1333 15.4185 18.5488 15.8664 16.8718C17.8263 16.461 19.6736 15.7441 21.3561 14.7735Z" fill="#868E96"/>
<path d="M2.64395 14.7735C4.32642 15.7441 6.17372 16.461 8.13356 16.8718C8.58146 18.5488 9.25602 20.1333 10.1224 21.5903C6.54027 20.8915 3.65964 18.2314 2.64395 14.7735Z" fill="#868E96"/>
<path d="M13.8776 2.45155C16.3991 2.94345 18.5731 4.4072 19.9937 6.43699C18.9351 7.50584 17.6637 8.36351 16.2483 8.94116C15.862 6.60382 15.0435 4.41232 13.8776 2.45155Z" fill="#868E96"/>
<path d="M12 2.29688C13.4287 4.38647 14.4097 6.80637 14.805 9.41844C13.9083 9.64856 12.9684 9.77093 12 9.77093C11.0316 9.77093 10.0917 9.64856 9.19503 9.41844C9.5903 6.80637 10.5713 4.38647 12 2.29688Z" fill="#868E96"/>
<path d="M10.1224 2.45155C8.95648 4.41232 8.13795 6.60382 7.75171 8.94116C6.33629 8.36351 5.06489 7.50584 4.00635 6.43699C5.42689 4.4072 7.60085 2.94344 10.1224 2.45155Z" fill="#868E96"/>
</svg>
