<svg width="24" height="24" viewBox="0 0 24 24" fill="none" xmlns="http://www.w3.org/2000/svg">
<path d="M7.49281 18.5049C7.06823 18.5049 6.67296 18.2684 6.51759 17.8733C6.18349 17.0236 6 16.0982 6 15.1299C6 13.3808 6.59874 11.7716 7.60244 10.4959C7.75335 10.3041 7.97456 10.187 8.20214 10.0989C8.67496 9.91579 9.09254 9.58456 9.4141 9.17455C10.1873 8.18872 11.1617 7.36828 12.2755 6.7751C12.9977 6.39051 13.6243 5.81917 13.9281 5.05952C14.1408 4.52798 14.25 3.96075 14.25 3.38826V2.75488C14.25 2.34067 14.5858 2.00488 15 2.00488C16.2426 2.00488 17.25 3.01224 17.25 4.25488C17.25 5.40651 16.9904 6.49752 16.5266 7.47259C16.261 8.03093 16.6336 8.75488 17.2519 8.75488H20.3777C21.4044 8.75488 22.3233 9.44888 22.432 10.4697C22.4769 10.892 22.5 11.3207 22.5 11.7549C22.5 14.6025 21.5081 17.2185 19.851 19.2761C19.4634 19.7574 18.8642 20.0049 18.2462 20.0049H14.2302C13.7466 20.0049 13.2661 19.9269 12.8072 19.774L9.69278 18.7358C9.23393 18.5829 8.75342 18.5049 8.26975 18.5049H7.49281Z" fill="#868E96"/>
<path d="M2.33149 10.732C1.79481 12.0938 1.5 13.5774 1.5 15.1299C1.5 16.35 1.68208 17.5275 2.02056 18.6368C2.27991 19.4869 3.10418 20.0049 3.99289 20.0049H4.90067C5.3462 20.0049 5.62137 19.5066 5.42423 19.1071C4.83248 17.9078 4.5 16.5577 4.5 15.1299C4.5 13.4217 4.97588 11.8247 5.8023 10.4641C6.0473 10.0608 5.77404 9.50488 5.30212 9.50488H4.24936C3.41733 9.50488 2.63655 9.95792 2.33149 10.732Z" fill="#868E96"/>
</svg>
