<svg width="24" height="24" viewBox="0 0 24 24" fill="none" xmlns="http://www.w3.org/2000/svg">
<path d="M15.7303 5.50489L16.7647 5.50489C17.5455 6.68831 18 8.10602 18 9.62989C18 11.1537 17.5455 12.5715 16.7647 13.7549L16.6174 13.7549C15.8111 13.7549 15.0835 14.2007 14.5859 14.8352C13.8127 15.821 12.8383 16.6415 11.7245 17.2347C11.0023 17.6193 10.3757 18.1906 10.0719 18.9502C9.85924 19.4818 9.75 20.049 9.75 20.6215V21.2549C9.75 21.6691 9.41421 22.0049 9 22.0049C7.75736 22.0049 6.75 20.9975 6.75 19.7549C6.75 18.6033 7.00956 17.5122 7.47337 16.5372C7.73896 15.9788 7.36638 15.2549 6.74809 15.2549L3.62227 15.2549C2.59564 15.2549 1.6767 14.5609 1.56801 13.54C1.52306 13.1178 1.5 12.689 1.5 12.2549C1.5 9.40726 2.49188 6.79131 4.149 4.73366C4.5366 4.25237 5.13581 4.00488 5.75377 4.00488L9.76975 4.00488C10.2534 4.00488 10.7339 4.08286 11.1928 4.23581L14.3072 5.27396C14.7661 5.42691 15.2466 5.50489 15.7303 5.50489Z" fill="#868E96"/>
<path d="M21.6685 14.0278C22.2052 12.666 22.5 11.1823 22.5 9.62989C22.5 8.40981 22.3179 7.23226 21.9794 6.12293C21.7201 5.27291 20.8958 4.75489 20.0071 4.75489L19.0993 4.75489C18.6538 4.75489 18.3786 5.25315 18.5758 5.65269C19.1675 6.85197 19.5 8.2021 19.5 9.62989C19.5 11.3381 19.0241 12.9351 18.1977 14.2956C17.9527 14.699 18.226 15.2549 18.6979 15.2549H19.7506C20.5827 15.2549 21.3635 14.8019 21.6685 14.0278Z" fill="#868E96"/>
</svg>
