<svg width="24" height="24" viewBox="0 0 24 24" fill="none" xmlns="http://www.w3.org/2000/svg">
<path fill-rule="evenodd" clip-rule="evenodd" d="M11.0974 1.51959C11.5035 1.60083 11.767 1.99594 11.6857 2.40211L10.6651 7.50503H15.1351L16.2146 2.10794C16.2958 1.70177 16.6909 1.43836 17.0971 1.51959C17.5033 1.60083 17.7667 1.99594 17.6854 2.40211L16.6649 7.50503H20.25C20.6642 7.50503 21 7.84081 21 8.25503C21 8.66924 20.6642 9.00503 20.25 9.00503H16.3649L15.1649 15.005H18.75C19.1642 15.005 19.5 15.3408 19.5 15.755C19.5 16.1692 19.1642 16.505 18.75 16.505H14.8649L13.7854 21.9021C13.7042 22.3083 13.3091 22.5717 12.9029 22.4905C12.4967 22.4092 12.2333 22.0141 12.3146 21.6079L13.3351 16.505H8.86515L7.78573 21.9021C7.70449 22.3083 7.30938 22.5717 6.90321 22.4905C6.49704 22.4092 6.23362 22.0141 6.31486 21.6079L7.33544 16.505H3.75C3.33579 16.505 3 16.1692 3 15.755C3 15.3408 3.33579 15.005 3.75 15.005H7.63544L8.83544 9.00503H5.25C4.83579 9.00503 4.5 8.66924 4.5 8.25503C4.5 7.84081 4.83579 7.50503 5.25 7.50503H9.13544L10.2149 2.10794C10.2961 1.70177 10.6912 1.43836 11.0974 1.51959ZM10.3651 9.00503L9.16515 15.005H13.6351L14.8351 9.00503H10.3651Z" fill="#868E96"/>
</svg>
