<svg width="24" height="24" viewBox="0 0 24 24" fill="none" xmlns="http://www.w3.org/2000/svg">
<path d="M11.4697 3.84565C11.7626 3.55275 12.2374 3.55275 12.5303 3.84565L21.2197 12.535C21.5126 12.8279 21.9874 12.8279 22.2803 12.535C22.5732 12.2421 22.5732 11.7672 22.2803 11.4743L13.591 2.78499C12.7123 1.90631 11.2877 1.90631 10.409 2.78499L1.71967 11.4743C1.42678 11.7672 1.42678 12.2421 1.71967 12.535C2.01256 12.8279 2.48744 12.8279 2.78033 12.535L11.4697 3.84565Z" fill="#868E96"/>
<path d="M12 5.43664L20.159 13.5956C20.1887 13.6254 20.2191 13.6541 20.25 13.6818V19.8797C20.25 20.9152 19.4105 21.7547 18.375 21.7547H15C14.5858 21.7547 14.25 21.4189 14.25 21.0047V16.5047C14.25 16.0904 13.9142 15.7547 13.5 15.7547H10.5C10.0858 15.7547 9.75 16.0904 9.75 16.5047V21.0047C9.75 21.4189 9.41421 21.7547 9 21.7547H5.625C4.58947 21.7547 3.75 20.9152 3.75 19.8797V13.6818C3.78093 13.6541 3.81127 13.6254 3.84099 13.5956L12 5.43664Z" fill="#868E96"/>
</svg>
