<svg width="24" height="24" viewBox="0 0 24 24" fill="none" xmlns="http://www.w3.org/2000/svg">
<path d="M19.0055 3.70993C19.3948 3.56838 19.5956 3.13805 19.4541 2.74878C19.3125 2.3595 18.8822 2.15869 18.4929 2.30024L5.99939 6.84334V3.00509C5.99939 2.59088 5.6636 2.25509 5.24939 2.25509H3.74939C3.33518 2.25509 2.99939 2.59088 2.99939 3.00509V7.93425L1.99292 8.30024C1.60365 8.4418 1.40283 8.87212 1.54438 9.26139C1.68594 9.65067 2.11626 9.85149 2.50553 9.70993L19.0055 3.70993Z" fill="#868E96"/>
<path fill-rule="evenodd" clip-rule="evenodd" d="M3.01834 11.1196L17.9994 5.67196V9.09346L22.0055 10.5502C22.3948 10.6918 22.5956 11.1221 22.4541 11.5114C22.3125 11.9007 21.8822 12.1015 21.4929 11.9599L20.9992 11.7804V20.2551H21.7494C22.1636 20.2551 22.4994 20.5909 22.4994 21.0051C22.4994 21.4193 22.1636 21.7551 21.7494 21.7551H2.24939C1.83518 21.7551 1.49939 21.4193 1.49939 21.0051C1.49939 20.5909 1.83518 20.2551 2.24939 20.2551H2.99939V11.1264L3.01834 11.1196ZM17.9994 20.2551V10.6896L19.4992 11.235V20.2551H17.9994ZM8.99939 14.2551C8.58518 14.2551 8.24939 14.5909 8.24939 15.0051V19.5051C8.24939 19.9193 8.58518 20.2551 8.99939 20.2551H11.9994C12.4136 20.2551 12.7494 19.9193 12.7494 19.5051V15.0051C12.7494 14.5909 12.4136 14.2551 11.9994 14.2551H8.99939Z" fill="#868E96"/>
</svg>
