<svg width="24" height="24" viewBox="0 0 24 24" fill="none" xmlns="http://www.w3.org/2000/svg">
<path fill-rule="evenodd" clip-rule="evenodd" d="M12.2652 3.58054C12.1187 3.43409 11.8813 3.43409 11.7348 3.58054L5.25 10.0654V19.8797C5.25 20.0868 5.41789 20.2547 5.625 20.2547H9V16.1297C9 15.0942 9.83947 14.2547 10.875 14.2547H13.125C14.1605 14.2547 15 15.0942 15 16.1297V20.2547H18.375C18.5821 20.2547 18.75 20.0868 18.75 19.8797V10.0654L12.2652 3.58054ZM20.25 11.5654L21.2197 12.535C21.5126 12.8279 21.9874 12.8279 22.2803 12.535C22.5732 12.2421 22.5732 11.7673 22.2803 11.4744L13.3258 2.51988C12.5936 1.78764 11.4064 1.78765 10.6742 2.51988L1.71967 11.4744C1.42678 11.7673 1.42678 12.2421 1.71967 12.535C2.01256 12.8279 2.48744 12.8279 2.78033 12.535L3.75 11.5654V19.8797C3.75 20.9152 4.58947 21.7547 5.625 21.7547H18.375C19.4105 21.7547 20.25 20.9152 20.25 19.8797V11.5654ZM13.5 20.2547H10.5V16.1297C10.5 15.9226 10.6679 15.7547 10.875 15.7547H13.125C13.3321 15.7547 13.5 15.9226 13.5 16.1297V20.2547Z" fill="#868E96"/>
</svg>
