<svg width="24" height="24" viewBox="0 0 24 24" fill="none" xmlns="http://www.w3.org/2000/svg">
<path fill-rule="evenodd" clip-rule="evenodd" d="M19.4546 2.74878C19.5961 3.13805 19.3953 3.56838 19.006 3.70993L17.9997 4.07586V9.21452L21.9869 10.5436C22.3798 10.6746 22.5922 11.0993 22.4612 11.4923C22.3302 11.8852 21.9055 12.0976 21.5125 11.9666L20.9997 11.7957V20.2551H21.7497C22.1639 20.2551 22.4997 20.5909 22.4997 21.0051C22.4997 21.4193 22.1639 21.7551 21.7497 21.7551H2.24972C1.8355 21.7551 1.49972 21.4193 1.49972 21.0051C1.49972 20.5909 1.8355 20.2551 2.24972 20.2551H2.99972V9.53041L2.50602 9.70993C2.11675 9.85149 1.68643 9.65067 1.54487 9.26139C1.40332 8.87212 1.60413 8.4418 1.99341 8.30024L2.99972 7.93431V3.00509C2.99972 2.59087 3.3355 2.25509 3.74972 2.25509H6.74972C7.16393 2.25509 7.49972 2.59087 7.49972 3.00509V6.29795L18.4934 2.30024C18.8827 2.15869 19.313 2.3595 19.4546 2.74878ZM5.99972 6.8434V3.75509H4.49972V7.38886L5.99972 6.8434ZM4.49972 8.98495V20.2551H7.49972V16.1301C7.49972 15.0946 8.33918 14.2551 9.37472 14.2551H11.6247C12.6602 14.2551 13.4997 15.0946 13.4997 16.1301V20.2551H16.4997V9.77259C16.4994 9.76102 16.4994 9.74942 16.4997 9.7378V4.62132L4.49972 8.98495ZM17.9997 10.7957V20.2551H19.4997V11.2957L17.9997 10.7957ZM8.99972 20.2551H11.9997V16.1301C11.9997 15.923 11.8318 15.7551 11.6247 15.7551H9.37472C9.16761 15.7551 8.99972 15.923 8.99972 16.1301V20.2551Z" fill="#868E96"/>
</svg>
