<svg width="24" height="24" viewBox="0 0 24 24" fill="none" xmlns="http://www.w3.org/2000/svg">
<path fill-rule="evenodd" clip-rule="evenodd" d="M7.78485 4.50684C7.34697 4.50684 6.93094 4.69818 6.64597 5.03065L3.88067 8.25684H7.04584C8.0489 8.25684 8.98559 8.75814 9.54199 9.59274L9.70609 9.83889C9.98429 10.2562 10.4526 10.5068 10.9542 10.5068H13.0458C13.5474 10.5068 14.0157 10.2562 14.2939 9.83889L14.458 9.59273C15.0144 8.75814 15.9511 8.25684 16.9542 8.25684H20.1193L17.354 5.03065C17.0691 4.69818 16.653 4.50684 16.2151 4.50684H7.78485ZM20.9977 9.75684H16.9542C16.4526 9.75684 15.9843 10.0075 15.7061 10.4248L15.542 10.6709C14.9856 11.5055 14.0489 12.0068 13.0458 12.0068H10.9542C9.9511 12.0068 9.01441 11.5055 8.45801 10.6709L8.29391 10.4248C8.01571 10.0075 7.54737 9.75684 7.04584 9.75684H3.00226C3.00076 9.78419 3 9.81164 3 9.83916V12.0068C3 12.8353 3.67157 13.5068 4.5 13.5068H7.86201C7.8702 13.5067 7.87839 13.5067 7.88657 13.5068H16.1134C16.1216 13.5067 16.1298 13.5067 16.138 13.5068H19.5C20.3284 13.5068 21 12.8353 21 12.0068V9.83917C21 9.81164 20.9992 9.78419 20.9977 9.75684ZM21.8062 13.9256C22.2394 13.4055 22.5 12.7366 22.5 12.0068V9.83917C22.5 9.4561 22.4267 9.07976 22.2872 8.7294C22.1659 8.42475 21.9945 8.13967 21.7778 7.88679L18.4929 4.05446C17.923 3.38952 17.0909 3.00684 16.2151 3.00684H7.78485C6.90908 3.00684 6.07703 3.38952 5.50708 4.05446L2.22223 7.88679C2.00548 8.13967 1.83411 8.42475 1.71281 8.7294C1.57331 9.07976 1.5 9.4561 1.5 9.83916V12.0068C1.5 12.7366 1.76058 13.4055 2.19377 13.9256C1.77048 14.2694 1.5 14.794 1.5 15.3818V18.0068C1.5 19.6637 2.84315 21.0068 4.5 21.0068H19.5C21.1569 21.0068 22.5 19.6637 22.5 18.0068V15.3818C22.5 14.794 22.2295 14.2694 21.8062 13.9256ZM3.375 15.0068C3.16789 15.0068 3 15.1747 3 15.3818V18.0068C3 18.8353 3.67157 19.5068 4.5 19.5068H19.5C20.3284 19.5068 21 18.8353 21 18.0068V15.3818C21 15.1747 20.8321 15.0068 20.625 15.0068H16.5407L15.5469 16.5968C14.9987 17.474 14.0373 18.0068 13.0029 18.0068H10.9971C9.96269 18.0068 9.00128 17.474 8.45306 16.5968L7.45931 15.0068H3.375ZM9.22819 15.0068L9.72506 15.8018C9.99917 16.2404 10.4799 16.5068 10.9971 16.5068H13.0029C13.5201 16.5068 14.0008 16.2404 14.2749 15.8018L14.7718 15.0068H9.22819Z" fill="#868E96"/>
</svg>
