<svg width="24" height="24" viewBox="0 0 24 24" fill="none" xmlns="http://www.w3.org/2000/svg">
<path fill-rule="evenodd" clip-rule="evenodd" d="M6.9113 3.00488C5.59429 3.00488 4.43128 3.86385 4.04397 5.12263L1.63217 12.961C1.54423 13.2468 1.49951 13.5442 1.49951 13.8432V18.0049C1.49951 19.6617 2.84266 21.0049 4.49951 21.0049H19.4995C21.1564 21.0049 22.4995 19.6617 22.4995 18.0049V13.8432C22.4995 13.5442 22.4548 13.2468 22.3668 12.961L19.9551 5.12263C19.5677 3.86385 18.4047 3.00488 17.0877 3.00488H6.9113ZM20.734 12.7549L18.5214 5.56375C18.3277 4.93437 17.7462 4.50488 17.0877 4.50488H6.9113C6.2528 4.50488 5.67129 4.93437 5.47764 5.56375L3.26498 12.7549H6.10894C7.24525 12.7549 8.28404 13.3969 8.79222 14.4132L9.04845 14.9257C9.30254 15.4339 9.82193 15.7549 10.3901 15.7549H13.6089C14.1771 15.7549 14.6965 15.4339 14.9506 14.9257L15.2068 14.4132C15.715 13.3969 16.7538 12.7549 17.8901 12.7549H20.734Z" fill="#868E96"/>
</svg>
