<svg width="24" height="24" viewBox="0 0 24 24" fill="none" xmlns="http://www.w3.org/2000/svg">
<path fill-rule="evenodd" clip-rule="evenodd" d="M1.5 9.83917V11.6318C1.5 12.6674 2.33947 13.5068 3.375 13.5068H20.625C21.6605 13.5068 22.5 12.6674 22.5 11.6318V9.83916C22.5 9.12303 22.2438 8.43052 21.7778 7.88679L18.4929 4.05446C17.923 3.38952 17.0909 3.00684 16.2151 3.00684H7.78485C6.90908 3.00684 6.07703 3.38952 5.50708 4.05446L2.22223 7.88679C1.75618 8.43052 1.5 9.12303 1.5 9.83917ZM7.78485 4.50684C7.34697 4.50684 6.93094 4.69818 6.64597 5.03065L3.88067 8.25684H7.04584C8.0489 8.25684 8.98559 8.75814 9.54199 9.59273L9.70609 9.83889C9.98429 10.2562 10.4526 10.5068 10.9542 10.5068H13.0458C13.5474 10.5068 14.0157 10.2562 14.2939 9.83889L14.458 9.59273C15.0144 8.75814 15.9511 8.25684 16.9542 8.25684H20.1193L17.354 5.03065C17.0691 4.69818 16.653 4.50684 16.2151 4.50684H7.78485Z" fill="#868E96"/>
<path d="M2.8125 15.0068C2.08763 15.0068 1.5 15.5945 1.5 16.3193V18.0068C1.5 19.6637 2.84315 21.0068 4.5 21.0068H19.5C21.1569 21.0068 22.5 19.6637 22.5 18.0068V16.3193C22.5 15.5945 21.9124 15.0068 21.1875 15.0068H16.9542C15.9511 15.0068 15.0144 15.5081 14.458 16.3427L14.2939 16.5889C14.0157 17.0062 13.5474 17.2568 13.0458 17.2568H10.9542C10.4526 17.2568 9.98429 17.0062 9.70609 16.5889L9.54199 16.3427C8.98559 15.5081 8.0489 15.0068 7.04584 15.0068H2.8125Z" fill="#868E96"/>
</svg>
