<svg width="24" height="24" viewBox="0 0 24 24" fill="none" xmlns="http://www.w3.org/2000/svg">
<path fill-rule="evenodd" clip-rule="evenodd" d="M2.25 12.0068C2.25 6.62206 6.61522 2.25684 12 2.25684C17.3848 2.25684 21.75 6.62206 21.75 12.0068C21.75 17.3916 17.3848 21.7568 12 21.7568C6.61522 21.7568 2.25 17.3916 2.25 12.0068ZM10.9562 10.5653C12.1025 9.99217 13.3931 11.0275 13.0823 12.2707L12.3733 15.1068L12.4148 15.086C12.7852 14.9008 13.2357 15.051 13.421 15.4214C13.6062 15.7919 13.4561 16.2424 13.0856 16.4277L13.0441 16.4484C11.8979 17.0215 10.6072 15.9862 10.9181 14.743L11.6271 11.9069L11.5856 11.9277C11.2151 12.1129 10.7646 11.9627 10.5793 11.5923C10.3941 11.2218 10.5443 10.7713 10.9148 10.586L10.9562 10.5653ZM12 9.00684C12.4142 9.00684 12.75 8.67105 12.75 8.25684C12.75 7.84262 12.4142 7.50684 12 7.50684C11.5858 7.50684 11.25 7.84262 11.25 8.25684C11.25 8.67105 11.5858 9.00684 12 9.00684Z" fill="#868E96"/>
</svg>
