<svg width="24" height="24" viewBox="0 0 24 24" fill="none" xmlns="http://www.w3.org/2000/svg">
<path fill-rule="evenodd" clip-rule="evenodd" d="M10.497 3.75102C10.497 3.33678 10.8327 3.00098 11.247 3.00098H18.7468C19.161 3.00098 19.4968 3.33678 19.4968 3.75102C19.4968 4.16525 19.161 4.50106 18.7468 4.50106H15.4719L10.1148 19.5026H12.7469C13.1612 19.5026 13.497 19.8384 13.497 20.2526C13.497 20.6668 13.1612 21.0026 12.7469 21.0026H5.24709C4.83286 21.0026 4.49707 20.6668 4.49707 20.2526C4.49707 19.8384 4.83286 19.5026 5.24709 19.5026H8.52202L13.8791 4.50106H11.247C10.8327 4.50106 10.497 4.16525 10.497 3.75102Z" fill="#868E96"/>
</svg>
