<svg width="24" height="24" viewBox="0 0 24 24" fill="none" xmlns="http://www.w3.org/2000/svg">
<path fill-rule="evenodd" clip-rule="evenodd" d="M8.9982 2.25684C9.41242 2.25684 9.7482 2.59262 9.7482 3.00684V4.51249C10.6326 4.52583 11.5113 4.56273 12.3838 4.62259C13.2932 4.68499 14.1959 4.77234 15.091 4.88396C15.502 4.93522 15.7937 5.30997 15.7424 5.721C15.6912 6.13203 15.3164 6.42369 14.9054 6.37243C14.2459 6.29019 13.5821 6.22154 12.9144 6.16677C12.3236 8.47654 11.3042 10.6142 9.94614 12.4902C10.263 12.8735 10.5961 13.2429 10.9444 13.5973C11.2347 13.8927 11.2306 14.3676 10.9352 14.6579C10.6398 14.9482 10.1649 14.9441 9.87456 14.6487C9.57169 14.3405 9.27937 14.0219 8.9982 13.6934C7.42707 15.5288 5.50761 17.0569 3.34243 18.1755C2.97442 18.3656 2.52198 18.2213 2.33186 17.8533C2.14175 17.4853 2.28597 17.0329 2.65398 16.8428C4.73577 15.7673 6.57033 14.2805 8.05028 12.4902C7.18418 11.2938 6.45577 9.99084 5.88841 8.60457C5.73152 8.22122 5.9151 7.78327 6.29845 7.62638C6.6818 7.46948 7.11975 7.65306 7.27664 8.03641C7.73896 9.16603 8.31777 10.2359 8.9982 11.231C10.0631 9.67358 10.8792 7.93287 11.3894 6.06628C10.5974 6.02681 9.80016 6.00684 8.9982 6.00684C6.99734 6.00684 5.02586 6.13116 3.09101 6.37243C2.67998 6.42369 2.30522 6.13203 2.25397 5.721C2.20271 5.30997 2.49437 4.93522 2.9054 4.88396C4.65934 4.66525 6.44199 4.53974 8.2482 4.51249V3.00684C8.2482 2.59262 8.58399 2.25684 8.9982 2.25684ZM15.7482 9.00684C16.0396 9.00684 16.3046 9.17562 16.4278 9.43967L21.6778 20.6897C21.853 21.065 21.6907 21.5113 21.3154 21.6865C20.94 21.8616 20.4937 21.6994 20.3186 21.324L19.1206 18.7568H12.3758L11.1778 21.324C11.0027 21.6994 10.5564 21.8616 10.181 21.6865C9.80569 21.5113 9.6434 21.065 9.81857 20.6897L15.0686 9.43967C15.1918 9.17562 15.4568 9.00684 15.7482 9.00684ZM13.0758 17.2568H18.4206L15.7482 11.5304L13.0758 17.2568Z" fill="#868E96"/>
</svg>
