<svg width="24" height="24" viewBox="0 0 24 24" fill="none" xmlns="http://www.w3.org/2000/svg">
<g clip-path="url(#clip0_394_22827)">
<path fill-rule="evenodd" clip-rule="evenodd" d="M12 2.25928C8.27208 2.25928 5.25 5.28135 5.25 9.00928C5.25 11.5037 6.6026 13.683 8.61794 14.8523C9.61525 15.431 10.5 16.4825 10.5 17.8176V18.0093C10.5 18.4235 10.1642 18.7593 9.75 18.7593C9.33579 18.7593 9 18.4235 9 18.0093V17.8176C9 17.1868 8.56821 16.5576 7.86516 16.1497L8.24155 15.501L7.86516 16.1497C5.40631 14.7231 3.75 12.06 3.75 9.00928C3.75 4.45293 7.44365 0.759277 12 0.759277C16.5563 0.759277 20.25 4.45293 20.25 9.00928C20.25 12.06 18.5937 14.7231 16.1348 16.1497C15.4318 16.5576 15 17.1868 15 17.8176V18.0093C15 18.4235 14.6642 18.7593 14.25 18.7593C13.8358 18.7593 13.5 18.4235 13.5 18.0093V17.8176C13.5 16.4825 14.3847 15.431 15.3821 14.8523C17.3974 13.683 18.75 11.5037 18.75 9.00928C18.75 5.28135 15.7279 2.25928 12 2.25928ZM9.77367 12.3834C9.87692 11.9822 10.2858 11.7407 10.6869 11.844C11.1058 11.9518 11.5456 12.0093 12 12.0093C12.4544 12.0093 12.8942 11.9518 13.3131 11.844C13.7142 11.7407 14.1231 11.9822 14.2263 12.3834C14.3296 12.7845 14.0881 13.1934 13.6869 13.2966C13.3822 13.3751 13.0693 13.4327 12.75 13.468V18.0093C12.75 18.4235 12.4142 18.7593 12 18.7593C11.5858 18.7593 11.25 18.4235 11.25 18.0093V13.468C10.9307 13.4327 10.6178 13.3751 10.3131 13.2966C9.91192 13.1934 9.67043 12.7845 9.77367 12.3834ZM9.01314 19.9089C9.09034 19.502 9.48282 19.2347 9.88978 19.3118C10.5727 19.4414 11.2781 19.5093 12 19.5093C12.7219 19.5093 13.4273 19.4414 14.1102 19.3118C14.5172 19.2347 14.9097 19.502 14.9869 19.9089C15.0641 20.3159 14.7967 20.7084 14.3898 20.7856C13.6151 20.9325 12.8162 21.0093 12 21.0093C11.1838 21.0093 10.3849 20.9325 9.61022 20.7856C9.20327 20.7084 8.93594 20.3159 9.01314 19.9089ZM9.75407 22.3532C9.79717 21.9413 10.1661 21.6423 10.578 21.6853C11.0451 21.7342 11.5195 21.7593 12 21.7593C12.4805 21.7593 12.9549 21.7342 13.422 21.6853C13.8339 21.6423 14.2028 21.9413 14.2459 22.3532C14.289 22.7652 13.99 23.1341 13.578 23.1772C13.0592 23.2315 12.5327 23.2593 12 23.2593C11.4673 23.2593 10.9408 23.2315 10.422 23.1772C10.01 23.1341 9.71097 22.7652 9.75407 22.3532Z" fill="#868E96"/>
</g>
<defs>
<clipPath id="clip0_394_22827">
<rect width="24" height="24" fill="white" transform="translate(0 0.00927734)"/>
</clipPath>
</defs>
</svg>
