<svg width="24" height="24" viewBox="0 0 24 24" fill="none" xmlns="http://www.w3.org/2000/svg">
<path fill-rule="evenodd" clip-rule="evenodd" d="M19.9017 4.10763C18.4372 2.64316 16.0628 2.64316 14.5984 4.10763L10.0983 8.60763C8.63388 10.0721 8.63388 12.4465 10.0983 13.9109C10.4092 14.2218 10.7598 14.4658 11.133 14.6441C11.5068 14.8227 11.665 15.2704 11.4865 15.6441C11.3079 16.0179 10.8602 16.1762 10.4865 15.9976C9.96169 15.7469 9.47063 15.4045 9.03769 14.9716C6.98744 12.9213 6.98744 9.59722 9.03769 7.54697L13.5377 3.04697C15.5879 0.996714 18.9121 0.996714 20.9623 3.04697C23.0126 5.09722 23.0126 8.42134 20.9623 10.4716L19.2053 12.2286C18.9124 12.5215 18.4376 12.5215 18.1447 12.2286C17.8518 11.9357 17.8518 11.4608 18.1447 11.1679L19.9017 9.41093C21.3661 7.94646 21.3661 5.57209 19.9017 4.10763ZM12.5135 8.37441C12.6921 8.00065 13.1398 7.8424 13.5135 8.02095C14.0383 8.27163 14.5294 8.61403 14.9623 9.04697C17.0126 11.0972 17.0126 14.4213 14.9623 16.4716L10.4623 20.9716C8.41206 23.0218 5.08794 23.0218 3.03769 20.9716C0.987437 18.9213 0.987437 15.5972 3.03769 13.547L4.79466 11.79C5.08755 11.4971 5.56243 11.4971 5.85532 11.79C6.14821 12.0829 6.14821 12.5578 5.85532 12.8507L4.09835 14.6076C2.63388 16.0721 2.63388 18.4465 4.09835 19.9109C5.56282 21.3754 7.93718 21.3754 9.40165 19.9109L13.9017 15.4109C15.3661 13.9465 15.3661 11.5721 13.9017 10.1076C13.5908 9.79676 13.2402 9.55275 12.867 9.37444C12.4932 9.1959 12.335 8.74817 12.5135 8.37441Z" fill="#868E96"/>
</svg>
