<svg width="24" height="25" viewBox="0 0 24 25" fill="none" xmlns="http://www.w3.org/2000/svg">
<path fill-rule="evenodd" clip-rule="evenodd" d="M19.891 4.0995C18.4266 2.63491 16.0523 2.63491 14.5879 4.0995L10.088 8.59993C10.0139 8.674 9.9437 8.75031 9.87724 8.82861L14.8426 13.7946C15.2086 12.525 14.8909 11.0999 13.8911 10.1001C13.5803 9.78918 13.2297 9.54515 12.8565 9.36683C12.4827 9.18826 12.3245 8.7405 12.5031 8.36673C12.6816 7.99296 13.1294 7.83472 13.5031 8.01328C14.0279 8.264 14.5189 8.60642 14.9519 9.03941C16.5526 10.6403 16.903 13.0164 16.0053 14.9574L21.5198 20.4725C21.8127 20.7654 21.8126 21.2403 21.5197 21.5332C21.2268 21.8261 20.7519 21.8261 20.459 21.5332L2.45938 3.53142C2.1665 3.2385 2.16652 2.7636 2.45943 2.47071C2.75234 2.17781 3.22723 2.17783 3.52012 2.47075L8.81406 7.76531C8.88251 7.68835 8.95359 7.61296 9.02728 7.53926L13.5272 3.03883C15.5774 0.988359 18.9015 0.988359 20.9518 3.03883C23.002 5.08926 23.002 8.41364 20.9518 10.4641L19.1948 12.2212C18.9019 12.5141 18.427 12.5142 18.1341 12.2213C17.8412 11.9284 17.8412 11.4535 18.1341 11.1605L19.891 9.4034C21.3555 7.93878 21.3555 5.56412 19.891 4.0995ZM5.84501 11.7827C6.13793 12.0755 6.13795 12.5504 5.84506 12.8434L4.08812 14.6005C2.62367 16.0651 2.62367 18.4398 4.08812 19.9044C5.55254 21.369 7.92681 21.369 9.39123 19.9044L12.5198 16.7754C12.8127 16.4825 13.2876 16.4825 13.5805 16.7754C13.8734 17.0683 13.8735 17.5432 13.5806 17.8361L10.452 20.9651C8.40173 23.0156 5.07762 23.0156 3.02739 20.9651C0.977198 18.9146 0.977197 15.5903 3.02739 13.5398L4.78433 11.7827C5.07722 11.4898 5.5521 11.4898 5.84501 11.7827ZM8.24614 12.0429C8.63685 11.9053 9.06512 12.1105 9.20272 12.5012C9.38281 13.0125 9.6773 13.4931 10.088 13.9038C10.3989 14.2147 10.7494 14.4588 11.1227 14.6371C11.4964 14.8157 11.6547 15.2634 11.4761 15.6372C11.2975 16.011 10.8498 16.1692 10.476 15.9906C9.95126 15.7399 9.46021 15.3975 9.02728 14.9645C8.45461 14.3918 8.04087 13.7179 7.78786 12.9995C7.65026 12.6088 7.85544 12.1805 8.24614 12.0429Z" fill="#868E96"/>
</svg>
