<svg width="24" height="25" viewBox="0 0 24 25" fill="none" xmlns="http://www.w3.org/2000/svg">
<path fill-rule="evenodd" clip-rule="evenodd" d="M19.8915 4.09942C18.4271 2.63483 16.0528 2.63483 14.5884 4.09942L10.0885 8.59986C10.0144 8.67394 9.94414 8.75026 9.87767 8.82858L14.8431 13.7946C15.2091 12.5249 14.8914 11.0999 13.8916 10.1C13.5808 9.7891 13.2302 9.54507 12.857 9.36675C12.4832 9.18819 12.325 8.74045 12.5035 8.3667C12.6821 7.99295 13.1298 7.83472 13.5036 8.01329C14.0284 8.264 14.5194 8.60642 14.9523 9.0394C16.5531 10.6403 16.9034 13.0164 16.0057 14.9573L21.5202 20.4725C21.8131 20.7654 21.8131 21.2403 21.5202 21.5331C21.2273 21.826 20.7524 21.826 20.4595 21.5331L2.45986 3.53135C2.16698 3.23844 2.16701 2.76356 2.45992 2.47069C2.75283 2.17781 3.2277 2.17784 3.52058 2.47075L8.81453 7.76531C8.88299 7.68835 8.95406 7.61296 9.02775 7.53926L13.5277 3.03882C15.5779 0.988361 18.902 0.988361 20.9522 3.03882C23.0024 5.08924 23.0024 8.41358 20.9522 10.464L19.1953 12.2211C18.9024 12.514 18.4275 12.5141 18.1346 12.2212C17.8417 11.9283 17.8417 11.4534 18.1346 11.1605L19.8915 9.4034C21.356 7.93876 21.356 5.56406 19.8915 4.09942ZM5.84546 11.7826C6.13837 12.0755 6.1384 12.5504 5.84553 12.8433L4.08859 14.6004C2.62412 16.0651 2.62412 18.4398 4.08859 19.9044C5.55301 21.369 7.92728 21.369 9.3917 19.9044L12.5203 16.7754C12.8132 16.4825 13.2881 16.4825 13.581 16.7754C13.8739 17.0682 13.8739 17.5431 13.581 17.836L10.4524 20.965C8.4022 23.0155 5.07809 23.0155 3.02787 20.965C0.97769 18.9146 0.97769 15.5903 3.02787 13.5398L4.7848 11.7827C5.07768 11.4898 5.55255 11.4898 5.84546 11.7826ZM8.24663 12.0429C8.63732 11.9053 9.06558 12.1105 9.20317 12.5011C9.38326 13.0125 9.67776 13.4931 10.0885 13.9038C10.3993 14.2147 10.7499 14.4588 11.1231 14.6371C11.4969 14.8156 11.6551 15.2634 11.4765 15.6371C11.298 16.0109 10.8502 16.1691 10.4765 15.9905C9.95173 15.7398 9.46068 15.3974 9.02775 14.9644C8.45508 14.3917 8.04135 13.7178 7.78835 12.9994C7.65076 12.6087 7.85593 12.1805 8.24663 12.0429Z" fill="#868E96"/>
</svg>
