<svg width="24" height="25" viewBox="0 0 24 25" fill="none" xmlns="http://www.w3.org/2000/svg">
<path fill-rule="evenodd" clip-rule="evenodd" d="M12 1.51172C9.10051 1.51172 6.75 3.86222 6.75 6.76172V9.76172C5.09315 9.76172 3.75 11.1049 3.75 12.7617V19.5117C3.75 21.1686 5.09315 22.5117 6.75 22.5117H17.25C18.9069 22.5117 20.25 21.1686 20.25 19.5117V12.7617C20.25 11.1049 18.9069 9.76172 17.25 9.76172V6.76172C17.25 3.86222 14.8995 1.51172 12 1.51172ZM15.75 9.76172V6.76172C15.75 4.69065 14.0711 3.01172 12 3.01172C9.92893 3.01172 8.25 4.69065 8.25 6.76172V9.76172H15.75Z" fill="#868E96"/>
</svg>
