<svg width="24" height="25" viewBox="0 0 24 25" fill="none" xmlns="http://www.w3.org/2000/svg">
<path fill-rule="evenodd" clip-rule="evenodd" d="M12 3.76172C7.44365 3.76172 3.75 7.45537 3.75 12.0117C3.75 16.5681 7.44365 20.2617 12 20.2617C16.5563 20.2617 20.25 16.5681 20.25 12.0117C20.25 7.45537 16.5563 3.76172 12 3.76172ZM2.25 12.0117C2.25 6.62694 6.61522 2.26172 12 2.26172C17.3848 2.26172 21.75 6.62694 21.75 12.0117C21.75 17.3965 17.3848 21.7617 12 21.7617C6.61522 21.7617 2.25 17.3965 2.25 12.0117ZM10.875 8.26172C9.42525 8.26172 8.25 9.43697 8.25 10.8867C8.25 12.3365 9.42525 13.5117 10.875 13.5117C11.6001 13.5117 12.2553 13.2187 12.7312 12.7429C13.207 12.267 13.5 11.6118 13.5 10.8867C13.5 9.43697 12.3247 8.26172 10.875 8.26172ZM6.75 10.8867C6.75 8.60854 8.59683 6.76172 10.875 6.76172C13.1532 6.76172 15 8.60854 15 10.8867C15 11.7545 14.7315 12.5604 14.2737 13.2248L16.2803 15.2314C16.5732 15.5243 16.5732 15.9992 16.2803 16.292C15.9874 16.5849 15.5126 16.5849 15.2197 16.292L13.2131 14.2854C12.5487 14.7432 11.7428 15.0117 10.875 15.0117C8.59683 15.0117 6.75 13.1649 6.75 10.8867Z" fill="#868E96"/>
</svg>
