<svg width="24" height="25" viewBox="0 0 24 25" fill="none" xmlns="http://www.w3.org/2000/svg">
<path fill-rule="evenodd" clip-rule="evenodd" d="M10.5 3.76172C6.77208 3.76172 3.75 6.7838 3.75 10.5117C3.75 14.2396 6.77208 17.2617 10.5 17.2617C12.3642 17.2617 14.0506 16.507 15.273 15.2847C16.4953 14.0624 17.25 12.3759 17.25 10.5117C17.25 6.7838 14.2279 3.76172 10.5 3.76172ZM2.25 10.5117C2.25 5.95537 5.94365 2.26172 10.5 2.26172C15.0563 2.26172 18.75 5.95537 18.75 10.5117C18.75 12.5195 18.032 14.3608 16.8399 15.791L21.5303 20.4814C21.8232 20.7743 21.8232 21.2492 21.5303 21.542C21.2374 21.8349 20.7626 21.8349 20.4697 21.542L15.7793 16.8516C14.3491 18.0437 12.5078 18.7617 10.5 18.7617C5.94365 18.7617 2.25 15.0681 2.25 10.5117ZM10.5 6.76172C10.9142 6.76172 11.25 7.09751 11.25 7.51172V9.76172H13.5C13.9142 9.76172 14.25 10.0975 14.25 10.5117C14.25 10.9259 13.9142 11.2617 13.5 11.2617H11.25V13.5117C11.25 13.9259 10.9142 14.2617 10.5 14.2617C10.0858 14.2617 9.75 13.9259 9.75 13.5117V11.2617H7.5C7.08579 11.2617 6.75 10.9259 6.75 10.5117C6.75 10.0975 7.08579 9.76172 7.5 9.76172H9.75V7.51172C9.75 7.09751 10.0858 6.76172 10.5 6.76172Z" fill="#868E96"/>
</svg>
