<svg width="24" height="25" viewBox="0 0 24 25" fill="none" xmlns="http://www.w3.org/2000/svg">
<path d="M8.25 10.8867C8.25 9.43697 9.42525 8.26172 10.875 8.26172C12.3247 8.26172 13.5 9.43697 13.5 10.8867C13.5 11.6118 13.207 12.267 12.7312 12.7429C12.2553 13.2187 11.6001 13.5117 10.875 13.5117C9.42525 13.5117 8.25 12.3365 8.25 10.8867Z" fill="#868E96"/>
<path fill-rule="evenodd" clip-rule="evenodd" d="M12 2.26172C6.61522 2.26172 2.25 6.62694 2.25 12.0117C2.25 17.3965 6.61522 21.7617 12 21.7617C17.3848 21.7617 21.75 17.3965 21.75 12.0117C21.75 6.62694 17.3848 2.26172 12 2.26172ZM10.875 6.76172C8.59683 6.76172 6.75 8.60854 6.75 10.8867C6.75 13.1649 8.59683 15.0117 10.875 15.0117C11.7428 15.0117 12.5487 14.7432 13.2131 14.2854L15.2197 16.292C15.5126 16.5849 15.9874 16.5849 16.2803 16.292C16.5732 15.9992 16.5732 15.5243 16.2803 15.2314L14.2737 13.2248C14.7315 12.5604 15 11.7545 15 10.8867C15 8.60854 13.1532 6.76172 10.875 6.76172Z" fill="#868E96"/>
</svg>
