<svg width="24" height="25" viewBox="0 0 24 25" fill="none" xmlns="http://www.w3.org/2000/svg">
<path fill-rule="evenodd" clip-rule="evenodd" d="M9.16771 3.93412C9.06213 3.88133 8.93787 3.88133 8.83229 3.93412L3.95729 6.37162C3.83025 6.43514 3.75 6.56499 3.75 6.70703V19.1915C3.75 19.4702 4.04337 19.6515 4.2927 19.5269L8.16147 17.5925C8.68934 17.3285 9.31066 17.3285 9.83853 17.5925L14.8323 20.0894C14.9379 20.1422 15.0621 20.1422 15.1677 20.0894L20.0427 17.6519C20.1697 17.5883 20.25 17.4585 20.25 17.3165V4.83203C20.25 4.55326 19.9566 4.37195 19.7073 4.49662L15.8385 6.43101C15.3107 6.69494 14.6893 6.69494 14.1615 6.43101L9.16771 3.93412ZM8.16147 2.59248C8.68934 2.32855 9.31066 2.32855 9.83853 2.59248L14.8323 5.08937C14.9379 5.14215 15.0621 5.14215 15.1677 5.08937L19.0365 3.15498C20.2832 2.53164 21.75 3.43819 21.75 4.83203V17.3165C21.75 18.0267 21.3487 18.6759 20.7135 18.9935L15.8385 21.431C15.3107 21.6949 14.6893 21.6949 14.1615 21.431L9.16771 18.9341C9.06213 18.8813 8.93787 18.8813 8.83229 18.9341L4.96352 20.8685C3.71684 21.4919 2.25 20.5853 2.25 19.1915V6.70703C2.25 5.99683 2.65125 5.34759 3.28647 5.02998L8.16147 2.59248ZM9 6.01174C9.41421 6.01174 9.75 6.34753 9.75 6.76174V15.0117C9.75 15.426 9.41421 15.7617 9 15.7617C8.58579 15.7617 8.25 15.426 8.25 15.0117V6.76174C8.25 6.34753 8.58579 6.01174 9 6.01174ZM15 8.26174C15.4142 8.26174 15.75 8.59753 15.75 9.01174V17.2617C15.75 17.676 15.4142 18.0117 15 18.0117C14.5858 18.0117 14.25 17.676 14.25 17.2617V9.01174C14.25 8.59753 14.5858 8.26174 15 8.26174Z" fill="#868E96"/>
</svg>
