<svg width="24" height="25" viewBox="0 0 24 25" fill="none" xmlns="http://www.w3.org/2000/svg">
<path fill-rule="evenodd" clip-rule="evenodd" d="M8.16147 2.59248C8.68934 2.32855 9.31066 2.32855 9.83853 2.59248L14.8323 5.08936C14.9379 5.14215 15.0621 5.14215 15.1677 5.08936L19.0365 3.15498C20.2832 2.53163 21.75 3.43819 21.75 4.83203V17.3165C21.75 18.0266 21.3487 18.6759 20.7135 18.9935L15.8385 21.431C15.3107 21.6949 14.6893 21.6949 14.1615 21.431L9.16771 18.9341C9.06213 18.8813 8.93787 18.8813 8.8323 18.9341L4.96353 20.8685C3.71683 21.4918 2.25 20.5853 2.25 19.1915V6.70703C2.25 5.99683 2.65125 5.34759 3.28647 5.02998L8.16147 2.59248ZM9 6.01173C9.41421 6.01173 9.75 6.34752 9.75 6.76173V15.0117C9.75 15.4259 9.41421 15.7617 9 15.7617C8.58579 15.7617 8.25 15.4259 8.25 15.0117V6.76173C8.25 6.34752 8.58579 6.01173 9 6.01173ZM15.75 9.01173C15.75 8.59752 15.4142 8.26173 15 8.26173C14.5858 8.26173 14.25 8.59752 14.25 9.01173V17.2617C14.25 17.6759 14.5858 18.0117 15 18.0117C15.4142 18.0117 15.75 17.6759 15.75 17.2617V9.01173Z" fill="#868E96"/>
</svg>
