<svg width="24" height="25" viewBox="0 0 24 25" fill="none" xmlns="http://www.w3.org/2000/svg">
<path fill-rule="evenodd" clip-rule="evenodd" d="M12 3.76172C8.27208 3.76172 5.25 6.7838 5.25 10.5117C5.25 13.8077 6.98068 16.442 8.78654 18.291C9.68475 19.2106 10.5851 19.9183 11.2609 20.3957C11.5588 20.6062 11.8119 20.771 12 20.8886C12.1881 20.771 12.4412 20.6062 12.7391 20.3957C13.4149 19.9183 14.3153 19.2106 15.2135 18.291C17.0193 16.442 18.75 13.8077 18.75 10.5117C18.75 6.7838 15.7279 3.76172 12 3.76172ZM12 21.7617C11.6397 22.4195 11.6395 22.4194 11.6392 22.4192L11.6365 22.4177L11.6305 22.4144L11.6105 22.4032C11.5937 22.3938 11.57 22.3803 11.5397 22.3628C11.4793 22.3278 11.393 22.2767 11.2845 22.2099C11.0675 22.0763 10.7612 21.8793 10.3954 21.6208C9.66491 21.1048 8.69025 20.3392 7.71346 19.3391C5.76932 17.3485 3.75 14.3579 3.75 10.5117C3.75 5.95537 7.44365 2.26172 12 2.26172C16.5563 2.26172 20.25 5.95537 20.25 10.5117C20.25 14.3579 18.2307 17.3485 16.2865 19.3391C15.3097 20.3392 14.3351 21.1048 13.6046 21.6208C13.2388 21.8793 12.9325 22.0763 12.7155 22.2099C12.607 22.2767 12.5207 22.3278 12.4603 22.3628C12.43 22.3803 12.4063 22.3938 12.3895 22.4032L12.3695 22.4144L12.3635 22.4177L12.3616 22.4188C12.3613 22.419 12.3603 22.4195 12 21.7617ZM12 21.7617L12.3603 22.4195C12.1358 22.5425 11.8636 22.5421 11.6392 22.4192L12 21.7617ZM12 8.26172C10.7574 8.26172 9.75 9.26908 9.75 10.5117C9.75 11.7544 10.7574 12.7617 12 12.7617C13.2426 12.7617 14.25 11.7544 14.25 10.5117C14.25 9.26908 13.2426 8.26172 12 8.26172ZM8.25 10.5117C8.25 8.44065 9.92893 6.76172 12 6.76172C14.0711 6.76172 15.75 8.44065 15.75 10.5117C15.75 12.5828 14.0711 14.2617 12 14.2617C9.92893 14.2617 8.25 12.5828 8.25 10.5117Z" fill="#868E96"/>
</svg>
