<svg width="24" height="25" viewBox="0 0 24 25" fill="none" xmlns="http://www.w3.org/2000/svg">
<path fill-rule="evenodd" clip-rule="evenodd" d="M18.5356 2.30762C18.9246 2.16524 19.3554 2.36514 19.4977 2.75412C19.6378 3.13662 19.7686 3.52355 19.89 3.91464C20.4137 5.60138 20.7617 7.36509 20.913 9.18418C21.43 9.72263 21.749 10.4553 21.749 11.2619C21.749 12.0686 21.43 12.8012 20.913 13.3397C20.7617 15.1588 20.4137 16.9225 19.89 18.6092C19.7686 19.0003 19.6378 19.3872 19.4977 19.7697C19.3554 20.1587 18.9246 20.3586 18.5356 20.2162C18.1467 20.0738 17.9468 19.6431 18.0891 19.2541C18.1478 19.094 18.2047 18.9331 18.2598 18.7713C16.1264 17.752 13.8133 17.0483 11.3804 16.7209C11.5632 17.2693 11.7728 17.8054 12.0077 18.3278C12.4013 19.2032 12.1157 20.2878 11.2356 20.7959L10.5793 21.1749L10.2043 20.5253L10.5793 21.1749C9.67084 21.6994 8.46073 21.3831 7.99667 20.3793C7.41708 19.1257 6.95326 17.8075 6.61899 16.4385C4.13847 16.0198 2.24902 13.8615 2.24902 11.2619C2.24902 8.36243 4.59953 6.01192 7.49902 6.01192H8.24902C8.93178 6.01192 9.6075 5.98251 10.275 5.92492C13.1135 5.68 15.8056 4.92518 18.2598 3.75254C18.2047 3.59079 18.1478 3.42985 18.0891 3.26973C17.9468 2.88076 18.1467 2.45001 18.5356 2.30762ZM18.7018 5.20265C16.2993 6.32358 13.6869 7.07011 10.9403 7.36722C10.6517 8.61818 10.499 9.92178 10.499 11.2619C10.499 12.6021 10.6517 13.9057 10.9403 15.1566C13.6869 15.4537 16.2993 16.2003 18.7018 17.3212C19.0818 15.9093 19.3323 14.444 19.4395 12.9387C19.479 12.385 19.499 11.8259 19.499 11.2619C19.499 10.698 19.479 10.1388 19.4395 9.58513C19.3323 8.07983 19.0818 6.61454 18.7018 5.20265ZM9.37941 15.0373C9.12993 13.8172 8.99902 12.5545 8.99902 11.2619C8.99902 9.96932 9.12993 8.70661 9.37941 7.48655C9.00468 7.50341 8.62782 7.51192 8.24902 7.51192H7.49902C5.42796 7.51192 3.74902 9.19085 3.74902 11.2619C3.74902 13.333 5.42796 15.0119 7.49902 15.0119H8.24902C8.62782 15.0119 9.00468 15.0204 9.37941 15.0373ZM8.18602 16.5119C8.48596 17.6325 8.87965 18.7148 9.3582 19.7498C9.42851 19.9019 9.63502 19.988 9.82932 19.8758L10.4856 19.4969C10.6508 19.4016 10.7409 19.1682 10.6396 18.9429C10.2942 18.1747 9.99906 17.3791 9.75824 16.5601C9.25938 16.5281 8.75615 16.5119 8.24902 16.5119H8.18602Z" fill="#868E96"/>
</svg>
