<svg width="24" height="25" viewBox="0 0 24 25" fill="none" xmlns="http://www.w3.org/2000/svg">
<g clip-path="url(#clip0_394_23031)">
<path fill-rule="evenodd" clip-rule="evenodd" d="M8.25 4.51367C8.25 2.4426 9.92893 0.763672 12 0.763672C14.0711 0.763672 15.75 2.4426 15.75 4.51367V12.7637C15.75 14.8347 14.0711 16.5137 12 16.5137C9.92893 16.5137 8.25 14.8347 8.25 12.7637V4.51367ZM12 2.26367C10.7574 2.26367 9.75 3.27103 9.75 4.51367V12.7637C9.75 14.0063 10.7574 15.0137 12 15.0137C13.2426 15.0137 14.25 14.0063 14.25 12.7637V4.51367C14.25 3.27103 13.2426 2.26367 12 2.26367ZM6 10.5137C6.41421 10.5137 6.75 10.8495 6.75 11.2637V12.7637C6.75 15.6632 9.1005 18.0137 12 18.0137C14.8995 18.0137 17.25 15.6632 17.25 12.7637V11.2637C17.25 10.8495 17.5858 10.5137 18 10.5137C18.4142 10.5137 18.75 10.8495 18.75 11.2637V12.7637C18.75 16.2381 16.125 19.0994 12.75 19.4725V21.7637H15.75C16.1642 21.7637 16.5 22.0995 16.5 22.5137C16.5 22.9279 16.1642 23.2637 15.75 23.2637H8.25C7.83579 23.2637 7.5 22.9279 7.5 22.5137C7.5 22.0995 7.83579 21.7637 8.25 21.7637H11.25V19.4725C7.87504 19.0994 5.25 16.2381 5.25 12.7637V11.2637C5.25 10.8495 5.58579 10.5137 6 10.5137Z" fill="#868E96"/>
</g>
<defs>
<clipPath id="clip0_394_23031">
<rect width="24" height="24" fill="white" transform="translate(0 0.0136719)"/>
</clipPath>
</defs>
</svg>
