<svg width="24" height="25" viewBox="0 0 24 25" fill="none" xmlns="http://www.w3.org/2000/svg">
<path fill-rule="evenodd" clip-rule="evenodd" d="M12 3.76367C7.44365 3.76367 3.75 7.45732 3.75 12.0137C3.75 16.57 7.44365 20.2637 12 20.2637C16.5563 20.2637 20.25 16.57 20.25 12.0137C20.25 7.45732 16.5563 3.76367 12 3.76367ZM2.25 12.0137C2.25 6.6289 6.61522 2.26367 12 2.26367C17.3848 2.26367 21.75 6.6289 21.75 12.0137C21.75 17.3984 17.3848 21.7637 12 21.7637C6.61522 21.7637 2.25 17.3984 2.25 12.0137ZM8.25 12.0137C8.25 11.5995 8.58579 11.2637 9 11.2637H15C15.4142 11.2637 15.75 11.5995 15.75 12.0137C15.75 12.4279 15.4142 12.7637 15 12.7637H9C8.58579 12.7637 8.25 12.4279 8.25 12.0137Z" fill="#868E96"/>
</svg>
