<svg width="24" height="25" viewBox="0 0 24 25" fill="none" xmlns="http://www.w3.org/2000/svg">
<path fill-rule="evenodd" clip-rule="evenodd" d="M19.9516 1.66492C20.1395 1.80664 20.25 2.02834 20.25 2.26368V5.99708C20.2503 6.00842 20.2503 6.01974 20.25 6.03102V16.3165C20.25 17.6559 19.3621 18.8331 18.0742 19.2011L16.7542 19.5782C15.1234 20.0442 13.5 18.8196 13.5 17.1236C13.5 15.9838 14.2556 14.9821 15.3515 14.6689L17.6621 14.0088C18.306 13.8248 18.75 13.2362 18.75 12.5665V7.00798L9.75 9.5794V19.3165C9.75 20.6559 8.86207 21.8331 7.57416 22.2011L6.25418 22.5782C4.62337 23.0442 3 21.8196 3 20.1236C3 18.9838 3.75559 17.9821 4.85153 17.6689L7.16208 17.0088C7.80603 16.8248 8.25 16.2362 8.25 15.5665V9.03025C8.24974 9.01893 8.24974 9.00763 8.25 8.99636V5.26368C8.25 4.92882 8.47198 4.63453 8.79396 4.54254L19.294 1.54254C19.5202 1.47788 19.7638 1.52319 19.9516 1.66492ZM9.75 8.01938L18.75 5.44795V3.25798L9.75 5.8294V8.01938ZM8.25 18.1649C8.04075 18.2856 7.81442 18.3824 7.57416 18.4511L5.26362 19.1112C4.81162 19.2404 4.5 19.6535 4.5 20.1236C4.5 20.8231 5.16952 21.3281 5.8421 21.1359L7.16208 20.7588C7.80603 20.5748 8.25 19.9862 8.25 19.3165V18.1649ZM18.75 15.1649C18.5408 15.2856 18.3144 15.3824 18.0742 15.4511L15.7636 16.1112C15.3116 16.2404 15 16.6535 15 17.1236C15 17.8231 15.6695 18.3281 16.3421 18.1359L17.6621 17.7588C18.306 17.5748 18.75 16.9862 18.75 16.3165V15.1649Z" fill="#868E96"/>
</svg>
