<svg width="24" height="25" viewBox="0 0 24 25" fill="none" xmlns="http://www.w3.org/2000/svg">
<path fill-rule="evenodd" clip-rule="evenodd" d="M2.24902 4.88867C2.24902 3.85314 3.08849 3.01367 4.12402 3.01367H15.374C16.4096 3.01367 17.249 3.85314 17.249 4.88867V6.76367H19.874C20.9096 6.76367 21.749 7.60314 21.749 8.63867V18.0137C21.749 19.6705 20.4059 21.0137 18.749 21.0137H5.24902C3.59217 21.0137 2.24902 19.6705 2.24902 18.0137V4.88867ZM16.1504 19.5137H5.24902C4.4206 19.5137 3.74902 18.8421 3.74902 18.0137V4.88867C3.74902 4.68157 3.91692 4.51367 4.12402 4.51367H15.374C15.5811 4.51367 15.749 4.68157 15.749 4.88867V18.0137C15.749 18.5601 15.8951 19.0724 16.1504 19.5137ZM18.749 19.5137C19.5774 19.5137 20.249 18.8421 20.249 18.0137V8.63867C20.249 8.43157 20.0811 8.26367 19.874 8.26367H17.249V18.0137C17.249 18.8421 17.9206 19.5137 18.749 19.5137ZM5.24902 7.51367C5.24902 7.09946 5.58481 6.76367 5.99902 6.76367H8.99902C9.41324 6.76367 9.74902 7.09946 9.74902 7.51367V10.5137C9.74902 10.9279 9.41324 11.2637 8.99902 11.2637H5.99902C5.58481 11.2637 5.24902 10.9279 5.24902 10.5137V7.51367ZM6.74902 8.26367V9.76367H8.24902V8.26367H6.74902ZM11.249 7.51367C11.249 7.09946 11.5848 6.76367 11.999 6.76367H13.499C13.9132 6.76367 14.249 7.09946 14.249 7.51367C14.249 7.92789 13.9132 8.26367 13.499 8.26367H11.999C11.5848 8.26367 11.249 7.92789 11.249 7.51367ZM11.249 10.5137C11.249 10.0995 11.5848 9.76367 11.999 9.76367H13.499C13.9132 9.76367 14.249 10.0995 14.249 10.5137C14.249 10.9279 13.9132 11.2637 13.499 11.2637H11.999C11.5848 11.2637 11.249 10.9279 11.249 10.5137ZM5.24902 13.5137C5.24902 13.0995 5.58481 12.7637 5.99902 12.7637H13.499C13.9132 12.7637 14.249 13.0995 14.249 13.5137C14.249 13.9279 13.9132 14.2637 13.499 14.2637H5.99902C5.58481 14.2637 5.24902 13.9279 5.24902 13.5137ZM5.24902 16.5137C5.24902 16.0995 5.58481 15.7637 5.99902 15.7637H13.499C13.9132 15.7637 14.249 16.0995 14.249 16.5137C14.249 16.9279 13.9132 17.2637 13.499 17.2637H5.99902C5.58481 17.2637 5.24902 16.9279 5.24902 16.5137Z" fill="#868E96"/>
</svg>
