<svg width="24" height="25" viewBox="0 0 24 25" fill="none" xmlns="http://www.w3.org/2000/svg">
<path fill-rule="evenodd" clip-rule="evenodd" d="M6.7195 5.67349L18.3392 17.2932C21.0446 14.052 20.8757 9.2231 17.8327 6.18004C14.7896 3.13698 9.96074 2.96813 6.7195 5.67349ZM17.2785 18.3539L5.65884 6.73415C2.95349 9.97539 3.12234 14.8042 6.16539 17.8473C9.20845 20.8904 14.0373 21.0592 17.2785 18.3539ZM5.10473 5.11938C8.91234 1.31177 15.0857 1.31177 18.8933 5.11938C22.7009 8.92699 22.7009 15.1004 18.8933 18.908C15.0857 22.7156 8.91234 22.7156 5.10473 18.908C1.29712 15.1004 1.29712 8.92699 5.10473 5.11938Z" fill="#868E96"/>
</svg>
