<svg width="24" height="25" viewBox="0 0 24 25" fill="none" xmlns="http://www.w3.org/2000/svg">
<path fill-rule="evenodd" clip-rule="evenodd" d="M2.24072 3.76123C2.24072 3.34702 2.57651 3.01123 2.99072 3.01123H4.1157C4.52991 3.01123 4.8657 3.34702 4.8657 3.76123V6.76159H5.24068C5.65489 6.76159 5.99068 7.09738 5.99068 7.51159C5.99068 7.92581 5.65489 8.26159 5.24068 8.26159H2.99072C2.57651 8.26159 2.24072 7.92581 2.24072 7.51159C2.24072 7.09738 2.57651 6.76159 2.99072 6.76159H3.3657V4.51123H2.99072C2.57651 4.51123 2.24072 4.17544 2.24072 3.76123ZM7.49185 6.0079C7.49185 5.59369 7.82763 5.2579 8.24185 5.2579H20.2416C20.6558 5.2579 20.9916 5.59369 20.9916 6.0079C20.9916 6.42212 20.6558 6.7579 20.2416 6.7579H8.24185C7.82763 6.7579 7.49185 6.42212 7.49185 6.0079ZM4.38187 10.6179C4.23544 10.4715 3.99807 10.4715 3.85164 10.6179C3.55876 10.9108 3.08389 10.9109 2.79098 10.618C2.49807 10.3251 2.49804 9.85025 2.79091 9.55734C3.52315 8.82502 4.71036 8.82502 5.4426 9.55734C6.17478 10.2896 6.17478 11.4768 5.4426 12.2091L4.8932 12.7585L5.24189 12.7586C5.6561 12.7586 5.99186 13.0944 5.99182 13.5086C5.99178 13.9229 5.65596 14.2586 5.24175 14.2586L3.08278 14.2584C2.77946 14.2584 2.50601 14.0756 2.38994 13.7954C2.27386 13.5151 2.33802 13.1926 2.55249 12.9781L4.38187 11.1485C4.52835 11.002 4.52835 10.7644 4.38187 10.6179ZM7.49118 12.0106C7.49118 11.5964 7.82697 11.2606 8.24118 11.2606H20.2409C20.6552 11.2606 20.9909 11.5964 20.9909 12.0106C20.9909 12.4248 20.6552 12.7606 20.2409 12.7606H8.24118C7.82697 12.7606 7.49118 12.4248 7.49118 12.0106ZM2.24072 15.7607C2.24072 15.3465 2.57651 15.0107 2.99072 15.0107H4.1156C5.1512 15.0107 5.99068 15.8503 5.99068 16.8859C5.99068 17.3075 5.85148 17.6967 5.61653 18.01C5.85148 18.3232 5.99068 18.7124 5.99068 19.134C5.99068 20.1696 5.1512 21.0092 4.1156 21.0092H2.99072C2.57651 21.0092 2.24072 20.6734 2.24072 20.2592C2.24072 19.8449 2.57651 19.5092 2.99072 19.5092H4.1156C4.32273 19.5092 4.49068 19.3412 4.49068 19.134C4.49068 18.939 4.34177 18.7787 4.15146 18.7606C4.13953 18.7609 4.12758 18.761 4.1156 18.761H3.74071C3.32649 18.761 2.99071 18.4252 2.99071 18.011C2.99071 18.0106 2.99071 18.0103 2.99071 18.01C2.99071 18.0096 2.99071 18.0093 2.99071 18.0089C2.99071 17.5947 3.32649 17.2589 3.74071 17.2589H4.1156C4.12758 17.2589 4.13953 17.2591 4.15146 17.2593C4.34177 17.2412 4.49068 17.0809 4.49068 16.8859C4.49068 16.6787 4.32273 16.5107 4.1156 16.5107H2.99072C2.57651 16.5107 2.24072 16.175 2.24072 15.7607ZM7.49185 18.0097C7.49185 17.5955 7.82763 17.2597 8.24185 17.2597H20.2416C20.6558 17.2597 20.9916 17.5955 20.9916 18.0097C20.9916 18.4239 20.6558 18.7597 20.2416 18.7597H8.24185C7.82763 18.7597 7.49185 18.4239 7.49185 18.0097Z" fill="#868E96"/>
</svg>
