<svg width="24" height="25" viewBox="0 0 24 25" fill="none" xmlns="http://www.w3.org/2000/svg">
<path fill-rule="evenodd" clip-rule="evenodd" d="M20.5976 1.51611C20.2222 1.51611 19.8552 1.62723 19.5429 1.83545L14.4639 5.22144C13.1844 6.07447 12.0193 7.07852 10.992 8.20829C13.1054 9.20002 14.8151 10.9097 15.8068 13.0231C16.9366 11.9958 17.9406 10.8307 18.7937 9.55119L22.1796 4.4722C22.3879 4.15987 22.499 3.79288 22.499 3.4175C22.499 2.36739 21.6477 1.51611 20.5976 1.51611ZM12.2985 15.541C12.9558 15.1758 13.5888 14.7725 14.1944 14.3336C13.3826 12.2741 11.741 10.6325 9.68149 9.82067C9.24264 10.4263 8.83926 11.0593 8.47408 11.7166L8.19556 12.2179C9.93205 12.7146 11.3005 14.083 11.7972 15.8195L12.2985 15.541ZM6.74898 13.5161C4.67789 13.5161 2.99898 15.195 2.99898 17.2661C2.99898 18.0945 2.32741 18.7661 1.49898 18.7661C1.46501 18.7661 1.43121 18.765 1.39762 18.7628C1.12147 18.7445 0.857705 18.8798 0.711441 19.1148C0.565178 19.3497 0.560189 19.6461 0.698464 19.8858C1.60426 21.4563 3.30239 22.5161 5.24898 22.5161C8.14848 22.5161 10.499 20.1656 10.499 17.2661C10.499 15.195 8.82007 13.5161 6.74898 13.5161Z" fill="#868E96"/>
</svg>
