<svg width="24" height="25" viewBox="0 0 24 25" fill="none" xmlns="http://www.w3.org/2000/svg">
<path fill-rule="evenodd" clip-rule="evenodd" d="M18.9696 3.67756C18.0909 2.79888 16.6663 2.79888 15.7876 3.67756L4.84835 14.6169L4.3802 14.1487L4.84835 14.6169C3.38388 16.0814 3.38388 18.4557 4.84835 19.9202C6.31282 21.3847 8.68718 21.3847 10.1517 19.9202L17.8446 12.2272C18.1375 11.9343 18.6124 11.9343 18.9053 12.2272C19.1982 12.5201 19.1982 12.995 18.9053 13.2879L11.2123 20.9809C9.16206 23.0311 5.83794 23.0311 3.78769 20.9809C1.73744 18.9306 1.73744 15.6065 3.78769 13.5562L14.7269 2.61691L15.2573 3.14723L14.7269 2.6169C16.1914 1.15244 18.5658 1.15244 20.0302 2.6169C21.4947 4.08137 21.4947 6.45574 20.0302 7.92021L9.0973 18.8532C9.09521 18.8553 9.09311 18.8574 9.09099 18.8595L9.08205 18.8684L9.08191 18.8685L9.07747 18.8729C8.19765 19.7382 6.78319 19.7337 5.90901 18.8595C5.03033 17.9809 5.03033 16.5562 5.90901 15.6776C5.90901 15.6776 5.90901 15.6776 5.90901 15.6776L13.7195 7.86688C14.0124 7.57399 14.4873 7.57398 14.7802 7.86687C15.0731 8.15976 15.0731 8.63463 14.7802 8.92753L6.96968 16.7382L6.96967 16.7382C6.67678 17.0311 6.67678 17.506 6.96967 17.7989C7.26043 18.0896 7.7306 18.0918 8.02387 17.8053L18.9696 6.85954C19.8483 5.98087 19.8483 4.55624 18.9696 3.67756Z" fill="#868E96"/>
</svg>
