<svg width="24" height="25" viewBox="0 0 24 25" fill="none" xmlns="http://www.w3.org/2000/svg">
<path fill-rule="evenodd" clip-rule="evenodd" d="M8.25 4.51855C8.66421 4.51855 9 4.85434 9 5.26855V18.7686C9 19.1828 8.66421 19.5186 8.25 19.5186C7.83579 19.5186 7.5 19.1828 7.5 18.7686V5.26855C7.5 4.85434 7.83579 4.51855 8.25 4.51855ZM15.75 4.51855C16.1642 4.51855 16.5 4.85434 16.5 5.26855L16.5 18.7686C16.5 19.1828 16.1642 19.5186 15.75 19.5186C15.3358 19.5186 15 19.1828 15 18.7686L15 5.26855C15 4.85434 15.3358 4.51855 15.75 4.51855Z" fill="#868E96"/>
</svg>
