<svg width="24" height="25" viewBox="0 0 24 25" fill="none" xmlns="http://www.w3.org/2000/svg">
<path fill-rule="evenodd" clip-rule="evenodd" d="M15.2197 3.24067C15.5126 2.94777 15.9874 2.94777 16.2803 3.24067L18 4.96034L19.7197 3.24067C20.0126 2.94777 20.4874 2.94777 20.7803 3.24067C21.0732 3.53356 21.0732 4.00843 20.7803 4.30133L19.0607 6.021L20.7803 7.74067C21.0732 8.03356 21.0732 8.50843 20.7803 8.80133C20.4874 9.09422 20.0126 9.09422 19.7197 8.80133L18 7.08166L16.2803 8.80133C15.9874 9.09422 15.5126 9.09422 15.2197 8.80133C14.9268 8.50843 14.9268 8.03356 15.2197 7.74067L16.9393 6.021L15.2197 4.30133C14.9268 4.00843 14.9268 3.53356 15.2197 3.24067Z" fill="#868E96"/>
<path fill-rule="evenodd" clip-rule="evenodd" d="M1.5 4.521C1.5 2.86414 2.84315 1.521 4.5 1.521H5.87163C6.732 1.521 7.48197 2.10655 7.69064 2.94124L8.79644 7.36443C8.97941 8.0963 8.70594 8.86654 8.10242 9.31918L6.8088 10.2894C6.67447 10.3901 6.64527 10.5377 6.683 10.6407C7.81851 13.7405 10.2805 16.2025 13.3803 17.338C13.4833 17.3757 13.6309 17.3465 13.7316 17.2122L14.7018 15.9186C15.1545 15.3151 15.9247 15.0416 16.6566 15.2246L21.0798 16.3304C21.9144 16.539 22.5 17.289 22.5 18.1494V19.521C22.5 21.1779 21.1569 22.521 19.5 22.521H17.25C8.55151 22.521 1.5 15.4695 1.5 6.771V4.521Z" fill="#868E96"/>
</svg>
