<svg width="24" height="25" viewBox="0 0 24 25" fill="none" xmlns="http://www.w3.org/2000/svg">
<path fill-rule="evenodd" clip-rule="evenodd" d="M15 3.771C15 3.35678 15.3358 3.021 15.75 3.021H20.25C20.6642 3.021 21 3.35678 21 3.771V8.271C21 8.68521 20.6642 9.021 20.25 9.021C19.8358 9.021 19.5 8.68521 19.5 8.271V5.58166L14.7803 10.3013C14.4874 10.5942 14.0126 10.5942 13.7197 10.3013C13.4268 10.0084 13.4268 9.53356 13.7197 9.24067L18.4393 4.521H15.75C15.3358 4.521 15 4.18521 15 3.771Z" fill="#868E96"/>
<path fill-rule="evenodd" clip-rule="evenodd" d="M1.5 4.521C1.5 2.86414 2.84315 1.521 4.5 1.521H5.87163C6.732 1.521 7.48197 2.10655 7.69064 2.94124L8.79644 7.36443C8.97941 8.0963 8.70594 8.86654 8.10242 9.31918L6.8088 10.2894C6.67447 10.3901 6.64527 10.5377 6.683 10.6407C7.81851 13.7405 10.2805 16.2025 13.3803 17.338C13.4833 17.3757 13.6309 17.3465 13.7316 17.2122L14.7018 15.9186C15.1545 15.3151 15.9247 15.0416 16.6566 15.2246L21.0798 16.3304C21.9144 16.539 22.5 17.289 22.5 18.1494V19.521C22.5 21.1779 21.1569 22.521 19.5 22.521H17.25C8.55151 22.521 1.5 15.4695 1.5 6.771V4.521Z" fill="#868E96"/>
</svg>
