<svg width="24" height="25" viewBox="0 0 24 25" fill="none" xmlns="http://www.w3.org/2000/svg">
<path fill-rule="evenodd" clip-rule="evenodd" d="M1.5 6.021C1.5 4.77836 2.50736 3.771 3.75 3.771H20.25C21.4926 3.771 22.5 4.77836 22.5 6.021V18.021C22.5 19.2636 21.4926 20.271 20.25 20.271H3.75C2.50736 20.271 1.5 19.2636 1.5 18.021V6.021ZM3 16.0817V18.021C3 18.4352 3.33579 18.771 3.75 18.771H20.25C20.6642 18.771 21 18.4352 21 18.021V16.0817L18.3107 13.3923C17.7249 12.8065 16.7751 12.8065 16.1893 13.3923L15.3107 14.271L16.2803 15.2407C16.5732 15.5336 16.5732 16.0084 16.2803 16.3013C15.9874 16.5942 15.5126 16.5942 15.2197 16.3013L10.0607 11.1423C9.47487 10.5565 8.52513 10.5565 7.93934 11.1423L3 16.0817ZM14.25 13.2103L11.1213 10.0817C9.94975 8.91008 8.05026 8.91008 6.87868 10.0817L3 13.9603V6.021C3 5.60678 3.33579 5.271 3.75 5.271H20.25C20.6642 5.271 21 5.60678 21 6.021V13.9603L19.3713 12.3317C18.1997 11.1601 16.3003 11.1601 15.1287 12.3317L14.25 13.2103ZM13.125 8.271C13.125 7.64968 13.6287 7.146 14.25 7.146C14.8713 7.146 15.375 7.64968 15.375 8.271C15.375 8.89232 14.8713 9.396 14.25 9.396C13.6287 9.396 13.125 8.89232 13.125 8.271Z" fill="#868E96"/>
</svg>
