<svg width="24" height="25" viewBox="0 0 24 25" fill="none" xmlns="http://www.w3.org/2000/svg">
<path fill-rule="evenodd" clip-rule="evenodd" d="M15 6.771C15.4142 6.771 15.75 7.10678 15.75 7.521V18.021C15.75 18.4352 15.4142 18.771 15 18.771C14.5858 18.771 14.25 18.4352 14.25 18.021V7.521C14.25 7.10678 14.5858 6.771 15 6.771ZM21 6.771C21.4142 6.771 21.75 7.10678 21.75 7.521V18.021C21.75 18.4352 21.4142 18.771 21 18.771C20.5858 18.771 20.25 18.4352 20.25 18.021V7.521C20.25 7.10678 20.5858 6.771 21 6.771ZM2.25 8.70957C2.25 7.26991 3.80528 6.36734 5.05526 7.08162L12.1628 11.143C13.4224 11.8628 13.4224 13.6792 12.1628 14.399L5.05526 18.4604C3.80528 19.1747 2.25 18.2721 2.25 16.8324V8.70957ZM4.31105 8.38398C4.06106 8.24113 3.75 8.42164 3.75 8.70957V16.8324C3.75 17.1204 4.06106 17.3009 4.31105 17.158L11.4185 13.0966C11.6705 12.9526 11.6705 12.5894 11.4185 12.4454L4.31105 8.38398Z" fill="#868E96"/>
</svg>
