<svg width="24" height="25" viewBox="0 0 24 25" fill="none" xmlns="http://www.w3.org/2000/svg">
<path fill-rule="evenodd" clip-rule="evenodd" d="M12 3.771C7.44365 3.771 3.75 7.46465 3.75 12.021C3.75 16.5773 7.44365 20.271 12 20.271C16.5563 20.271 20.25 16.5773 20.25 12.021C20.25 7.46465 16.5563 3.771 12 3.771ZM2.25 12.021C2.25 6.63622 6.61522 2.271 12 2.271C17.3848 2.271 21.75 6.63622 21.75 12.021C21.75 17.4058 17.3848 21.771 12 21.771C6.61522 21.771 2.25 17.4058 2.25 12.021ZM10.5 9.54563V14.4964L14.9557 12.021L10.5 9.54563ZM9 8.90831C9 8.05052 9.9215 7.50831 10.6713 7.92489L16.2742 11.0376C17.0457 11.4662 17.0457 12.5758 16.2742 13.0044L10.6713 16.1171C9.9215 16.5337 9 15.9915 9 15.1337V8.90831Z" fill="#868E96"/>
</svg>
