<svg width="24" height="25" viewBox="0 0 24 25" fill="none" xmlns="http://www.w3.org/2000/svg">
<path fill-rule="evenodd" clip-rule="evenodd" d="M12 3.771C7.44365 3.771 3.75 7.46465 3.75 12.021C3.75 16.5773 7.44365 20.271 12 20.271C16.5563 20.271 20.25 16.5773 20.25 12.021C20.25 7.46465 16.5563 3.771 12 3.771ZM2.25 12.021C2.25 6.63622 6.61522 2.271 12 2.271C17.3848 2.271 21.75 6.63622 21.75 12.021C21.75 17.4058 17.3848 21.771 12 21.771C6.61522 21.771 2.25 17.4058 2.25 12.021ZM12 8.271C12.4142 8.271 12.75 8.60678 12.75 9.021V11.271H15C15.4142 11.271 15.75 11.6068 15.75 12.021C15.75 12.4352 15.4142 12.771 15 12.771H12.75V15.021C12.75 15.4352 12.4142 15.771 12 15.771C11.5858 15.771 11.25 15.4352 11.25 15.021V12.771H9C8.58579 12.771 8.25 12.4352 8.25 12.021C8.25 11.6068 8.58579 11.271 9 11.271H11.25V9.021C11.25 8.60678 11.5858 8.271 12 8.271Z" fill="#868E96"/>
</svg>
