<svg width="24" height="25" viewBox="0 0 24 25" fill="none" xmlns="http://www.w3.org/2000/svg">
<path fill-rule="evenodd" clip-rule="evenodd" d="M12 2.271C6.61522 2.271 2.25 6.63622 2.25 12.021C2.25 17.4058 6.61522 21.771 12 21.771C17.3848 21.771 21.75 17.4058 21.75 12.021C21.75 6.63622 17.3848 2.271 12 2.271ZM12.75 9.021C12.75 8.60678 12.4142 8.271 12 8.271C11.5858 8.271 11.25 8.60678 11.25 9.021V11.271H9C8.58579 11.271 8.25 11.6068 8.25 12.021C8.25 12.4352 8.58579 12.771 9 12.771H11.25V15.021C11.25 15.4352 11.5858 15.771 12 15.771C12.4142 15.771 12.75 15.4352 12.75 15.021V12.771H15C15.4142 12.771 15.75 12.4352 15.75 12.021C15.75 11.6068 15.4142 11.271 15 11.271H12.75V9.021Z" fill="#868E96"/>
</svg>
