<svg width="24" height="25" viewBox="0 0 24 25" fill="none" xmlns="http://www.w3.org/2000/svg">
<path fill-rule="evenodd" clip-rule="evenodd" d="M1.5 3.021C1.5 2.60678 1.83579 2.271 2.25 2.271H21.75C22.1642 2.271 22.5 2.60678 22.5 3.021C22.5 3.43521 22.1642 3.771 21.75 3.771H21V14.271C21 15.9279 19.6569 17.271 18 17.271H16.7906L17.9615 20.7838C18.0925 21.1768 17.8801 21.6015 17.4872 21.7325C17.0942 21.8635 16.6695 21.6511 16.5385 21.2582L16.2094 20.271H7.79057L7.46151 21.2582C7.33053 21.6511 6.90579 21.8635 6.51283 21.7325C6.11987 21.6015 5.9075 21.1768 6.03849 20.7838L7.20943 17.271H6C4.34315 17.271 3 15.9279 3 14.271V3.771H2.25C1.83579 3.771 1.5 3.43521 1.5 3.021ZM4.5 3.771V14.271C4.5 15.0994 5.17157 15.771 6 15.771H18C18.8284 15.771 19.5 15.0994 19.5 14.271V3.771H4.5ZM8.79057 17.271L8.29057 18.771H15.7094L15.2094 17.271H8.79057ZM15 6.021C15.4142 6.021 15.75 6.35678 15.75 6.771V12.771C15.75 13.1852 15.4142 13.521 15 13.521C14.5858 13.521 14.25 13.1852 14.25 12.771V6.771C14.25 6.35678 14.5858 6.021 15 6.021ZM12 8.271C12.4142 8.271 12.75 8.60678 12.75 9.021V12.771C12.75 13.1852 12.4142 13.521 12 13.521C11.5858 13.521 11.25 13.1852 11.25 12.771V9.021C11.25 8.60678 11.5858 8.271 12 8.271ZM9 10.521C9.41421 10.521 9.75 10.8568 9.75 11.271V12.771C9.75 13.1852 9.41421 13.521 9 13.521C8.58579 13.521 8.25 13.1852 8.25 12.771V11.271C8.25 10.8568 8.58579 10.521 9 10.521Z" fill="#868E96"/>
</svg>
