<svg width="24" height="25" viewBox="0 0 24 25" fill="none" xmlns="http://www.w3.org/2000/svg">
<path fill-rule="evenodd" clip-rule="evenodd" d="M1.5 3.021C1.5 2.60678 1.83579 2.271 2.25 2.271H21.75C22.1642 2.271 22.5 2.60678 22.5 3.021C22.5 3.43521 22.1642 3.771 21.75 3.771H21V14.271C21 15.9279 19.6569 17.271 18 17.271H16.7906L17.9615 20.7838C18.0925 21.1768 17.8801 21.6015 17.4872 21.7325C17.0942 21.8635 16.6695 21.6511 16.5385 21.2582L16.2094 20.271H7.79057L7.46151 21.2582C7.33053 21.6511 6.90579 21.8635 6.51283 21.7325C6.11987 21.6015 5.9075 21.1768 6.03849 20.7838L7.20943 17.271H6C4.34315 17.271 3 15.9279 3 14.271V3.771H2.25C1.83579 3.771 1.5 3.43521 1.5 3.021ZM4.5 3.771V14.271C4.5 15.0994 5.17157 15.771 6 15.771H18C18.8284 15.771 19.5 15.0994 19.5 14.271V3.771H4.5ZM8.79057 17.271L8.29057 18.771H15.7094L15.2094 17.271H8.79057ZM17.1492 7.25084C17.3566 7.60938 17.2341 8.06818 16.8755 8.27559C15.4414 9.10519 14.207 10.2426 13.2629 11.5974C13.136 11.7795 12.9349 11.8961 12.7138 11.9157C12.4927 11.9353 12.2742 11.8559 12.1173 11.6989L10.5 10.0817L8.03033 12.5513C7.73744 12.8442 7.26256 12.8442 6.96967 12.5513C6.67678 12.2584 6.67678 11.7836 6.96967 11.4907L9.96967 8.49067C10.2626 8.19777 10.7374 8.19777 11.0303 8.49067L12.5667 10.0271C13.5517 8.80462 14.7577 7.7678 16.1245 6.97718C16.483 6.76977 16.9418 6.89229 17.1492 7.25084Z" fill="#868E96"/>
</svg>
