<svg width="24" height="25" viewBox="0 0 24 25" fill="none" xmlns="http://www.w3.org/2000/svg">
<path fill-rule="evenodd" clip-rule="evenodd" d="M2.25 2.271C1.83579 2.271 1.5 2.60678 1.5 3.021C1.5 3.43521 1.83579 3.771 2.25 3.771H3V14.271C3 15.9278 4.34315 17.271 6 17.271H7.20943L6.03849 20.7838C5.9075 21.1768 6.11987 21.6015 6.51283 21.7325C6.90579 21.8635 7.33053 21.6511 7.46151 21.2582L7.79057 20.271H16.2094L16.5385 21.2582C16.6695 21.6511 17.0942 21.8635 17.4872 21.7325C17.8801 21.6015 18.0925 21.1768 17.9615 20.7838L16.7906 17.271H18C19.6569 17.271 21 15.9278 21 14.271V3.771H21.75C22.1642 3.771 22.5 3.43521 22.5 3.021C22.5 2.60678 22.1642 2.271 21.75 2.271H2.25ZM8.29057 18.771L8.79057 17.271H15.2094L15.7094 18.771H8.29057ZM15.75 6.771C15.75 6.35678 15.4142 6.021 15 6.021C14.5858 6.021 14.25 6.35678 14.25 6.771V12.771C14.25 13.1852 14.5858 13.521 15 13.521C15.4142 13.521 15.75 13.1852 15.75 12.771V6.771ZM12.75 9.021C12.75 8.60678 12.4142 8.271 12 8.271C11.5858 8.271 11.25 8.60678 11.25 9.021V12.771C11.25 13.1852 11.5858 13.521 12 13.521C12.4142 13.521 12.75 13.1852 12.75 12.771V9.021ZM9.75 11.271C9.75 10.8568 9.41421 10.521 9 10.521C8.58579 10.521 8.25 10.8568 8.25 11.271V12.771C8.25 13.1852 8.58579 13.521 9 13.521C9.41421 13.521 9.75 13.1852 9.75 12.771V11.271Z" fill="#868E96"/>
</svg>
