<svg width="24" height="25" viewBox="0 0 24 25" fill="none" xmlns="http://www.w3.org/2000/svg">
<path fill-rule="evenodd" clip-rule="evenodd" d="M6 3.396C6 2.36046 6.83947 1.521 7.875 1.521H16.125C17.1605 1.521 18 2.36046 18 3.396V6.38664C18.4264 6.43898 18.8511 6.49683 19.274 6.56011C20.7281 6.77768 21.75 8.04263 21.75 9.47668V15.771C21.75 17.4279 20.4069 18.771 18.75 18.771H18.4804L18.6354 20.4762C18.7352 21.5743 17.8706 22.521 16.7681 22.521H7.23191C6.12935 22.521 5.26479 21.5743 5.36461 20.4762L5.51963 18.771H5.25C3.59315 18.771 2.25 17.4278 2.25 15.771V9.47668C2.25 8.04263 3.27191 6.77768 4.72596 6.56011C5.1489 6.49683 5.5736 6.43898 6 6.38664V3.396ZM7.5 6.22597C8.98199 6.09031 10.483 6.021 12 6.021C13.517 6.021 15.018 6.09031 16.5 6.22597V3.396C16.5 3.18889 16.3321 3.021 16.125 3.021H7.875C7.66789 3.021 7.5 3.18889 7.5 3.396V6.22597ZM5.656 17.271L5.89077 14.6885C5.57054 14.6415 5.30572 14.3892 5.25756 14.0525C5.19891 13.6425 5.48376 13.2625 5.8938 13.2039C6.13748 13.169 6.38181 13.1362 6.62678 13.1055C8.38712 12.8847 10.1805 12.771 12 12.771C13.8195 12.771 15.6129 12.8847 17.3732 13.1055C17.6182 13.1362 17.8625 13.169 18.1062 13.2039C18.5162 13.2625 18.8011 13.6425 18.7424 14.0525C18.6943 14.3892 18.4295 14.6415 18.1092 14.6885L18.344 17.271H18.75C19.5784 17.271 20.25 16.5994 20.25 15.771V9.47668C20.25 8.74886 19.7361 8.14595 19.0521 8.0436C18.4283 7.95026 17.8005 7.86912 17.1689 7.80041C15.4715 7.61577 13.747 7.521 12 7.521C10.253 7.521 8.52845 7.61577 6.83111 7.80041C6.19954 7.86912 5.57173 7.95026 4.94793 8.0436C4.2639 8.14595 3.75 8.74886 3.75 9.47668V15.771C3.75 16.5994 4.42157 17.271 5.25 17.271H5.656ZM16.588 14.5232C15.0819 14.3566 13.5511 14.271 12 14.271C10.4489 14.271 8.91812 14.3566 7.41198 14.5232L6.85845 20.612C6.83849 20.8317 7.0114 21.021 7.23191 21.021H16.7681C16.9886 21.021 17.1615 20.8316 17.1415 20.612L16.588 14.5232ZM14.25 10.521C14.25 10.1068 14.5858 9.771 15 9.771H15.0075C15.4217 9.771 15.7575 10.1068 15.7575 10.521V10.5285C15.7575 10.9427 15.4217 11.2785 15.0075 11.2785H15C14.5858 11.2785 14.25 10.9427 14.25 10.5285V10.521ZM17.25 10.521C17.25 10.1068 17.5858 9.771 18 9.771H18.0075C18.4217 9.771 18.7575 10.1068 18.7575 10.521V10.5285C18.7575 10.9427 18.4217 11.2785 18.0075 11.2785H18C17.5858 11.2785 17.25 10.9427 17.25 10.5285V10.521Z" fill="#868E96"/>
</svg>
