<svg width="24" height="25" viewBox="0 0 24 25" fill="none" xmlns="http://www.w3.org/2000/svg">
<path fill-rule="evenodd" clip-rule="evenodd" d="M7.875 1.521C6.83947 1.521 6 2.36046 6 3.396V6.38664C5.5736 6.43898 5.1489 6.49683 4.72596 6.56011C3.27191 6.77768 2.25 8.04263 2.25 9.47668V15.771C2.25 17.4279 3.59315 18.771 5.25 18.771H5.51963L5.36461 20.4762C5.26479 21.5743 6.12935 22.521 7.23191 22.521H16.7681C17.8706 22.521 18.7352 21.5743 18.6354 20.4762L18.4804 18.771H18.75C20.4069 18.771 21.75 17.4279 21.75 15.771V9.47668C21.75 8.04263 20.7281 6.77768 19.274 6.56011C18.8511 6.49683 18.4264 6.43898 18 6.38664V3.396C18 2.36046 17.1605 1.521 16.125 1.521H7.875ZM16.5 6.22597V3.396C16.5 3.18889 16.3321 3.021 16.125 3.021H7.875C7.66789 3.021 7.5 3.18889 7.5 3.396V6.22597C8.98198 6.09031 10.483 6.021 12 6.021C13.517 6.021 15.018 6.09031 16.5 6.22597ZM16.2834 14.4906C16.4607 14.5089 16.5996 14.6508 16.6158 14.8283L17.1415 20.612C17.1615 20.8316 16.9886 21.021 16.7681 21.021H7.23191C7.0114 21.021 6.83849 20.8316 6.85845 20.612L7.38425 14.8283C7.40039 14.6508 7.53926 14.5089 7.71659 14.4906C9.12438 14.3454 10.5534 14.271 12 14.271C13.4466 14.271 14.8756 14.3454 16.2834 14.4906ZM17.25 10.521C17.25 10.1068 17.5858 9.771 18 9.771H18.0075C18.4217 9.771 18.7575 10.1068 18.7575 10.521V10.5285C18.7575 10.9427 18.4217 11.2785 18.0075 11.2785H18C17.5858 11.2785 17.25 10.9427 17.25 10.5285V10.521ZM15 9.771C14.5858 9.771 14.25 10.1068 14.25 10.521V10.5285C14.25 10.9427 14.5858 11.2785 15 11.2785H15.0075C15.4217 11.2785 15.7575 10.9427 15.7575 10.5285V10.521C15.7575 10.1068 15.4217 9.771 15.0075 9.771H15Z" fill="#868E96"/>
</svg>
