<svg width="24" height="25" viewBox="0 0 24 25" fill="none" xmlns="http://www.w3.org/2000/svg">
<path d="M11.25 5.35793C11.25 5.00278 11.064 4.68176 10.8488 4.39919C10.6279 4.1091 10.5 3.76499 10.5 3.396C10.5 2.36046 11.5074 1.521 12.75 1.521C13.9926 1.521 15 2.36046 15 3.396C15 3.76499 14.8721 4.1091 14.6512 4.39919C14.4361 4.68176 14.25 5.00278 14.25 5.35793C14.25 5.69029 14.5277 5.9556 14.8595 5.9358C16.7701 5.82179 18.6498 5.59428 20.4922 5.25998C20.6949 5.22319 20.9039 5.27144 21.07 5.3934C21.2361 5.51537 21.3447 5.7003 21.3703 5.90477C21.5943 7.69424 21.7213 9.51362 21.7459 11.3574C21.7508 11.7238 21.4533 12.0209 21.0869 12.021C20.7318 12.021 20.4108 11.8349 20.1282 11.6198C19.8381 11.3989 19.494 11.271 19.125 11.271C18.0895 11.271 17.25 12.2784 17.25 13.521C17.25 14.7636 18.0895 15.771 19.125 15.771C19.494 15.771 19.8381 15.6431 20.1282 15.4222C20.4108 15.207 20.7318 15.021 21.0869 15.021C21.3974 15.021 21.6439 15.2827 21.6214 15.5923C21.5028 17.2308 21.3031 18.8471 21.0264 20.4371C20.9721 20.749 20.7279 20.9931 20.416 21.0474C18.5969 21.364 16.7434 21.5797 14.8615 21.6886C14.5285 21.7079 14.25 21.4415 14.25 21.1079C14.25 20.7528 14.4361 20.4318 14.6512 20.1492C14.8721 19.8591 15 19.515 15 19.146C15 18.1105 13.9926 17.271 12.75 17.271C11.5074 17.271 10.5 18.1105 10.5 19.146C10.5 19.515 10.6279 19.8591 10.8488 20.1492C11.064 20.4318 11.25 20.7528 11.25 21.1079C11.25 21.4695 10.954 21.7615 10.5925 21.7513C9.00303 21.7062 7.43238 21.585 5.88413 21.3912C5.67966 21.3656 5.49473 21.257 5.37277 21.0909C5.25081 20.9248 5.20256 20.7158 5.23935 20.5131C5.53223 18.8991 5.74315 17.2564 5.8676 15.5893C5.89058 15.2815 5.64563 15.021 5.33694 15.021C4.98178 15.021 4.66076 15.207 4.3782 15.4222C4.0881 15.6431 3.744 15.771 3.375 15.771C2.33947 15.771 1.5 14.7636 1.5 13.521C1.5 12.2784 2.33947 11.271 3.375 11.271C3.744 11.271 4.0881 11.3989 4.3782 11.6198C4.66076 11.8349 4.98178 12.021 5.33694 12.021C5.7033 12.021 6.00078 11.724 5.99574 11.3576C5.97334 9.72945 5.86862 8.12126 5.68559 6.53728C5.6593 6.3098 5.73838 6.08278 5.9003 5.92086C6.06222 5.75894 6.28925 5.67986 6.51672 5.70615C7.85902 5.86125 9.2186 5.96012 10.5931 6.00031C10.9541 6.01087 11.25 5.71917 11.25 5.35793Z" fill="#868E96"/>
</svg>
