<svg width="24" height="25" viewBox="0 0 24 25" fill="none" xmlns="http://www.w3.org/2000/svg">
<path fill-rule="evenodd" clip-rule="evenodd" d="M3 4.896C3 3.86046 3.83947 3.021 4.875 3.021H9.375C10.4105 3.021 11.25 3.86046 11.25 4.896V9.396C11.25 10.4315 10.4105 11.271 9.375 11.271H4.875C3.83947 11.271 3 10.4315 3 9.396V4.896ZM4.875 4.521C4.66789 4.521 4.5 4.68889 4.5 4.896V9.396C4.5 9.6031 4.66789 9.771 4.875 9.771H9.375C9.58211 9.771 9.75 9.6031 9.75 9.396V4.896C9.75 4.68889 9.58211 4.521 9.375 4.521H4.875ZM12.75 4.896C12.75 3.86046 13.5895 3.021 14.625 3.021H19.125C20.1605 3.021 21 3.86046 21 4.896V9.396C21 10.4315 20.1605 11.271 19.125 11.271H14.625C13.5895 11.271 12.75 10.4315 12.75 9.396V4.896ZM14.625 4.521C14.4179 4.521 14.25 4.68889 14.25 4.896V9.396C14.25 9.6031 14.4179 9.771 14.625 9.771H19.125C19.3321 9.771 19.5 9.6031 19.5 9.396V4.896C19.5 4.68889 19.3321 4.521 19.125 4.521H14.625ZM6 6.771C6 6.35678 6.33579 6.021 6.75 6.021H7.5C7.91421 6.021 8.25 6.35678 8.25 6.771V7.521C8.25 7.93521 7.91421 8.271 7.5 8.271H6.75C6.33579 8.271 6 7.93521 6 7.521V6.771ZM15.75 6.771C15.75 6.35678 16.0858 6.021 16.5 6.021H17.25C17.6642 6.021 18 6.35678 18 6.771V7.521C18 7.93521 17.6642 8.271 17.25 8.271H16.5C16.0858 8.271 15.75 7.93521 15.75 7.521V6.771ZM3 14.646C3 13.6105 3.83947 12.771 4.875 12.771H9.375C10.4105 12.771 11.25 13.6105 11.25 14.646V19.146C11.25 20.1815 10.4105 21.021 9.375 21.021H4.875C3.83947 21.021 3 20.1815 3 19.146V14.646ZM4.875 14.271C4.66789 14.271 4.5 14.4389 4.5 14.646V19.146C4.5 19.3531 4.66789 19.521 4.875 19.521H9.375C9.58211 19.521 9.75 19.3531 9.75 19.146V14.646C9.75 14.4389 9.58211 14.271 9.375 14.271H4.875ZM12.75 13.521C12.75 13.1068 13.0858 12.771 13.5 12.771H14.25C14.6642 12.771 15 13.1068 15 13.521V14.271C15 14.6852 14.6642 15.021 14.25 15.021H13.5C13.0858 15.021 12.75 14.6852 12.75 14.271V13.521ZM18.75 13.521C18.75 13.1068 19.0858 12.771 19.5 12.771H20.25C20.6642 12.771 21 13.1068 21 13.521V14.271C21 14.6852 20.6642 15.021 20.25 15.021H19.5C19.0858 15.021 18.75 14.6852 18.75 14.271V13.521ZM6 16.521C6 16.1068 6.33579 15.771 6.75 15.771H7.5C7.91421 15.771 8.25 16.1068 8.25 16.521V17.271C8.25 17.6852 7.91421 18.021 7.5 18.021H6.75C6.33579 18.021 6 17.6852 6 17.271V16.521ZM15.75 16.521C15.75 16.1068 16.0858 15.771 16.5 15.771H17.25C17.6642 15.771 18 16.1068 18 16.521V17.271C18 17.6852 17.6642 18.021 17.25 18.021H16.5C16.0858 18.021 15.75 17.6852 15.75 17.271V16.521ZM12.75 19.521C12.75 19.1068 13.0858 18.771 13.5 18.771H14.25C14.6642 18.771 15 19.1068 15 19.521V20.271C15 20.6852 14.6642 21.021 14.25 21.021H13.5C13.0858 21.021 12.75 20.6852 12.75 20.271V19.521ZM18.75 19.521C18.75 19.1068 19.0858 18.771 19.5 18.771H20.25C20.6642 18.771 21 19.1068 21 19.521V20.271C21 20.6852 20.6642 21.021 20.25 21.021H19.5C19.0858 21.021 18.75 20.6852 18.75 20.271V19.521Z" fill="#868E96"/>
</svg>
