<svg width="24" height="24" viewBox="0 0 24 24" fill="none" xmlns="http://www.w3.org/2000/svg">
<path fill-rule="evenodd" clip-rule="evenodd" d="M3 6.37988C3 4.93014 4.17525 3.75488 5.625 3.75488H18.375C19.8247 3.75488 21 4.93014 21 6.37988C21 7.82963 19.8247 9.00488 18.375 9.00488H5.625C4.17525 9.00488 3 7.82963 3 6.37988ZM5.625 5.25488C5.00368 5.25488 4.5 5.75856 4.5 6.37988C4.5 7.0012 5.00368 7.50488 5.625 7.50488H18.375C18.9963 7.50488 19.5 7.0012 19.5 6.37988C19.5 5.75856 18.9963 5.25488 18.375 5.25488H5.625ZM3 12.0049C3 11.5907 3.33579 11.2549 3.75 11.2549H20.25C20.6642 11.2549 21 11.5907 21 12.0049C21 12.4191 20.6642 12.7549 20.25 12.7549H3.75C3.33579 12.7549 3 12.4191 3 12.0049ZM3 15.7549C3 15.3407 3.33579 15.0049 3.75 15.0049H20.25C20.6642 15.0049 21 15.3407 21 15.7549C21 16.1691 20.6642 16.5049 20.25 16.5049H3.75C3.33579 16.5049 3 16.1691 3 15.7549ZM3 19.5049C3 19.0907 3.33579 18.7549 3.75 18.7549H20.25C20.6642 18.7549 21 19.0907 21 19.5049C21 19.9191 20.6642 20.2549 20.25 20.2549H3.75C3.33579 20.2549 3 19.9191 3 19.5049Z" fill="#868E96"/>
</svg>
