<svg width="24" height="24" viewBox="0 0 24 24" fill="none" xmlns="http://www.w3.org/2000/svg">
<path fill-rule="evenodd" clip-rule="evenodd" d="M1.5 7.12988C1.5 6.09435 2.33947 5.25488 3.375 5.25488H9.375C10.4105 5.25488 11.25 6.09435 11.25 7.12988V10.8799C11.25 11.9154 10.4105 12.7549 9.375 12.7549H3.375C2.33947 12.7549 1.5 11.9154 1.5 10.8799V7.12988ZM3.375 6.75488C3.16789 6.75488 3 6.92278 3 7.12988V10.8799C3 11.087 3.16789 11.2549 3.375 11.2549H9.375C9.58211 11.2549 9.75 11.087 9.75 10.8799V7.12988C9.75 6.92278 9.58211 6.75488 9.375 6.75488H3.375ZM13.5 8.62988C13.5 7.59435 14.3395 6.75488 15.375 6.75488H20.625C21.6605 6.75488 22.5 7.59435 22.5 8.62988V16.8799C22.5 17.9154 21.6605 18.7549 20.625 18.7549H15.375C14.3395 18.7549 13.5 17.9154 13.5 16.8799V8.62988ZM15.375 8.25488C15.1679 8.25488 15 8.42278 15 8.62988V16.8799C15 17.087 15.1679 17.2549 15.375 17.2549H20.625C20.8321 17.2549 21 17.087 21 16.8799V8.62988C21 8.42278 20.8321 8.25488 20.625 8.25488H15.375ZM3 16.1299C3 15.0943 3.83947 14.2549 4.875 14.2549H10.125C11.1605 14.2549 12 15.0943 12 16.1299V18.3799C12 19.4154 11.1605 20.2549 10.125 20.2549H4.875C3.83947 20.2549 3 19.4154 3 18.3799V16.1299ZM4.875 15.7549C4.66789 15.7549 4.5 15.9228 4.5 16.1299V18.3799C4.5 18.587 4.66789 18.7549 4.875 18.7549H10.125C10.3321 18.7549 10.5 18.587 10.5 18.3799V16.1299C10.5 15.9228 10.3321 15.7549 10.125 15.7549H4.875Z" fill="#868E96"/>
</svg>
