<svg width="24" height="24" viewBox="0 0 24 24" fill="none" xmlns="http://www.w3.org/2000/svg">
<path fill-rule="evenodd" clip-rule="evenodd" d="M5.25 6.00488C5.25 4.34803 6.59315 3.00488 8.25 3.00488H15.75C17.4069 3.00488 18.75 4.34803 18.75 6.00488V6.40645C19.6461 6.92481 20.25 7.89362 20.25 9.00488V9.40645C21.1461 9.92481 21.75 10.8936 21.75 12.0049V18.0049C21.75 19.6617 20.4069 21.0049 18.75 21.0049H5.25C3.59315 21.0049 2.25 19.6617 2.25 18.0049V12.0049C2.25 10.8936 2.8539 9.92481 3.75 9.40645V9.00488C3.75 7.89362 4.3539 6.92481 5.25 6.40645V6.00488ZM6.75 6.00488H17.25C17.25 5.17646 16.5784 4.50488 15.75 4.50488H8.25C7.42157 4.50488 6.75 5.17646 6.75 6.00488ZM5.25 9.00488H18.75C18.75 8.35294 18.3337 7.79632 17.7501 7.59004C17.5946 7.53511 17.4267 7.50488 17.25 7.50488H6.75C6.57334 7.50488 6.40536 7.53511 6.24993 7.59004C5.66633 7.79632 5.25 8.35294 5.25 9.00488ZM5.25 10.5049C5.07334 10.5049 4.90536 10.5351 4.74993 10.59C4.16633 10.7963 3.75 11.3529 3.75 12.0049V18.0049C3.75 18.8333 4.42157 19.5049 5.25 19.5049H18.75C19.5784 19.5049 20.25 18.8333 20.25 18.0049V12.0049C20.25 11.3529 19.8337 10.7963 19.2501 10.59C19.0946 10.5351 18.9267 10.5049 18.75 10.5049H5.25Z" fill="#868E96"/>
</svg>
