<svg width="24" height="24" viewBox="0 0 24 24" fill="none" xmlns="http://www.w3.org/2000/svg">
<path fill-rule="evenodd" clip-rule="evenodd" d="M6.37465 4.80646C5.29849 4.18514 3.92241 4.55386 3.30109 5.63002C2.67977 6.70618 3.04849 8.08226 4.12465 8.70358C5.20079 9.32489 6.57653 8.95625 7.19786 7.88007C7.81926 6.80377 7.45067 5.4277 6.37465 4.80646ZM2.00205 4.88002C3.03759 3.08642 5.33105 2.47189 7.12465 3.50743C8.69592 4.4146 9.36191 6.28705 8.80694 7.94305L11.3222 9.39524C11.8757 8.87643 12.5502 8.47706 13.3095 8.24482L18.6343 6.61635C19.5752 6.32858 20.578 6.31103 21.5285 6.56569L22.3309 6.7807C22.6239 6.85921 22.8408 7.1065 22.8804 7.40725C22.92 7.708 22.7745 8.00299 22.5118 8.15467L15.8426 12.0051L22.5118 15.8556C22.7745 16.0072 22.92 16.3022 22.8804 16.603C22.8408 16.9037 22.6239 17.151 22.3309 17.2295L21.5285 17.4445C20.578 17.6992 19.5752 17.6816 18.6343 17.3939L13.3095 15.7654C12.5502 15.5332 11.8757 15.1338 11.3222 14.615L8.80694 16.0672C9.36191 17.7231 8.6959 19.5955 7.12465 20.5026C5.33105 21.5382 3.03759 20.9236 2.00205 19.13C0.96652 17.3364 1.58105 15.043 3.37465 14.0074C4.94587 13.1003 6.9003 13.4595 8.05694 14.7681L9.00895 14.2185C9.43935 13.97 9.70781 13.5139 9.71617 13.017C9.72198 12.6719 9.76257 12.3333 9.83511 12.0051C9.76257 11.6769 9.72198 11.3383 9.71617 10.9932C9.70781 10.4963 9.43935 10.0402 9.00895 9.79173L8.05694 9.24209C6.90027 10.5507 4.94582 10.9097 3.37465 10.0026C1.58105 8.96708 0.96652 6.67362 2.00205 4.88002ZM12.7068 13.8156C13.0176 14.0388 13.3677 14.2146 13.7482 14.331L19.0729 15.9595C19.3646 16.0487 19.6646 16.1015 19.9662 16.1179L14.3426 12.8711L12.7068 13.8156ZM11.219 12.9425C11.2304 12.6862 11.2689 12.4361 11.332 12.1951C11.4652 11.6868 11.708 11.2179 12.0381 10.8193C12.4742 10.2925 13.0616 9.88924 13.7482 9.67924L19.0729 8.05076C19.3646 7.96157 19.6646 7.90872 19.9662 7.89233L11.219 12.9425ZM7.19786 16.1301C6.57649 15.0539 5.20072 14.6852 4.12465 15.3065C3.04849 15.9278 2.67977 17.3039 3.30109 18.38C3.92241 19.4562 5.29849 19.8249 6.37465 19.2036C7.45069 18.5823 7.81925 17.2064 7.19786 16.1301Z" fill="#868E96"/>
</svg>
