<svg width="24" height="24" viewBox="0 0 24 24" fill="none" xmlns="http://www.w3.org/2000/svg">
<path fill-rule="evenodd" clip-rule="evenodd" d="M8.12809 9.15953C6.98164 10.5353 4.97834 10.9285 3.37465 10.0026C1.58105 8.96708 0.96652 6.67362 2.00205 4.88002C3.03759 3.08642 5.33105 2.47189 7.12465 3.50743C8.66294 4.39556 9.33394 6.209 8.8405 7.8388L9.97689 8.49489C10.1635 8.60263 10.2948 8.78544 10.3372 8.9967C10.3796 9.20797 10.3292 9.42728 10.1986 9.59873L10.193 9.60608C9.94784 9.92813 9.49101 9.99797 9.1612 9.76334C9.12494 9.73755 9.08725 9.71331 9.04817 9.69075L8.12809 9.15953ZM3.30109 5.63002C3.92241 4.55386 5.29849 4.18514 6.37465 4.80646C7.38936 5.39231 7.77511 6.64918 7.295 7.69294C7.27403 7.71992 7.25465 7.74866 7.23708 7.77909C7.21031 7.82545 7.18906 7.87348 7.17311 7.92243C6.54047 8.96578 5.18655 9.31666 4.12465 8.70358C3.04849 8.08226 2.67977 6.70618 3.30109 5.63002Z" fill="#868E96"/>
<path fill-rule="evenodd" clip-rule="evenodd" d="M13.3482 8.27655C12.3742 8.57443 11.5398 9.14728 10.9212 9.89447C10.4536 10.4594 10.1088 11.1245 9.9196 11.8468C9.81829 12.2337 9.76174 12.6366 9.7548 13.0487C9.74645 13.5456 9.47798 14.0017 9.04758 14.2502L8.08859 14.8039C6.93606 13.466 4.96007 13.0921 3.37465 14.0074C1.58105 15.043 0.96652 17.3364 2.00205 19.13C3.03759 20.9236 5.33105 21.5381 7.12465 20.5026C8.68148 19.6038 9.34999 17.7572 8.82216 16.1124L22.5504 8.18639C22.8131 8.03472 22.9586 7.73973 22.919 7.43898C22.8794 7.13822 22.6625 6.89094 22.3695 6.81243L21.5671 6.59742C20.6167 6.34275 19.6138 6.3603 18.6729 6.64807L13.3482 8.27655ZM4.12465 15.3065C3.04849 15.9278 2.67977 17.3039 3.30109 18.38C3.92241 19.4562 5.29849 19.8249 6.37465 19.2036C7.45081 18.5823 7.81953 17.2062 7.19821 16.13C6.57689 15.0539 5.20081 14.6851 4.12465 15.3065ZM11.9998 12.7549C12.414 12.7549 12.7498 12.4191 12.7498 12.0049C12.7498 11.5906 12.414 11.2549 11.9998 11.2549C11.5855 11.2549 11.2498 11.5906 11.2498 12.0049C11.2498 12.4191 11.5855 12.7549 11.9998 12.7549Z" fill="#868E96"/>
<path d="M16.3715 12.6199C16.6036 12.4859 16.8895 12.4859 17.1215 12.6199L22.551 15.7546C22.8137 15.9062 22.9592 16.2012 22.9196 16.502C22.88 16.8027 22.6631 17.05 22.3701 17.1285L21.5677 17.3435C20.6173 17.5982 19.6144 17.5807 18.6735 17.2929L13.5268 15.7189C13.2413 15.6315 13.0348 15.3832 13.001 15.0865C12.9672 14.7899 13.1126 14.5014 13.3712 14.3521L16.3715 12.6199Z" fill="#868E96"/>
</svg>
