<svg width="24" height="24" viewBox="0 0 24 24" fill="none" xmlns="http://www.w3.org/2000/svg">
<path fill-rule="evenodd" clip-rule="evenodd" d="M8.4375 4.50684C7.61126 4.50684 6.83324 4.89585 6.3375 5.55684L4.85997 7.52687C4.98817 7.51363 5.11829 7.50684 5.25 7.50684H18.75C18.8817 7.50684 19.0118 7.51363 19.14 7.52687L17.6625 5.55684C17.1668 4.89585 16.3887 4.50684 15.5625 4.50684H8.4375ZM21 11.2568C21 10.0142 19.9926 9.00684 18.75 9.00684H5.25C4.00736 9.00684 3 10.0142 3 11.2568C3 12.4995 4.00736 13.5068 5.25 13.5068H18.75C19.9926 13.5068 21 12.4995 21 11.2568ZM21.0004 14.2568C21.911 13.5727 22.5 12.4835 22.5 11.2568C22.5 10.1209 22.1316 9.01559 21.45 8.10684L18.8625 4.65684L18.2625 5.10684L18.8625 4.65684C18.0835 3.61814 16.8609 3.00684 15.5625 3.00684H8.4375C7.13913 3.00684 5.91652 3.61814 5.1375 4.65684L2.55 8.10684C1.86843 9.01559 1.5 10.1209 1.5 11.2568C1.5 12.4835 2.08901 13.5727 2.99964 14.2568C2.08901 14.941 1.5 16.0301 1.5 17.2568C1.5 19.3279 3.17893 21.0068 5.25 21.0068H18.75C20.8211 21.0068 22.5 19.3279 22.5 17.2568C22.5 16.0301 21.911 14.941 21.0004 14.2568ZM5.25 15.0068C4.00736 15.0068 3 16.0142 3 17.2568C3 18.4995 4.00736 19.5068 5.25 19.5068H18.75C19.9926 19.5068 21 18.4995 21 17.2568C21 16.0142 19.9926 15.0068 18.75 15.0068H5.25ZM15 11.2568C15 10.8426 15.3358 10.5068 15.75 10.5068H15.7575C16.1717 10.5068 16.5075 10.8426 16.5075 11.2568V11.2643C16.5075 11.6785 16.1717 12.0143 15.7575 12.0143H15.75C15.3358 12.0143 15 11.6785 15 11.2643V11.2568ZM18 11.2568C18 10.8426 18.3358 10.5068 18.75 10.5068H18.7575C19.1717 10.5068 19.5075 10.8426 19.5075 11.2568V11.2643C19.5075 11.6785 19.1717 12.0143 18.7575 12.0143H18.75C18.3358 12.0143 18 11.6785 18 11.2643V11.2568ZM15 17.2568C15 16.8426 15.3358 16.5068 15.75 16.5068H15.7575C16.1717 16.5068 16.5075 16.8426 16.5075 17.2568V17.2643C16.5075 17.6785 16.1717 18.0143 15.7575 18.0143H15.75C15.3358 18.0143 15 17.6785 15 17.2643V17.2568ZM18 17.2568C18 16.8426 18.3358 16.5068 18.75 16.5068H18.7575C19.1717 16.5068 19.5075 16.8426 19.5075 17.2568V17.2643C19.5075 17.6785 19.1717 18.0143 18.7575 18.0143H18.75C18.3358 18.0143 18 17.6785 18 17.2643V17.2568Z" fill="#868E96"/>
</svg>
