<svg width="24" height="24" viewBox="0 0 24 24" fill="none" xmlns="http://www.w3.org/2000/svg">
<path fill-rule="evenodd" clip-rule="evenodd" d="M7.92305 4.50684C6.70491 4.50684 5.64683 5.34485 5.36783 6.53061L3.64128 13.8685C4.12878 13.6366 4.67424 13.5068 5.25 13.5068H18.75C19.3258 13.5068 19.8712 13.6366 20.3587 13.8685L18.6322 6.53061C18.3532 5.34485 17.2951 4.50684 16.077 4.50684H7.92305ZM21 17.2568C21 16.0142 19.9926 15.0068 18.75 15.0068H5.25C4.00736 15.0068 3 16.0142 3 17.2568C3 18.4995 4.00736 19.5068 5.25 19.5068H18.75C19.9926 19.5068 21 18.4995 21 17.2568ZM1.5 17.2568C1.5 19.3279 3.17893 21.0068 5.25 21.0068H18.75C20.8211 21.0068 22.5 19.3279 22.5 17.2568V17.0291C22.5 16.6243 22.4532 16.2208 22.3604 15.8267L20.0923 6.18705C19.6539 4.32372 17.9912 3.00684 16.077 3.00684H7.92305C6.00884 3.00684 4.34613 4.32372 3.9077 6.18705L1.63956 15.8267C1.54683 16.2208 1.5 16.6243 1.5 17.0291V17.2568ZM15 17.2568C15 16.8426 15.3358 16.5068 15.75 16.5068H15.7575C16.1717 16.5068 16.5075 16.8426 16.5075 17.2568V17.2643C16.5075 17.6785 16.1717 18.0143 15.7575 18.0143H15.75C15.3358 18.0143 15 17.6785 15 17.2643V17.2568ZM18 17.2568C18 16.8426 18.3358 16.5068 18.75 16.5068H18.7575C19.1717 16.5068 19.5075 16.8426 19.5075 17.2568V17.2643C19.5075 17.6785 19.1717 18.0143 18.7575 18.0143H18.75C18.3358 18.0143 18 17.6785 18 17.2643V17.2568Z" fill="#868E96"/>
</svg>
