<svg width="24" height="24" viewBox="0 0 24 24" fill="none" xmlns="http://www.w3.org/2000/svg">
<path fill-rule="evenodd" clip-rule="evenodd" d="M12.5157 2.17664C12.2265 1.90271 11.7735 1.90271 11.4843 2.17664C9.46752 4.08661 6.74624 5.25694 3.75 5.25694C3.70233 5.25694 3.65473 5.25665 3.60721 5.25606C3.27984 5.25199 2.98767 5.46074 2.88541 5.77175C2.47287 7.02651 2.25 8.36647 2.25 9.75699C2.25 15.699 6.31406 20.6899 11.8131 22.1053C11.9357 22.1368 12.0643 22.1368 12.1869 22.1053C17.6859 20.6899 21.75 15.699 21.75 9.75699C21.75 8.36647 21.5271 7.02651 21.1146 5.77175C21.0123 5.46074 20.7202 5.25199 20.3928 5.25606C20.3453 5.25665 20.2977 5.25694 20.25 5.25694C17.2538 5.25694 14.5325 4.08661 12.5157 2.17664ZM15.6103 10.1928C15.8511 9.85571 15.773 9.38729 15.4359 9.14654C15.0989 8.90578 14.6305 8.98385 14.3897 9.32091L11.1543 13.8505L9.53033 12.2265C9.23744 11.9336 8.76256 11.9336 8.46967 12.2265C8.17678 12.5194 8.17678 12.9943 8.46967 13.2872L10.7197 15.5372C10.8756 15.6931 11.0921 15.7725 11.3119 15.7543C11.5316 15.7361 11.7322 15.6222 11.8603 15.4428L15.6103 10.1928Z" fill="#868E96"/>
</svg>
