<svg width="24" height="24" viewBox="0 0 24 24" fill="none" xmlns="http://www.w3.org/2000/svg">
<path fill-rule="evenodd" clip-rule="evenodd" d="M7.49805 6.00684V6.75684H5.51092C4.55137 6.75684 3.74667 7.48128 3.64622 8.43555L2.38306 20.4356C2.26653 21.5426 3.13457 22.5068 4.24776 22.5068H19.7485C20.8617 22.5068 21.7297 21.5426 21.6132 20.4356L20.35 8.43555C20.2496 7.48128 19.4449 6.75684 18.4853 6.75684H16.498V6.00684C16.498 3.52155 14.4833 1.50684 11.998 1.50684C9.51277 1.50684 7.49805 3.52155 7.49805 6.00684ZM11.998 3.00684C10.3412 3.00684 8.99805 4.34998 8.99805 6.00684V6.75684H14.998V6.00684C14.998 4.34998 13.6549 3.00684 11.998 3.00684ZM8.99805 11.2568C8.99805 12.9137 10.3412 14.2568 11.998 14.2568C13.6549 14.2568 14.998 12.9137 14.998 11.2568V10.5068C14.998 10.0926 15.3338 9.75684 15.748 9.75684C16.1623 9.75684 16.498 10.0926 16.498 10.5068V11.2568C16.498 13.7421 14.4833 15.7568 11.998 15.7568C9.51277 15.7568 7.49805 13.7421 7.49805 11.2568V10.5068C7.49805 10.0926 7.83383 9.75684 8.24805 9.75684C8.66226 9.75684 8.99805 10.0926 8.99805 10.5068V11.2568Z" fill="#868E96"/>
</svg>
