<svg width="24" height="24" viewBox="0 0 24 24" fill="none" xmlns="http://www.w3.org/2000/svg">
<path fill-rule="evenodd" clip-rule="evenodd" d="M17.998 1.50928C18.3422 1.50928 18.6422 1.7435 18.7257 2.07738L18.9845 3.11284C19.2196 4.05334 19.954 4.78768 20.8945 5.02281L21.9299 5.28167C22.2638 5.36514 22.498 5.66513 22.498 6.00928C22.498 6.35343 22.2638 6.65342 21.9299 6.73688L20.8945 6.99575C19.954 7.23087 19.2196 7.96522 18.9845 8.90572L18.7257 9.94118C18.6422 10.2751 18.3422 10.5093 17.998 10.5093C17.6539 10.5093 17.3539 10.2751 17.2704 9.94118L17.0116 8.90572C16.7765 7.96522 16.0421 7.23087 15.1016 6.99575L14.0661 6.73688C13.7323 6.65342 13.498 6.35343 13.498 6.00928C13.498 5.66513 13.7323 5.36514 14.0661 5.28167L15.1016 5.02281C16.0421 4.78768 16.7765 4.05334 17.0116 3.11284L17.2704 2.07738C17.3539 1.7435 17.6539 1.50928 17.998 1.50928ZM17.998 4.60543C17.6515 5.18039 17.1692 5.6627 16.5942 6.00928C17.1692 6.35586 17.6515 6.83816 17.998 7.41312C18.3446 6.83816 18.8269 6.35586 19.4019 6.00928C18.8269 5.6627 18.3446 5.18039 17.998 4.60543ZM8.99805 4.50928C9.33291 4.50928 9.6272 4.73126 9.71919 5.05324L10.5324 7.89943C10.8883 9.14521 11.8621 10.119 13.1079 10.4749L15.9541 11.2881C16.2761 11.3801 16.498 11.6744 16.498 12.0093C16.498 12.3441 16.2761 12.6384 15.9541 12.7304L13.1079 13.5436C11.8621 13.8996 10.8883 14.8734 10.5324 16.1191L9.71919 18.9653C9.6272 19.2873 9.33291 19.5093 8.99805 19.5093C8.66319 19.5093 8.3689 19.2873 8.2769 18.9653L7.46371 16.1191C7.10777 14.8733 6.13398 13.8996 4.88819 13.5436L2.04201 12.7304C1.72003 12.6384 1.49805 12.3441 1.49805 12.0093C1.49805 11.6744 1.72003 11.3801 2.04201 11.2881L4.8882 10.4749C6.13398 10.119 7.10777 9.14521 7.46371 7.89943L8.2769 5.05324C8.3689 4.73126 8.66319 4.50928 8.99805 4.50928ZM8.99805 7.98932L8.90599 8.31151C8.40768 10.0556 7.04437 11.4189 5.30028 11.9172L4.97809 12.0093L5.30028 12.1013C7.04437 12.5996 8.40768 13.963 8.90599 15.707L8.99805 16.0292L9.0901 15.707C9.58841 13.963 10.9517 12.5996 12.6958 12.1013L13.018 12.0093L12.6958 11.9172C10.9517 11.4189 9.58841 10.0556 9.0901 8.31151L8.99805 7.98932ZM16.498 15.0093C16.8209 15.0093 17.1075 15.2158 17.2096 15.5221L17.6038 16.7048C17.7531 17.1527 18.1046 17.5042 18.5525 17.6535L19.7352 18.0478C20.0415 18.1498 20.248 18.4365 20.248 18.7593C20.248 19.0821 20.0415 19.3687 19.7352 19.4708L18.5525 19.865C18.1046 20.0143 17.7531 20.3658 17.6038 20.8137L17.2096 21.9964C17.1075 22.3027 16.8209 22.5093 16.498 22.5093C16.1752 22.5093 15.8886 22.3027 15.7865 21.9964L15.3923 20.8137C15.243 20.3658 14.8915 20.0143 14.4436 19.865L13.2609 19.4708C12.9546 19.3687 12.748 19.0821 12.748 18.7593C12.748 18.4365 12.9546 18.1498 13.2609 18.0478L14.4436 17.6535C14.8915 17.5042 15.243 17.1527 15.3923 16.7048L15.7865 15.5221C15.8886 15.2158 16.1752 15.0093 16.498 15.0093ZM16.498 17.8446C16.2633 18.2123 15.9511 18.5246 15.5834 18.7593C15.9511 18.994 16.2633 19.3063 16.498 19.6739C16.7327 19.3063 17.045 18.994 17.4127 18.7593C17.045 18.5246 16.7327 18.2123 16.498 17.8446Z" fill="#868E96"/>
</svg>
