<svg width="24" height="25" viewBox="0 0 24 25" fill="none" xmlns="http://www.w3.org/2000/svg">
<path fill-rule="evenodd" clip-rule="evenodd" d="M10.9393 3.01168C11.8843 2.06673 13.5 2.73599 13.5 4.07234V19.951C13.5 21.2874 11.8843 21.9566 10.9393 21.0117L6.43934 16.5117H4.50905C3.36772 16.5117 2.19106 15.8472 1.8493 14.6066C1.62147 13.7796 1.5 12.9092 1.5 12.0117C1.5 11.1142 1.62147 10.2438 1.8493 9.41674C2.19106 8.17612 3.36772 7.51168 4.50905 7.51168H6.43934L10.9393 3.01168L11.4697 3.54201L10.9393 3.01168ZM12 4.07234L7.28033 8.79201C7.13968 8.93267 6.94891 9.01168 6.75 9.01168H4.50905C3.8917 9.01168 3.42075 9.36019 3.29544 9.8151C3.10302 10.5136 3 11.25 3 12.0117C3 12.7733 3.10302 13.5097 3.29544 14.2083C3.42075 14.6632 3.8917 15.0117 4.50905 15.0117H6.75C6.94891 15.0117 7.13968 15.0907 7.28033 15.2314L12 19.951V4.07234ZM16.7197 9.23135C17.0126 8.93846 17.4874 8.93846 17.7803 9.23135L19.5 10.951L21.2197 9.23135C21.5126 8.93846 21.9874 8.93846 22.2803 9.23135C22.5732 9.52425 22.5732 9.99912 22.2803 10.292L20.5607 12.0117L22.2803 13.7314C22.5732 14.0242 22.5732 14.4991 22.2803 14.792C21.9874 15.0849 21.5126 15.0849 21.2197 14.792L19.5 13.0723L17.7803 14.792C17.4874 15.0849 17.0126 15.0849 16.7197 14.792C16.4268 14.4991 16.4268 14.0242 16.7197 13.7314L18.4393 12.0117L16.7197 10.292C16.4268 9.99912 16.4268 9.52425 16.7197 9.23135Z" fill="#868E96"/>
</svg>
