<svg width="24" height="25" viewBox="0 0 24 25" fill="none" xmlns="http://www.w3.org/2000/svg">
<path d="M13.5 4.07234C13.5 2.73599 11.8843 2.06673 10.9393 3.01168L6.43934 7.51168H4.50905C3.36772 7.51168 2.19106 8.17612 1.8493 9.41674C1.62147 10.2438 1.5 11.1142 1.5 12.0117C1.5 12.9092 1.62147 13.7796 1.8493 14.6066C2.19106 15.8472 3.36772 16.5117 4.50905 16.5117H6.43934L10.9393 21.0117C11.8843 21.9566 13.5 21.2874 13.5 19.951V4.07234Z" fill="#868E96"/>
<path d="M17.7803 9.23134C17.4874 8.93845 17.0126 8.93845 16.7197 9.23134C16.4268 9.52424 16.4268 9.99911 16.7197 10.292L18.4393 12.0117L16.7197 13.7313C16.4268 14.0242 16.4268 14.4991 16.7197 14.792C17.0126 15.0849 17.4874 15.0849 17.7803 14.792L19.5 13.0723L21.2197 14.792C21.5126 15.0849 21.9874 15.0849 22.2803 14.792C22.5732 14.4991 22.5732 14.0242 22.2803 13.7313L20.5607 12.0117L22.2803 10.292C22.5732 9.99911 22.5732 9.52424 22.2803 9.23134C21.9874 8.93845 21.5126 8.93845 21.2197 9.23134L19.5 10.951L17.7803 9.23134Z" fill="#868E96"/>
</svg>
