<svg width="24" height="25" viewBox="0 0 24 25" fill="none" xmlns="http://www.w3.org/2000/svg">
<path d="M13.5 4.07234C13.5 2.73599 11.8843 2.06673 10.9393 3.01168L6.43934 7.51168H4.50905C3.36772 7.51168 2.19106 8.17612 1.8493 9.41674C1.62147 10.2438 1.5 11.1142 1.5 12.0117C1.5 12.9092 1.62147 13.7796 1.8493 14.6066C2.19106 15.8472 3.36772 16.5117 4.50905 16.5117H6.43934L10.9393 21.0117C11.8843 21.9566 13.5 21.2874 13.5 19.951V4.07234Z" fill="#868E96"/>
<path d="M18.5837 5.11733C18.8766 4.82443 19.3514 4.82443 19.6443 5.11733C23.452 8.92494 23.452 15.0983 19.6443 18.9059C19.3514 19.1988 18.8766 19.1988 18.5837 18.9059C18.2908 18.613 18.2908 18.1381 18.5837 17.8453C21.8055 14.6234 21.8055 9.39981 18.5837 6.17799C18.2908 5.88509 18.2908 5.41022 18.5837 5.11733Z" fill="#868E96"/>
<path d="M15.9323 7.76906C16.2252 7.47617 16.7001 7.47617 16.993 7.76906C19.3361 10.1122 19.3361 13.9112 16.993 16.2543C16.7001 16.5472 16.2252 16.5472 15.9323 16.2543C15.6394 15.9614 15.6394 15.4866 15.9323 15.1937C17.6897 13.4363 17.6897 10.5871 15.9323 8.82972C15.6394 8.53683 15.6394 8.06195 15.9323 7.76906Z" fill="#868E96"/>
</svg>
