<svg width="24" height="25" viewBox="0 0 24 25" fill="none" xmlns="http://www.w3.org/2000/svg">
<path fill-rule="evenodd" clip-rule="evenodd" d="M10.9393 3.01168C11.8843 2.06673 13.5 2.73599 13.5 4.07234V19.951C13.5 21.2874 11.8843 21.9566 10.9393 21.0117L6.43934 16.5117H4.50905C3.36772 16.5117 2.19106 15.8472 1.8493 14.6066C1.62147 13.7796 1.5 12.9092 1.5 12.0117C1.5 11.1142 1.62147 10.2438 1.8493 9.41674C2.19106 8.17612 3.36772 7.51168 4.50905 7.51168H6.43934L10.9393 3.01168L11.4697 3.54201L10.9393 3.01168ZM12 4.07234L7.28033 8.79201C7.13968 8.93267 6.94891 9.01168 6.75 9.01168H4.50905C3.8917 9.01168 3.42075 9.36019 3.29544 9.8151C3.10302 10.5136 3 11.25 3 12.0117C3 12.7733 3.10302 13.5097 3.29544 14.2083C3.42075 14.6632 3.8917 15.0117 4.50905 15.0117H6.75C6.94891 15.0117 7.13968 15.0907 7.28033 15.2314L12 19.951V4.07234ZM18.5837 5.11734C18.8766 4.82445 19.3514 4.82445 19.6443 5.11734C23.452 8.92495 23.452 15.0983 19.6443 18.9059C19.3514 19.1988 18.8766 19.1988 18.5837 18.9059C18.2908 18.613 18.2908 18.1382 18.5837 17.8453C21.8055 14.6234 21.8055 9.39983 18.5837 6.178C18.2908 5.88511 18.2908 5.41023 18.5837 5.11734ZM15.9323 7.76907C16.2252 7.47618 16.7001 7.47618 16.993 7.76907C19.3361 10.1122 19.3361 13.9112 16.993 16.2544C16.7001 16.5472 16.2252 16.5472 15.9323 16.2544C15.6394 15.9615 15.6394 15.4866 15.9323 15.1937C17.6897 13.4363 17.6897 10.5871 15.9323 8.82973C15.6394 8.53684 15.6394 8.06197 15.9323 7.76907Z" fill="#868E96"/>
</svg>
