<svg width="24" height="25" viewBox="0 0 24 25" fill="none" xmlns="http://www.w3.org/2000/svg">
<path d="M6 3.01172C4.34315 3.01172 3 4.35486 3 6.01172V8.26172C3 9.91857 4.34315 11.2617 6 11.2617H8.25C9.90685 11.2617 11.25 9.91857 11.25 8.26172V6.01172C11.25 4.35486 9.90685 3.01172 8.25 3.01172H6Z" fill="#868E96"/>
<path d="M15.75 3.01172C14.0931 3.01172 12.75 4.35486 12.75 6.01172V8.26172C12.75 9.91857 14.0931 11.2617 15.75 11.2617H18C19.6569 11.2617 21 9.91857 21 8.26172V6.01172C21 4.35486 19.6569 3.01172 18 3.01172H15.75Z" fill="#868E96"/>
<path d="M6 12.7617C4.34315 12.7617 3 14.1049 3 15.7617V18.0117C3 19.6686 4.34315 21.0117 6 21.0117H8.25C9.90685 21.0117 11.25 19.6686 11.25 18.0117V15.7617C11.25 14.1049 9.90685 12.7617 8.25 12.7617H6Z" fill="#868E96"/>
<path d="M17.625 13.5117C17.625 13.0975 17.2892 12.7617 16.875 12.7617C16.4608 12.7617 16.125 13.0975 16.125 13.5117V16.1367H13.5C13.0858 16.1367 12.75 16.4725 12.75 16.8867C12.75 17.3009 13.0858 17.6367 13.5 17.6367H16.125V20.2617C16.125 20.6759 16.4608 21.0117 16.875 21.0117C17.2892 21.0117 17.625 20.6759 17.625 20.2617V17.6367H20.25C20.6642 17.6367 21 17.3009 21 16.8867C21 16.4725 20.6642 16.1367 20.25 16.1367H17.625V13.5117Z" fill="#868E96"/>
</svg>
