<svg width="24" height="25" viewBox="0 0 24 25" fill="none" xmlns="http://www.w3.org/2000/svg">
<path fill-rule="evenodd" clip-rule="evenodd" d="M10.7883 3.22252C11.2367 2.14458 12.7637 2.14458 13.212 3.22252L15.294 8.22824L20.6981 8.66148C21.8619 8.75478 22.3337 10.2071 21.4471 10.9666L17.3298 14.4935L18.5877 19.767C18.8586 20.9026 17.6232 21.8002 16.6268 21.1916L12.0002 18.3657L7.37353 21.1916C6.37721 21.8002 5.14182 20.9026 5.41271 19.767L6.67062 14.4935L2.55328 10.9666C1.66663 10.2071 2.13851 8.75478 3.30224 8.66148L8.70634 8.22824L10.7883 3.22252ZM12.0002 4.2148L10.0473 8.91003C9.85832 9.36446 9.43096 9.67496 8.94036 9.71429L3.87148 10.1207L7.73343 13.4288C8.10722 13.749 8.27046 14.2514 8.15626 14.7302L6.97637 19.6765L11.316 17.0259C11.7361 16.7693 12.2643 16.7693 12.6843 17.0259L17.024 19.6765L15.8441 14.7302C15.7299 14.2514 15.8932 13.749 16.2669 13.4288L20.1289 10.1207L15.06 9.71429C14.5694 9.67496 14.142 9.36446 13.953 8.91003L12.0002 4.2148Z" fill="#868E96"/>
</svg>
