<svg width="24" height="25" viewBox="0 0 24 25" fill="none" xmlns="http://www.w3.org/2000/svg">
<path fill-rule="evenodd" clip-rule="evenodd" d="M9.65664 4.73989C8.57127 5.12444 7.89072 5.79664 7.67823 6.58969C7.46376 7.39013 7.72395 8.32294 8.48795 9.20562C9.23446 10.0681 10.4173 10.8178 11.8758 11.2086C11.946 11.2274 12.0162 11.2452 12.0862 11.262H20.2494C20.6636 11.262 20.9994 11.5978 20.9994 12.012C20.9994 12.4262 20.6636 12.762 20.2494 12.762H12.0098C12.0032 12.7621 11.9965 12.7621 11.9899 12.762H3.74951C3.3353 12.762 2.99951 12.4262 2.99951 12.012C2.99951 11.5978 3.3353 11.262 3.74951 11.262H8.5287C8.08448 10.9365 7.68959 10.5753 7.35381 10.1873C6.37221 9.05326 5.84858 7.62256 6.22935 6.20146C6.60649 4.79391 7.75713 3.82149 9.15573 3.32597C10.5581 2.82911 12.283 2.77649 14.0111 3.23953C15.1181 3.53618 16.1141 4.0141 16.9399 4.6132C17.2751 4.85644 17.3497 5.32543 17.1065 5.66071C16.8633 5.99599 16.3943 6.0706 16.059 5.82735C15.3881 5.3406 14.5605 4.93971 13.6228 4.68845C12.1501 4.29382 10.7382 4.35669 9.65664 4.73989ZM16.1899 14.3712C16.5438 14.1559 17.0052 14.2684 17.2204 14.6223C17.8121 15.5953 18.0657 16.716 17.7692 17.8224C17.3921 19.2299 16.2415 20.2023 14.8429 20.6978C13.4405 21.1947 11.7156 21.2473 9.98753 20.7843C8.27574 20.3256 6.81996 19.4304 5.85377 18.3141C5.58268 18.0009 5.61681 17.5272 5.92999 17.2561C6.24318 16.9851 6.71682 17.0192 6.98791 17.3324C7.73442 18.1948 8.91722 18.9445 10.3758 19.3354C11.8485 19.73 13.2604 19.6671 14.3419 19.2839C15.4273 18.8994 16.1079 18.2272 16.3204 17.4341C16.4888 16.8053 16.366 16.1042 15.9388 15.4017C15.7236 15.0478 15.836 14.5864 16.1899 14.3712Z" fill="#868E96"/>
</svg>
