<svg width="24" height="25" viewBox="0 0 24 25" fill="none" xmlns="http://www.w3.org/2000/svg">
<path d="M12 2.26367C12.4142 2.26367 12.75 2.59946 12.75 3.01367V5.26367C12.75 5.67789 12.4142 6.01367 12 6.01367C11.5858 6.01367 11.25 5.67789 11.25 5.26367V3.01367C11.25 2.59946 11.5858 2.26367 12 2.26367Z" fill="#868E96"/>
<path d="M7.5 12.0137C7.5 9.52839 9.51472 7.51367 12 7.51367C14.4853 7.51367 16.5 9.52839 16.5 12.0137C16.5 14.499 14.4853 16.5137 12 16.5137C9.51472 16.5137 7.5 14.499 7.5 12.0137Z" fill="#868E96"/>
<path d="M18.8943 6.18001C19.1872 5.88712 19.1872 5.41224 18.8943 5.11935C18.6014 4.82646 18.1266 4.82646 17.8337 5.11935L16.2427 6.71034C15.9498 7.00323 15.9498 7.47811 16.2427 7.771C16.5356 8.06389 17.0105 8.06389 17.3034 7.771L18.8943 6.18001Z" fill="#868E96"/>
<path d="M21.75 12.0137C21.75 12.4279 21.4142 12.7637 21 12.7637H18.75C18.3358 12.7637 18 12.4279 18 12.0137C18 11.5995 18.3358 11.2637 18.75 11.2637H21C21.4142 11.2637 21.75 11.5995 21.75 12.0137Z" fill="#868E96"/>
<path d="M17.8336 18.9079C18.1265 19.2008 18.6013 19.2008 18.8942 18.9079C19.1871 18.615 19.1871 18.1402 18.8942 17.8473L17.3032 16.2563C17.0103 15.9634 16.5355 15.9634 16.2426 16.2563C15.9497 16.5492 15.9497 17.024 16.2426 17.3169L17.8336 18.9079Z" fill="#868E96"/>
<path d="M12 18.0137C12.4142 18.0137 12.75 18.3495 12.75 18.7637V21.0137C12.75 21.4279 12.4142 21.7637 12 21.7637C11.5858 21.7637 11.25 21.4279 11.25 21.0137V18.7637C11.25 18.3495 11.5858 18.0137 12 18.0137Z" fill="#868E96"/>
<path d="M7.7575 17.3169C8.0504 17.024 8.0504 16.5492 7.7575 16.2563C7.46461 15.9634 6.98974 15.9634 6.69684 16.2563L5.10585 17.8473C4.81296 18.1402 4.81296 18.615 5.10585 18.9079C5.39875 19.2008 5.87362 19.2008 6.16651 18.9079L7.7575 17.3169Z" fill="#868E96"/>
<path d="M6 12.0137C6 12.4279 5.66421 12.7637 5.25 12.7637H3C2.58579 12.7637 2.25 12.4279 2.25 12.0137C2.25 11.5995 2.58579 11.2637 3 11.2637H5.25C5.66421 11.2637 6 11.5995 6 12.0137Z" fill="#868E96"/>
<path d="M6.69673 7.77099C6.98962 8.06388 7.4645 8.06389 7.75739 7.77099C8.05028 7.4781 8.05028 7.00322 7.75739 6.71033L6.1664 5.11934C5.87351 4.82645 5.39863 4.82645 5.10574 5.11934C4.81285 5.41223 4.81285 5.88711 5.10574 6.18L6.69673 7.77099Z" fill="#868E96"/>
</svg>
