<svg width="24" height="25" viewBox="0 0 24 25" fill="none" xmlns="http://www.w3.org/2000/svg">
<path fill-rule="evenodd" clip-rule="evenodd" d="M1.5 5.63867C1.5 4.60314 2.33947 3.76367 3.375 3.76367H20.625C21.6605 3.76367 22.5 4.60314 22.5 5.63867V18.3887C22.5 19.4242 21.6605 20.2637 20.625 20.2637H3.375C2.33947 20.2637 1.5 19.4242 1.5 18.3887V5.63867ZM21 9.38867C21 9.18157 20.8321 9.01367 20.625 9.01367H13.125C12.9179 9.01367 12.75 9.18157 12.75 9.38867V10.8887C12.75 11.0958 12.9179 11.2637 13.125 11.2637H20.625C20.8321 11.2637 21 11.0958 21 10.8887V9.38867ZM21 13.1387C21 12.9316 20.8321 12.7637 20.625 12.7637H13.125C12.9179 12.7637 12.75 12.9316 12.75 13.1387V14.6387C12.75 14.8458 12.9179 15.0137 13.125 15.0137H20.625C20.8321 15.0137 21 14.8458 21 14.6387V13.1387ZM21 16.8887C21 16.6816 20.8321 16.5137 20.625 16.5137H13.125C12.9179 16.5137 12.75 16.6816 12.75 16.8887V18.3887C12.75 18.5958 12.9179 18.7637 13.125 18.7637H20.625C20.8321 18.7637 21 18.5958 21 18.3887V16.8887ZM10.875 18.7637C11.0821 18.7637 11.25 18.5958 11.25 18.3887V16.8887C11.25 16.6816 11.0821 16.5137 10.875 16.5137H3.375C3.16789 16.5137 3 16.6816 3 16.8887V18.3887C3 18.5958 3.16789 18.7637 3.375 18.7637H10.875ZM3.375 15.0137H10.875C11.0821 15.0137 11.25 14.8458 11.25 14.6387V13.1387C11.25 12.9316 11.0821 12.7637 10.875 12.7637H3.375C3.16789 12.7637 3 12.9316 3 13.1387V14.6387C3 14.8458 3.16789 15.0137 3.375 15.0137ZM3.375 11.2637H10.875C11.0821 11.2637 11.25 11.0958 11.25 10.8887V9.38867C11.25 9.18157 11.0821 9.01367 10.875 9.01367H3.375C3.16789 9.01367 3 9.18156 3 9.38867V10.8887C3 11.0958 3.16789 11.2637 3.375 11.2637Z" fill="#868E96"/>
</svg>
