<svg width="24" height="25" viewBox="0 0 24 25" fill="none" xmlns="http://www.w3.org/2000/svg">
<path fill-rule="evenodd" clip-rule="evenodd" d="M5.25 2.26367C3.59315 2.26367 2.25 3.60682 2.25 5.26367V9.58169C2.25 10.3773 2.56607 11.1404 3.12868 11.703L12.7098 21.2841C13.6291 22.2034 15.0989 22.4701 16.2573 21.7117C18.4242 20.293 20.2793 18.4379 21.698 16.271C22.4564 15.1126 22.1898 13.6428 21.2705 12.7235L11.6893 3.14235C11.1267 2.57974 10.3637 2.26367 9.56802 2.26367H5.25ZM6.375 7.51367C6.99632 7.51367 7.5 7.00999 7.5 6.38867C7.5 5.76735 6.99632 5.26367 6.375 5.26367C5.75368 5.26367 5.25 5.76735 5.25 6.38867C5.25 7.00999 5.75368 7.51367 6.375 7.51367Z" fill="#868E96"/>
</svg>
