<svg width="24" height="25" viewBox="0 0 24 25" fill="none" xmlns="http://www.w3.org/2000/svg">
<path fill-rule="evenodd" clip-rule="evenodd" d="M2.25 5.26367C2.25 3.60682 3.59315 2.26367 5.25 2.26367H9.56802C10.3637 2.26367 11.1267 2.57974 11.6893 3.14235L21.2705 12.7235C22.1898 13.6428 22.4564 15.1126 21.698 16.271C20.2793 18.4379 18.4242 20.293 16.2573 21.7117C15.0989 22.4701 13.6291 22.2035 12.7098 21.2841L3.12868 11.703C2.56607 11.1404 2.25 10.3773 2.25 9.58169V5.26367ZM5.25 3.76367C4.42157 3.76367 3.75 4.43524 3.75 5.26367V9.58169C3.75 9.97952 3.90804 10.361 4.18934 10.6424L3.65901 11.1727L4.18934 10.6424L13.7705 20.2235C14.2484 20.7015 14.9408 20.7807 15.4357 20.4567C17.4299 19.1511 19.1374 17.4436 20.443 15.4494C20.767 14.9545 20.6878 14.2621 20.2098 13.7841L10.6287 4.20301C10.3474 3.92171 9.96584 3.76367 9.56802 3.76367H5.25ZM5.25 6.01367C5.25 5.59946 5.58579 5.26367 6 5.26367H6.0075C6.42171 5.26367 6.7575 5.59946 6.7575 6.01367V6.02117C6.7575 6.43539 6.42171 6.77117 6.0075 6.77117H6C5.58579 6.77117 5.25 6.43539 5.25 6.02117V6.01367Z" fill="#868E96"/>
</svg>
