<svg width="24" height="25" viewBox="0 0 24 25" fill="none" xmlns="http://www.w3.org/2000/svg">
<path fill-rule="evenodd" clip-rule="evenodd" d="M1.5 6.38867C1.5 5.35314 2.33947 4.51367 3.375 4.51367H20.625C21.6605 4.51367 22.5 5.35314 22.5 6.38867V9.41502C22.5 9.68274 22.3573 9.93017 22.1255 10.0642C21.4511 10.4544 21 11.1818 21 12.0137C21 12.8455 21.4511 13.573 22.1255 13.9631C22.3573 14.0972 22.5 14.3446 22.5 14.6123V17.6387C22.5 18.6742 21.6605 19.5137 20.625 19.5137H3.375C2.33947 19.5137 1.5 18.6742 1.5 17.6387V14.6123C1.5 14.3446 1.64271 14.0972 1.87446 13.9631C2.54894 13.573 3 12.8455 3 12.0137C3 11.1818 2.54894 10.4544 1.87446 10.0642C1.64271 9.93017 1.5 9.68274 1.5 9.41502V6.38867ZM16.5 5.26367C16.9142 5.26367 17.25 5.59946 17.25 6.01367V6.76367C17.25 7.17789 16.9142 7.51367 16.5 7.51367C16.0858 7.51367 15.75 7.17789 15.75 6.76367V6.01367C15.75 5.59946 16.0858 5.26367 16.5 5.26367ZM17.25 9.76367C17.25 9.34946 16.9142 9.01367 16.5 9.01367C16.0858 9.01367 15.75 9.34946 15.75 9.76367V10.5137C15.75 10.9279 16.0858 11.2637 16.5 11.2637C16.9142 11.2637 17.25 10.9279 17.25 10.5137V9.76367ZM16.5 12.7637C16.9142 12.7637 17.25 13.0995 17.25 13.5137V14.2637C17.25 14.6779 16.9142 15.0137 16.5 15.0137C16.0858 15.0137 15.75 14.6779 15.75 14.2637V13.5137C15.75 13.0995 16.0858 12.7637 16.5 12.7637ZM17.25 17.2637C17.25 16.8495 16.9142 16.5137 16.5 16.5137C16.0858 16.5137 15.75 16.8495 15.75 17.2637V18.0137C15.75 18.4279 16.0858 18.7637 16.5 18.7637C16.9142 18.7637 17.25 18.4279 17.25 18.0137V17.2637ZM6 12.0137C6 11.5995 6.33579 11.2637 6.75 11.2637H12C12.4142 11.2637 12.75 11.5995 12.75 12.0137C12.75 12.4279 12.4142 12.7637 12 12.7637H6.75C6.33579 12.7637 6 12.4279 6 12.0137ZM6.75 14.2637C6.33579 14.2637 6 14.5995 6 15.0137C6 15.4279 6.33579 15.7637 6.75 15.7637H9.75C10.1642 15.7637 10.5 15.4279 10.5 15.0137C10.5 14.5995 10.1642 14.2637 9.75 14.2637H6.75Z" fill="#868E96"/>
</svg>
