<svg width="24" height="25" viewBox="0 0 24 25" fill="none" xmlns="http://www.w3.org/2000/svg">
<path d="M19.499 6.01611H4.49902V15.0161H19.499V6.01611Z" fill="#868E96"/>
<path fill-rule="evenodd" clip-rule="evenodd" d="M3.37402 3.01611C2.33849 3.01611 1.49902 3.85558 1.49902 4.89111V16.1411C1.49902 17.1766 2.33849 18.0161 3.37402 18.0161H9.74902V19.5161H5.99902C5.58481 19.5161 5.24902 19.8519 5.24902 20.2661C5.24902 20.6803 5.58481 21.0161 5.99902 21.0161H17.999C18.4132 21.0161 18.749 20.6803 18.749 20.2661C18.749 19.8519 18.4132 19.5161 17.999 19.5161H14.249V18.0161H20.624C21.6596 18.0161 22.499 17.1766 22.499 16.1411V4.89111C22.499 3.85558 21.6596 3.01611 20.624 3.01611H3.37402ZM3.37402 16.5161H20.624C20.8311 16.5161 20.999 16.3482 20.999 16.1411V4.89111C20.999 4.68401 20.8311 4.51611 20.624 4.51611H3.37402C3.16692 4.51611 2.99902 4.68401 2.99902 4.89111V16.1411C2.99902 16.3482 3.16692 16.5161 3.37402 16.5161Z" fill="#868E96"/>
</svg>
