<svg width="24" height="25" viewBox="0 0 24 25" fill="none" xmlns="http://www.w3.org/2000/svg">
<path fill-rule="evenodd" clip-rule="evenodd" d="M5.99411 3.01025C6.40834 3.01025 6.74413 3.34606 6.74413 3.76029V11.261C6.74413 14.1609 9.09464 16.5116 11.994 16.5116C14.8934 16.5116 17.2439 14.1609 17.2439 11.261V3.76029C17.2439 3.34606 17.5797 3.01025 17.9939 3.01025C18.4081 3.01025 18.7439 3.34606 18.7439 3.76029V11.261C18.7439 14.9892 15.7219 18.0116 11.994 18.0116C8.26607 18.0116 5.2441 14.9892 5.2441 11.261V3.76029C5.2441 3.34606 5.57989 3.01025 5.99411 3.01025ZM2.99414 20.2619C2.99414 19.8476 3.32994 19.5118 3.74416 19.5118H20.2438C20.6581 19.5118 20.9939 19.8476 20.9939 20.2619C20.9939 20.6761 20.6581 21.0119 20.2438 21.0119H3.74416C3.32994 21.0119 2.99414 20.6761 2.99414 20.2619Z" fill="#868E96"/>
</svg>
