<svg width="24" height="25" viewBox="0 0 24 25" fill="none" xmlns="http://www.w3.org/2000/svg">
<path fill-rule="evenodd" clip-rule="evenodd" d="M9.375 3.771C7.92525 3.771 6.75 4.94625 6.75 6.396C6.75 7.84574 7.92525 9.021 9.375 9.021C10.8247 9.021 12 7.84574 12 6.396C12 4.94625 10.8247 3.771 9.375 3.771ZM5.25 6.396C5.25 4.11782 7.09683 2.271 9.375 2.271C11.6532 2.271 13.5 4.11782 13.5 6.396C13.5 8.67417 11.6532 10.521 9.375 10.521C7.09683 10.521 5.25 8.67417 5.25 6.396ZM18 6.771C18.4142 6.771 18.75 7.10678 18.75 7.521V9.771H21C21.4142 9.771 21.75 10.1068 21.75 10.521C21.75 10.9352 21.4142 11.271 21 11.271H18.75V13.521C18.75 13.9352 18.4142 14.271 18 14.271C17.5858 14.271 17.25 13.9352 17.25 13.521V11.271H15C14.5858 11.271 14.25 10.9352 14.25 10.521C14.25 10.1068 14.5858 9.771 15 9.771H17.25V7.521C17.25 7.10678 17.5858 6.771 18 6.771ZM3.75889 18.827C5.42308 19.7471 7.33687 20.271 9.375 20.271C11.4131 20.271 13.3269 19.7471 14.9911 18.827C14.8257 15.8688 12.3745 13.521 9.375 13.521C6.37545 13.521 3.92427 15.8688 3.75889 18.827ZM2.25 19.146C2.25 15.211 5.43997 12.021 9.375 12.021C13.31 12.021 16.5 15.211 16.5 19.146V19.1485C16.5 19.1884 16.4996 19.2283 16.499 19.2679C16.4946 19.5264 16.3574 19.7645 16.1359 19.8978C14.1607 21.0871 11.8466 21.771 9.375 21.771C6.90343 21.771 4.5893 21.0871 2.61406 19.8978C2.39256 19.7645 2.25537 19.5264 2.25103 19.2679C2.25034 19.2274 2.25 19.1867 2.25 19.146Z" fill="#868E96"/>
</svg>
