<svg width="24" height="25" viewBox="0 0 24 25" fill="none" xmlns="http://www.w3.org/2000/svg">
<path fill-rule="evenodd" clip-rule="evenodd" d="M8.25 6.771C8.25 4.69993 9.92893 3.021 12 3.021C14.0711 3.021 15.75 4.69993 15.75 6.771C15.75 8.84206 14.0711 10.521 12 10.521C9.92893 10.521 8.25 8.84206 8.25 6.771Z" fill="#868E96"/>
<path fill-rule="evenodd" clip-rule="evenodd" d="M15.75 9.771C15.75 8.11414 17.0931 6.771 18.75 6.771C20.4069 6.771 21.75 8.11414 21.75 9.771C21.75 11.4279 20.4069 12.771 18.75 12.771C17.0931 12.771 15.75 11.4279 15.75 9.771Z" fill="#868E96"/>
<path fill-rule="evenodd" clip-rule="evenodd" d="M2.25 9.771C2.25 8.11414 3.59315 6.771 5.25 6.771C6.90685 6.771 8.25 8.11414 8.25 9.771C8.25 11.4279 6.90685 12.771 5.25 12.771C3.59315 12.771 2.25 11.4279 2.25 9.771Z" fill="#868E96"/>
<path fill-rule="evenodd" clip-rule="evenodd" d="M6.30986 15.1385C7.50783 13.2654 9.60835 12.021 12 12.021C14.3919 12.021 16.4927 13.2657 17.6906 15.1392C18.5187 16.4344 18.877 17.9962 18.709 19.5189C18.6827 19.7569 18.5444 19.968 18.3368 20.0872C16.4694 21.1586 14.3051 21.771 12 21.771C9.69492 21.771 7.53059 21.1586 5.66325 20.0872C5.45559 19.968 5.3173 19.7569 5.29103 19.5189C5.12293 17.9959 5.48141 16.4339 6.30986 15.1385Z" fill="#868E96"/>
<path d="M5.08228 14.2747C5.07024 14.2932 5.05827 14.3117 5.04638 14.3303C4.08091 15.8399 3.63908 17.6377 3.77471 19.41C3.16667 19.3177 2.5767 19.1691 2.01043 18.9697L1.89547 18.9292C1.68576 18.8553 1.53923 18.6649 1.52159 18.4432L1.51192 18.3217C1.50402 18.2224 1.5 18.1221 1.5 18.021C1.5 16.0061 3.08905 14.3624 5.08228 14.2747Z" fill="#868E96"/>
<path d="M20.2256 19.4099C20.3612 17.638 19.9196 15.8406 18.9545 14.3312C18.9424 14.3123 18.9303 14.2935 18.9181 14.2747C20.9111 14.3626 22.5 16.0063 22.5 18.021C22.5 18.1221 22.496 18.2224 22.4881 18.3217L22.4784 18.4432C22.4608 18.6649 22.3142 18.8553 22.1045 18.9292L21.9896 18.9697C21.4234 19.1691 20.8336 19.3176 20.2256 19.4099Z" fill="#868E96"/>
</svg>
