<svg width="24" height="25" viewBox="0 0 24 25" fill="none" xmlns="http://www.w3.org/2000/svg">
<path fill-rule="evenodd" clip-rule="evenodd" d="M11.9998 3.021C10.343 3.021 8.99984 4.36414 8.99984 6.021C8.99984 7.67785 10.343 9.021 11.9998 9.021C13.6567 9.021 14.9998 7.67785 14.9998 6.021C14.9998 4.36414 13.6567 3.021 11.9998 3.021ZM7.49984 6.021C7.49984 3.53571 9.51456 1.521 11.9998 1.521C14.4851 1.521 16.4998 3.53571 16.4998 6.021C16.4998 8.50628 14.4851 10.521 11.9998 10.521C9.51456 10.521 7.49984 8.50628 7.49984 6.021ZM5.27693 19.6619C7.34216 20.5368 9.61373 21.021 12.0002 21.021C14.3864 21.021 16.6577 20.5369 18.7228 19.6622C18.4151 16.2197 15.5226 13.521 11.9998 13.521C8.47721 13.521 5.58472 16.2195 5.27693 19.6619ZM3.75109 20.1263C3.82843 15.6366 7.49183 12.021 11.9998 12.021C16.508 12.021 20.1714 15.6367 20.2486 20.1266C20.2537 20.4244 20.0822 20.697 19.8115 20.8212C17.4326 21.9128 14.7864 22.521 12.0002 22.521C9.2137 22.521 6.56728 21.9127 4.18816 20.8209C3.91749 20.6967 3.74596 20.4241 3.75109 20.1263Z" fill="#868E96"/>
</svg>
