<svg width="24" height="25" viewBox="0 0 24 25" fill="none" xmlns="http://www.w3.org/2000/svg">
<path fill-rule="evenodd" clip-rule="evenodd" d="M12 3.771C7.44365 3.771 3.75 7.46465 3.75 12.021C3.75 14.1949 4.59004 16.1718 5.96491 17.646C7.4701 16.0319 9.6171 15.021 12 15.021C14.3829 15.021 16.5299 16.0319 18.0351 17.646C19.41 16.1718 20.25 14.1949 20.25 12.021C20.25 7.46465 16.5563 3.771 12 3.771ZM16.9169 18.6464C15.685 17.337 13.9379 16.521 12 16.521C10.0621 16.521 8.31496 17.337 7.08307 18.6464C8.45636 19.6674 10.157 20.271 12 20.271C13.843 20.271 15.5436 19.6674 16.9169 18.6464ZM2.25 12.021C2.25 6.63622 6.61522 2.271 12 2.271C17.3848 2.271 21.75 6.63622 21.75 12.021C21.75 14.9183 20.4853 17.5213 18.4802 19.306C16.7581 20.8388 14.487 21.771 12 21.771C9.51298 21.771 7.24187 20.8388 5.51981 19.306C3.51473 17.5213 2.25 14.9183 2.25 12.021ZM12 7.521C10.7574 7.521 9.75 8.52836 9.75 9.771C9.75 11.0136 10.7574 12.021 12 12.021C13.2426 12.021 14.25 11.0136 14.25 9.771C14.25 8.52836 13.2426 7.521 12 7.521ZM8.25 9.771C8.25 7.69993 9.92893 6.021 12 6.021C14.0711 6.021 15.75 7.69993 15.75 9.771C15.75 11.8421 14.0711 13.521 12 13.521C9.92893 13.521 8.25 11.8421 8.25 9.771Z" fill="#868E96"/>
</svg>
