<svg width="24" height="25" viewBox="0 0 24 25" fill="none" xmlns="http://www.w3.org/2000/svg">
<path d="M4.5 6.396C4.5 4.11782 6.34683 2.271 8.625 2.271C10.9032 2.271 12.75 4.11782 12.75 6.396C12.75 8.67417 10.9032 10.521 8.625 10.521C6.34683 10.521 4.5 8.67417 4.5 6.396Z" fill="#868E96"/>
<path d="M14.25 8.646C14.25 6.78203 15.761 5.271 17.625 5.271C19.489 5.271 21 6.78203 21 8.646C21 10.51 19.489 12.021 17.625 12.021C15.761 12.021 14.25 10.51 14.25 8.646Z" fill="#868E96"/>
<path d="M1.5 19.146C1.5 15.211 4.68997 12.021 8.625 12.021C12.56 12.021 15.75 15.211 15.75 19.146V19.1485C15.75 19.1884 15.7496 19.2283 15.749 19.2679C15.7446 19.5264 15.6074 19.7645 15.3859 19.8978C13.4107 21.0871 11.0966 21.771 8.625 21.771C6.15343 21.771 3.8393 21.0871 1.86406 19.8978C1.64256 19.7645 1.50537 19.5264 1.50103 19.2679C1.50034 19.2274 1.5 19.1867 1.5 19.146Z" fill="#868E96"/>
<path d="M17.2498 19.1491C17.2498 19.1972 17.2494 19.2454 17.2486 19.2931C17.2429 19.6318 17.1612 19.9587 17.0157 20.2529C17.2172 20.2649 17.4203 20.271 17.6248 20.271C19.2206 20.271 20.732 19.9013 22.0764 19.2422C22.3234 19.1212 22.4843 18.8746 22.4957 18.5997C22.4984 18.5321 22.4998 18.4642 22.4998 18.396C22.4998 15.7036 20.3172 13.521 17.6248 13.521C16.8784 13.521 16.1711 13.6888 15.5387 13.9886C16.6135 15.4271 17.2498 17.2122 17.2498 19.146V19.1491Z" fill="#868E96"/>
</svg>
