<svg width="24" height="25" viewBox="0 0 24 25" fill="none" xmlns="http://www.w3.org/2000/svg">
<path fill-rule="evenodd" clip-rule="evenodd" d="M1.5 7.521C1.5 5.86414 2.84315 4.521 4.5 4.521H13.5C15.1569 4.521 16.5 5.86414 16.5 7.521V8.71034L19.9393 5.271C20.8843 4.32605 22.5 4.9953 22.5 6.33166V17.7103C22.5 19.0467 20.8843 19.7159 19.9393 18.771L16.5 15.3317V16.521C16.5 18.1779 15.1569 19.521 13.5 19.521H4.5C2.84315 19.521 1.5 18.1779 1.5 16.521V7.521ZM16.5 13.2103L21 17.7103V6.33166L16.5 10.8317V13.2103ZM4.5 6.021C3.67157 6.021 3 6.69257 3 7.521V16.521C3 17.3494 3.67157 18.021 4.5 18.021H13.5C14.3284 18.021 15 17.3494 15 16.521V7.521C15 6.69257 14.3284 6.021 13.5 6.021H4.5Z" fill="#868E96"/>
</svg>
