<svg width="24" height="25" viewBox="0 0 24 25" fill="none" xmlns="http://www.w3.org/2000/svg">
<path fill-rule="evenodd" clip-rule="evenodd" d="M0.96967 3.99067C1.26256 3.69777 1.73744 3.69777 2.03033 3.99067L2.97614 4.93647C3.42272 4.67272 3.94396 4.521 4.5 4.521H13.5C15.1569 4.521 16.5 5.86414 16.5 7.521V8.71034L19.9393 5.27099C20.8843 4.32605 22.5 4.9953 22.5 6.33166V17.7103C22.5 19.0467 20.8843 19.7159 19.9393 18.771L16.5 15.3317V16.521C16.5 17.077 16.3483 17.5983 16.0845 18.0449L17.0303 18.9907C17.3232 19.2836 17.3232 19.7584 17.0303 20.0513C16.7374 20.3442 16.2626 20.3442 15.9697 20.0513L0.96967 5.05133C0.676777 4.75843 0.676777 4.28356 0.96967 3.99067ZM14.9493 16.9096C14.9824 16.7858 15 16.6555 15 16.521V7.521C15 6.69257 14.3284 6.021 13.5 6.021H4.5C4.36549 6.021 4.23524 6.0386 4.11135 6.07168L14.9493 16.9096ZM16.5 13.2103L21 17.7103V6.33166L16.5 10.8317V13.2103ZM2.25 8.271C2.66421 8.271 3 8.60678 3 9.021V16.521C3 17.3494 3.67157 18.021 4.5 18.021H12C12.4142 18.021 12.75 18.3568 12.75 18.771C12.75 19.1852 12.4142 19.521 12 19.521H4.5C2.84315 19.521 1.5 18.1779 1.5 16.521V9.021C1.5 8.60678 1.83579 8.271 2.25 8.271Z" fill="#868E96"/>
</svg>
