<svg width="24" height="25" viewBox="0 0 24 25" fill="none" xmlns="http://www.w3.org/2000/svg">
<path fill-rule="evenodd" clip-rule="evenodd" d="M3 6.021C3 4.36414 4.34315 3.021 6 3.021H7.5C7.91421 3.021 8.25 3.35678 8.25 3.771C8.25 4.18521 7.91421 4.521 7.5 4.521H6C5.17157 4.521 4.5 5.19257 4.5 6.021V7.521C4.5 7.93521 4.16421 8.271 3.75 8.271C3.33579 8.271 3 7.93521 3 7.521V6.021ZM15.75 3.771C15.75 3.35678 16.0858 3.021 16.5 3.021H18C19.6569 3.021 21 4.36414 21 6.021V7.521C21 7.93521 20.6642 8.271 20.25 8.271C19.8358 8.271 19.5 7.93521 19.5 7.521V6.021C19.5 5.19257 18.8284 4.521 18 4.521H16.5C16.0858 4.521 15.75 4.18521 15.75 3.771ZM12 9.771C10.7574 9.771 9.75 10.7784 9.75 12.021C9.75 13.2636 10.7574 14.271 12 14.271C13.2426 14.271 14.25 13.2636 14.25 12.021C14.25 10.7784 13.2426 9.771 12 9.771ZM8.25 12.021C8.25 9.94993 9.92893 8.271 12 8.271C14.0711 8.271 15.75 9.94993 15.75 12.021C15.75 14.0921 14.0711 15.771 12 15.771C9.92893 15.771 8.25 14.0921 8.25 12.021ZM3.75 15.771C4.16421 15.771 4.5 16.1068 4.5 16.521V18.021C4.5 18.8494 5.17157 19.521 6 19.521H7.5C7.91421 19.521 8.25 19.8568 8.25 20.271C8.25 20.6852 7.91421 21.021 7.5 21.021H6C4.34315 21.021 3 19.6779 3 18.021V16.521C3 16.1068 3.33579 15.771 3.75 15.771ZM20.25 15.771C20.6642 15.771 21 16.1068 21 16.521V18.021C21 19.6779 19.6569 21.021 18 21.021H16.5C16.0858 21.021 15.75 20.6852 15.75 20.271C15.75 19.8568 16.0858 19.521 16.5 19.521H18C18.8284 19.521 19.5 18.8494 19.5 18.021V16.521C19.5 16.1068 19.8358 15.771 20.25 15.771Z" fill="#868E96"/>
</svg>
