<svg width="24" height="25" viewBox="0 0 24 25" fill="none" xmlns="http://www.w3.org/2000/svg">
<path fill-rule="evenodd" clip-rule="evenodd" d="M2.25 5.646C2.25 4.61046 3.08947 3.771 4.125 3.771H19.875C20.9105 3.771 21.75 4.61046 21.75 5.646V18.396C21.75 19.4315 20.9105 20.271 19.875 20.271H4.125C3.08947 20.271 2.25 19.4315 2.25 18.396V5.646ZM9.75 18.771H14.25V5.271H9.75V18.771ZM8.25 5.271V18.771H4.125C3.91789 18.771 3.75 18.6031 3.75 18.396V5.646C3.75 5.43889 3.91789 5.271 4.125 5.271H8.25ZM15.75 5.271V18.771H19.875C20.0821 18.771 20.25 18.6031 20.25 18.396V5.646C20.25 5.43889 20.0821 5.271 19.875 5.271H15.75Z" fill="#868E96"/>
</svg>
