<svg width="24" height="25" viewBox="0 0 24 25" fill="none" xmlns="http://www.w3.org/2000/svg">
<path fill-rule="evenodd" clip-rule="evenodd" d="M2.25 6.021C2.25 4.36414 3.59315 3.021 5.25 3.021H18.75C20.4069 3.021 21.75 4.36414 21.75 6.021V18.021C21.75 19.6778 20.4069 21.021 18.75 21.021H5.25C3.59315 21.021 2.25 19.6779 2.25 18.021V6.021ZM3.75 6.42234V6.021C3.75 5.19257 4.42157 4.521 5.25 4.521H18.75C19.5784 4.521 20.25 5.19257 20.25 6.021V6.42234C19.8087 6.16709 19.2964 6.021 18.75 6.021H5.25C4.70357 6.021 4.19126 6.16709 3.75 6.42234ZM20.25 9.021C20.25 8.19257 19.5784 7.521 18.75 7.521H5.25C4.42157 7.521 3.75 8.19257 3.75 9.021V9.42234C4.19126 9.16709 4.70357 9.021 5.25 9.021H9C9.41421 9.021 9.75 9.35678 9.75 9.771C9.75 11.0136 10.7574 12.021 12 12.021C13.2426 12.021 14.25 11.0136 14.25 9.771C14.25 9.35678 14.5858 9.021 15 9.021H18.75C19.2964 9.021 19.8087 9.16709 20.25 9.42234V9.021ZM20.25 12.021C20.25 11.1926 19.5784 10.521 18.75 10.521H15.675C15.3275 12.2327 13.8142 13.521 12 13.521C10.1858 13.521 8.67247 12.2327 8.32501 10.521H5.25C4.42157 10.521 3.75 11.1926 3.75 12.021V18.021C3.75 18.8494 4.42157 19.521 5.25 19.521H18.75C19.5784 19.521 20.25 18.8494 20.25 18.021V12.021Z" fill="#868E96"/>
</svg>
