<svg width="24" height="25" viewBox="0 0 24 25" fill="none" xmlns="http://www.w3.org/2000/svg">
<path fill-rule="evenodd" clip-rule="evenodd" d="M1.37153 8.16439C7.22939 2.30653 16.7269 2.30653 22.5847 8.16439C22.8776 8.45728 22.8776 8.93214 22.5848 9.22503L22.0544 9.75541C21.9138 9.89607 21.723 9.97509 21.5241 9.9751C21.3252 9.9751 21.1344 9.89609 20.9937 9.75543C16.0146 4.77624 7.9417 4.77624 2.96252 9.75543C2.82186 9.89609 2.63109 9.9751 2.43217 9.9751C2.23325 9.97509 2.04248 9.89607 1.90183 9.75541L1.3715 9.22503C1.07863 8.93214 1.07864 8.45728 1.37153 8.16439ZM4.55351 11.3464C8.65401 7.24592 15.3022 7.24592 19.4027 11.3464C19.6956 11.6393 19.6956 12.1142 19.4028 12.4071L18.8725 12.9374C18.7318 13.0781 18.541 13.1571 18.3421 13.1571C18.1432 13.1571 17.9524 13.0781 17.8118 12.9374C14.59 9.71559 9.36634 9.71559 6.14452 12.9374C5.85163 13.2303 5.37676 13.2303 5.08387 12.9374L4.55352 12.4071C4.41286 12.2664 4.33384 12.0757 4.33384 11.8768C4.33383 11.6778 4.41285 11.4871 4.55351 11.3464ZM7.75757 14.5284C10.1007 12.1852 13.8997 12.1852 16.2429 14.5284C16.5357 14.8212 16.5357 15.2961 16.2429 15.589L15.7125 16.1193C15.5719 16.26 15.3811 16.339 15.1822 16.339C14.9833 16.339 14.7925 16.26 14.6519 16.1193C13.1874 14.6549 10.813 14.6549 9.34856 16.1193C9.05567 16.4122 8.5808 16.4122 8.2879 16.1193L7.75757 15.589C7.46468 15.2961 7.46468 14.8212 7.75757 14.5284ZM10.9396 17.7103C11.5253 17.1245 12.4751 17.1245 13.0609 17.7103C13.3538 18.0032 13.3538 18.4781 13.0609 18.771L12.5305 19.3013C12.3899 19.442 12.1991 19.521 12.0002 19.521C11.8013 19.521 11.6105 19.442 11.4699 19.3013L10.9396 18.771C10.6467 18.4781 10.6467 18.0032 10.9396 17.7103Z" fill="#868E96"/>
</svg>
