<svg width="24" height="25" viewBox="0 0 24 25" fill="none" xmlns="http://www.w3.org/2000/svg">
<path fill-rule="evenodd" clip-rule="evenodd" d="M2.25 6.021C2.25 4.36414 3.59315 3.021 5.25 3.021H18.75C20.4069 3.021 21.75 4.36414 21.75 6.021V18.021C21.75 19.6779 20.4069 21.021 18.75 21.021H5.25C3.59315 21.021 2.25 19.6779 2.25 18.021V6.021ZM5.25 4.521C4.42157 4.521 3.75 5.19257 3.75 6.021V7.521H20.25V6.021C20.25 5.19257 19.5784 4.521 18.75 4.521H5.25ZM20.25 9.021H3.75V18.021C3.75 18.8494 4.42157 19.521 5.25 19.521H18.75C19.5784 19.521 20.25 18.8494 20.25 18.021V9.021ZM4.5 6.021C4.5 5.60678 4.83579 5.271 5.25 5.271H5.2575C5.67171 5.271 6.0075 5.60678 6.0075 6.021V6.0285C6.0075 6.44271 5.67171 6.7785 5.2575 6.7785H5.25C4.83579 6.7785 4.5 6.44271 4.5 6.0285V6.021ZM6.75 6.021C6.75 5.60678 7.08579 5.271 7.5 5.271H7.5075C7.92171 5.271 8.2575 5.60678 8.2575 6.021V6.0285C8.2575 6.44271 7.92171 6.7785 7.5075 6.7785H7.5C7.08579 6.7785 6.75 6.44271 6.75 6.0285V6.021ZM9 6.021C9 5.60678 9.33579 5.271 9.75 5.271H9.7575C10.1717 5.271 10.5075 5.60678 10.5075 6.021V6.0285C10.5075 6.44271 10.1717 6.7785 9.7575 6.7785H9.75C9.33579 6.7785 9 6.44271 9 6.0285V6.021Z" fill="#868E96"/>
</svg>
