<svg width="24" height="25" viewBox="0 0 24 25" fill="none" xmlns="http://www.w3.org/2000/svg">
<path fill-rule="evenodd" clip-rule="evenodd" d="M12 6.771C12 3.8715 14.3505 1.521 17.25 1.521C17.7791 1.521 18.2913 1.59951 18.7747 1.74604C19.027 1.8225 19.2206 2.02579 19.2847 2.28148C19.3488 2.53717 19.2739 2.80774 19.0875 2.99413L15.7688 6.31283C15.8305 6.78841 16.0438 7.24681 16.409 7.61199C16.7742 7.97716 17.2326 8.19047 17.7082 8.25216L21.0269 4.93347C21.2133 4.74708 21.4838 4.67222 21.7395 4.7363C21.9952 4.80038 22.1985 4.99398 22.275 5.24625C22.4215 5.7297 22.5 6.24186 22.5 6.771C22.5 9.67049 20.1495 12.021 17.25 12.021C17.0995 12.021 16.9503 12.0146 16.8027 12.0022C15.7855 11.9162 14.9338 12.1026 14.4944 12.6361L7.34327 21.3197C6.71684 22.0803 5.78308 22.521 4.79769 22.521C2.97642 22.521 1.5 21.0446 1.5 19.2233C1.5 18.2379 1.94067 17.3042 2.70132 16.6777L11.3849 9.52657C11.9184 9.08722 12.1048 8.23552 12.0188 7.21828C12.0064 7.07068 12 6.92149 12 6.771ZM4.11723 19.146C4.11723 18.7318 4.45302 18.396 4.86723 18.396H4.87473C5.28895 18.396 5.62473 18.7318 5.62473 19.146V19.1535C5.62473 19.5678 5.28895 19.9035 4.87473 19.9035H4.86723C4.45302 19.9035 4.11723 19.5678 4.11723 19.1535V19.146Z" fill="#868E96"/>
</svg>
