<svg width="24" height="25" viewBox="0 0 24 25" fill="none" xmlns="http://www.w3.org/2000/svg">
<path fill-rule="evenodd" clip-rule="evenodd" d="M12 6.771C12 3.8715 14.3505 1.521 17.25 1.521C17.7791 1.521 18.2913 1.59951 18.7747 1.74604C19.027 1.8225 19.2206 2.02579 19.2847 2.28148C19.3488 2.53717 19.2739 2.80774 19.0875 2.99413L15.7688 6.31283C15.8305 6.78841 16.0438 7.24681 16.409 7.61199C16.7742 7.97716 17.2326 8.19047 17.7082 8.25216L21.0269 4.93347C21.2133 4.74708 21.4838 4.67222 21.7395 4.7363C21.9952 4.80038 22.1985 4.99398 22.275 5.24625C22.4215 5.7297 22.5 6.24186 22.5 6.771C22.5 9.67049 20.1495 12.021 17.25 12.021C17.0995 12.021 16.9503 12.0146 16.8027 12.0022C15.7855 11.9162 14.9338 12.1026 14.4944 12.6361L7.34327 21.3197C6.71684 22.0803 5.78308 22.521 4.79769 22.521C2.97642 22.521 1.5 21.0446 1.5 19.2233C1.5 18.2379 1.94067 17.3042 2.70132 16.6777L11.3849 9.52657C11.9184 9.08722 12.1048 8.23552 12.0188 7.21828C12.0064 7.07068 12 6.92149 12 6.771ZM4.11723 19.146C4.11723 18.7318 4.45302 18.396 4.86723 18.396H4.87473C5.28895 18.396 5.62473 18.7318 5.62473 19.146V19.1535C5.62473 19.5678 5.28895 19.9035 4.87473 19.9035H4.86723C4.45302 19.9035 4.11723 19.5678 4.11723 19.1535V19.146Z" fill="#868E96"/>
<path d="M10.076 8.66131L7.87502 6.46035V4.89601C7.87502 4.63257 7.73679 4.38844 7.51089 4.25289L3.76089 2.00289C3.46578 1.82583 3.08804 1.87233 2.84469 2.11568L2.09469 2.86568C1.85133 3.10903 1.80483 3.48678 1.9819 3.78188L4.2319 7.53188C4.36744 7.75779 4.61157 7.89601 4.87502 7.89601H6.43936L8.50138 9.95803L10.076 8.66131Z" fill="#868E96"/>
<path fill-rule="evenodd" clip-rule="evenodd" d="M12.5559 17.3497L16.7386 21.5324C18.0567 22.8504 20.1936 22.8504 21.5116 21.5324C22.8296 20.2144 22.8296 18.0775 21.5116 16.7594L18.206 13.4538C17.8937 13.4981 17.5746 13.521 17.2501 13.521C17.0574 13.521 16.866 13.5128 16.6765 13.4968C16.2822 13.4635 15.994 13.4906 15.8089 13.5387C15.7053 13.5656 15.6574 13.5922 15.6419 13.6024L12.5559 17.3497ZM15.9698 15.9907C16.2627 15.6978 16.7375 15.6978 17.0304 15.9907L18.9054 17.8657C19.1983 18.1586 19.1983 18.6334 18.9054 18.9263C18.6125 19.2192 18.1377 19.2192 17.8448 18.9263L15.9698 17.0513C15.6769 16.7584 15.6769 16.2836 15.9698 15.9907Z" fill="#868E96"/>
</svg>
