<svg width="24" height="25" viewBox="0 0 24 25" fill="none" xmlns="http://www.w3.org/2000/svg">
<path fill-rule="evenodd" clip-rule="evenodd" d="M12 6.771C12 3.8715 14.3505 1.521 17.25 1.521C18.019 1.521 18.7513 1.68682 19.4115 1.98537C19.6358 2.08684 19.7961 2.29197 19.8402 2.53422C19.8844 2.77646 19.8068 3.02495 19.6327 3.19906L16.6792 6.15255C16.9068 6.68606 17.3351 7.11436 17.8686 7.34189L20.822 4.38846C20.9961 4.21434 21.2446 4.13678 21.4869 4.18095C21.7291 4.22512 21.9343 4.38539 22.0357 4.60976C22.3342 5.26983 22.5 6.00206 22.5 6.771C22.5 9.67049 20.1495 12.021 17.25 12.021C17.0995 12.021 16.9503 12.0146 16.8027 12.0022C15.7855 11.9162 14.9338 12.1026 14.4944 12.6361L7.34327 21.3197C6.71684 22.0803 5.78308 22.521 4.79769 22.521C2.97642 22.521 1.5 21.0446 1.5 19.2233C1.5 18.2379 1.94067 17.3042 2.70132 16.6777L11.3849 9.52657C11.9184 9.08722 12.1048 8.23552 12.0188 7.21828C12.0064 7.07068 12 6.92149 12 6.771ZM17.25 3.021C15.1789 3.021 13.5 4.69993 13.5 6.771C13.5 6.87927 13.5046 6.9863 13.5135 7.09193C13.6093 8.22558 13.4712 9.75159 12.3384 10.6845L3.65488 17.8356C3.24022 18.1771 3 18.6861 3 19.2233C3 20.2161 3.80485 21.021 4.79769 21.021C5.33486 21.021 5.84389 20.7808 6.18537 20.3661L13.3365 11.6826C14.2694 10.5498 15.7954 10.4117 16.9291 10.5075C17.0347 10.5164 17.1417 10.521 17.25 10.521C19.3211 10.521 21 8.84206 21 6.771C21 6.63013 20.9923 6.4912 20.9772 6.35459L18.6065 8.72529C18.4239 8.90793 18.1601 8.98374 17.9084 8.92595C16.5126 8.60553 15.4156 7.50856 15.0952 6.11277C15.0374 5.86103 15.1132 5.59727 15.2958 5.41463L17.6667 3.04382C17.53 3.02874 17.391 3.021 17.25 3.021ZM4.11723 19.146C4.11723 18.7318 4.45302 18.396 4.86723 18.396H4.87473C5.28895 18.396 5.62473 18.7318 5.62473 19.146V19.1535C5.62473 19.5678 5.28895 19.9035 4.87473 19.9035H4.86723C4.45302 19.9035 4.11723 19.5678 4.11723 19.1535V19.146Z" fill="#868E96"/>
</svg>
