<svg width="24" height="25" viewBox="0 0 24 25" fill="none" xmlns="http://www.w3.org/2000/svg">
<path fill-rule="evenodd" clip-rule="evenodd" d="M5.46967 5.49067C5.76256 5.19777 6.23744 5.19777 6.53033 5.49067L12 10.9603L17.4697 5.49067C17.7626 5.19777 18.2374 5.19777 18.5303 5.49067C18.8232 5.78356 18.8232 6.25843 18.5303 6.55133L13.0607 12.021L18.5303 17.4907C18.8232 17.7836 18.8232 18.2584 18.5303 18.5513C18.2374 18.8442 17.7626 18.8442 17.4697 18.5513L12 13.0817L6.53033 18.5513C6.23744 18.8442 5.76256 18.8442 5.46967 18.5513C5.17678 18.2584 5.17678 17.7836 5.46967 17.4907L10.9393 12.021L5.46967 6.55133C5.17678 6.25843 5.17678 5.78356 5.46967 5.49067Z" fill="#868E96"/>
</svg>
