<svg width="24" height="24" viewBox="0 0 24 24" fill="none" xmlns="http://www.w3.org/2000/svg">
<path d="M18.75 12.7549L20.25 12.7549C20.6642 12.7549 21 12.4191 21 12.0049C21 11.5907 20.6642 11.2549 20.25 11.2549L18.75 11.2549C18.3358 11.2549 18 11.5907 18 12.0049C18 12.4191 18.3358 12.7549 18.75 12.7549Z" fill="#868E96"/>
<path d="M12 6.00488C12 5.59067 12.3358 5.25488 12.75 5.25488L20.25 5.2549C20.6642 5.2549 21 5.59069 21 6.0049C21 6.41911 20.6642 6.7549 20.25 6.7549L12.75 6.75488C12.3358 6.75488 12 6.4191 12 6.00488Z" fill="#868E96"/>
<path d="M12 18.0049C12 17.5907 12.3358 17.2549 12.75 17.2549L20.25 17.2549C20.6642 17.2549 21 17.5907 21 18.0049C21 18.4191 20.6642 18.7549 20.25 18.7549L12.75 18.7549C12.3358 18.7549 12 18.4191 12 18.0049Z" fill="#868E96"/>
<path d="M3.75001 6.7549L5.25001 6.75488C5.66422 6.75488 6 6.41909 6 6.00488C6 5.59066 5.66421 5.25488 5.24999 5.25488L3.74999 5.2549C3.33578 5.2549 3 5.59069 3 6.0049C3 6.41912 3.33579 6.7549 3.75001 6.7549Z" fill="#868E96"/>
<path d="M5.25001 18.7549L3.75001 18.7549C3.33579 18.7549 3 18.4191 3 18.0049C3 17.5907 3.33578 17.2549 3.74999 17.2549L5.24999 17.2549C5.66421 17.2549 6 17.5907 6 18.0049C6 18.4191 5.66422 18.7549 5.25001 18.7549Z" fill="#868E96"/>
<path d="M3 12.0049C3 11.5907 3.33579 11.2549 3.75 11.2549H11.25C11.6642 11.2549 12 11.5907 12 12.0049C12 12.4191 11.6642 12.7549 11.25 12.7549H3.75C3.33579 12.7549 3 12.4191 3 12.0049Z" fill="#868E96"/>
<path d="M9 3.75488C7.75736 3.75488 6.75 4.76224 6.75 6.00488C6.75 7.24752 7.75736 8.25488 9 8.25488C10.2426 8.25488 11.25 7.24752 11.25 6.00488C11.25 4.76224 10.2426 3.75488 9 3.75488Z" fill="#868E96"/>
<path d="M12.75 12.0049C12.75 10.7622 13.7574 9.75488 15 9.75488C16.2426 9.75488 17.25 10.7622 17.25 12.0049C17.25 13.2475 16.2426 14.2549 15 14.2549C13.7574 14.2549 12.75 13.2475 12.75 12.0049Z" fill="#868E96"/>
<path d="M9 15.7549C7.75736 15.7549 6.75 16.7622 6.75 18.0049C6.75 19.2475 7.75736 20.2549 9 20.2549C10.2426 20.2549 11.25 19.2475 11.25 18.0049C11.25 16.7622 10.2426 15.7549 9 15.7549Z" fill="#868E96"/>
</svg>
