<svg width="24" height="24" viewBox="0 0 24 24" fill="none" xmlns="http://www.w3.org/2000/svg">
<path d="M6 12.0049C5.58579 12.0049 5.25 11.6691 5.25 11.2549L5.25002 3.75488C5.25002 3.34067 5.5858 3.00488 6.00002 3.00488C6.41423 3.00488 6.75002 3.34067 6.75002 3.75488L6.75 11.2549C6.75 11.6691 6.41421 12.0049 6 12.0049Z" fill="#868E96"/>
<path d="M18 12.0049C17.5858 12.0049 17.25 11.6691 17.25 11.2549L17.25 3.75488C17.25 3.34067 17.5858 3.00488 18 3.00488C18.4142 3.00488 18.75 3.34067 18.75 3.75488L18.75 11.2549C18.75 11.6691 18.4142 12.0049 18 12.0049Z" fill="#868E96"/>
<path d="M6.75001 20.2549L6.75 18.7549C6.75 18.3407 6.41421 18.0049 5.99999 18.0049C5.58578 18.0049 5.25 18.3407 5.25 18.7549L5.25001 20.2549C5.25002 20.6691 5.58581 21.0049 6.00002 21.0049C6.41424 21.0049 6.75002 20.6691 6.75001 20.2549Z" fill="#868E96"/>
<path d="M18.75 18.7549L18.75 20.2549C18.75 20.6691 18.4142 21.0049 18 21.0049C17.5858 21.0049 17.25 20.6691 17.25 20.2549L17.25 18.7549C17.25 18.3407 17.5858 18.0049 18 18.0049C18.4142 18.0049 18.75 18.3407 18.75 18.7549Z" fill="#868E96"/>
<path d="M12.75 5.25488L12.75 3.75488C12.75 3.34066 12.4142 3.00488 12 3.00488C11.5858 3.00489 11.25 3.34068 11.25 3.75489L11.25 5.25489C11.25 5.6691 11.5858 6.00489 12 6.00488C12.4142 6.00488 12.75 5.66909 12.75 5.25488Z" fill="#868E96"/>
<path d="M12 21.0049C11.5858 21.0049 11.25 20.6691 11.25 20.2549V12.7549C11.25 12.3407 11.5858 12.0049 12 12.0049C12.4142 12.0049 12.75 12.3407 12.75 12.7549V20.2549C12.75 20.6691 12.4142 21.0049 12 21.0049Z" fill="#868E96"/>
<path d="M3.75 15.0049C3.75 16.2475 4.75736 17.2549 6 17.2549C7.24264 17.2549 8.25 16.2475 8.25 15.0049C8.25 13.7622 7.24264 12.7549 6 12.7549C4.75736 12.7549 3.75 13.7622 3.75 15.0049Z" fill="#868E96"/>
<path d="M12 11.2549C10.7574 11.2549 9.75 10.2475 9.75 9.00488C9.75 7.76224 10.7574 6.75488 12 6.75488C13.2426 6.75488 14.25 7.76224 14.25 9.00488C14.25 10.2475 13.2426 11.2549 12 11.2549Z" fill="#868E96"/>
<path d="M15.75 15.0049C15.75 16.2475 16.7574 17.2549 18 17.2549C19.2426 17.2549 20.25 16.2475 20.25 15.0049C20.25 13.7622 19.2426 12.7549 18 12.7549C16.7574 12.7549 15.75 13.7622 15.75 15.0049Z" fill="#868E96"/>
</svg>
