<svg width="24" height="24" viewBox="0 0 24 24" fill="none" xmlns="http://www.w3.org/2000/svg">
<path fill-rule="evenodd" clip-rule="evenodd" d="M6 3.00488C6.41421 3.00488 6.75 3.34067 6.75 3.75488L6.75 12.8829C7.62389 13.1918 8.25 14.0252 8.25 15.0049C8.25 15.9845 7.62389 16.818 6.75 17.1269V20.2549C6.75 20.6691 6.41421 21.0049 6 21.0049C5.58579 21.0049 5.25 20.6691 5.25 20.2549L5.25 17.1269C4.37611 16.818 3.75 15.9845 3.75 15.0049C3.75 14.0252 4.37611 13.1918 5.25 12.8829L5.25 3.75488C5.25 3.34067 5.58579 3.00488 6 3.00488ZM12 3.00488C12.4142 3.00488 12.75 3.34067 12.75 3.75488V6.88291C13.6239 7.19179 14.25 8.02522 14.25 9.00488C14.25 9.98455 13.6239 10.818 12.75 11.1269V20.2549C12.75 20.6691 12.4142 21.0049 12 21.0049C11.5858 21.0049 11.25 20.6691 11.25 20.2549V11.1269C10.3761 10.818 9.75 9.98455 9.75 9.00488C9.75 8.02522 10.3761 7.19179 11.25 6.88291V3.75488C11.25 3.34067 11.5858 3.00488 12 3.00488ZM18 3.00488C18.4142 3.00488 18.75 3.34067 18.75 3.75488V12.8829C19.6239 13.1918 20.25 14.0252 20.25 15.0049C20.25 15.9845 19.6239 16.818 18.75 17.1269L18.75 20.2549C18.75 20.6691 18.4142 21.0049 18 21.0049C17.5858 21.0049 17.25 20.6691 17.25 20.2549L17.25 17.1269C16.3761 16.818 15.75 15.9845 15.75 15.0049C15.75 14.0252 16.3761 13.1918 17.25 12.8829V3.75488C17.25 3.34067 17.5858 3.00488 18 3.00488ZM12 8.25488C11.5858 8.25488 11.25 8.59067 11.25 9.00488C11.25 9.4191 11.5858 9.75488 12 9.75488C12.4142 9.75488 12.75 9.4191 12.75 9.00488C12.75 8.59067 12.4142 8.25488 12 8.25488ZM6 14.2549C5.58579 14.2549 5.25 14.5907 5.25 15.0049C5.25 15.4191 5.58579 15.7549 6 15.7549C6.41421 15.7549 6.75 15.4191 6.75 15.0049C6.75 14.5907 6.41421 14.2549 6 14.2549ZM18 14.2549C17.5858 14.2549 17.25 14.5907 17.25 15.0049C17.25 15.4191 17.5858 15.7549 18 15.7549C18.4142 15.7549 18.75 15.4191 18.75 15.0049C18.75 14.5907 18.4142 14.2549 18 14.2549Z" fill="#868E96"/>
</svg>
