<svg width="24" height="24" viewBox="0 0 24 24" fill="none" xmlns="http://www.w3.org/2000/svg">
<path fill-rule="evenodd" clip-rule="evenodd" d="M1.5 4.87988C1.5 3.84435 2.33947 3.00488 3.375 3.00488H20.625C21.6605 3.00488 22.5 3.84435 22.5 4.87988V6.37988C22.5 7.30145 21.8351 8.06773 20.9589 8.22524L20.3733 18.181C20.28 19.7667 18.9669 21.0049 17.3785 21.0049H6.62154C5.03311 21.0049 3.71999 19.7667 3.62671 18.181L3.04108 8.22524C2.16485 8.06773 1.5 7.30145 1.5 6.37988V4.87988ZM3.75659 6.75488C3.75266 6.75485 3.74873 6.75485 3.74479 6.75488H3.375C3.16789 6.75488 3 6.58699 3 6.37988V4.87988C3 4.67278 3.16789 4.50488 3.375 4.50488H20.625C20.8321 4.50488 21 4.67278 21 4.87988V6.37988C21 6.58699 20.8321 6.75488 20.625 6.75488H20.2552C20.2513 6.75485 20.2473 6.75485 20.2434 6.75488H3.75659ZM4.54541 8.25488L5.12412 18.093C5.17076 18.8858 5.82732 19.5049 6.62154 19.5049H17.3785C18.1727 19.5049 18.8292 18.8858 18.8759 18.093L19.4546 8.25488H4.54541ZM9.24976 11.2549C9.24976 10.8407 9.58554 10.5049 9.99976 10.5049H13.9998C14.414 10.5049 14.7498 10.8407 14.7498 11.2549C14.7498 11.6691 14.414 12.0049 13.9998 12.0049H9.99976C9.58554 12.0049 9.24976 11.6691 9.24976 11.2549Z" fill="#868E96"/>
</svg>
