<svg width="24" height="24" viewBox="0 0 24 24" fill="none" xmlns="http://www.w3.org/2000/svg">
<path d="M3.375 3.00488C2.33947 3.00488 1.5 3.84435 1.5 4.87988V5.62988C1.5 6.66542 2.33947 7.50488 3.375 7.50488H20.625C21.6605 7.50488 22.5 6.66542 22.5 5.62988V4.87988C22.5 3.84435 21.6605 3.00488 20.625 3.00488H3.375Z" fill="#868E96"/>
<path fill-rule="evenodd" clip-rule="evenodd" d="M3.08679 9.00488L3.62657 18.181C3.71984 19.7667 5.03296 21.0049 6.62139 21.0049H17.3783C18.9667 21.0049 20.2799 19.7667 20.3731 18.181L20.9129 9.00488H3.08679ZM9.24976 12.7549C9.24976 12.3407 9.58554 12.0049 9.99976 12.0049H13.9998C14.414 12.0049 14.7498 12.3407 14.7498 12.7549C14.7498 13.1691 14.414 13.5049 13.9998 13.5049H9.99976C9.58554 13.5049 9.24976 13.1691 9.24976 12.7549Z" fill="#868E96"/>
</svg>
