<svg width="24" height="24" viewBox="0 0 24 24" fill="none" xmlns="http://www.w3.org/2000/svg">
<path fill-rule="evenodd" clip-rule="evenodd" d="M1.5 4.87988C1.5 3.84435 2.33947 3.00488 3.375 3.00488H20.625C21.6605 3.00488 22.5 3.84435 22.5 4.87988V6.37988C22.5 7.30145 21.8351 8.06773 20.9589 8.22524L20.3733 18.181C20.28 19.7667 18.9669 21.0049 17.3785 21.0049H6.62154C5.03311 21.0049 3.71999 19.7667 3.62671 18.181L3.04108 8.22524C2.16485 8.06773 1.5 7.30145 1.5 6.37988V4.87988ZM3.75659 6.75488C3.75266 6.75485 3.74873 6.75485 3.74479 6.75488H3.375C3.16789 6.75488 3 6.58699 3 6.37988V4.87988C3 4.67278 3.16789 4.50488 3.375 4.50488H20.625C20.8321 4.50488 21 4.67278 21 4.87988V6.37988C21 6.58699 20.8321 6.75488 20.625 6.75488H20.2552C20.2513 6.75485 20.2473 6.75485 20.2434 6.75488H3.75659ZM4.54541 8.25488L5.12412 18.093C5.17076 18.8858 5.82732 19.5049 6.62154 19.5049H17.3785C18.1727 19.5049 18.8292 18.8858 18.8759 18.093L19.4546 8.25488H4.54541ZM12 9.75488C12.4142 9.75488 12.75 10.0907 12.75 10.5049V15.4442L14.4697 13.7246C14.7626 13.4317 15.2374 13.4317 15.5303 13.7246C15.8232 14.0174 15.8232 14.4923 15.5303 14.7852L12.5303 17.7852C12.2374 18.0781 11.7626 18.0781 11.4697 17.7852L8.46967 14.7852C8.17678 14.4923 8.17678 14.0174 8.46967 13.7246C8.76256 13.4317 9.23744 13.4317 9.53033 13.7246L11.25 15.4442V10.5049C11.25 10.0907 11.5858 9.75488 12 9.75488Z" fill="#868E96"/>
</svg>
