<svg width="24" height="24" viewBox="0 0 24 24" fill="none" xmlns="http://www.w3.org/2000/svg">
<path d="M3.375 3.00488C2.33947 3.00488 1.5 3.84435 1.5 4.87988V5.62988C1.5 6.66542 2.33947 7.50488 3.375 7.50488H20.625C21.6605 7.50488 22.5 6.66542 22.5 5.62988V4.87988C22.5 3.84435 21.6605 3.00488 20.625 3.00488H3.375Z" fill="#868E96"/>
<path fill-rule="evenodd" clip-rule="evenodd" d="M3.08679 9.00488L3.62657 18.181C3.71984 19.7667 5.03296 21.0049 6.62139 21.0049H17.3783C18.9667 21.0049 20.2799 19.7667 20.3731 18.181L20.9129 9.00488H3.08679ZM12 10.5049C12.4142 10.5049 12.75 10.8407 12.75 11.2549V16.1942L14.4697 14.4746C14.7626 14.1817 15.2374 14.1817 15.5303 14.4746C15.8232 14.7674 15.8232 15.2423 15.5303 15.5352L12.5303 18.5352C12.2374 18.8281 11.7626 18.8281 11.4697 18.5352L8.46967 15.5352C8.17678 15.2423 8.17678 14.7674 8.46967 14.4746C8.76256 14.1817 9.23744 14.1817 9.53033 14.4746L11.25 16.1942V11.2549C11.25 10.8407 11.5858 10.5049 12 10.5049Z" fill="#868E96"/>
</svg>
