<svg width="24" height="24" viewBox="0 0 24 24" fill="none" xmlns="http://www.w3.org/2000/svg">
<path fill-rule="evenodd" clip-rule="evenodd" d="M3.73292 20.2524C4.14714 20.2524 4.48293 19.9166 4.48293 19.5024L4.48293 9.00147L18.4219 9.00146L15.9522 11.4715C15.6593 11.7644 15.6593 12.2393 15.9522 12.5322C16.2451 12.8251 16.72 12.825 17.0129 12.5321L20.7628 8.78176C21.0556 8.48886 21.0556 8.014 20.7628 7.7211L17.0129 3.97074C16.72 3.67782 16.2451 3.67779 15.9522 3.97069C15.6593 4.26358 15.6593 4.73848 15.9522 5.0314L18.4219 7.50139L3.73292 7.5014C3.3187 7.5014 2.98291 7.8372 2.98291 8.25143L2.98291 19.5024C2.98291 19.9166 3.3187 20.2524 3.73292 20.2524Z" fill="#868E96"/>
</svg>
