<svg width="24" height="24" viewBox="0 0 24 24" fill="none" xmlns="http://www.w3.org/2000/svg">
<path d="M11.4619 1.72211C11.7548 1.42922 12.2296 1.42922 12.5225 1.72211L15.5225 4.72211C15.8154 5.01501 15.8154 5.48988 15.5225 5.78277C15.2296 6.07567 14.7548 6.07567 14.4619 5.78277L12.7422 4.0631L12.7422 7.50244H11.2422V4.0631L9.52252 5.78277C9.22962 6.07566 8.75475 6.07566 8.46186 5.78277C8.16896 5.48988 8.16896 5.015 8.46186 4.72211L11.4619 1.72211Z" fill="#868E96"/>
<path d="M11.2422 7.50244L11.2422 15.0024C11.2422 15.4167 11.578 15.7524 11.9922 15.7524C12.4064 15.7524 12.7422 15.4167 12.7422 15.0024V7.50244H16.4922C18.149 7.50244 19.4922 8.84559 19.4922 10.5024V19.5024C19.4922 21.1593 18.149 22.5024 16.4922 22.5024H7.49219C5.83533 22.5024 4.49219 21.1593 4.49219 19.5024V10.5024C4.49219 8.84559 5.83533 7.50244 7.49219 7.50244H11.2422Z" fill="#868E96"/>
</svg>
