<svg width="24" height="24" viewBox="0 0 24 24" fill="none" xmlns="http://www.w3.org/2000/svg">
<path fill-rule="evenodd" clip-rule="evenodd" d="M3.73584 20.252C3.73584 19.8377 4.07163 19.502 4.48584 19.502L14.9868 19.502L14.9868 5.56295L12.5167 8.03269C12.2238 8.32556 11.749 8.32553 11.4561 8.03262C11.1632 7.73971 11.1632 7.26484 11.4562 6.97196L15.2065 3.22209C15.4994 2.92924 15.9742 2.92924 16.2671 3.22209L20.0175 6.97196C20.3104 7.26484 20.3104 7.73971 20.0175 8.03262C19.7247 8.32553 19.2498 8.32556 18.9569 8.03269L16.4868 5.56295L16.4868 20.252C16.4868 20.6662 16.151 21.002 15.7368 21.002L4.48584 21.002C4.07163 21.002 3.73584 20.6662 3.73584 20.252Z" fill="#868E96"/>
</svg>
