<svg width="24" height="24" viewBox="0 0 24 24" fill="none" xmlns="http://www.w3.org/2000/svg">
<path fill-rule="evenodd" clip-rule="evenodd" d="M3.30653 9.67091C4.593 4.86971 9.52803 2.02047 14.3292 3.30695C15.9116 3.73095 17.2839 4.5525 18.365 5.6356C18.365 5.63551 18.3651 5.63568 18.365 5.6356L20.2656 7.53616V4.35599C20.2656 3.94178 20.6014 3.60599 21.0156 3.60599C21.4298 3.60599 21.7656 3.94178 21.7656 4.35599V9.34859C21.7656 9.76281 21.4298 10.0986 21.0156 10.0986H16.023C15.6088 10.0986 15.273 9.76281 15.273 9.34859C15.273 8.93438 15.6088 8.59859 16.023 8.59859H19.2067L17.3041 6.69602C16.4043 5.79448 15.262 5.10979 13.941 4.75584C9.94 3.68377 5.82748 6.05814 4.75541 10.0591C4.64821 10.4592 4.23695 10.6967 3.83686 10.5895C3.43676 10.4823 3.19932 10.071 3.30653 9.67091ZM20.1629 13.4111C20.563 13.5183 20.8004 13.9296 20.6932 14.3296C19.4067 19.1308 14.4717 21.9801 9.67049 20.6936C8.08812 20.2696 6.71591 19.4481 5.63477 18.3651L3.73438 16.4634V19.6446C3.73438 20.0588 3.39859 20.3946 2.98438 20.3946C2.57016 20.3946 2.23438 20.0588 2.23438 19.6446V14.6519C2.23438 14.2377 2.57016 13.9019 2.98438 13.9019L7.97702 13.9019C8.39123 13.9019 8.72702 14.2377 8.72702 14.6519C8.72702 15.0661 8.39123 15.4019 7.97702 15.4019L4.7942 15.4019L6.69577 17.3047C7.59562 18.2063 8.73774 18.8908 10.0587 19.2447C14.0597 20.3168 18.1722 17.9424 19.2443 13.9414C19.3515 13.5413 19.7628 13.3039 20.1629 13.4111Z" fill="#868E96"/>
</svg>
