<svg width="24" height="24" viewBox="0 0 24 24" fill="none" xmlns="http://www.w3.org/2000/svg">
<path fill-rule="evenodd" clip-rule="evenodd" d="M5.24219 6.3131L5.24219 15.7524C5.24219 16.1667 4.9064 16.5024 4.49219 16.5024C4.07797 16.5024 3.74219 16.1667 3.74219 15.7524L3.74219 4.50244C3.74219 4.30353 3.82121 4.11276 3.96186 3.97211C4.10251 3.83146 4.29328 3.75244 4.49219 3.75244L15.7422 3.75244C16.1564 3.75244 16.4922 4.08823 16.4922 4.50244C16.4922 4.91665 16.1564 5.25244 15.7422 5.25244L6.30285 5.25244L20.0225 18.9721C20.3154 19.265 20.3154 19.7399 20.0225 20.0328C19.7296 20.3257 19.2548 20.3257 18.9619 20.0328L5.24219 6.3131Z" fill="#868E96"/>
</svg>
