<svg width="24" height="24" viewBox="0 0 24 24" fill="none" xmlns="http://www.w3.org/2000/svg">
<path fill-rule="evenodd" clip-rule="evenodd" d="M9.96186 0.972111C10.2548 0.679218 10.7296 0.679218 11.0225 0.972111L14.0225 3.97211C14.3154 4.26501 14.3154 4.73988 14.0225 5.03277C13.7296 5.32567 13.2548 5.32567 12.9619 5.03277L11.2422 3.3131L11.2422 12.7524C11.2422 13.1667 10.9064 13.5024 10.4922 13.5024C10.078 13.5024 9.74219 13.1667 9.74219 12.7524L9.74219 3.3131L8.02252 5.03277C7.72962 5.32566 7.25475 5.32566 6.96186 5.03277C6.66896 4.73988 6.66896 4.265 6.96186 3.97211L9.96186 0.972111ZM6.74219 8.25244C5.91376 8.25244 5.24219 8.92402 5.24219 9.75244V17.2524C5.24219 18.0809 5.91376 18.7524 6.74219 18.7524H14.2422C15.0706 18.7524 15.7422 18.0809 15.7422 17.2524V9.75244C15.7422 8.92401 15.0706 8.25244 14.2422 8.25244H13.4922C13.078 8.25244 12.7422 7.91666 12.7422 7.50244C12.7422 7.08823 13.078 6.75244 13.4922 6.75244H14.2422C15.899 6.75244 17.2422 8.09559 17.2422 9.75244C18.899 9.75244 20.2422 11.0956 20.2422 12.7524V20.2524C20.2422 21.9093 18.899 23.2524 17.2422 23.2524H9.74219C8.08533 23.2524 6.74219 21.9093 6.74219 20.2524C5.08533 20.2524 3.74219 18.9093 3.74219 17.2524V9.75244C3.74219 8.09559 5.08533 6.75244 6.74219 6.75244H7.49219C7.9064 6.75244 8.24219 7.08823 8.24219 7.50244C8.24219 7.91666 7.9064 8.25244 7.49219 8.25244H6.74219ZM8.24219 20.2524C8.24219 21.0809 8.91376 21.7524 9.74219 21.7524H17.2422C18.0706 21.7524 18.7422 21.0809 18.7422 20.2524V12.7524C18.7422 11.924 18.0706 11.2524 17.2422 11.2524V17.2524C17.2422 18.9093 15.899 20.2524 14.2422 20.2524H8.24219Z" fill="#868E96"/>
</svg>
