<svg width="24" height="24" viewBox="0 0 24 24" fill="none" xmlns="http://www.w3.org/2000/svg">
<path fill-rule="evenodd" clip-rule="evenodd" d="M8.28199 3.8897C9.50933 3.79712 10.7492 3.75 12 3.75C13.2508 3.75 14.4907 3.79712 15.718 3.8897C18.0719 4.06725 19.9327 5.92812 20.1103 8.28199C20.1588 8.92503 20.1948 9.57151 20.2181 10.2212L21.9697 8.46967C22.2626 8.17678 22.7374 8.17678 23.0303 8.46967C23.3232 8.76256 23.3232 9.23744 23.0303 9.53033L20.0303 12.5303C19.7374 12.8232 19.2626 12.8232 18.9697 12.5303L15.9697 9.53033C15.6768 9.23744 15.6768 8.76256 15.9697 8.46967C16.2626 8.17678 16.7374 8.17678 17.0303 8.46967L18.7146 10.154C18.692 9.56471 18.6586 8.97827 18.6146 8.39481C18.4928 6.78038 17.2196 5.50723 15.6052 5.38545C14.4153 5.2957 13.2131 5.25 12 5.25C10.7869 5.25 9.58465 5.2957 8.39481 5.38545C6.78038 5.50723 5.50723 6.78038 5.38545 8.39481C5.3691 8.61152 5.35422 8.82864 5.3408 9.04617C5.3153 9.4596 4.95949 9.77408 4.54606 9.74858C4.13263 9.72308 3.81815 9.36726 3.84365 8.95383C3.85748 8.72948 3.87284 8.50552 3.8897 8.28199C4.06725 5.92812 5.92812 4.06725 8.28199 3.8897ZM3.96967 11.4697C4.26256 11.1768 4.73744 11.1768 5.03033 11.4697L8.03033 14.4697C8.32322 14.7626 8.32322 15.2374 8.03033 15.5303C7.73744 15.8232 7.26256 15.8232 6.96967 15.5303L5.28539 13.8461C5.30802 14.4353 5.34144 15.0217 5.38545 15.6052C5.50723 17.2196 6.78038 18.4928 8.39481 18.6146C9.58465 18.7043 10.7869 18.75 12 18.75C13.2131 18.75 14.4153 18.7043 15.6052 18.6146C17.2196 18.4928 18.4928 17.2196 18.6146 15.6052C18.6309 15.3885 18.6458 15.1714 18.6592 14.9538C18.6847 14.5404 19.0405 14.2259 19.4539 14.2514C19.8674 14.2769 20.1818 14.6327 20.1564 15.0462C20.1425 15.2705 20.1272 15.4945 20.1103 15.718C19.9327 18.0719 18.0719 19.9327 15.718 20.1103C14.4907 20.2029 13.2508 20.25 12 20.25C10.7492 20.25 9.50933 20.2029 8.28199 20.1103C5.92812 19.9327 4.06725 18.0719 3.8897 15.718C3.84119 15.075 3.80517 14.4285 3.78186 13.7788L2.03033 15.5303C1.73744 15.8232 1.26256 15.8232 0.96967 15.5303C0.676777 15.2374 0.676777 14.7626 0.96967 14.4697L3.96967 11.4697Z" fill="#868E96"/>
</svg>
