<svg width="24" height="24" viewBox="0 0 24 24" fill="none" xmlns="http://www.w3.org/2000/svg">
<path fill-rule="evenodd" clip-rule="evenodd" d="M8.24219 3.75244L19.4922 3.75244C19.6911 3.75244 19.8819 3.83146 20.0225 3.97211C20.1632 4.11276 20.2422 4.30353 20.2422 4.50244V15.7524C20.2422 16.1667 19.9064 16.5024 19.4922 16.5024C19.078 16.5024 18.7422 16.1667 18.7422 15.7524V6.3131L5.02252 20.0328C4.72962 20.3257 4.25475 20.3257 3.96186 20.0328C3.66896 19.7399 3.66896 19.265 3.96186 18.9721L17.6815 5.25244L8.24219 5.25244C7.82797 5.25244 7.49219 4.91666 7.49219 4.50244C7.49219 4.08823 7.82797 3.75244 8.24219 3.75244Z" fill="#868E96"/>
</svg>
