<svg width="24" height="24" viewBox="0 0 24 24" fill="none" xmlns="http://www.w3.org/2000/svg">
<path fill-rule="evenodd" clip-rule="evenodd" d="M20.2397 3.74902C19.8255 3.74902 19.4897 4.08481 19.4897 4.49902V15H5.55074L8.02048 12.5299C8.31336 12.237 8.31333 11.7621 8.02042 11.4693C7.7275 11.1764 7.25263 11.1764 6.95975 11.4693L3.20988 15.2197C2.91703 15.5126 2.91703 15.9874 3.20988 16.2803L6.95975 20.0307C7.25263 20.3236 7.7275 20.3236 8.02042 20.0307C8.31333 19.7379 8.31336 19.263 8.02048 18.9701L5.55074 16.5H20.2397C20.654 16.5 20.9897 16.1642 20.9897 15.75V4.49902C20.9897 4.08481 20.654 3.74902 20.2397 3.74902Z" fill="#868E96"/>
</svg>
