<svg width="24" height="24" viewBox="0 0 24 24" fill="none" xmlns="http://www.w3.org/2000/svg">
<path fill-rule="evenodd" clip-rule="evenodd" d="M21.5303 9.53521C21.2374 9.82811 20.7626 9.82811 20.4697 9.53521L15.75 4.81554V15.0049C15.75 18.7328 12.7279 21.7549 9 21.7549C5.27208 21.7549 2.25 18.7328 2.25 15.0049L2.25 12.0049C2.25 11.5907 2.58579 11.2549 3 11.2549C3.41421 11.2549 3.75 11.5907 3.75 12.0049L3.75 15.0049C3.75 17.9044 6.10051 20.2549 9 20.2549C11.8995 20.2549 14.25 17.9044 14.25 15.0049V4.81554L9.53033 9.53521C9.23744 9.82811 8.76256 9.82811 8.46967 9.53521C8.17678 9.24232 8.17678 8.76745 8.46967 8.47455L14.4697 2.47455C14.7626 2.18166 15.2374 2.18166 15.5303 2.47455L21.5303 8.47455C21.8232 8.76745 21.8232 9.24232 21.5303 9.53521Z" fill="#868E96"/>
</svg>
