<svg width="24" height="24" viewBox="0 0 24 24" fill="none" xmlns="http://www.w3.org/2000/svg">
<path fill-rule="evenodd" clip-rule="evenodd" d="M20.2349 20.2529C19.8206 20.2529 19.4849 19.9171 19.4849 19.5029L19.4849 9.00195L5.54586 9.00195L8.0156 11.472C8.30848 11.7649 8.30845 12.2398 8.01553 12.5327C7.72262 12.8256 7.24775 12.8255 6.95487 12.5326L3.205 8.78225C2.91215 8.48936 2.91215 8.01454 3.205 7.72166L6.95487 3.9713C7.24775 3.67838 7.72262 3.67835 8.01553 3.97123C8.30845 4.2641 8.30848 4.73897 8.0156 5.03188L5.54586 7.50195L20.2349 7.50195C20.6491 7.50195 20.9849 7.83774 20.9849 8.25195L20.9849 19.5029C20.9849 19.9171 20.6491 20.2529 20.2349 20.2529Z" fill="#868E96"/>
</svg>
