<svg width="24" height="24" viewBox="0 0 24 24" fill="none" xmlns="http://www.w3.org/2000/svg">
<path fill-rule="evenodd" clip-rule="evenodd" d="M11.4619 1.72211C11.7548 1.42922 12.2296 1.42922 12.5225 1.72211L15.5225 4.72211C15.8154 5.01501 15.8154 5.48988 15.5225 5.78277C15.2296 6.07567 14.7548 6.07567 14.4619 5.78277L12.7422 4.0631L12.7422 15.0024C12.7422 15.4167 12.4064 15.7524 11.9922 15.7524C11.578 15.7524 11.2422 15.4167 11.2422 15.0024L11.2422 4.0631L9.52252 5.78277C9.22962 6.07566 8.75475 6.07566 8.46186 5.78277C8.16896 5.48988 8.16896 5.015 8.46186 4.72211L11.4619 1.72211ZM7.49219 9.00244C6.66376 9.00244 5.99219 9.67401 5.99219 10.5024V19.5024C5.99219 20.3309 6.66376 21.0024 7.49219 21.0024H16.4922C17.3206 21.0024 17.9922 20.3309 17.9922 19.5024V10.5024C17.9922 9.67401 17.3206 9.00244 16.4922 9.00244H14.9922C14.578 9.00244 14.2422 8.66666 14.2422 8.25244C14.2422 7.83823 14.578 7.50244 14.9922 7.50244H16.4922C18.149 7.50244 19.4922 8.84559 19.4922 10.5024V19.5024C19.4922 21.1593 18.149 22.5024 16.4922 22.5024H7.49219C5.83533 22.5024 4.49219 21.1593 4.49219 19.5024V10.5024C4.49219 8.84559 5.83533 7.50244 7.49219 7.50244H8.99219C9.4064 7.50244 9.74219 7.83823 9.74219 8.25244C9.74219 8.66666 9.4064 9.00244 8.99219 9.00244H7.49219Z" fill="#868E96"/>
</svg>
