<svg width="24" height="24" viewBox="0 0 24 24" fill="none" xmlns="http://www.w3.org/2000/svg">
<path d="M9.96186 0.972111C10.2548 0.679218 10.7296 0.679218 11.0225 0.972111L14.0225 3.97211C14.3154 4.265 14.3154 4.73988 14.0225 5.03277C13.7296 5.32566 13.2547 5.32566 12.9619 5.03277L11.2422 3.3131V6.75244H9.74219V3.3131L8.02252 5.03277C7.72962 5.32566 7.25475 5.32566 6.96186 5.03277C6.66896 4.73988 6.66896 4.265 6.96186 3.97211L9.96186 0.972111Z" fill="#868E96"/>
<path d="M9.74219 6.75244V12.7524C9.74219 13.1667 10.078 13.5024 10.4922 13.5024C10.9064 13.5024 11.2422 13.1667 11.2422 12.7524V6.75244H14.2422C15.899 6.75244 17.2422 8.09559 17.2422 9.75244V17.2524C17.2422 18.9093 15.899 20.2524 14.2422 20.2524H6.74219C5.08533 20.2524 3.74219 18.9093 3.74219 17.2524V9.75244C3.74219 8.09559 5.08533 6.75244 6.74219 6.75244H9.74219Z" fill="#868E96"/>
<path d="M7.14355 21.7525C7.66227 22.6492 8.63178 23.2525 9.74221 23.2525H17.2422C18.8991 23.2525 20.2422 21.9093 20.2422 20.2525V12.7525C20.2422 11.642 19.6389 10.6725 18.7422 10.1538V17.2525C18.7422 19.7377 16.7275 21.7525 14.2422 21.7525H7.14355Z" fill="#868E96"/>
</svg>
