<svg width="24" height="25" viewBox="0 0 24 25" fill="none" xmlns="http://www.w3.org/2000/svg">
<path fill-rule="evenodd" clip-rule="evenodd" d="M6.96967 2.49067C7.26256 2.19777 7.73744 2.19777 8.03033 2.49067L12.5303 6.99067C12.8232 7.28356 12.8232 7.75843 12.5303 8.05133C12.2374 8.34422 11.7626 8.34422 11.4697 8.05133L8.25 4.83166V16.521C8.25 16.9352 7.91421 17.271 7.5 17.271C7.08579 17.271 6.75 16.9352 6.75 16.521V4.83166L3.53033 8.05133C3.23744 8.34422 2.76256 8.34422 2.46967 8.05133C2.17678 7.75843 2.17678 7.28356 2.46967 6.99067L6.96967 2.49067ZM16.5 6.771C16.9142 6.771 17.25 7.10678 17.25 7.521L17.25 19.2103L20.4697 15.9907C20.7626 15.6978 21.2374 15.6978 21.5303 15.9907C21.8232 16.2836 21.8232 16.7584 21.5303 17.0513L17.0303 21.5513C16.8897 21.692 16.6989 21.771 16.5 21.771C16.3011 21.771 16.1103 21.692 15.9697 21.5513L11.4697 17.0513C11.1768 16.7584 11.1768 16.2836 11.4697 15.9907C11.7626 15.6978 12.2374 15.6978 12.5303 15.9907L15.75 19.2103L15.75 7.521C15.75 7.10678 16.0858 6.771 16.5 6.771Z" fill="#868E96"/>
</svg>
