<svg width="24" height="24" viewBox="0 0 24 24" fill="none" xmlns="http://www.w3.org/2000/svg">
<path fill-rule="evenodd" clip-rule="evenodd" d="M3.73535 20.2519C3.73535 19.8377 4.07115 19.5019 4.48539 19.5019L14.9863 19.5019L14.9863 5.563L12.5163 8.03268C12.2234 8.32556 11.7485 8.32554 11.4556 8.03263C11.1627 7.73971 11.1627 7.26483 11.4557 6.97195L15.206 3.22208C15.4989 2.92921 15.9738 2.92921 16.2667 3.22208L20.0171 6.97195C20.31 7.26483 20.31 7.73971 20.0171 8.03263C19.7242 8.32554 19.2493 8.32556 18.9564 8.03268L16.4864 5.563L16.4864 20.2519C16.4864 20.6662 16.1506 21.002 15.7364 21.002L4.48539 21.002C4.07115 21.002 3.73535 20.6662 3.73535 20.2519Z" fill="#868E96"/>
</svg>
