<svg width="24" height="25" viewBox="0 0 24 25" fill="none" xmlns="http://www.w3.org/2000/svg">
<path fill-rule="evenodd" clip-rule="evenodd" d="M15.9697 2.49067C16.2626 2.19777 16.7374 2.19777 17.0303 2.49067L21.5303 6.99067C21.671 7.13132 21.75 7.32208 21.75 7.521C21.75 7.71991 21.671 7.91067 21.5303 8.05133L17.0303 12.5513C16.7374 12.8442 16.2626 12.8442 15.9697 12.5513C15.6768 12.2584 15.6768 11.7836 15.9697 11.4907L19.1893 8.271L7.5 8.271C7.08579 8.271 6.75 7.93521 6.75 7.521C6.75 7.10678 7.08579 6.771 7.5 6.771L19.1893 6.771L15.9697 3.55133C15.6768 3.25843 15.6768 2.78356 15.9697 2.49067ZM8.03033 11.4907C8.32322 11.7836 8.32322 12.2584 8.03033 12.5513L4.81066 15.771H16.5C16.9142 15.771 17.25 16.1068 17.25 16.521C17.25 16.9352 16.9142 17.271 16.5 17.271H4.81066L8.03033 20.4907C8.32322 20.7836 8.32322 21.2584 8.03033 21.5513C7.73744 21.8442 7.26256 21.8442 6.96967 21.5513L2.46967 17.0513C2.17678 16.7584 2.17678 16.2836 2.46967 15.9907L6.96967 11.4907C7.26256 11.1978 7.73744 11.1978 8.03033 11.4907Z" fill="#868E96"/>
</svg>
