<svg width="24" height="24" viewBox="0 0 24 24" fill="none" xmlns="http://www.w3.org/2000/svg">
<path fill-rule="evenodd" clip-rule="evenodd" d="M14.4697 2.47455C14.7626 2.18166 15.2374 2.18166 15.5303 2.47455L21.5303 8.47455C21.8232 8.76745 21.8232 9.24232 21.5303 9.53521L15.5303 15.5352C15.2374 15.8281 14.7626 15.8281 14.4697 15.5352C14.1768 15.2423 14.1768 14.7674 14.4697 14.4746L19.1893 9.75488H9C6.10051 9.75488 3.75 12.1054 3.75 15.0049C3.75 17.9044 6.10051 20.2549 9 20.2549H12C12.4142 20.2549 12.75 20.5907 12.75 21.0049C12.75 21.4191 12.4142 21.7549 12 21.7549H9C5.27208 21.7549 2.25 18.7328 2.25 15.0049C2.25 11.277 5.27208 8.25488 9 8.25488H19.1893L14.4697 3.53521C14.1768 3.24232 14.1768 2.76745 14.4697 2.47455Z" fill="#868E96"/>
</svg>
