<svg width="24" height="25" viewBox="0 0 24 25" fill="none" xmlns="http://www.w3.org/2000/svg">
<path fill-rule="evenodd" clip-rule="evenodd" d="M15 3.771C15 3.35678 15.3358 3.021 15.75 3.021L20.25 3.021C20.6642 3.021 21 3.35678 21 3.771V8.271C21 8.68521 20.6642 9.021 20.25 9.021C19.8358 9.021 19.5 8.68521 19.5 8.271V5.58166L15.5303 9.55133C15.2374 9.84422 14.7626 9.84422 14.4697 9.55133C14.1768 9.25843 14.1768 8.78356 14.4697 8.49067L18.4393 4.521H15.75C15.3358 4.521 15 4.18521 15 3.771ZM3 3.771C3 3.35678 3.33579 3.021 3.75 3.021H8.25C8.66421 3.021 9 3.35678 9 3.771C9 4.18521 8.66421 4.521 8.25 4.521H5.56066L9.53033 8.49067C9.82322 8.78356 9.82322 9.25843 9.53033 9.55133C9.23744 9.84422 8.76256 9.84422 8.46967 9.55133L4.5 5.58166V8.271C4.5 8.68521 4.16421 9.021 3.75 9.021C3.33579 9.021 3 8.68521 3 8.271V3.771ZM14.4697 15.5513C14.1768 15.2584 14.1768 14.7836 14.4697 14.4907C14.7626 14.1978 15.2374 14.1978 15.5303 14.4907L19.5 18.4603V15.771C19.5 15.3568 19.8358 15.021 20.25 15.021C20.6642 15.021 21 15.3568 21 15.771V20.271C21 20.6852 20.6642 21.021 20.25 21.021H15.75C15.3358 21.021 15 20.6852 15 20.271C15 19.8568 15.3358 19.521 15.75 19.521H18.4393L14.4697 15.5513ZM9.53033 14.4907C9.82322 14.7836 9.82322 15.2584 9.53033 15.5513L5.56066 19.521H8.25C8.66421 19.521 9 19.8568 9 20.271C9 20.6852 8.66421 21.021 8.25 21.021H3.75C3.33579 21.021 3 20.6852 3 20.271V15.771C3 15.3568 3.33579 15.021 3.75 15.021C4.16421 15.021 4.5 15.3568 4.5 15.771V18.4603L8.46967 14.4907C8.76256 14.1978 9.23744 14.1978 9.53033 14.4907Z" fill="#868E96"/>
</svg>
