<svg width="24" height="24" viewBox="0 0 24 24" fill="none" xmlns="http://www.w3.org/2000/svg">
<path fill-rule="evenodd" clip-rule="evenodd" d="M20.2407 20.252C20.2407 19.8377 19.9049 19.502 19.4907 19.502L8.98975 19.502L8.98975 5.56295L11.4598 8.03269C11.7527 8.32556 12.2276 8.32553 12.5205 8.03262C12.8133 7.73971 12.8133 7.26484 12.5204 6.97196L8.77004 3.22209C8.47716 2.92924 8.00234 2.92924 7.70945 3.22209L3.95909 6.97196C3.66618 7.26484 3.66615 7.73971 3.95902 8.03262C4.2519 8.32553 4.72677 8.32556 5.01968 8.03269L7.48975 5.56295L7.48975 20.252C7.48975 20.6662 7.82553 21.002 8.23975 21.002L19.4907 21.002C19.9049 21.002 20.2407 20.6662 20.2407 20.252Z" fill="#868E96"/>
</svg>
