<svg width="24" height="24" viewBox="0 0 24 24" fill="none" xmlns="http://www.w3.org/2000/svg">
<path fill-rule="evenodd" clip-rule="evenodd" d="M14.9922 3.75244C12.0927 3.75244 9.74219 6.10295 9.74219 9.00244V19.1918L14.4619 14.4721C14.7548 14.1792 15.2296 14.1792 15.5225 14.4721C15.8154 14.765 15.8154 15.2399 15.5225 15.5328L9.52252 21.5328C9.38187 21.6734 9.1911 21.7524 8.99219 21.7524C8.79327 21.7524 8.60251 21.6734 8.46186 21.5328L2.46186 15.5328C2.16896 15.2399 2.16896 14.765 2.46186 14.4721C2.75475 14.1792 3.22962 14.1792 3.52252 14.4721L8.24219 19.1918V9.00244C8.24219 5.27452 11.2643 2.25244 14.9922 2.25244C18.7201 2.25244 21.7422 5.27452 21.7422 9.00244V12.0024C21.7422 12.4167 21.4064 12.7524 20.9922 12.7524C20.578 12.7524 20.2422 12.4167 20.2422 12.0024V9.00244C20.2422 6.10295 17.8917 3.75244 14.9922 3.75244Z" fill="#868E96"/>
</svg>
