<svg width="24" height="24" viewBox="0 0 24 24" fill="none" xmlns="http://www.w3.org/2000/svg">
<path fill-rule="evenodd" clip-rule="evenodd" d="M3.73779 3.75244C3.73779 4.16665 4.07358 4.50244 4.48779 4.50244L14.9888 4.50244L14.9888 18.4414L12.5187 15.9717C12.2258 15.6788 11.7509 15.6789 11.458 15.9718C11.1652 16.2647 11.1652 16.7396 11.4581 17.0324L15.2085 20.7823C15.5014 21.0752 15.9762 21.0752 16.2691 20.7823L20.0194 17.0324C20.3123 16.7396 20.3124 16.2647 20.0195 15.9718C19.7266 15.6789 19.2517 15.6788 18.9588 15.9717L16.4888 18.4414L16.4888 3.75244C16.4888 3.33823 16.153 3.00244 15.7388 3.00244L4.48779 3.00244C4.07358 3.00244 3.73779 3.33823 3.73779 3.75244Z" fill="#868E96"/>
</svg>
