<svg width="24" height="24" viewBox="0 0 24 24" fill="none" xmlns="http://www.w3.org/2000/svg">
<path fill-rule="evenodd" clip-rule="evenodd" d="M11.9922 3.75244C7.43584 3.75244 3.74219 7.44609 3.74219 12.0024C3.74219 16.5588 7.43584 20.2524 11.9922 20.2524C16.5485 20.2524 20.2422 16.5588 20.2422 12.0024C20.2422 7.44609 16.5485 3.75244 11.9922 3.75244ZM2.24219 12.0024C2.24219 6.61767 6.60741 2.25244 11.9922 2.25244C17.377 2.25244 21.7422 6.61767 21.7422 12.0024C21.7422 17.3872 17.377 21.7524 11.9922 21.7524C6.60741 21.7524 2.24219 17.3872 2.24219 12.0024ZM8.46186 10.7221L11.4619 7.72211C11.7548 7.42922 12.2296 7.42922 12.5225 7.72211L15.5225 10.7221C15.8154 11.015 15.8154 11.4899 15.5225 11.7828C15.2296 12.0757 14.7548 12.0757 14.4619 11.7828L12.7422 10.0631L12.7422 15.7524C12.7422 16.1667 12.4064 16.5024 11.9922 16.5024C11.578 16.5024 11.2422 16.1667 11.2422 15.7524L11.2422 10.0631L9.52252 11.7828C9.22962 12.0757 8.75475 12.0757 8.46186 11.7828C8.16896 11.4899 8.16896 11.015 8.46186 10.7221Z" fill="#868E96"/>
</svg>
