<svg width="24" height="25" viewBox="0 0 24 25" fill="none" xmlns="http://www.w3.org/2000/svg">
<path d="M16.5 12.021C16.5 14.5063 14.4853 16.521 12 16.521C9.51472 16.521 7.5 14.5063 7.5 12.021C7.5 9.53571 9.51472 7.521 12 7.521C14.4853 7.521 16.5 9.53571 16.5 12.021ZM16.5 12.021C16.5 13.6779 17.5074 15.021 18.75 15.021C19.9926 15.021 21 13.6779 21 12.021C21 9.7177 20.1213 7.4144 18.364 5.65703C14.8492 2.14232 9.15076 2.14232 5.63604 5.65703C2.12132 9.17175 2.12132 14.8702 5.63604 18.385C9.15076 21.8997 14.8492 21.8997 18.364 18.385M16.5 12.021V8.271" stroke="#868E96" stroke-width="1.5" stroke-linecap="round" stroke-linejoin="round"/>
</svg>
