<svg width="24" height="24" viewBox="0 0 24 24" fill="none" xmlns="http://www.w3.org/2000/svg">
<path fill-rule="evenodd" clip-rule="evenodd" d="M3 6.75488C3 6.34067 3.33579 6.00488 3.75 6.00488H20.25C20.6642 6.00488 21 6.34067 21 6.75488C21 7.1691 20.6642 7.50488 20.25 7.50488H3.75C3.33579 7.50488 3 7.1691 3 6.75488ZM3 12.0049C3 11.5907 3.33579 11.2549 3.75 11.2549H12C12.4142 11.2549 12.75 11.5907 12.75 12.0049C12.75 12.4191 12.4142 12.7549 12 12.7549H3.75C3.33579 12.7549 3 12.4191 3 12.0049ZM3 17.2549C3 16.8407 3.33579 16.5049 3.75 16.5049H20.25C20.6642 16.5049 21 16.8407 21 17.2549C21 17.6691 20.6642 18.0049 20.25 18.0049H3.75C3.33579 18.0049 3 17.6691 3 17.2549Z" fill="#868E96"/>
</svg>
