<svg width="24" height="24" viewBox="0 0 24 24" fill="none" xmlns="http://www.w3.org/2000/svg">
<path fill-rule="evenodd" clip-rule="evenodd" d="M2.25 4.50488C2.25 4.09067 2.58579 3.75488 3 3.75488H17.25C17.6642 3.75488 18 4.09067 18 4.50488C18 4.9191 17.6642 5.25488 17.25 5.25488H3C2.58579 5.25488 2.25 4.9191 2.25 4.50488ZM2.25 9.00488C2.25 8.59067 2.58579 8.25488 3 8.25488H12.75C13.1642 8.25488 13.5 8.59067 13.5 9.00488C13.5 9.4191 13.1642 9.75488 12.75 9.75488H3C2.58579 9.75488 2.25 9.4191 2.25 9.00488ZM17.25 8.25488C17.6642 8.25488 18 8.59067 18 9.00488V19.1942L20.4697 16.7246C20.7626 16.4317 21.2374 16.4317 21.5303 16.7246C21.8232 17.0174 21.8232 17.4923 21.5303 17.7852L17.7803 21.5352C17.4874 21.8281 17.0126 21.8281 16.7197 21.5352L12.9697 17.7852C12.6768 17.4923 12.6768 17.0174 12.9697 16.7246C13.2626 16.4317 13.7374 16.4317 14.0303 16.7246L16.5 19.1942V9.00488C16.5 8.59067 16.8358 8.25488 17.25 8.25488ZM2.25 13.5049C2.25 13.0907 2.58579 12.7549 3 12.7549H12.75C13.1642 12.7549 13.5 13.0907 13.5 13.5049C13.5 13.9191 13.1642 14.2549 12.75 14.2549H3C2.58579 14.2549 2.25 13.9191 2.25 13.5049Z" fill="#868E96"/>
</svg>
