<svg width="24" height="24" viewBox="0 0 24 24" fill="none" xmlns="http://www.w3.org/2000/svg">
<path fill-rule="evenodd" clip-rule="evenodd" d="M0.75 9.75488C0.75 8.09803 2.09315 6.75488 3.75 6.75488H18.75C20.4069 6.75488 21.75 8.09803 21.75 9.75488V9.79239C22.6058 9.96612 23.25 10.7228 23.25 11.6299V13.8799C23.25 14.787 22.6058 15.5436 21.75 15.7174V15.7549C21.75 17.4117 20.4069 18.7549 18.75 18.7549H3.75C2.09315 18.7549 0.75 17.4117 0.75 15.7549V9.75488ZM20.25 9.75488C20.25 8.92646 19.5784 8.25488 18.75 8.25488H3.75C2.92157 8.25488 2.25 8.92646 2.25 9.75488V15.7549C2.25 16.5833 2.92157 17.2549 3.75 17.2549H18.75C19.5784 17.2549 20.25 16.5833 20.25 15.7549V9.75488ZM3.75 10.5049C3.75 10.0907 4.08579 9.75488 4.5 9.75488H18C18.4142 9.75488 18.75 10.0907 18.75 10.5049V15.0049C18.75 15.4191 18.4142 15.7549 18 15.7549H4.5C4.08579 15.7549 3.75 15.4191 3.75 15.0049V10.5049ZM5.25 11.2549V14.2549H17.25V11.2549H5.25Z" fill="#868E96"/>
</svg>
