<svg width="24" height="24" viewBox="0 0 24 24" fill="none" xmlns="http://www.w3.org/2000/svg">
<path fill-rule="evenodd" clip-rule="evenodd" d="M2.46967 2.47455C2.76256 2.18166 3.23744 2.18166 3.53033 2.47455L6.35645 5.30068C7.56245 3.46692 9.63909 2.25488 12 2.25488C15.7279 2.25488 18.75 5.27696 18.75 9.00488L18.75 9.00789L18.7498 9.05407V9.75488C18.7498 11.878 19.5508 13.8123 20.8684 15.2748C21.0349 15.4596 21.0989 15.7149 21.0393 15.9564C20.9797 16.198 20.8042 16.3942 20.5709 16.4803C19.8176 16.7584 19.0472 17.0009 18.2615 17.2057L21.5303 20.4746C21.8232 20.7674 21.8232 21.2423 21.5303 21.5352C21.2374 21.8281 20.7626 21.8281 20.4697 21.5352L2.46967 3.53521C2.17678 3.24232 2.17678 2.76745 2.46967 2.47455ZM17.0179 15.9621C17.7105 15.8098 18.3915 15.6266 19.0594 15.414C17.9204 13.8185 17.2498 11.8644 17.2498 9.75488V9.05407L17.2498 9.05106L17.25 9.00488C17.25 9.00437 17.25 9.00386 17.25 9.00335C17.2492 6.10456 14.899 3.75488 12 3.75488C10.0535 3.75488 8.35305 4.81427 7.44613 6.39036L17.0179 15.9621ZM6.02658 9.48579C6.44022 9.50752 6.75793 9.86046 6.7362 10.2741C6.6358 12.185 5.98499 13.9504 4.94025 15.414C6.31913 15.8529 7.75394 16.1666 9.23147 16.3419C10.139 16.4495 11.0628 16.5049 11.9998 16.5049C12.3205 16.5049 12.6396 16.4984 12.9571 16.4855C13.371 16.4688 13.72 16.7907 13.7368 17.2046C13.7535 17.6185 13.4316 17.9676 13.0177 17.9843C12.6801 17.998 12.3407 18.0049 11.9998 18.0049C11.2423 18.0049 10.4927 17.9708 9.7522 17.9042C9.75074 17.9375 9.75 17.9711 9.75 18.0049C9.75 19.2475 10.7574 20.2549 12 20.2549C12.9636 20.2549 13.7876 19.6487 14.1078 18.7944C14.2532 18.4065 14.6854 18.21 15.0733 18.3553C15.4612 18.5007 15.6578 18.933 15.5124 19.3208C14.9799 20.7416 13.6092 21.7549 12 21.7549C9.92893 21.7549 8.25 20.076 8.25 18.0049C8.25 17.9105 8.2535 17.8169 8.26039 17.7241C6.58932 17.4708 4.97286 17.0504 3.42874 16.4803C3.19538 16.3942 3.01991 16.1979 2.96032 15.9564C2.90072 15.7149 2.96475 15.4596 3.13125 15.2748C4.35734 13.9138 5.13587 12.1444 5.23826 10.1954C5.25999 9.78176 5.61293 9.46405 6.02658 9.48579Z" fill="#868E96"/>
</svg>
