<svg width="24" height="24" viewBox="0 0 24 24" fill="none" xmlns="http://www.w3.org/2000/svg">
<path d="M3.53033 2.47455C3.23744 2.18166 2.76256 2.18166 2.46967 2.47455C2.17678 2.76745 2.17678 3.24232 2.46967 3.53521L20.4697 21.5352C20.7626 21.8281 21.2374 21.8281 21.5303 21.5352C21.8232 21.2423 21.8232 20.7674 21.5303 20.4746L3.53033 2.47455Z" fill="#868E96"/>
<path d="M20.5709 16.4803C20.3473 16.5629 20.1222 16.6423 19.8956 16.7185L7.31889 4.14179C8.53246 2.97335 10.1823 2.25488 12 2.25488C15.7279 2.25488 18.75 5.27696 18.75 9.00488L18.7498 9.05407V9.75488C18.7498 11.878 19.5508 13.8123 20.8684 15.2748C21.0349 15.4596 21.0989 15.7149 21.0393 15.9564C20.9797 16.1979 20.8042 16.3942 20.5709 16.4803Z" fill="#868E96"/>
<path fill-rule="evenodd" clip-rule="evenodd" d="M5.25001 9.00469C5.25002 8.82087 5.25737 8.63876 5.27179 8.45866L15.656 18.8429C15.2754 20.5105 13.783 21.7549 12 21.7549C9.92894 21.7549 8.25001 20.076 8.25001 18.0049C8.25001 17.9105 8.25351 17.8169 8.2604 17.7241C6.58934 17.4708 4.97287 17.0504 3.42875 16.4803C3.19539 16.3942 3.01992 16.1979 2.96033 15.9564C2.90073 15.7149 2.96476 15.4596 3.13126 15.2748C4.4488 13.8123 5.24981 11.878 5.24981 9.75488L5.25001 9.00469ZM9.75221 17.9042C9.75075 17.9375 9.75001 17.9711 9.75001 18.0049C9.75001 19.2475 10.7574 20.2549 12 20.2549C13.2427 20.2549 14.25 19.2475 14.25 18.0049C14.25 17.9711 14.2493 17.9375 14.2478 17.9041C13.5072 17.9708 12.7574 18.0049 11.9998 18.0049C11.2424 18.0049 10.4927 17.9708 9.75221 17.9042Z" fill="#868E96"/>
</svg>
