<svg width="24" height="24" viewBox="0 0 24 24" fill="none" xmlns="http://www.w3.org/2000/svg">
<path fill-rule="evenodd" clip-rule="evenodd" d="M3 6.00684C3 4.34998 4.34315 3.00684 6 3.00684H18C19.6569 3.00684 21 4.34998 21 6.00684V18.0068C21 19.6637 19.6569 21.0068 18 21.0068H6C4.34315 21.0068 3 19.6637 3 18.0068V6.00684ZM6 4.50684C5.17157 4.50684 4.5 5.17841 4.5 6.00684V18.0068C4.5 18.8353 5.17157 19.5068 6 19.5068H18C18.8284 19.5068 19.5 18.8353 19.5 18.0068V6.00684C19.5 5.17841 18.8284 4.50684 18 4.50684H17.25V16.5068C17.25 16.7668 17.1154 17.0082 16.8943 17.1448C16.6732 17.2815 16.3971 17.2939 16.1646 17.1777L12 15.0954L7.83541 17.1777C7.60292 17.2939 7.32681 17.2815 7.1057 17.1448C6.88459 17.0082 6.75 16.7668 6.75 16.5068V4.50684H6ZM8.25 4.50684V15.2933L11.6646 13.586C11.8757 13.4804 12.1243 13.4804 12.3354 13.586L15.75 15.2933V4.50684H8.25Z" fill="#868E96"/>
</svg>
