<svg width="24" height="24" viewBox="0 0 24 24" fill="none" xmlns="http://www.w3.org/2000/svg">
<path fill-rule="evenodd" clip-rule="evenodd" d="M12 3.75684C10.137 3.75684 8.29938 3.86462 6.49314 4.07424C5.78933 4.15592 5.25 4.76762 5.25 5.51382V19.7933L11.6646 16.586C11.8757 16.4804 12.1243 16.4804 12.3354 16.586L18.75 19.7933V5.51382C18.75 4.76762 18.2107 4.15592 17.5069 4.07425C15.7006 3.86463 13.863 3.75684 12 3.75684ZM6.32022 2.58425C8.18374 2.36798 10.079 2.25684 12 2.25684C13.921 2.25684 15.8163 2.36798 17.6798 2.58425C19.1772 2.75802 20.25 4.04406 20.25 5.51382V21.0068C20.25 21.2668 20.1154 21.5082 19.8943 21.6448C19.6732 21.7815 19.3971 21.7939 19.1646 21.6777L12 18.0954L4.83541 21.6777C4.60292 21.7939 4.32681 21.7815 4.1057 21.6448C3.88459 21.5082 3.75 21.2668 3.75 21.0068V5.51382C3.75 4.04406 4.82283 2.75802 6.32022 2.58425Z" fill="#868E96"/>
</svg>
