<svg width="24" height="24" viewBox="0 0 24 24" fill="none" xmlns="http://www.w3.org/2000/svg">
<path d="M3.53033 2.47651C3.23744 2.18361 2.76256 2.18361 2.46967 2.47651C2.17678 2.7694 2.17678 3.24427 2.46967 3.53717L20.4697 21.5372C20.7626 21.8301 21.2374 21.8301 21.5303 21.5372C21.8232 21.2443 21.8232 20.7694 21.5303 20.4765L3.53033 2.47651Z" fill="#868E96"/>
<path d="M20.25 5.51382V17.0749L5.85284 2.67769C6.00319 2.63446 6.15925 2.60293 6.32022 2.58425C8.18374 2.36798 10.079 2.25684 12 2.25684C13.921 2.25684 15.8163 2.36798 17.6798 2.58425C19.1772 2.75802 20.25 4.04406 20.25 5.51382Z" fill="#868E96"/>
<path d="M3.75 21.0068V6.93882L17.8131 21.0019L12 18.0954L4.83541 21.6777C4.60292 21.7939 4.32681 21.7815 4.1057 21.6448C3.88459 21.5082 3.75 21.2668 3.75 21.0068Z" fill="#868E96"/>
</svg>
