<svg width="24" height="24" viewBox="0 0 24 24" fill="none" xmlns="http://www.w3.org/2000/svg">
<path fill-rule="evenodd" clip-rule="evenodd" d="M7.49902 5.25684C7.49902 3.59998 8.84217 2.25684 10.499 2.25684H13.499C15.1559 2.25684 16.499 3.59998 16.499 5.25684V5.46181C17.4315 5.54717 18.3564 5.6588 19.2731 5.79595C20.7271 6.01352 21.749 7.27847 21.749 8.71252V12.4957C21.749 13.2322 21.4799 13.9383 20.999 14.4713V18.4068C20.999 19.8587 19.9518 21.1343 18.4759 21.3303C16.3566 21.6117 14.1946 21.7568 11.999 21.7568C9.80349 21.7568 7.64149 21.6117 5.52216 21.3303C4.04626 21.1343 2.99902 19.8587 2.99902 18.4068V14.4713C2.51813 13.9383 2.24902 13.2322 2.24902 12.4957V8.71252C2.24902 7.27847 3.27093 6.01352 4.72498 5.79595C5.64161 5.6588 6.56655 5.54717 7.49902 5.46181V5.25684ZM8.99902 5.34766C9.99139 5.2874 10.9917 5.25684 11.999 5.25684C13.0064 5.25684 14.0067 5.2874 14.999 5.34766V5.25684C14.999 4.42841 14.3275 3.75684 13.499 3.75684H10.499C9.6706 3.75684 8.99902 4.42841 8.99902 5.25684V5.34766ZM4.49902 15.3499V18.4068C4.49902 19.1438 5.02558 19.7512 5.71958 19.8433C7.77364 20.116 9.86969 20.2568 11.999 20.2568C14.1284 20.2568 16.2244 20.116 18.2785 19.8433C18.9725 19.7512 19.499 19.1438 19.499 18.4068V15.3499C17.1324 16.1015 14.6124 16.5068 11.999 16.5068C9.3857 16.5068 6.86562 16.1015 4.49902 15.3499ZM11.999 6.75684C10.7564 6.75684 9.52504 6.80479 8.30681 6.89893C7.17514 6.98638 6.05472 7.11369 4.94695 7.27944C4.26292 7.38179 3.74902 7.9847 3.74902 8.71252V12.4957C3.74902 12.934 3.93675 13.3313 4.23557 13.586C4.35752 13.6899 4.49931 13.7716 4.65853 13.8245C6.96499 14.5913 9.43274 15.0068 11.999 15.0068C14.5653 15.0068 17.0331 14.5913 19.3395 13.8245C19.4987 13.7716 19.6405 13.6899 19.7625 13.586C20.0613 13.3313 20.249 12.934 20.249 12.4957V8.71252C20.249 7.9847 19.7351 7.38179 19.0511 7.27944C17.9433 7.11369 16.8229 6.98638 15.6912 6.89893C14.473 6.80479 13.2417 6.75684 11.999 6.75684ZM11.249 12.7568C11.249 12.3426 11.5848 12.0068 11.999 12.0068H12.0065C12.4207 12.0068 12.7565 12.3426 12.7565 12.7568V12.7643C12.7565 13.1785 12.4207 13.5143 12.0065 13.5143H11.999C11.5848 13.5143 11.249 13.1785 11.249 12.7643V12.7568Z" fill="#868E96"/>
</svg>
