<svg width="24" height="24" viewBox="0 0 24 24" fill="none" xmlns="http://www.w3.org/2000/svg">
<path fill-rule="evenodd" clip-rule="evenodd" d="M8.47566 1.60776C8.83421 1.81516 8.95673 2.27396 8.74932 2.63251C8.55076 2.97577 8.40517 3.3532 8.32355 3.75406C8.38211 3.81153 8.44201 3.86763 8.50319 3.92232C9.32762 2.90708 10.5866 2.25696 11.9982 2.25696C13.411 2.25696 14.6708 2.90813 15.4952 3.92478C15.5559 3.87061 15.6154 3.81504 15.6735 3.75813C15.592 3.35575 15.4461 2.97693 15.2469 2.63251C15.0395 2.27396 15.162 1.81516 15.5205 1.60776C15.8791 1.40035 16.3379 1.52287 16.5453 1.88142C16.9004 2.49538 17.135 3.18831 17.2163 3.9269C17.2397 4.13881 17.1717 4.35064 17.0295 4.50943C16.7876 4.77936 16.5243 5.02973 16.2422 5.25785C16.4081 5.72733 16.4982 6.23215 16.4982 6.75696C16.4982 6.96052 16.4846 7.1613 16.4583 7.35837C16.3524 8.1501 15.7053 8.65276 15.0409 8.76122C14.8594 8.79084 14.6771 8.81785 14.494 8.84222C14.6457 9.06933 14.7673 9.31833 14.853 9.58348C16.1675 9.42256 17.4479 9.15197 18.6848 8.78118C18.6193 7.88788 18.5033 7.0088 18.3398 6.14674C18.2626 5.73978 18.5299 5.3473 18.9369 5.2701C19.3438 5.1929 19.7363 5.46023 19.8135 5.86718C20.025 6.98201 20.1617 8.12305 20.2182 9.28482C20.2346 9.62224 20.0234 9.92899 19.7023 10.0341C18.1755 10.5338 16.5834 10.8889 14.9425 11.0835C14.8684 11.4643 14.7222 11.8193 14.5188 12.1338C16.585 12.3429 18.5768 12.8062 20.462 13.4922C20.7737 13.6057 20.9738 13.9103 20.9542 14.2413C20.8258 16.4111 20.4178 18.5063 19.7654 20.4911C19.6361 20.8846 19.2122 21.0988 18.8187 20.9695C18.4252 20.8401 18.2111 20.4163 18.3404 20.0228C18.8963 18.3314 19.2635 16.5541 19.4168 14.7154C18.9163 14.5471 18.4082 14.3953 17.893 14.2607C17.9607 14.4953 17.9973 14.745 17.9973 15.007C17.9973 18.9628 15.4755 22.507 11.9973 22.507C8.51912 22.507 5.99732 18.9628 5.99732 15.007C5.99732 14.7451 6.03388 14.4955 6.10152 14.261C5.58693 14.3955 5.07932 14.5472 4.57933 14.7154C4.73261 16.5541 5.09977 18.3314 5.65568 20.0228C5.78502 20.4163 5.57087 20.8401 5.17737 20.9695C4.78386 21.0988 4.36002 20.8846 4.23068 20.4911C3.5783 18.5063 3.17025 16.4111 3.04185 14.2413C3.02225 13.9103 3.22242 13.6056 3.53407 13.4922C5.11999 12.9151 6.78119 12.4956 8.49866 12.2525C8.50185 12.252 8.50505 12.2516 8.50825 12.2511C8.75439 12.2164 9.00168 12.1853 9.25007 12.1578C9.32555 12.1495 9.40113 12.1415 9.47681 12.1338C9.27343 11.8193 9.12731 11.4643 9.05319 11.0835C7.41225 10.8889 5.82019 10.5338 4.29334 10.0341C3.97228 9.92899 3.76109 9.62224 3.77751 9.28482C3.83403 8.12305 3.9707 6.98201 4.18217 5.86718C4.25937 5.46023 4.65185 5.1929 5.05881 5.2701C5.46576 5.3473 5.73309 5.73978 5.65589 6.14674C5.49236 7.0088 5.3764 7.88788 5.31089 8.78118C6.54782 9.15198 7.82822 9.42257 9.14278 9.58348C9.22851 9.3183 9.35014 9.06928 9.50194 8.84216C9.31897 8.81781 9.13682 8.79081 8.95553 8.76122C8.29108 8.65276 7.64405 8.1501 7.53814 7.35837C7.51178 7.1613 7.49821 6.96052 7.49821 6.75696C7.49821 6.23104 7.58872 5.72519 7.75523 5.25487C7.47259 5.02598 7.20887 4.77475 6.96673 4.50387C6.82465 4.34492 6.75692 4.13302 6.78048 3.92113C6.86238 3.18469 7.09668 2.49377 7.45092 1.88142C7.65832 1.52287 8.11712 1.40035 8.47566 1.60776ZM11.9982 9.00696C11.193 9.00696 10.5356 9.6416 10.4994 10.4371C10.4984 10.4602 10.4978 10.4835 10.4978 10.507C10.4978 11.3354 11.1694 12.007 11.9977 12.007C12.8262 12.007 13.4978 11.3353 13.4978 10.507C13.4978 10.4832 13.4973 10.4599 13.4963 10.4371C13.4601 9.64129 12.8031 9.00696 11.9982 9.00696ZM8.71064 13.7374C7.98777 13.8427 7.49732 14.3944 7.49732 15.007C7.49732 18.507 9.67653 21.007 11.9973 21.007C14.3181 21.007 16.4973 18.507 16.4973 15.007C16.4973 14.3922 16.0035 13.8388 15.2765 13.7363C15.0088 13.6985 14.7396 13.6653 14.469 13.6367C13.6572 13.5509 12.8327 13.507 11.9977 13.507C11.1689 13.507 10.3504 13.5503 9.54433 13.6348C9.26492 13.6641 8.98699 13.6983 8.71064 13.7374ZM11.9982 3.75696C10.8484 3.75696 9.84843 4.40359 9.34427 5.35656C9.12353 5.77381 8.99821 6.24964 8.99821 6.75696C8.99821 6.89382 9.00733 7.02815 9.02489 7.15948C9.02696 7.17494 9.03374 7.1942 9.05914 7.21784C9.08736 7.24409 9.13491 7.27065 9.19719 7.28082C10.1084 7.42955 11.044 7.50696 11.9982 7.50696C12.9524 7.50696 13.8881 7.42955 14.7992 7.28082C14.8615 7.27065 14.9091 7.24409 14.9373 7.21784C14.9627 7.1942 14.9695 7.17494 14.9715 7.15948C14.9891 7.02815 14.9982 6.89382 14.9982 6.75696C14.9982 6.25039 14.8733 5.77522 14.6531 5.35842C14.1493 4.40444 13.1488 3.75696 11.9982 3.75696Z" fill="#868E96"/>
</svg>
