<svg width="24" height="24" viewBox="0 0 24 24" fill="none" xmlns="http://www.w3.org/2000/svg">
<path fill-rule="evenodd" clip-rule="evenodd" d="M5.37765 3.75928C5.17874 3.75928 4.98797 3.83829 4.84732 3.97895L3.65803 5.16823C2.77935 6.04691 2.77935 7.47153 3.65803 8.35021C3.80139 8.49357 3.95836 8.61288 4.12434 8.70882C4.98504 9.20631 6.1046 9.08563 6.84001 8.35021C6.87372 8.31651 6.90606 8.28208 6.93707 8.24699C7.07948 8.08582 7.28423 7.99354 7.4993 7.9936C7.71437 7.99365 7.91906 8.08603 8.06139 8.24727C8.47477 8.71559 9.07715 9.00914 9.74902 9.00914C10.4209 9.00914 11.0233 8.71556 11.4367 8.2472C11.5791 8.0859 11.7839 7.9935 11.999 7.9935C12.2142 7.9935 12.419 8.0859 12.5613 8.2472C12.9747 8.71556 13.5771 9.00914 14.249 9.00914C14.9209 9.00914 15.5232 8.71562 15.9366 8.24736C16.0789 8.08614 16.2836 7.99377 16.4986 7.99371C16.7137 7.99365 16.9184 8.08591 17.0608 8.24705C17.0918 8.28212 17.1241 8.3165 17.1578 8.35013C17.8932 9.0856 19.0129 9.20624 19.8736 8.70862C20.0395 8.6127 20.1964 8.49342 20.3397 8.35013C21.2184 7.47145 21.2184 6.04683 20.3397 5.16815L19.1505 3.97895C19.0099 3.8383 18.8191 3.75928 18.6202 3.75928H5.37765ZM16.4986 9.75963C15.8722 10.2298 15.093 10.5091 14.249 10.5091C13.4049 10.5091 12.6255 10.2297 11.999 9.7593C11.3726 10.2297 10.5932 10.5091 9.74902 10.5091C8.90504 10.5091 8.12577 10.2298 7.49938 9.75957C6.62382 10.418 5.52613 10.6424 4.49902 10.4337V20.2591H12.749V13.5091C12.749 12.6807 13.4206 12.0091 14.249 12.0091H17.249C18.0774 12.0091 18.749 12.6807 18.749 13.5091V20.2591H19.499V10.4335C18.4719 10.6424 17.3742 10.4181 16.4986 9.75963ZM20.999 9.7594C21.1391 9.65411 21.2733 9.53787 21.4004 9.41079C22.8649 7.94632 22.8649 5.57195 21.4004 4.10749L20.2112 2.91829C19.7892 2.49633 19.2169 2.25928 18.6202 2.25928H5.37765C4.78091 2.25928 4.20862 2.49633 3.78666 2.91829L2.59737 4.10757C1.13291 5.57204 1.13291 7.94641 2.59737 9.41087C2.72454 9.53804 2.85882 9.65435 2.99902 9.7597V20.2591H2.3599C1.94569 20.2591 1.6099 20.5949 1.6099 21.0091C1.6099 21.4233 1.94569 21.7591 2.3599 21.7591H21.6381C22.0524 21.7591 22.3881 21.4233 22.3881 21.0091C22.3881 20.5949 22.0524 20.2591 21.6381 20.2591H20.999V9.7594ZM17.249 20.2591V13.5091H14.249V20.2591H17.249ZM5.24902 13.5091C5.24902 12.6807 5.9206 12.0091 6.74902 12.0091H10.499C11.3275 12.0091 11.999 12.6807 11.999 13.5091V17.2591C11.999 18.0876 11.3274 18.7591 10.499 18.7591H6.74902C5.9206 18.7591 5.24902 18.0876 5.24902 17.2591V13.5091ZM10.499 13.5091H6.74902V17.2591L10.499 17.2591V13.5091Z" fill="#868E96"/>
</svg>
