<svg width="24" height="24" viewBox="0 0 24 24" fill="none" xmlns="http://www.w3.org/2000/svg">
<path fill-rule="evenodd" clip-rule="evenodd" d="M4.5 2.25928C4.08579 2.25928 3.75 2.59506 3.75 3.00928C3.75 3.42349 4.08579 3.75928 4.5 3.75928V20.2593H3.75C3.33579 20.2593 3 20.5951 3 21.0093C3 21.4235 3.33579 21.7593 3.75 21.7593H20.25C20.6642 21.7593 21 21.4235 21 21.0093C21 20.5951 20.6642 20.2593 20.25 20.2593H19.5V3.75928C19.9142 3.75928 20.25 3.42349 20.25 3.00928C20.25 2.59506 19.9142 2.25928 19.5 2.25928H4.5ZM9 6.00928C8.58579 6.00928 8.25 6.34506 8.25 6.75928C8.25 7.17349 8.58579 7.50928 9 7.50928H10.5C10.9142 7.50928 11.25 7.17349 11.25 6.75928C11.25 6.34506 10.9142 6.00928 10.5 6.00928H9ZM8.25 9.75928C8.25 9.34506 8.58579 9.00928 9 9.00928H10.5C10.9142 9.00928 11.25 9.34506 11.25 9.75928C11.25 10.1735 10.9142 10.5093 10.5 10.5093H9C8.58579 10.5093 8.25 10.1735 8.25 9.75928ZM9 12.0093C8.58579 12.0093 8.25 12.3451 8.25 12.7593C8.25 13.1735 8.58579 13.5093 9 13.5093H10.5C10.9142 13.5093 11.25 13.1735 11.25 12.7593C11.25 12.3451 10.9142 12.0093 10.5 12.0093H9ZM12.75 6.75928C12.75 6.34506 13.0858 6.00928 13.5 6.00928H15C15.4142 6.00928 15.75 6.34506 15.75 6.75928C15.75 7.17349 15.4142 7.50928 15 7.50928H13.5C13.0858 7.50928 12.75 7.17349 12.75 6.75928ZM13.5 9.00928C13.0858 9.00928 12.75 9.34506 12.75 9.75928C12.75 10.1735 13.0858 10.5093 13.5 10.5093H15C15.4142 10.5093 15.75 10.1735 15.75 9.75928C15.75 9.34506 15.4142 9.00928 15 9.00928H13.5ZM12.75 12.7593C12.75 12.3451 13.0858 12.0093 13.5 12.0093H15C15.4142 12.0093 15.75 12.3451 15.75 12.7593C15.75 13.1735 15.4142 13.5093 15 13.5093H13.5C13.0858 13.5093 12.75 13.1735 12.75 12.7593ZM9 19.5093V17.2593C9 16.8451 9.33579 16.5093 9.75 16.5093H14.25C14.6642 16.5093 15 16.8451 15 17.2593V19.5093C15 19.9235 14.6642 20.2593 14.25 20.2593H9.75C9.33579 20.2593 9 19.9235 9 19.5093Z" fill="#868E96"/>
</svg>
