<svg width="24" height="24" viewBox="0 0 24 24" fill="none" xmlns="http://www.w3.org/2000/svg">
<path fill-rule="evenodd" clip-rule="evenodd" d="M8.99826 2.104C9.19717 2.104 9.38794 2.18302 9.52859 2.32367L8.99826 2.854L8.46793 2.32368C8.60858 2.18303 8.79935 2.10401 8.99826 2.104ZM11.9983 2.104C12.1972 2.104 12.3879 2.18302 12.5286 2.32367L11.9983 2.854L11.4679 2.32368C11.6086 2.18303 11.7993 2.10401 11.9983 2.104ZM14.9983 2.104C15.1972 2.104 15.3879 2.18302 15.5286 2.32368L14.9983 2.854L14.4679 2.32368C14.6086 2.18303 14.7993 2.10401 14.9983 2.104ZM9.79376 2.58884C10.2331 3.02818 10.2331 3.74049 9.79376 4.17983C9.35442 4.61917 8.64211 4.61917 8.20277 4.17983C7.76343 3.74049 7.76343 3.02818 8.20277 2.58884L8.46793 2.32368C8.46793 2.32368 8.46793 2.32368 8.99826 2.854C9.52859 2.32367 9.52859 2.32367 9.52859 2.32367L9.79376 2.58884ZM12.7938 2.58884C13.2331 3.02818 13.2331 3.74049 12.7938 4.17983C12.3544 4.61917 11.6421 4.61917 11.2028 4.17983C10.7634 3.74049 10.7634 3.02818 11.2028 2.58884L11.4679 2.32368C11.4679 2.32368 11.4679 2.32368 11.9983 2.854C12.5286 2.32367 12.5286 2.32367 12.5286 2.32367L12.7938 2.58884ZM15.7938 2.58884C16.2331 3.02818 16.2331 3.74049 15.7938 4.17983C15.3544 4.61917 14.6421 4.61917 14.2028 4.17983C13.7634 3.74049 13.7634 3.02818 14.2028 2.58884L14.4679 2.32368C14.4679 2.32368 14.4679 2.32368 14.9983 2.854C15.5286 2.32368 15.5286 2.32367 15.5286 2.32368L15.7938 2.58884ZM8.99821 6.00934C9.41243 6.00934 9.74821 6.34512 9.74821 6.75934V7.56035C10.2463 7.53772 10.7464 7.52256 11.2482 7.51499V6.75934C11.2482 6.34512 11.584 6.00934 11.9982 6.00934C12.4124 6.00934 12.7482 6.34512 12.7482 6.75934V7.51499C13.2501 7.52256 13.7501 7.53772 14.2482 7.56035V6.75934C14.2482 6.34512 14.584 6.00934 14.9982 6.00934C15.4124 6.00934 15.7482 6.34512 15.7482 6.75934V7.65146C15.8603 7.65999 15.9723 7.6689 16.0842 7.67818C17.6235 7.80594 18.7482 9.11216 18.7482 10.6176V12.473C18.9232 12.4972 19.0979 12.5224 19.2722 12.5485C20.7263 12.766 21.7482 14.031 21.7482 15.465V16.4931C21.7484 16.5035 21.7484 16.514 21.7482 16.5244V20.6343C21.7482 21.6699 20.9087 22.5093 19.8732 22.5093H4.12321C3.08768 22.5093 2.24821 21.6699 2.24821 20.6343V16.5244C2.24799 16.514 2.24799 16.5035 2.24821 16.4931V15.465C2.24821 14.031 3.27015 12.766 4.72419 12.5485C4.89857 12.5224 5.07324 12.4972 5.24821 12.473V10.6176C5.24821 9.11216 6.37297 7.80594 7.91226 7.67818C8.02414 7.6689 8.13612 7.65999 8.24821 7.65146V6.75934C8.24821 6.34512 8.584 6.00934 8.99821 6.00934ZM6.74821 12.2888C8.47313 12.1041 10.2247 12.0093 11.9982 12.0093C13.7717 12.0093 15.5233 12.1041 17.2482 12.2888V10.6176C17.2482 9.85299 16.683 9.23304 15.9601 9.17304C14.654 9.06464 13.3326 9.00934 11.9982 9.00934C10.6638 9.00934 9.34244 9.06464 8.03633 9.17304C7.31344 9.23304 6.74821 9.85299 6.74821 10.6176V12.2888ZM3.74821 17.7229V20.6343C3.74821 20.8414 3.9161 21.0093 4.12321 21.0093H19.8732C20.0803 21.0093 20.2482 20.8414 20.2482 20.6343V17.7229L19.8336 17.9302C18.6782 18.5079 17.3182 18.5079 16.1628 17.9302C15.4297 17.5636 14.5667 17.5636 13.8336 17.9302C12.6782 18.5079 11.3182 18.5079 10.1628 17.9302C9.42967 17.5636 8.56675 17.5636 7.83362 17.9302C6.6782 18.5079 5.31822 18.5079 4.1628 17.9302L3.74821 17.7229ZM20.2482 16.0458L19.1628 16.5885C18.4297 16.9551 17.5667 16.9551 16.8336 16.5885C15.6782 16.0108 14.3182 16.0108 13.1628 16.5885C12.4297 16.9551 11.5667 16.9551 10.8336 16.5885C9.6782 16.0108 8.31822 16.0108 7.1628 16.5885C6.42967 16.9551 5.56675 16.9551 4.83362 16.5885L3.74821 16.0458V15.465C3.74821 14.7372 4.26213 14.1343 4.94616 14.0319C5.32631 13.9751 5.70795 13.9227 6.09102 13.8749C8.02587 13.6337 9.99735 13.5093 11.9982 13.5093C13.9991 13.5093 15.9706 13.6337 17.9054 13.8749C18.2885 13.9227 18.6701 13.9751 19.0503 14.0319C19.7343 14.1343 20.2482 14.7372 20.2482 15.465V16.0458Z" fill="#868E96"/>
</svg>
