<svg width="24" height="25" viewBox="0 0 24 25" fill="none" xmlns="http://www.w3.org/2000/svg">
<path fill-rule="evenodd" clip-rule="evenodd" d="M12 3.01172C10.137 3.01172 8.29938 3.11951 6.49314 3.32913C5.78933 3.41081 5.25 4.0225 5.25 4.76871V19.5117C5.25 20.3401 5.92157 21.0117 6.75 21.0117H17.25C18.0784 21.0117 18.75 20.3401 18.75 19.5117V4.76871C18.75 4.0225 18.2107 3.41081 17.5069 3.32913C15.7006 3.11951 13.863 3.01172 12 3.01172ZM6.32022 1.83913C8.18374 1.62286 10.079 1.51172 12 1.51172C13.921 1.51172 15.8163 1.62286 17.6798 1.83913C19.1772 2.0129 20.25 3.29894 20.25 4.76871V19.5117C20.25 21.1686 18.9069 22.5117 17.25 22.5117H6.75C5.09315 22.5117 3.75 21.1686 3.75 19.5117V4.76871C3.75 3.29894 4.82283 2.0129 6.32022 1.83913ZM7.5 6.01172C7.5 5.59751 7.83579 5.26172 8.25 5.26172H15.75C16.1642 5.26172 16.5 5.59751 16.5 6.01172V8.26172C16.5 8.67593 16.1642 9.01172 15.75 9.01172H8.25C7.83579 9.01172 7.5 8.67593 7.5 8.26172V6.01172ZM9 6.76172V7.51172H15V6.76172H9ZM7.5 11.2617C7.5 10.8475 7.83579 10.5117 8.25 10.5117H8.2575C8.67171 10.5117 9.0075 10.8475 9.0075 11.2617V11.2692C9.0075 11.6834 8.67171 12.0192 8.2575 12.0192H8.25C7.83579 12.0192 7.5 11.6834 7.5 11.2692V11.2617ZM9.99756 11.2617C9.99756 10.8475 10.3333 10.5117 10.7476 10.5117H10.7551C11.1693 10.5117 11.5051 10.8475 11.5051 11.2617V11.2692C11.5051 11.6834 11.1693 12.0192 10.7551 12.0192H10.7476C10.3333 12.0192 9.99756 11.6834 9.99756 11.2692V11.2617ZM12.5024 11.2617C12.5024 10.8475 12.8382 10.5117 13.2524 10.5117H13.2599C13.6742 10.5117 14.0099 10.8475 14.0099 11.2617V11.2692C14.0099 11.6834 13.6742 12.0192 13.2599 12.0192H13.2524C12.8382 12.0192 12.5024 11.6834 12.5024 11.2692V11.2617ZM15 11.2617C15 10.8475 15.3358 10.5117 15.75 10.5117H15.7575C16.1717 10.5117 16.5075 10.8475 16.5075 11.2617V11.2692C16.5075 11.6834 16.1717 12.0192 15.7575 12.0192H15.75C15.3358 12.0192 15 11.6834 15 11.2692V11.2617ZM7.5 13.5117C7.5 13.0975 7.83579 12.7617 8.25 12.7617H8.2575C8.67171 12.7617 9.0075 13.0975 9.0075 13.5117V13.5192C9.0075 13.9334 8.67171 14.2692 8.2575 14.2692H8.25C7.83579 14.2692 7.5 13.9334 7.5 13.5192V13.5117ZM9.99756 13.5117C9.99756 13.0975 10.3333 12.7617 10.7476 12.7617H10.7551C11.1693 12.7617 11.5051 13.0975 11.5051 13.5117V13.5192C11.5051 13.9334 11.1693 14.2692 10.7551 14.2692H10.7476C10.3333 14.2692 9.99756 13.9334 9.99756 13.5192V13.5117ZM12.5024 13.5117C12.5024 13.0975 12.8382 12.7617 13.2524 12.7617H13.2599C13.6742 12.7617 14.0099 13.0975 14.0099 13.5117V13.5192C14.0099 13.9334 13.6742 14.2692 13.2599 14.2692H13.2524C12.8382 14.2692 12.5024 13.9334 12.5024 13.5192V13.5117ZM15 13.5117C15 13.0975 15.3358 12.7617 15.75 12.7617H15.7575C16.1717 12.7617 16.5075 13.0975 16.5075 13.5117V13.5192C16.5075 13.9334 16.1717 14.2692 15.7575 14.2692H15.75C15.3358 14.2692 15 13.9334 15 13.5192V13.5117ZM7.5 15.7617C7.5 15.3475 7.83579 15.0117 8.25 15.0117H8.2575C8.67171 15.0117 9.0075 15.3475 9.0075 15.7617V15.7692C9.0075 16.1834 8.67171 16.5192 8.2575 16.5192H8.25C7.83579 16.5192 7.5 16.1834 7.5 15.7692V15.7617ZM9.99756 15.7617C9.99756 15.3475 10.3333 15.0117 10.7476 15.0117H10.7551C11.1693 15.0117 11.5051 15.3475 11.5051 15.7617V15.7692C11.5051 16.1834 11.1693 16.5192 10.7551 16.5192H10.7476C10.3333 16.5192 9.99756 16.1834 9.99756 15.7692V15.7617ZM12.5024 15.7617C12.5024 15.3475 12.8382 15.0117 13.2524 15.0117H13.2599C13.6742 15.0117 14.0099 15.3475 14.0099 15.7617V15.7692C14.0099 16.1834 13.6742 16.5192 13.2599 16.5192H13.2524C12.8382 16.5192 12.5024 16.1834 12.5024 15.7692V15.7617ZM15.75 15.0117C16.1642 15.0117 16.5 15.3475 16.5 15.7617V18.0117C16.5 18.4259 16.1642 18.7617 15.75 18.7617C15.3358 18.7617 15 18.4259 15 18.0117V15.7617C15 15.3475 15.3358 15.0117 15.75 15.0117ZM7.5 18.0117C7.5 17.5975 7.83579 17.2617 8.25 17.2617H8.2575C8.67171 17.2617 9.0075 17.5975 9.0075 18.0117V18.0192C9.0075 18.4334 8.67171 18.7692 8.2575 18.7692H8.25C7.83579 18.7692 7.5 18.4334 7.5 18.0192V18.0117ZM9.99756 18.0117C9.99756 17.5975 10.3333 17.2617 10.7476 17.2617H10.7551C11.1693 17.2617 11.5051 17.5975 11.5051 18.0117V18.0192C11.5051 18.4334 11.1693 18.7692 10.7551 18.7692H10.7476C10.3333 18.7692 9.99756 18.4334 9.99756 18.0192V18.0117ZM12.5024 18.0117C12.5024 17.5975 12.8382 17.2617 13.2524 17.2617H13.2599C13.6742 17.2617 14.0099 17.5975 14.0099 18.0117V18.0192C14.0099 18.4334 13.6742 18.7692 13.2599 18.7692H13.2524C12.8382 18.7692 12.5024 18.4334 12.5024 18.0192V18.0117Z" fill="#868E96"/>
</svg>
