<svg width="24" height="25" viewBox="0 0 24 25" fill="none" xmlns="http://www.w3.org/2000/svg">
<path fill-rule="evenodd" clip-rule="evenodd" d="M9.34429 3.08285C10.2236 3.03563 11.109 3.01172 12 3.01172C12.891 3.01172 13.7764 3.03563 14.6557 3.08285C15.6233 3.1348 16.4854 3.66784 16.9882 4.47356L17.8094 5.78958C18.0485 6.17271 18.4544 6.43303 18.9195 6.49913C19.3049 6.55389 19.6888 6.61317 20.0713 6.6769C21.5031 6.9155 22.5 8.16957 22.5 9.58575V18.0117C22.5 19.6686 21.1569 21.0117 19.5 21.0117H4.5C2.84315 21.0117 1.5 19.6686 1.5 18.0117V9.58574C1.5 8.16956 2.49686 6.91549 3.92872 6.67689C4.31116 6.61316 4.6951 6.55389 5.08048 6.49912C5.54556 6.43303 5.95152 6.1727 6.19061 5.78957L7.01181 4.47356C7.5146 3.66784 8.37667 3.1348 9.34429 3.08285ZM12 4.51172C11.1359 4.51172 10.2773 4.53491 9.42472 4.58069C8.96453 4.6054 8.53855 4.86033 8.28437 5.26766L7.46317 6.58366C6.98009 7.3578 6.17699 7.85836 5.29153 7.9842C4.91801 8.03728 4.54591 8.09473 4.17527 8.15649C3.50138 8.26878 3 8.86713 3 9.58574V18.0117C3 18.8401 3.67157 19.5117 4.5 19.5117H19.5C20.3284 19.5117 21 18.8401 21 18.0117V9.58575C21 8.86714 20.4986 8.26879 19.8247 8.1565C19.4541 8.09473 19.082 8.03729 18.7085 7.98421C17.823 7.85837 17.0199 7.35781 16.5368 6.58367L15.7156 5.26766C15.4614 4.86033 15.0355 4.6054 14.5753 4.58069C13.7227 4.53491 12.8641 4.51172 12 4.51172ZM12 9.01172C9.92893 9.01172 8.25 10.6907 8.25 12.7617C8.25 14.8328 9.92893 16.5117 12 16.5117C14.0711 16.5117 15.75 14.8328 15.75 12.7617C15.75 10.6907 14.0711 9.01172 12 9.01172ZM6.75 12.7617C6.75 9.86222 9.1005 7.51172 12 7.51172C14.8995 7.51172 17.25 9.86222 17.25 12.7617C17.25 15.6612 14.8995 18.0117 12 18.0117C9.1005 18.0117 6.75 15.6612 6.75 12.7617ZM18 10.5117C18 10.0975 18.3358 9.76172 18.75 9.76172H18.7575C19.1717 9.76172 19.5075 10.0975 19.5075 10.5117V10.5192C19.5075 10.9334 19.1717 11.2692 18.7575 11.2692H18.75C18.3358 11.2692 18 10.9334 18 10.5192V10.5117Z" fill="#868E96"/>
</svg>
