<svg width="24" height="25" viewBox="0 0 24 25" fill="none" xmlns="http://www.w3.org/2000/svg">
<path d="M12 9.01172C9.92893 9.01172 8.25 10.6907 8.25 12.7617C8.25 14.8328 9.92893 16.5117 12 16.5117C14.0711 16.5117 15.75 14.8328 15.75 12.7617C15.75 10.6907 14.0711 9.01172 12 9.01172Z" fill="#868E96"/>
<path fill-rule="evenodd" clip-rule="evenodd" d="M9.34429 3.08285C10.2236 3.03563 11.109 3.01172 12 3.01172C12.891 3.01172 13.7764 3.03563 14.6557 3.08285C15.6233 3.1348 16.4854 3.66784 16.9882 4.47356L17.8094 5.78958C18.0485 6.17271 18.4544 6.43303 18.9195 6.49913C19.3049 6.55389 19.6888 6.61317 20.0713 6.6769C21.5031 6.9155 22.5 8.16957 22.5 9.58575V18.0117C22.5 19.6686 21.1569 21.0117 19.5 21.0117H4.5C2.84315 21.0117 1.5 19.6686 1.5 18.0117V9.58574C1.5 8.16956 2.49686 6.91549 3.92872 6.67689C4.31116 6.61316 4.6951 6.55389 5.08048 6.49912C5.54556 6.43303 5.95152 6.1727 6.19061 5.78957L7.01181 4.47356C7.5146 3.66784 8.37667 3.1348 9.34429 3.08285ZM6.75 12.7617C6.75 9.86222 9.1005 7.51172 12 7.51172C14.8995 7.51172 17.25 9.86222 17.25 12.7617C17.25 15.6612 14.8995 18.0117 12 18.0117C9.1005 18.0117 6.75 15.6612 6.75 12.7617ZM18.75 11.2617C19.1642 11.2617 19.5 10.9259 19.5 10.5117C19.5 10.0975 19.1642 9.76172 18.75 9.76172C18.3358 9.76172 18 10.0975 18 10.5117C18 10.9259 18.3358 11.2617 18.75 11.2617Z" fill="#868E96"/>
</svg>
