<svg width="24" height="25" viewBox="0 0 24 25" fill="none" xmlns="http://www.w3.org/2000/svg">
<path fill-rule="evenodd" clip-rule="evenodd" d="M15.75 4.13672C15.75 3.10118 16.5895 2.26172 17.625 2.26172H19.875C20.9105 2.26172 21.75 3.10118 21.75 4.13672V19.8867C21.75 20.9223 20.9105 21.7617 19.875 21.7617H17.625C16.5895 21.7617 15.75 20.9223 15.75 19.8867V4.13672ZM17.625 3.76172C17.4179 3.76172 17.25 3.92961 17.25 4.13672V19.8867C17.25 20.0938 17.4179 20.2617 17.625 20.2617H19.875C20.0821 20.2617 20.25 20.0938 20.25 19.8867V4.13672C20.25 3.92961 20.0821 3.76172 19.875 3.76172H17.625ZM9 8.63672C9 7.60118 9.83947 6.76172 10.875 6.76172H13.125C14.1605 6.76172 15 7.60118 15 8.63672V19.8867C15 20.9223 14.1605 21.7617 13.125 21.7617H10.875C9.83947 21.7617 9 20.9223 9 19.8867V8.63672ZM10.875 8.26172C10.6679 8.26172 10.5 8.42961 10.5 8.63672V19.8867C10.5 20.0938 10.6679 20.2617 10.875 20.2617H13.125C13.3321 20.2617 13.5 20.0938 13.5 19.8867V8.63672C13.5 8.42961 13.3321 8.26172 13.125 8.26172H10.875ZM2.25 13.1367C2.25 12.1012 3.08947 11.2617 4.125 11.2617H6.375C7.41053 11.2617 8.25 12.1012 8.25 13.1367V19.8867C8.25 20.9223 7.41053 21.7617 6.375 21.7617H4.125C3.08947 21.7617 2.25 20.9223 2.25 19.8867V13.1367ZM4.125 12.7617C3.91789 12.7617 3.75 12.9296 3.75 13.1367V19.8867C3.75 20.0938 3.91789 20.2617 4.125 20.2617H6.375C6.58211 20.2617 6.75 20.0938 6.75 19.8867V13.1367C6.75 12.9296 6.58211 12.7617 6.375 12.7617H4.125Z" fill="#868E96"/>
</svg>
