<svg width="24" height="25" viewBox="0 0 24 25" fill="none" xmlns="http://www.w3.org/2000/svg">
<path fill-rule="evenodd" clip-rule="evenodd" d="M3 6.01172C3 4.35486 4.34315 3.01172 6 3.01172H18C19.6569 3.01172 21 4.35486 21 6.01172V18.0117C21 19.6686 19.6569 21.0117 18 21.0117H6C4.34315 21.0117 3 19.6686 3 18.0117V6.01172ZM6 4.51172C5.17157 4.51172 4.5 5.18329 4.5 6.01172V18.0117C4.5 18.8401 5.17157 19.5117 6 19.5117H18C18.8284 19.5117 19.5 18.8401 19.5 18.0117V6.01172C19.5 5.18329 18.8284 4.51172 18 4.51172H6ZM16.5 6.76172C16.9142 6.76172 17.25 7.09751 17.25 7.51172V16.5117C17.25 16.9259 16.9142 17.2617 16.5 17.2617C16.0858 17.2617 15.75 16.9259 15.75 16.5117V7.51172C15.75 7.09751 16.0858 6.76172 16.5 6.76172ZM13.5 9.01172C13.9142 9.01172 14.25 9.34751 14.25 9.76172V16.5117C14.25 16.9259 13.9142 17.2617 13.5 17.2617C13.0858 17.2617 12.75 16.9259 12.75 16.5117V9.76172C12.75 9.34751 13.0858 9.01172 13.5 9.01172ZM10.5 11.2617C10.9142 11.2617 11.25 11.5975 11.25 12.0117V16.5117C11.25 16.9259 10.9142 17.2617 10.5 17.2617C10.0858 17.2617 9.75 16.9259 9.75 16.5117V12.0117C9.75 11.5975 10.0858 11.2617 10.5 11.2617ZM7.5 13.5117C7.91421 13.5117 8.25 13.8475 8.25 14.2617V16.5117C8.25 16.9259 7.91421 17.2617 7.5 17.2617C7.08579 17.2617 6.75 16.9259 6.75 16.5117V14.2617C6.75 13.8475 7.08579 13.5117 7.5 13.5117Z" fill="#868E96"/>
</svg>
