<svg width="24" height="25" viewBox="0 0 24 25" fill="none" xmlns="http://www.w3.org/2000/svg">
<path fill-rule="evenodd" clip-rule="evenodd" d="M4.84739 2.78272C7.18205 2.43945 9.57015 2.26172 11.9993 2.26172C14.4283 2.26172 16.8161 2.43942 19.1506 2.78263C21.129 3.07349 22.499 4.80617 22.499 6.75228V12.7712C22.499 14.7173 21.1289 16.45 19.1506 16.7408C18.0044 16.9093 16.8454 17.0379 15.6749 17.1252C15.5505 17.1345 15.4421 17.1992 15.3781 17.2952L12.6231 21.4277C12.484 21.6364 12.2498 21.7617 11.999 21.7617C11.7483 21.7617 11.5141 21.6364 11.375 21.4277L8.61995 17.2952C8.55592 17.1991 8.44755 17.1344 8.3231 17.1251C7.15261 17.0379 5.99354 16.9092 4.84738 16.7407C2.86906 16.4498 1.49902 14.7172 1.49902 12.7711V6.75236C1.49902 4.80627 2.86907 3.0736 4.84739 2.78272Z" fill="#868E96"/>
</svg>
