<svg width="24" height="25" viewBox="0 0 24 25" fill="none" xmlns="http://www.w3.org/2000/svg">
<path fill-rule="evenodd" clip-rule="evenodd" d="M12.0003 3.76367C9.64439 3.76367 7.32921 3.93603 5.06657 4.26872C3.87679 4.44366 3 5.49824 3 6.75431V12.773C3 14.0291 3.87679 15.0837 5.06656 15.2586C6.13567 15.4158 7.2165 15.5372 8.30779 15.6215C8.69842 15.6517 9 15.9775 9 16.3693V19.203L11.7957 16.4073C12.2104 15.9927 12.7663 15.7611 13.3426 15.745C15.2364 15.6922 17.1021 15.528 18.9334 15.2587C20.1232 15.0838 21 14.0292 21 12.7731V6.75423C21 5.49815 20.1232 4.44355 18.9334 4.26863C16.6709 3.936 14.356 3.76367 12.0003 3.76367ZM4.84836 2.78467C7.18302 2.4414 9.57113 2.26367 12.0003 2.26367C14.4292 2.26367 16.8171 2.44137 19.1516 2.78458C21.1299 3.07544 22.5 4.80812 22.5 6.75423V12.7731C22.5 14.7192 21.1299 16.4519 19.1516 16.7428C17.262 17.0206 15.3374 17.1899 13.3844 17.2444C13.1814 17.2501 12.993 17.3313 12.8564 17.468L8.78033 21.544C8.56583 21.7585 8.24324 21.8227 7.96299 21.7066C7.68273 21.5905 7.5 21.317 7.5 21.0137V17.0587C6.60901 16.9771 5.72491 16.8715 4.84836 16.7427C2.87004 16.4518 1.5 14.7191 1.5 12.773V6.75431C1.5 4.80822 2.87004 3.07556 4.84836 2.78467Z" fill="#868E96"/>
</svg>
