<svg width="24" height="25" viewBox="0 0 24 25" fill="none" xmlns="http://www.w3.org/2000/svg">
<path fill-rule="evenodd" clip-rule="evenodd" d="M11.999 3.76611C7.44267 3.76611 3.74902 7.45976 3.74902 12.0161C3.74902 16.5725 7.44267 20.2661 11.999 20.2661C16.5554 20.2661 20.249 16.5725 20.249 12.0161C20.249 7.45976 16.5554 3.76611 11.999 3.76611ZM2.24902 12.0161C2.24902 6.63134 6.61425 2.26611 11.999 2.26611C17.3838 2.26611 21.749 6.63134 21.749 12.0161C21.749 17.4009 17.3838 21.7661 11.999 21.7661C6.61425 21.7661 2.24902 17.4009 2.24902 12.0161ZM15.435 9.15581C15.772 9.39657 15.8501 9.86498 15.6093 10.202L11.8593 15.452C11.7312 15.6314 11.5306 15.7454 11.3109 15.7636C11.0912 15.7817 10.8746 15.7023 10.7187 15.5464L8.46869 13.2964C8.1758 13.0036 8.1758 12.5287 8.46869 12.2358C8.76159 11.9429 9.23646 11.9429 9.52935 12.2358L11.1533 13.8597L14.3887 9.33018C14.6295 8.99312 15.0979 8.91506 15.435 9.15581Z" fill="#868E96"/>
</svg>
