<svg width="24" height="24" viewBox="0 0 24 24" fill="none" xmlns="http://www.w3.org/2000/svg">
<path fill-rule="evenodd" clip-rule="evenodd" d="M11.4697 4.72455C11.7626 4.43166 12.2374 4.43166 12.5303 4.72455L16.2803 8.47455C16.5732 8.76745 16.5732 9.24232 16.2803 9.53521C15.9874 9.82811 15.5126 9.82811 15.2197 9.53521L12 6.31554L8.78033 9.53521C8.48744 9.82811 8.01256 9.82811 7.71967 9.53521C7.42678 9.24232 7.42678 8.76745 7.71967 8.47455L11.4697 4.72455ZM7.71967 14.4746C8.01256 14.1817 8.48744 14.1817 8.78033 14.4746L12 17.6942L15.2197 14.4746C15.5126 14.1817 15.9874 14.1817 16.2803 14.4746C16.5732 14.7674 16.5732 15.2423 16.2803 15.5352L12.5303 19.2852C12.2374 19.5781 11.7626 19.5781 11.4697 19.2852L7.71967 15.5352C7.42678 15.2423 7.42678 14.7674 7.71967 14.4746Z" fill="#868E96"/>
</svg>
