<svg width="24" height="24" viewBox="0 0 24 24" fill="none" xmlns="http://www.w3.org/2000/svg">
<path fill-rule="evenodd" clip-rule="evenodd" d="M11.4697 19.2852C11.7626 19.5781 12.2374 19.5781 12.5303 19.2852L20.0303 11.7852C20.3232 11.4923 20.3232 11.0174 20.0303 10.7246C19.7374 10.4317 19.2626 10.4317 18.9697 10.7246L12 17.6942L5.03033 10.7246C4.73744 10.4317 4.26256 10.4317 3.96967 10.7246C3.67678 11.0174 3.67678 11.4923 3.96967 11.7852L11.4697 19.2852ZM12 11.6942L5.03033 4.72455C4.73744 4.43166 4.26256 4.43166 3.96967 4.72455C3.67678 5.01745 3.67678 5.49232 3.96967 5.78521L11.4697 13.2852C11.7626 13.5781 12.2374 13.5781 12.5303 13.2852L20.0303 5.78521C20.3232 5.49232 20.3232 5.01745 20.0303 4.72455C19.7374 4.43166 19.2626 4.43166 18.9697 4.72455L12 11.6942Z" fill="#868E96"/>
</svg>
