<svg width="24" height="24" viewBox="0 0 24 24" fill="none" xmlns="http://www.w3.org/2000/svg">
<path fill-rule="evenodd" clip-rule="evenodd" d="M4.71967 3.97455C5.01256 3.68166 5.48744 3.68166 5.78033 3.97455L13.2803 11.4746C13.421 11.6152 13.5 11.806 13.5 12.0049C13.5 12.2038 13.421 12.3946 13.2803 12.5352L5.78033 20.0352C5.48744 20.3281 5.01256 20.3281 4.71967 20.0352C4.42678 19.7423 4.42678 19.2674 4.71967 18.9746L11.6893 12.0049L4.71967 5.03521C4.42678 4.74232 4.42678 4.26745 4.71967 3.97455ZM10.7197 3.97455C11.0126 3.68166 11.4874 3.68166 11.7803 3.97455L19.2803 11.4746C19.421 11.6152 19.5 11.806 19.5 12.0049C19.5 12.2038 19.421 12.3946 19.2803 12.5352L11.7803 20.0352C11.4874 20.3281 11.0126 20.3281 10.7197 20.0352C10.4268 19.7423 10.4268 19.2674 10.7197 18.9746L17.6893 12.0049L10.7197 5.03521C10.4268 4.74232 10.4268 4.26745 10.7197 3.97455Z" fill="#868E96"/>
</svg>
