<svg width="24" height="24" viewBox="0 0 24 24" fill="none" xmlns="http://www.w3.org/2000/svg">
<path fill-rule="evenodd" clip-rule="evenodd" d="M19.2803 3.97455C18.9874 3.68166 18.5126 3.68166 18.2197 3.97455L10.7197 11.4746C10.579 11.6152 10.5 11.806 10.5 12.0049C10.5 12.2038 10.579 12.3946 10.7197 12.5352L18.2197 20.0352C18.5126 20.3281 18.9874 20.3281 19.2803 20.0352C19.5732 19.7423 19.5732 19.2674 19.2803 18.9746L12.3107 12.0049L19.2803 5.03521C19.5732 4.74232 19.5732 4.26745 19.2803 3.97455ZM13.2803 3.97455C12.9874 3.68166 12.5126 3.68166 12.2197 3.97455L4.71967 11.4746C4.57902 11.6152 4.5 11.806 4.5 12.0049C4.5 12.2038 4.57902 12.3946 4.71967 12.5352L12.2197 20.0352C12.5126 20.3281 12.9874 20.3281 13.2803 20.0352C13.5732 19.7423 13.5732 19.2674 13.2803 18.9746L6.31066 12.0049L13.2803 5.03521C13.5732 4.74232 13.5732 4.26745 13.2803 3.97455Z" fill="#868E96"/>
</svg>
