<svg width="24" height="24" viewBox="0 0 24 24" fill="none" xmlns="http://www.w3.org/2000/svg">
<path fill-rule="evenodd" clip-rule="evenodd" d="M10.7197 11.4746C10.4268 11.7674 10.4268 12.2423 10.7197 12.5352L18.2197 20.0352C18.5126 20.3281 18.9874 20.3281 19.2803 20.0352C19.5732 19.7423 19.5732 19.2674 19.2803 18.9746L12.3107 12.0049L19.2803 5.03521C19.5732 4.74232 19.5732 4.26745 19.2803 3.97455C18.9874 3.68166 18.5126 3.68166 18.2197 3.97455L10.7197 11.4746Z" fill="#868E96"/>
<path fill-rule="evenodd" clip-rule="evenodd" d="M4.71967 11.4746C4.42678 11.7674 4.42678 12.2423 4.71967 12.5352L12.2197 20.0352C12.5126 20.3281 12.9874 20.3281 13.2803 20.0352C13.5732 19.7423 13.5732 19.2674 13.2803 18.9746L6.31066 12.0049L13.2803 5.03521C13.5732 4.74232 13.5732 4.26745 13.2803 3.97455C12.9874 3.68166 12.5126 3.68166 12.2197 3.97455L4.71967 11.4746Z" fill="#868E96"/>
</svg>
