<svg width="24" height="25" viewBox="0 0 24 25" fill="none" xmlns="http://www.w3.org/2000/svg">
<path d="M21 6.396C21 9.08839 16.9706 11.271 12 11.271C7.02944 11.271 3 9.08839 3 6.396C3 3.70361 7.02944 1.521 12 1.521C16.9706 1.521 21 3.70361 21 6.396Z" fill="#868E96"/>
<path d="M12 12.771C14.6852 12.771 17.1905 12.1847 19.0784 11.1621C19.7684 10.7883 20.4248 10.3253 20.9747 9.77773C20.9915 9.8993 21 10.0221 21 10.146C21 12.8384 16.9706 15.021 12 15.021C7.02944 15.021 3 12.8384 3 10.146C3 10.0221 3.00853 9.8993 3.02529 9.77773C3.57523 10.3253 4.23162 10.7883 4.92161 11.1621C6.80949 12.1847 9.31481 12.771 12 12.771Z" fill="#868E96"/>
<path d="M12 16.521C14.6852 16.521 17.1905 15.9347 19.0784 14.9121C19.7684 14.5383 20.4248 14.0753 20.9747 13.5277C20.9915 13.6493 21 13.7721 21 13.896C21 16.5884 16.9706 18.771 12 18.771C7.02944 18.771 3 16.5884 3 13.896C3 13.7721 3.00853 13.6493 3.02529 13.5277C3.57523 14.0753 4.23162 14.5383 4.92161 14.9121C6.80949 15.9347 9.31481 16.521 12 16.521Z" fill="#868E96"/>
<path d="M12 20.271C14.6852 20.271 17.1905 19.6847 19.0784 18.6621C19.7684 18.2883 20.4248 17.8253 20.9747 17.2777C20.9915 17.3993 21 17.5221 21 17.646C21 20.3384 16.9706 22.521 12 22.521C7.02944 22.521 3 20.3384 3 17.646C3 17.5221 3.00853 17.3993 3.02529 17.2777C3.57523 17.8253 4.23162 18.2883 4.92161 18.6621C6.80949 19.6847 9.31481 20.271 12 20.271Z" fill="#868E96"/>
</svg>
