<svg width="24" height="25" viewBox="0 0 24 25" fill="none" xmlns="http://www.w3.org/2000/svg">
<path fill-rule="evenodd" clip-rule="evenodd" d="M7.50183 6.02099H11.2477L11.25 6.021H14.6299C16.4915 6.02368 17.9999 7.53369 17.9999 9.39599V18.771C19.6567 18.771 20.9999 17.4278 20.9999 15.771V6.12921C20.9999 4.62381 19.8751 3.3176 18.3358 3.18984C18.1121 3.17126 17.8879 3.1542 17.6632 3.13866C17.1633 2.17747 16.1583 1.521 15 1.521H13.5C12.3417 1.521 11.3367 2.17746 10.8368 3.13865C10.6121 3.15419 10.3878 3.17126 10.1639 3.18984C8.66165 3.31452 7.55421 4.56169 7.50183 6.02099ZM13.5 3.021C12.6716 3.021 12 3.69257 12 4.521H16.5C16.5 3.69257 15.8284 3.021 15 3.021H13.5Z" fill="#868E96"/>
<path fill-rule="evenodd" clip-rule="evenodd" d="M3 9.396C3 8.36046 3.83947 7.521 4.875 7.521H14.625C15.6605 7.521 16.5 8.36046 16.5 9.396V20.646C16.5 21.6815 15.6605 22.521 14.625 22.521H4.875C3.83947 22.521 3 21.6815 3 20.646V9.396ZM12.5857 13.9895C12.8444 13.6661 12.792 13.1941 12.4685 12.9353C12.1451 12.6766 11.6731 12.729 11.4143 13.0525L8.93781 16.1481L8.03033 15.2407C7.73744 14.9478 7.26256 14.9478 6.96967 15.2407C6.67678 15.5336 6.67678 16.0084 6.96967 16.3013L8.46967 17.8013C8.62052 17.9522 8.82847 18.0316 9.04148 18.0198C9.25448 18.0081 9.45238 17.9061 9.58565 17.7395L12.5857 13.9895Z" fill="#868E96"/>
</svg>
