<svg width="24" height="25" viewBox="0 0 24 25" fill="none" xmlns="http://www.w3.org/2000/svg">
<path fill-rule="evenodd" clip-rule="evenodd" d="M10.837 3.13864C11.3367 2.17792 12.3409 1.521 13.5 1.521H15C16.1591 1.521 17.1633 2.17792 17.663 3.13864C17.8877 3.15419 18.1121 3.17126 18.3359 3.18984C19.8752 3.3176 21 4.62382 21 6.12921V15.771C21 17.4278 19.6569 18.771 18 18.771H16.5V20.646C16.5 21.6815 15.6605 22.521 14.625 22.521H4.875C3.83947 22.521 3 21.6815 3 20.646V8.646C3 7.61046 3.83947 6.771 4.875 6.771H6.75C7.00235 6.771 7.25247 6.78058 7.5 6.79941V6.12922C7.5 4.62382 8.62475 3.3176 10.164 3.18984C10.3879 3.17126 10.6123 3.15419 10.837 3.13864ZM10.5 4.66759C10.4293 4.67314 10.3587 4.67884 10.2881 4.6847C9.56523 4.7447 9 5.36465 9 6.12922V7.03189C13.3 8.04764 16.5 11.9106 16.5 16.521V17.271H18C18.8284 17.271 19.5 16.5994 19.5 15.771V6.12921C19.5 5.36465 18.9348 4.7447 18.2119 4.6847C18.1413 4.67884 18.0707 4.67314 18 4.66759V5.271C18 5.68521 17.6642 6.021 17.25 6.021H11.25C10.8358 6.021 10.5 5.68521 10.5 5.271V4.66759ZM16.5 4.521H12C12 4.36568 12.0234 4.21721 12.0662 4.07816C12.2552 3.46512 12.8267 3.021 13.5 3.021H15C15.6733 3.021 16.2448 3.46512 16.4338 4.07816C16.4766 4.21721 16.5 4.36568 16.5 4.521ZM14.3322 13.264C13.4988 11.3265 11.9445 9.77222 10.007 8.93885C10.3215 9.52119 10.5 10.1877 10.5 10.896V12.396C10.5 12.6031 10.6679 12.771 10.875 12.771H12.375C13.0832 12.771 13.7498 12.9495 14.3322 13.264ZM6.375 8.271H4.875C4.66789 8.271 4.5 8.43889 4.5 8.646V20.646C4.5 20.8531 4.66789 21.021 4.875 21.021H14.625C14.8321 21.021 15 20.8531 15 20.646V16.896C15 15.4462 13.8247 14.271 12.375 14.271H10.875C9.83947 14.271 9 13.4315 9 12.396V10.896C9 9.44625 7.82475 8.271 6.375 8.271Z" fill="#868E96"/>
</svg>
