<svg width="24" height="25" viewBox="0 0 24 25" fill="none" xmlns="http://www.w3.org/2000/svg">
<path fill-rule="evenodd" clip-rule="evenodd" d="M7.50183 6.02099H11.2477L11.25 6.021H14.6299C16.4915 6.02368 17.9999 7.53369 17.9999 9.39599V18.771C19.6567 18.771 20.9999 17.4278 20.9999 15.771V6.12921C20.9999 4.62381 19.8751 3.3176 18.3358 3.18984C18.1121 3.17126 17.8879 3.1542 17.6632 3.13866C17.1633 2.17747 16.1583 1.521 15 1.521H13.5C12.3417 1.521 11.3367 2.17746 10.8368 3.13865C10.6121 3.15419 10.3878 3.17126 10.1639 3.18984C8.66165 3.31452 7.55421 4.56169 7.50183 6.02099ZM13.5 3.021C12.6716 3.021 12 3.69257 12 4.521H16.5C16.5 3.69257 15.8284 3.021 15 3.021H13.5Z" fill="#868E96"/>
<path fill-rule="evenodd" clip-rule="evenodd" d="M3 9.396C3 8.36046 3.83947 7.521 4.875 7.521H14.625C15.6605 7.521 16.5 8.36046 16.5 9.396V20.646C16.5 21.6815 15.6605 22.521 14.625 22.521H4.875C3.83947 22.521 3 21.6815 3 20.646V9.396ZM6 12.021C6 11.6068 6.33579 11.271 6.75 11.271H6.7575C7.17171 11.271 7.5075 11.6068 7.5075 12.021V12.0285C7.5075 12.4427 7.17171 12.7785 6.7575 12.7785H6.75C6.33579 12.7785 6 12.4427 6 12.0285V12.021ZM8.25 12.021C8.25 11.6068 8.58579 11.271 9 11.271H12.75C13.1642 11.271 13.5 11.6068 13.5 12.021C13.5 12.4352 13.1642 12.771 12.75 12.771H9C8.58579 12.771 8.25 12.4352 8.25 12.021ZM6 15.021C6 14.6068 6.33579 14.271 6.75 14.271H6.7575C7.17171 14.271 7.5075 14.6068 7.5075 15.021V15.0285C7.5075 15.4427 7.17171 15.7785 6.7575 15.7785H6.75C6.33579 15.7785 6 15.4427 6 15.0285V15.021ZM8.25 15.021C8.25 14.6068 8.58579 14.271 9 14.271H12.75C13.1642 14.271 13.5 14.6068 13.5 15.021C13.5 15.4352 13.1642 15.771 12.75 15.771H9C8.58579 15.771 8.25 15.4352 8.25 15.021ZM6 18.021C6 17.6068 6.33579 17.271 6.75 17.271H6.7575C7.17171 17.271 7.5075 17.6068 7.5075 18.021V18.0285C7.5075 18.4427 7.17171 18.7785 6.7575 18.7785H6.75C6.33579 18.7785 6 18.4427 6 18.0285V18.021ZM8.25 18.021C8.25 17.6068 8.58579 17.271 9 17.271H12.75C13.1642 17.271 13.5 17.6068 13.5 18.021C13.5 18.4352 13.1642 18.771 12.75 18.771H9C8.58579 18.771 8.25 18.4352 8.25 18.021Z" fill="#868E96"/>
</svg>
