<svg width="24" height="25" viewBox="0 0 24 25" fill="none" xmlns="http://www.w3.org/2000/svg">
<path fill-rule="evenodd" clip-rule="evenodd" d="M12 3.771C7.44365 3.771 3.75 7.46465 3.75 12.021C3.75 16.5773 7.44365 20.271 12 20.271C16.5563 20.271 20.25 16.5773 20.25 12.021C20.25 7.46465 16.5563 3.771 12 3.771ZM2.25 12.021C2.25 6.63622 6.61522 2.271 12 2.271C17.3848 2.271 21.75 6.63622 21.75 12.021C21.75 17.4058 17.3848 21.771 12 21.771C6.61522 21.771 2.25 17.4058 2.25 12.021ZM12 5.271C12.4142 5.271 12.75 5.60678 12.75 6.021V11.271H16.5C16.9142 11.271 17.25 11.6068 17.25 12.021C17.25 12.4352 16.9142 12.771 16.5 12.771H12C11.5858 12.771 11.25 12.4352 11.25 12.021V6.021C11.25 5.60678 11.5858 5.271 12 5.271Z" fill="#868E96"/>
</svg>
