<svg width="24" height="25" viewBox="0 0 24 25" fill="none" xmlns="http://www.w3.org/2000/svg">
<path fill-rule="evenodd" clip-rule="evenodd" d="M10.5 3.771C7.18629 3.771 4.5 6.45729 4.5 9.771C4.5 9.93785 4.50683 10.1032 4.52024 10.2669C2.73627 11.105 1.5 12.9178 1.5 15.021C1.5 17.9205 3.85051 20.271 6.75 20.271H18C20.4853 20.271 22.5 18.2563 22.5 15.771C22.5 14.0863 21.5744 12.6191 20.2058 11.848C20.2349 11.6596 20.25 11.4669 20.25 11.271C20.25 9.19993 18.5711 7.521 16.5 7.521C16.3559 7.521 16.2135 7.52916 16.0733 7.54508C15.1893 5.33382 13.028 3.771 10.5 3.771ZM12.5303 9.24067C12.2374 8.94777 11.7626 8.94777 11.4697 9.24067L8.46967 12.2407C8.17678 12.5336 8.17678 13.0084 8.46967 13.3013C8.76256 13.5942 9.23744 13.5942 9.53033 13.3013L11.25 11.5817L11.25 16.521C11.25 16.9352 11.5858 17.271 12 17.271C12.4142 17.271 12.75 16.9352 12.75 16.521V11.5817L14.4697 13.3013C14.7626 13.5942 15.2374 13.5942 15.5303 13.3013C15.8232 13.0084 15.8232 12.5336 15.5303 12.2407L12.5303 9.24067Z" fill="#868E96"/>
</svg>
