<svg width="24" height="25" viewBox="0 0 24 25" fill="none" xmlns="http://www.w3.org/2000/svg">
<path fill-rule="evenodd" clip-rule="evenodd" d="M21.751 12.0204C21.751 12.4346 21.4152 12.7704 21.001 12.7704L20.2173 12.7704C20.1755 13.2345 20.0952 13.6876 19.9797 14.1264L20.7148 14.3939C21.104 14.5356 21.3047 14.966 21.163 15.3552C21.0214 15.7445 20.591 15.9452 20.2017 15.8035L19.4666 15.5359C19.2697 15.9534 19.0387 16.3518 18.7773 16.7273L19.3775 17.2309C19.6948 17.4972 19.7362 17.9702 19.4699 18.2876C19.2037 18.6049 18.7306 18.6462 18.4133 18.38L17.8126 17.8759C17.4868 18.1993 17.1342 18.4956 16.7585 18.7613L17.1504 19.4402C17.3575 19.7989 17.2346 20.2576 16.8759 20.4647C16.5172 20.6718 16.0585 20.5489 15.8514 20.1902L15.46 19.5124C15.0462 19.7038 14.6139 19.8619 14.1664 19.9833L14.3023 20.7542C14.3743 21.1621 14.1019 21.5511 13.694 21.623C13.286 21.695 12.897 21.4226 12.8251 21.0147L12.6889 20.2421C12.4621 20.2608 12.2326 20.2704 12.001 20.2704C11.7693 20.2704 11.5398 20.2608 11.3129 20.2421L11.1767 21.0146C11.1047 21.4225 10.7157 21.6949 10.3078 21.623C9.89989 21.5511 9.62752 21.1621 9.69944 20.7541L9.83538 19.9832C9.38796 19.8618 8.95564 19.7037 8.54186 19.5124L8.1504 20.1904C7.94329 20.5491 7.4846 20.672 7.12588 20.4649C6.76716 20.2578 6.64425 19.7991 6.85136 19.4404L7.24345 18.7613C6.86779 18.4957 6.51531 18.1994 6.18965 17.8762L5.58854 18.3806C5.27123 18.6469 4.79817 18.6055 4.53191 18.2882C4.26566 17.9709 4.30705 17.4978 4.62436 17.2315L5.22485 16.7277C4.96334 16.3519 4.73229 15.9534 4.53526 15.5357L3.80005 15.8033C3.41082 15.945 2.98044 15.7443 2.83877 15.3551C2.6971 14.9658 2.89779 14.5355 3.28702 14.3938L4.02217 14.1262C3.90669 13.6875 3.82643 13.2345 3.78461 12.7704L3.00098 12.7704C2.58676 12.7704 2.25098 12.4346 2.25098 12.0204C2.25098 11.6062 2.58676 11.2704 3.00098 11.2704L3.78461 11.2704C3.82643 10.8063 3.90668 10.3533 4.02215 9.91459L3.28727 9.64712C2.89804 9.50545 2.69735 9.07507 2.83902 8.68583C2.98069 8.2966 3.41107 8.09591 3.8003 8.23758L4.53524 8.50507C4.73222 8.08746 4.96321 7.68904 5.22463 7.31339L4.62451 6.80982C4.3072 6.54357 4.26581 6.0705 4.53206 5.7532C4.79831 5.43589 5.27138 5.3945 5.58869 5.66075L6.18938 6.16479C6.51497 5.84163 6.86736 5.54544 7.24293 5.27985L6.85142 4.60179C6.6443 4.24308 6.76719 3.78438 7.1259 3.57726C7.48461 3.37014 7.9433 3.49303 8.15043 3.85174L8.54128 4.52866C8.95516 4.33721 9.38759 4.17905 9.83513 4.05761L9.69945 3.28812C9.62752 2.8802 9.8999 2.4912 10.3078 2.41928C10.7157 2.34735 11.1047 2.61972 11.1767 3.02765L11.3126 3.79869C11.5396 3.77994 11.7692 3.77038 12.001 3.77038C12.2327 3.77038 12.4622 3.77993 12.6892 3.79867L12.8251 3.0276C12.897 2.61968 13.286 2.34731 13.694 2.41923C14.1019 2.49116 14.3743 2.88016 14.3023 3.28808L14.1666 4.05756C14.6142 4.179 15.0467 4.33718 15.4607 4.52865L15.8514 3.85192C16.0585 3.4932 16.5172 3.3703 16.8759 3.5774C17.2346 3.78451 17.3575 4.2432 17.1504 4.60192L16.759 5.27984C17.1347 5.54551 17.4872 5.84181 17.8129 6.16508L18.4132 5.66137C18.7305 5.39512 19.2035 5.43651 19.4698 5.75382C19.736 6.07112 19.6946 6.54419 19.3773 6.81044L18.7776 7.31372C19.0388 7.68922 19.2697 8.08747 19.4666 8.50489L20.2015 8.23743C20.5907 8.09576 21.0211 8.29645 21.1628 8.68568C21.3044 9.07491 21.1038 9.5053 20.7145 9.64697L19.9797 9.9144C20.0952 10.3532 20.1755 10.8062 20.2173 11.2704L21.001 11.2704C21.4152 11.2704 21.751 11.6062 21.751 12.0204ZM18.7098 11.2704C18.6519 10.7468 18.5341 10.2412 18.3635 9.76068C18.3564 9.74472 18.3498 9.72841 18.3437 9.71174C18.3376 9.69511 18.3322 9.67841 18.3274 9.66166C18.0596 8.94361 17.673 8.28343 17.1916 7.70499C17.1848 7.69755 17.1782 7.68995 17.1716 7.68218C17.1653 7.67457 17.1591 7.66688 17.153 7.6591C16.6628 7.08054 16.0768 6.58564 15.4196 6.19887C15.4049 6.1916 15.3903 6.18381 15.3759 6.17548C15.3611 6.16692 15.3466 6.15794 15.3326 6.14855C14.6884 5.78224 13.978 5.51888 13.2238 5.38086C13.2069 5.37905 13.19 5.37665 13.173 5.37366C13.1566 5.37076 13.1403 5.36734 13.1243 5.36343C12.759 5.30223 12.3837 5.27038 12.001 5.27038C11.6182 5.27038 11.2429 5.30223 10.8776 5.36344C10.8615 5.36736 10.8453 5.37079 10.8288 5.3737C10.8117 5.3767 10.7948 5.3791 10.7778 5.38092C10.2606 5.47558 9.76406 5.62919 9.29529 5.83452L12.434 11.2704L18.7098 11.2704ZM11.1349 12.0204L7.99692 6.58568C7.56997 6.90076 7.18148 7.26495 6.83978 7.66991C6.83663 7.67381 6.83344 7.6777 6.8302 7.68156C6.8268 7.6856 6.82338 7.6896 6.81992 7.69356C6.33374 8.2751 5.94364 8.93973 5.67403 9.66305C5.6693 9.67939 5.66399 9.69568 5.65809 9.71189C5.65218 9.72814 5.64577 9.74405 5.63887 9.75962C5.38771 10.4664 5.25098 11.2274 5.25098 12.0204C5.25098 12.8147 5.38819 13.577 5.64021 14.2849C5.64651 14.2993 5.65239 14.314 5.65785 14.329C5.66329 14.344 5.66823 14.359 5.67267 14.3741C6.13421 15.6145 6.95003 16.6825 7.99713 17.4552L11.1349 12.0204ZM9.29554 18.2063L12.434 12.7704L18.7098 12.7704C18.6517 13.2953 18.5335 13.8021 18.3622 14.2837C18.3556 14.2986 18.3496 14.3137 18.3439 14.3292C18.3383 14.3446 18.3333 14.36 18.3287 14.3756C18.0589 15.1002 17.6682 15.766 17.181 16.3484C17.1779 16.3519 17.1749 16.3556 17.1718 16.3592C17.1689 16.3626 17.166 16.3661 17.1632 16.3696C16.6662 16.9589 16.0702 17.4619 15.4008 17.8529C15.3925 17.8573 15.3842 17.8619 15.3759 17.8667C15.3673 17.8716 15.3589 17.8767 15.3505 17.882C14.6938 18.2581 13.9677 18.527 13.1963 18.6649C13.1885 18.666 13.1808 18.6672 13.173 18.6686C13.1658 18.6699 13.1586 18.6712 13.1515 18.6727C12.7776 18.7369 12.3932 18.7704 12.001 18.7704C11.6088 18.7704 11.2244 18.7369 10.8506 18.6727C10.8434 18.6712 10.8361 18.6699 10.8288 18.6686C10.8209 18.6672 10.8131 18.6659 10.8052 18.6648C10.2783 18.5706 9.7725 18.4152 9.29554 18.2063Z" fill="#868E96"/>
</svg>
