<svg width="24" height="25" viewBox="0 0 24 25" fill="none" xmlns="http://www.w3.org/2000/svg">
<path fill-rule="evenodd" clip-rule="evenodd" d="M11.828 2.271C10.9115 2.271 10.1292 2.93364 9.97854 3.83775L9.88699 4.38701C9.84017 4.66795 9.63707 4.89507 9.37035 4.99494C9.20811 5.05569 9.04853 5.1219 8.89184 5.19334C8.63259 5.31155 8.32822 5.29462 8.09636 5.12901L7.64299 4.80518C6.89714 4.27243 5.87546 4.35699 5.22734 5.0051L4.98413 5.24832C4.33601 5.89643 4.25145 6.91812 4.7842 7.66397L5.10803 8.11732C5.27364 8.34918 5.29057 8.65356 5.17236 8.91281C5.10091 9.0695 5.0347 9.22909 4.97395 9.39133C4.87408 9.65805 4.64695 9.86115 4.36602 9.90797L3.81675 9.99952C2.91265 10.1502 2.25 10.9324 2.25 11.849V12.193C2.25 13.1095 2.91265 13.8918 3.81675 14.0425L4.36602 14.134C4.64695 14.1808 4.87407 14.3839 4.97395 14.6506C5.03469 14.8129 5.1009 14.9725 5.17234 15.1291C5.29056 15.3884 5.27362 15.6928 5.10801 15.9246L4.78416 16.378C4.25141 17.1239 4.33597 18.1456 4.98408 18.7937L5.2273 19.0369C5.87541 19.685 6.8971 19.7696 7.64295 19.2368L8.09633 18.913C8.32819 18.7474 8.63256 18.7304 8.89182 18.8486C9.04851 18.9201 9.20809 18.9863 9.37034 19.047C9.63706 19.1469 9.84016 19.374 9.88698 19.655L9.97852 20.2042C10.1292 21.1083 10.9114 21.771 11.828 21.771H12.172C13.0885 21.771 13.8708 21.1083 14.0215 20.2042L14.113 19.655C14.1598 19.374 14.3629 19.1469 14.6297 19.0471C14.7919 18.9863 14.9515 18.9201 15.1082 18.8486C15.3674 18.7304 15.6718 18.7474 15.9036 18.913L16.357 19.2368C17.1029 19.7696 18.1245 19.685 18.7727 19.0369L19.0159 18.7937C19.664 18.1456 19.7485 17.1239 19.2158 16.378L18.892 15.9247C18.7264 15.6928 18.7094 15.3884 18.8276 15.1292C18.8991 14.9725 18.9653 14.8129 19.026 14.6507C19.1259 14.3839 19.353 14.1808 19.634 14.134L20.1832 14.0425C21.0873 13.8918 21.75 13.1096 21.75 12.193V11.849C21.75 10.9324 21.0874 10.1502 20.1832 9.99953L19.634 9.90799C19.3531 9.86117 19.1259 9.65807 19.0261 9.39134C18.9653 9.2291 18.8991 9.06953 18.8277 8.91285C18.7094 8.65359 18.7264 8.34922 18.892 8.11736L19.2158 7.66396C19.7486 6.91812 19.664 5.89643 19.0159 5.24832L18.7727 5.0051C18.1246 4.35698 17.1029 4.27243 16.3571 4.80517L15.9037 5.12902C15.6718 5.29464 15.3674 5.31157 15.1082 5.19335C14.9515 5.12191 14.7919 5.0557 14.6297 4.99495C14.3629 4.89508 14.1598 4.66795 14.113 4.38702L14.0215 3.83775C13.8708 2.93365 13.0886 2.271 12.172 2.271H11.828ZM12 15.771C14.0711 15.771 15.75 14.0921 15.75 12.021C15.75 9.94993 14.0711 8.271 12 8.271C9.92893 8.271 8.25 9.94993 8.25 12.021C8.25 14.0921 9.92893 15.771 12 15.771Z" fill="#868E96"/>
</svg>
