<svg width="24" height="25" viewBox="0 0 24 25" fill="none" xmlns="http://www.w3.org/2000/svg">
<path fill-rule="evenodd" clip-rule="evenodd" d="M8.85353 3.83775C9.00421 2.93365 9.78644 2.271 10.703 2.271H13.297C14.2136 2.271 14.9958 2.93365 15.1465 3.83775L15.36 5.1188C15.3789 5.23229 15.463 5.36411 15.6275 5.45518C15.7099 5.50081 15.7914 5.54794 15.8719 5.59654C16.0328 5.69372 16.1891 5.70074 16.297 5.66032L17.5139 5.20444C18.3722 4.88289 19.3372 5.22899 19.7955 6.02277L21.0924 8.26921C21.5507 9.06298 21.368 10.0717 20.6603 10.6543L19.656 11.4811C19.5671 11.5543 19.4952 11.6927 19.4987 11.8796C19.4996 11.9267 19.5 11.9738 19.5 12.021C19.5 12.0682 19.4996 12.1153 19.4987 12.1623C19.4952 12.3493 19.5671 12.4877 19.656 12.5609L20.6603 13.3877C21.368 13.9702 21.5507 14.979 21.0924 15.7728L19.7955 18.0192C19.3372 18.813 18.3722 19.1591 17.5139 18.8375L16.297 18.3817C16.1891 18.3412 16.0328 18.3483 15.8719 18.4454C15.7914 18.494 15.7099 18.5412 15.6275 18.5868C15.463 18.6779 15.3789 18.8097 15.36 18.9232L15.1465 20.2042C14.9958 21.1083 14.2136 21.771 13.297 21.771H10.703C9.78644 21.771 9.00421 21.1083 8.85353 20.2042L8.64002 18.9232C8.62111 18.8097 8.53703 18.6779 8.37251 18.5868C8.29008 18.5412 8.20861 18.4941 8.12812 18.4455C7.96719 18.3483 7.81089 18.3413 7.703 18.3817L6.48613 18.8376C5.62781 19.1591 4.66282 18.813 4.20454 18.0192L2.90756 15.7728C2.44927 14.979 2.63203 13.9703 3.33966 13.3877L3.81634 13.9667L3.33966 13.3877L4.34401 12.5609C4.43291 12.4877 4.50477 12.3493 4.50131 12.1624C4.50044 12.1153 4.5 12.0682 4.5 12.021C4.5 11.9738 4.50044 11.9267 4.50131 11.8797C4.50477 11.6927 4.43291 11.5543 4.34401 11.4811L3.33966 10.6543C2.63203 10.0718 2.44927 9.063 2.90756 8.26922L4.20454 6.02278C4.66282 5.22901 5.62781 4.8829 6.48613 5.20446L7.70298 5.66033C7.81087 5.70075 7.96717 5.69373 8.12811 5.59655C8.2086 5.54795 8.29008 5.50081 8.37251 5.45518C8.53703 5.36411 8.62111 5.23229 8.64002 5.1188L8.85353 3.83775ZM10.703 3.771C10.5197 3.771 10.3633 3.90353 10.3331 4.08435L10.1196 5.36539C10.0138 5.99999 9.59798 6.4913 9.09896 6.76753C9.03303 6.80402 8.96787 6.84172 8.90348 6.8806C8.41435 7.17596 7.77998 7.29099 7.17675 7.06499L5.95989 6.60912C5.78823 6.54481 5.59523 6.61403 5.50358 6.77278L4.20659 9.01922C4.11494 9.17798 4.15149 9.37973 4.29301 9.49624L5.29737 10.3231C5.79348 10.7315 6.01162 11.3367 6.00105 11.9074C6.00035 11.9452 6 11.983 6 12.021C6 12.059 6.00035 12.0968 6.00105 12.1346C6.01162 12.7053 5.79348 13.3105 5.29737 13.719L4.29302 14.5458L3.96067 14.1421L4.29302 14.5458C4.15149 14.6623 4.11494 14.864 4.20659 15.0228L5.50358 17.2692C5.59523 17.428 5.78823 17.4972 5.95989 17.4329L7.17676 16.977C7.78 16.751 8.41436 16.866 8.90349 17.1614C8.96787 17.2003 9.03304 17.238 9.09896 17.2745C9.59798 17.5507 10.0138 18.042 10.1196 18.6766L10.3331 19.9576C10.3633 20.1385 10.5197 20.271 10.703 20.271H13.297C13.4803 20.271 13.6367 20.1385 13.6669 19.9576L13.8804 18.6766C13.9862 18.042 14.402 17.5507 14.901 17.2745C14.967 17.238 15.0321 17.2003 15.0965 17.1614C15.5856 16.866 16.22 16.751 16.8232 16.977L18.0401 17.4329C18.2118 17.4972 18.4048 17.428 18.4964 17.2692L19.7934 15.0228C19.8851 14.864 19.8485 14.6623 19.707 14.5458L18.7026 13.7189C18.2065 13.3105 17.9884 12.7053 17.9989 12.1346C17.9996 12.0968 18 12.059 18 12.021C18 11.983 17.9996 11.9452 17.9989 11.9074C17.9884 11.3367 18.2065 10.7315 18.7026 10.323L19.707 9.49622C19.8485 9.37971 19.8851 9.17796 19.7934 9.01921L18.4964 6.77277C18.4048 6.61401 18.2118 6.54479 18.0401 6.6091L16.8232 7.06498C16.22 7.29098 15.5856 7.17595 15.0965 6.8806C15.0321 6.84172 14.967 6.80402 14.901 6.76753C14.402 6.4913 13.9862 5.99999 13.8804 5.36539L13.6669 4.08435C13.6367 3.90353 13.4803 3.771 13.297 3.771H10.703ZM11.9998 9.77092C10.7571 9.77092 9.74977 10.7783 9.74977 12.0209C9.74977 13.2636 10.7571 14.2709 11.9998 14.2709C13.2424 14.2709 14.2498 13.2636 14.2498 12.0209C14.2498 10.7783 13.2424 9.77092 11.9998 9.77092ZM8.24977 12.0209C8.24977 9.94985 9.9287 8.27092 11.9998 8.27092C14.0708 8.27092 15.7498 9.94985 15.7498 12.0209C15.7498 14.092 14.0708 15.7709 11.9998 15.7709C9.9287 15.7709 8.24977 14.092 8.24977 12.0209Z" fill="#868E96"/>
</svg>
