<svg width="24" height="24" viewBox="0 0 24 24" fill="none" xmlns="http://www.w3.org/2000/svg">
<path fill-rule="evenodd" clip-rule="evenodd" d="M2.25 6.00488C2.25 4.34803 3.59315 3.00488 5.25 3.00488H18.75C20.4069 3.00488 21.75 4.34803 21.75 6.00488V18.0049C21.75 19.6617 20.4069 21.0049 18.75 21.0049H5.25C3.59315 21.0049 2.25 19.6617 2.25 18.0049V6.00488ZM6.21967 6.97455C6.51256 6.68166 6.98744 6.68166 7.28033 6.97455L9.53033 9.22455C9.82322 9.51745 9.82322 9.99232 9.53033 10.2852L7.28033 12.5352C6.98744 12.8281 6.51256 12.8281 6.21967 12.5352C5.92678 12.2423 5.92678 11.7674 6.21967 11.4746L7.93934 9.75488L6.21967 8.03521C5.92678 7.74232 5.92678 7.26745 6.21967 6.97455ZM10.5 11.2549C10.0858 11.2549 9.75 11.5907 9.75 12.0049C9.75 12.4191 10.0858 12.7549 10.5 12.7549H13.5C13.9142 12.7549 14.25 12.4191 14.25 12.0049C14.25 11.5907 13.9142 11.2549 13.5 11.2549H10.5Z" fill="#868E96"/>
</svg>
