<svg width="24" height="24" viewBox="0 0 24 24" fill="none" xmlns="http://www.w3.org/2000/svg">
<path d="M10.5 18.0068C10.0858 18.0068 9.75 18.3426 9.75 18.7568C9.75 19.171 10.0858 19.5068 10.5 19.5068H13.5C13.9142 19.5068 14.25 19.171 14.25 18.7568C14.25 18.3426 13.9142 18.0068 13.5 18.0068H10.5Z" fill="#868E96"/>
<path fill-rule="evenodd" clip-rule="evenodd" d="M7.125 1.50684C5.26104 1.50684 3.75 3.01788 3.75 4.88184V19.1318C3.75 20.9958 5.26104 22.5068 7.125 22.5068H16.875C18.739 22.5068 20.25 20.9958 20.25 19.1318V4.88184C20.25 3.01787 18.739 1.50684 16.875 1.50684H7.125ZM6 4.88184C6 4.26052 6.50368 3.75684 7.125 3.75684H16.875C17.4963 3.75684 18 4.26052 18 4.88184V19.1318C18 19.7532 17.4963 20.2568 16.875 20.2568H7.125C6.50368 20.2568 6 19.7532 6 19.1318V4.88184Z" fill="#868E96"/>
</svg>
