<svg width="24" height="24" viewBox="0 0 24 24" fill="none" xmlns="http://www.w3.org/2000/svg">
<g clip-path="url(#clip0_394_22749)">
<path d="M10.5 18.7568C10.0858 18.7568 9.75 19.0926 9.75 19.5068C9.75 19.921 10.0858 20.2568 10.5 20.2568H13.5C13.9142 20.2568 14.25 19.921 14.25 19.5068C14.25 19.0926 13.9142 18.7568 13.5 18.7568H10.5Z" fill="#868E96"/>
<path fill-rule="evenodd" clip-rule="evenodd" d="M8.625 0.756836C6.76104 0.756836 5.25 2.26787 5.25 4.13184V19.8818C5.25 21.7458 6.76104 23.2568 8.625 23.2568H15.375C17.239 23.2568 18.75 21.7458 18.75 19.8818V4.13184C18.75 2.26787 17.239 0.756836 15.375 0.756836H8.625ZM7.5 4.13184C7.5 3.51052 8.00368 3.00684 8.625 3.00684H9.75V3.38184C9.75 4.00316 10.2537 4.50684 10.875 4.50684H13.125C13.7463 4.50684 14.25 4.00316 14.25 3.38184V3.00684H15.375C15.9963 3.00684 16.5 3.51052 16.5 4.13184V19.8818C16.5 20.5032 15.9963 21.0068 15.375 21.0068H8.625C8.00368 21.0068 7.5 20.5032 7.5 19.8818V4.13184Z" fill="#868E96"/>
</g>
<defs>
<clipPath id="clip0_394_22749">
<rect width="24" height="24" fill="white" transform="translate(0 0.00683594)"/>
</clipPath>
</defs>
</svg>
