<svg width="24" height="24" viewBox="0 0 24 24" fill="none" xmlns="http://www.w3.org/2000/svg">
<path fill-rule="evenodd" clip-rule="evenodd" d="M10.8732 5.25541C10.8732 4.63415 11.3768 4.13037 11.9982 4.13037C12.6196 4.13037 13.1232 4.63415 13.1232 5.25541C13.1232 5.87667 12.6196 6.38044 11.9982 6.38044C11.3768 6.38044 10.8732 5.87666 10.8732 5.25541ZM3.74805 12.0056C3.74805 11.5914 4.08383 11.2556 4.49805 11.2556H19.4978C19.912 11.2556 20.2478 11.5914 20.2478 12.0056C20.2478 12.4198 19.912 12.7556 19.4978 12.7556H4.49805C4.08383 12.7556 3.74805 12.4198 3.74805 12.0056ZM10.8739 18.7583C10.8739 18.137 11.3775 17.6332 11.9989 17.6332C12.6202 17.6332 13.1238 18.137 13.1238 18.7583C13.1238 19.3795 12.6202 19.8833 11.9989 19.8833C11.3775 19.8833 10.8739 19.3795 10.8739 18.7583Z" fill="#868E96"/>
</svg>
