<svg width="24" height="24" viewBox="0 0 24 24" fill="none" xmlns="http://www.w3.org/2000/svg">
<path fill-rule="evenodd" clip-rule="evenodd" d="M10.8727 5.25545C10.8727 4.63415 11.3764 4.13037 11.9977 4.13037C12.6191 4.13037 13.1228 4.63415 13.1228 5.25545C13.1228 5.87675 12.6191 6.38052 11.9977 6.38052C11.3764 6.38052 10.8727 5.87675 10.8727 5.25545ZM3.74756 12.0057C3.74756 11.5914 4.08335 11.2556 4.49758 11.2556H19.4973C19.9115 11.2556 20.2473 11.5914 20.2473 12.0057C20.2473 12.4199 19.9115 12.7557 19.4973 12.7557H4.49758C4.08335 12.7557 3.74756 12.4199 3.74756 12.0057ZM10.8734 18.7583C10.8734 18.137 11.377 17.6332 11.9984 17.6332C12.6198 17.6332 13.1234 18.137 13.1234 18.7583C13.1234 19.3796 12.6198 19.8834 11.9984 19.8834C11.377 19.8834 10.8734 19.3796 10.8734 18.7583Z" fill="#868E96"/>
</svg>
