<svg width="24" height="24" viewBox="0 0 24 24" fill="none" xmlns="http://www.w3.org/2000/svg">
<path fill-rule="evenodd" clip-rule="evenodd" d="M5.625 1.50928H9C11.0711 1.50928 12.75 3.18821 12.75 5.25928V7.13428C12.75 8.16981 13.5895 9.00928 14.625 9.00928H16.5C18.5711 9.00928 20.25 10.6882 20.25 12.7593V20.6343C20.25 21.6698 19.4105 22.5093 18.375 22.5093H5.625C4.58947 22.5093 3.75 21.6698 3.75 20.6343V3.38428C3.75 2.34874 4.58947 1.50928 5.625 1.50928ZM9.75 17.2593C9.75 16.8451 9.41421 16.5093 9 16.5093C8.58579 16.5093 8.25 16.8451 8.25 17.2593V18.0093C8.25 18.4235 8.58579 18.7593 9 18.7593C9.41421 18.7593 9.75 18.4235 9.75 18.0093V17.2593ZM12 14.2593C12.4142 14.2593 12.75 14.5951 12.75 15.0093V18.0093C12.75 18.4235 12.4142 18.7593 12 18.7593C11.5858 18.7593 11.25 18.4235 11.25 18.0093V15.0093C11.25 14.5951 11.5858 14.2593 12 14.2593ZM15.75 12.7593C15.75 12.3451 15.4142 12.0093 15 12.0093C14.5858 12.0093 14.25 12.3451 14.25 12.7593V18.0093C14.25 18.4235 14.5858 18.7593 15 18.7593C15.4142 18.7593 15.75 18.4235 15.75 18.0093V12.7593Z" fill="#868E96"/>
<path d="M14.25 5.25928C14.25 3.94622 13.768 2.74576 12.9712 1.82518C16.3701 2.71305 19.0462 5.38915 19.9341 8.78808C19.0135 7.99132 17.8131 7.50928 16.5 7.50928H14.625C14.4179 7.50928 14.25 7.34138 14.25 7.13428V5.25928Z" fill="#868E96"/>
</svg>
