<svg width="24" height="25" viewBox="0 0 24 25" fill="none" xmlns="http://www.w3.org/2000/svg">
<path fill-rule="evenodd" clip-rule="evenodd" d="M5.625 1.51172H9C11.0711 1.51172 12.75 3.19065 12.75 5.26172V7.13672C12.75 8.17225 13.5895 9.01172 14.625 9.01172H16.5C18.5711 9.01172 20.25 10.6907 20.25 12.7617V20.6367C20.25 21.6723 19.4105 22.5117 18.375 22.5117H5.625C4.58947 22.5117 3.75 21.6723 3.75 20.6367V3.38672C3.75 2.35118 4.58947 1.51172 5.625 1.51172ZM9.75 14.2617C9.33579 14.2617 9 14.5975 9 15.0117C9 15.4259 9.33579 15.7617 9.75 15.7617H15C15.4142 15.7617 15.75 15.4259 15.75 15.0117C15.75 14.5975 15.4142 14.2617 15 14.2617H9.75Z" fill="#868E96"/>
<path d="M14.25 5.26172C14.25 3.94866 13.768 2.7482 12.9712 1.82762C16.3701 2.71549 19.0462 5.3916 19.9341 8.79053C19.0135 7.99376 17.8131 7.51172 16.5 7.51172H14.625C14.4179 7.51172 14.25 7.34383 14.25 7.13672V5.26172Z" fill="#868E96"/>
</svg>
