<svg width="24" height="25" viewBox="0 0 24 25" fill="none" xmlns="http://www.w3.org/2000/svg">
<path fill-rule="evenodd" clip-rule="evenodd" d="M5.625 1.51172C4.58947 1.51172 3.75 2.35118 3.75 3.38672V20.6367C3.75 21.6723 4.58947 22.5117 5.625 22.5117H18.375C19.4105 22.5117 20.25 21.6723 20.25 20.6367V12.7617C20.25 10.6907 18.5711 9.01172 16.5 9.01172H14.625C13.5895 9.01172 12.75 8.17225 12.75 7.13672V5.26172C12.75 3.19065 11.0711 1.51172 9 1.51172H5.625ZM7.5 15.0117C7.5 14.5975 7.83579 14.2617 8.25 14.2617H15.75C16.1642 14.2617 16.5 14.5975 16.5 15.0117C16.5 15.4259 16.1642 15.7617 15.75 15.7617H8.25C7.83579 15.7617 7.5 15.4259 7.5 15.0117ZM8.25 17.2617C7.83579 17.2617 7.5 17.5975 7.5 18.0117C7.5 18.4259 7.83579 18.7617 8.25 18.7617H12C12.4142 18.7617 12.75 18.4259 12.75 18.0117C12.75 17.5975 12.4142 17.2617 12 17.2617H8.25Z" fill="#868E96"/>
<path d="M12.9712 1.82762C13.768 2.7482 14.25 3.94866 14.25 5.26172V7.13672C14.25 7.34383 14.4179 7.51172 14.625 7.51172H16.5C17.8131 7.51172 19.0135 7.99376 19.9341 8.79053C19.0462 5.3916 16.3701 2.71549 12.9712 1.82762Z" fill="#868E96"/>
</svg>
