<svg width="24" height="25" viewBox="0 0 24 25" fill="none" xmlns="http://www.w3.org/2000/svg">
<path fill-rule="evenodd" clip-rule="evenodd" d="M5.625 3.01172C5.41789 3.01172 5.25 3.17961 5.25 3.38672V20.6367C5.25 20.8438 5.41789 21.0117 5.625 21.0117H18.375C18.5821 21.0117 18.75 20.8438 18.75 20.6367V11.6367C18.75 10.187 17.5747 9.01172 16.125 9.01172H14.625C13.5895 9.01172 12.75 8.17225 12.75 7.13672V5.63672C12.75 4.18697 11.5747 3.01172 10.125 3.01172H5.625ZM5.625 1.51172C4.58947 1.51172 3.75 2.35118 3.75 3.38672V20.6367C3.75 21.6723 4.58947 22.5117 5.625 22.5117H18.375C19.4105 22.5117 20.25 21.6723 20.25 20.6367V11.2617C20.25 5.87694 15.8848 1.51172 10.5 1.51172H5.625ZM13.757 3.67957C14.0715 4.26191 14.25 4.92847 14.25 5.63672V7.13672C14.25 7.34383 14.4179 7.51172 14.625 7.51172H16.125C16.8332 7.51172 17.4998 7.69022 18.0822 8.00467C17.2488 6.06721 15.6945 4.51295 13.757 3.67957ZM12 10.5117C12.4142 10.5117 12.75 10.8475 12.75 11.2617V13.5117H15C15.4142 13.5117 15.75 13.8475 15.75 14.2617C15.75 14.6759 15.4142 15.0117 15 15.0117H12.75V17.2617C12.75 17.6759 12.4142 18.0117 12 18.0117C11.5858 18.0117 11.25 17.6759 11.25 17.2617V15.0117H9C8.58579 15.0117 8.25 14.6759 8.25 14.2617C8.25 13.8475 8.58579 13.5117 9 13.5117H11.25V11.2617C11.25 10.8475 11.5858 10.5117 12 10.5117Z" fill="#868E96"/>
</svg>
