<svg width="24" height="24" viewBox="0 0 24 24" fill="none" xmlns="http://www.w3.org/2000/svg">
<path fill-rule="evenodd" clip-rule="evenodd" d="M5.62305 3.00684C5.41594 3.00684 5.24805 3.17473 5.24805 3.38184V20.6318C5.24805 20.8389 5.41594 21.0068 5.62305 21.0068H18.373C18.5802 21.0068 18.748 20.8389 18.748 20.6318V11.6318C18.748 10.1821 17.5728 9.00684 16.123 9.00684H14.623C13.5875 9.00684 12.748 8.16737 12.748 7.13184V5.63184C12.748 4.18209 11.5728 3.00684 10.123 3.00684H5.62305ZM5.62305 1.50684C4.58751 1.50684 3.74805 2.3463 3.74805 3.38184V20.6318C3.74805 21.6674 4.58751 22.5068 5.62305 22.5068H18.373C19.4086 22.5068 20.248 21.6674 20.248 20.6318V11.2568C20.248 5.87206 15.8828 1.50684 10.498 1.50684H5.62305ZM13.7551 3.67469C14.0696 4.25703 14.248 4.92359 14.248 5.63184V7.13184C14.248 7.33894 14.4159 7.50684 14.623 7.50684H16.123C16.8313 7.50684 17.4979 7.68533 18.0802 7.99979C17.2468 6.06233 15.6926 4.50806 13.7551 3.67469ZM11.998 10.5068C12.4123 10.5068 12.748 10.8426 12.748 11.2568L12.748 15.4462L14.4677 13.7265C14.7606 13.4336 15.2355 13.4336 15.5284 13.7265C15.8213 14.0194 15.8213 14.4943 15.5284 14.7872L12.5284 17.7872C12.3877 17.9278 12.197 18.0068 11.998 18.0068C11.7991 18.0068 11.6084 17.9278 11.4677 17.7872L8.46772 14.7872C8.17482 14.4943 8.17482 14.0194 8.46772 13.7265C8.76061 13.4336 9.23548 13.4336 9.52838 13.7265L11.248 15.4462L11.248 11.2568C11.248 10.8426 11.5838 10.5068 11.998 10.5068Z" fill="#868E96"/>
</svg>
