<svg width="24" height="25" viewBox="0 0 24 25" fill="none" xmlns="http://www.w3.org/2000/svg">
<path d="M7.5 3.38672C7.5 2.35118 8.33947 1.51172 9.375 1.51172H9.75C11.8211 1.51172 13.5 3.19065 13.5 5.26172V7.13672C13.5 8.17225 14.3395 9.01172 15.375 9.01172H17.25C19.3211 9.01172 21 10.6907 21 12.7617V16.1367C21 17.1723 20.1605 18.0117 19.125 18.0117H9.375C8.33947 18.0117 7.5 17.1723 7.5 16.1367V3.38672Z" fill="#868E96"/>
<path d="M15 5.26172C15 3.94866 14.518 2.7482 13.7212 1.82762C17.1201 2.71549 19.7962 5.3916 20.6841 8.79053C19.7635 7.99376 18.5631 7.51172 17.25 7.51172H15.375C15.1679 7.51172 15 7.34383 15 7.13672V5.26172Z" fill="#868E96"/>
<path d="M4.875 6.01172H6V16.1367C6 18.0007 7.51104 19.5117 9.375 19.5117H16.5V20.6367C16.5 21.6723 15.6605 22.5117 14.625 22.5117H4.875C3.83947 22.5117 3 21.6723 3 20.6367V7.88672C3 6.85118 3.83947 6.01172 4.875 6.01172Z" fill="#868E96"/>
</svg>
