<svg width="24" height="24" viewBox="0 0 24 24" fill="none" xmlns="http://www.w3.org/2000/svg">
<path fill-rule="evenodd" clip-rule="evenodd" d="M8.99902 1.50928H5.62402C4.58849 1.50928 3.74902 2.34874 3.74902 3.38428V20.6343C3.74902 21.6698 4.58849 22.5093 5.62402 22.5093H18.374C19.4096 22.5093 20.249 21.6698 20.249 20.6343V12.7593C20.249 10.6882 18.5701 9.00928 16.499 9.00928H14.624C13.5885 9.00928 12.749 8.16981 12.749 7.13428V5.25928C12.749 3.18821 11.0701 1.50928 8.99902 1.50928ZM15.6093 12.4452C15.8501 12.1081 15.772 11.6397 15.435 11.399C15.0979 11.1582 14.6295 11.2363 14.3887 11.5733L11.1533 16.1029L9.52935 14.4789C9.23646 14.1861 8.76159 14.1861 8.46869 14.4789C8.1758 14.7718 8.1758 15.2467 8.46869 15.5396L10.7187 17.7896C10.8746 17.9455 11.0912 18.0249 11.3109 18.0067C11.5306 17.9885 11.7312 17.8746 11.8593 17.6952L15.6093 12.4452Z" fill="#868E96"/>
<path d="M12.9702 1.82518C13.767 2.74576 14.249 3.94622 14.249 5.25928V7.13428C14.249 7.34138 14.4169 7.50928 14.624 7.50928H16.499C17.8121 7.50928 19.0125 7.99132 19.9331 8.78808C19.0452 5.38915 16.3691 2.71305 12.9702 1.82518Z" fill="#868E96"/>
</svg>
