<svg width="24" height="25" viewBox="0 0 24 25" fill="none" xmlns="http://www.w3.org/2000/svg">
<path fill-rule="evenodd" clip-rule="evenodd" d="M12 2.26172C6.61522 2.26172 2.25 6.62694 2.25 12.0117C2.25 17.3965 6.61522 21.7617 12 21.7617C17.3848 21.7617 21.75 17.3965 21.75 12.0117C21.75 6.62694 17.3848 2.26172 12 2.26172ZM12 10.8867C11.3787 10.8867 10.875 11.3904 10.875 12.0117C10.875 12.633 11.3787 13.1367 12 13.1367C12.6213 13.1367 13.125 12.633 13.125 12.0117C13.125 11.3904 12.6213 10.8867 12 10.8867ZM15.375 12.0117C15.375 11.3904 15.8787 10.8867 16.5 10.8867C17.1213 10.8867 17.625 11.3904 17.625 12.0117C17.625 12.633 17.1213 13.1367 16.5 13.1367C15.8787 13.1367 15.375 12.633 15.375 12.0117ZM7.5 10.8867C6.87868 10.8867 6.375 11.3904 6.375 12.0117C6.375 12.633 6.87868 13.1367 7.5 13.1367C8.12132 13.1367 8.625 12.633 8.625 12.0117C8.625 11.3904 8.12132 10.8867 7.5 10.8867Z" fill="#868E96"/>
</svg>
