<svg width="24" height="25" viewBox="0 0 24 25" fill="none" xmlns="http://www.w3.org/2000/svg">
<path fill-rule="evenodd" clip-rule="evenodd" d="M12 3.76172C7.44365 3.76172 3.75 7.45537 3.75 12.0117C3.75 16.5681 7.44365 20.2617 12 20.2617C16.5563 20.2617 20.25 16.5681 20.25 12.0117C20.25 7.45537 16.5563 3.76172 12 3.76172ZM2.25 12.0117C2.25 6.62694 6.61522 2.26172 12 2.26172C17.3848 2.26172 21.75 6.62694 21.75 12.0117C21.75 17.3965 17.3848 21.7617 12 21.7617C6.61522 21.7617 2.25 17.3965 2.25 12.0117ZM7.125 12.0117C7.125 11.3904 7.62868 10.8867 8.25 10.8867C8.87132 10.8867 9.375 11.3904 9.375 12.0117C9.375 12.633 8.87132 13.1367 8.25 13.1367C7.62868 13.1367 7.125 12.633 7.125 12.0117ZM10.875 12.0117C10.875 11.3904 11.3787 10.8867 12 10.8867C12.6213 10.8867 13.125 11.3904 13.125 12.0117C13.125 12.633 12.6213 13.1367 12 13.1367C11.3787 13.1367 10.875 12.633 10.875 12.0117ZM14.625 12.0117C14.625 11.3904 15.1287 10.8867 15.75 10.8867C16.3713 10.8867 16.875 11.3904 16.875 12.0117C16.875 12.633 16.3713 13.1367 15.75 13.1367C15.1287 13.1367 14.625 12.633 14.625 12.0117Z" fill="#868E96"/>
</svg>
