<svg width="24" height="25" viewBox="0 0 24 25" fill="none" xmlns="http://www.w3.org/2000/svg">
<path fill-rule="evenodd" clip-rule="evenodd" d="M10.5777 2.17597C11.4656 1.69785 12.5344 1.69785 13.4223 2.17597L20.9223 6.21443C21.894 6.73767 22.5 7.7522 22.5 8.85585V19.5119C22.5 21.1688 21.1569 22.5119 19.5 22.5119H4.5C2.84315 22.5119 1.5 21.1688 1.5 19.5119L1.5 9.91859C1.5 9.9184 1.5 9.91878 1.5 9.91859L1.5 9.01193C1.5 9.01183 1.5 9.01203 1.5 9.01193L1.5 8.85584C1.5 7.7522 2.10597 6.73767 3.0777 6.21443L10.5777 2.17597ZM3 12.5161V19.5119C3 20.3404 3.67157 21.0119 4.5 21.0119H19.5C20.3284 21.0119 21 20.3404 21 19.5119V12.5161C20.9744 12.5309 20.9485 12.5453 20.9223 12.5594L15.6712 15.3869L19.1056 17.2362C19.4703 17.4326 19.6067 17.8875 19.4104 18.2522C19.214 18.6169 18.7591 18.7533 18.3944 18.5569L12.7112 15.4967C12.2672 15.2576 11.7328 15.2576 11.2889 15.4967L5.60557 18.5569C5.24087 18.7533 4.78602 18.6169 4.58965 18.2522C4.39327 17.8874 4.52972 17.4326 4.89442 17.2362L8.32879 15.3869L3.0777 12.5594C3.05153 12.5453 3.02563 12.5309 3 12.5161ZM9.91074 14.5351L10.5777 14.176C11.4656 13.6979 12.5344 13.6979 13.4223 14.176L14.0893 14.5351L20.2112 11.2387C20.697 10.9771 21 10.4698 21 9.91802V8.85585C21 8.30402 20.697 7.79676 20.2112 7.53514L12.7112 3.49668C12.2672 3.25762 11.7328 3.25762 11.2889 3.49668L3.78885 7.53514C3.30299 7.79676 3 8.30402 3 8.85584V9.91802C3 9.91789 3 9.91816 3 9.91802C3.00015 10.4697 3.3031 10.9772 3.78885 11.2387L9.91074 14.5351Z" fill="#868E96"/>
</svg>
