<svg width="24" height="25" viewBox="0 0 24 25" fill="none" xmlns="http://www.w3.org/2000/svg">
<path fill-rule="evenodd" clip-rule="evenodd" d="M2.25 12.0137C2.25 6.6289 6.61522 2.26367 12 2.26367C17.3848 2.26367 21.75 6.6289 21.75 12.0137C21.75 17.3984 17.3848 21.7637 12 21.7637C6.61522 21.7637 2.25 17.3984 2.25 12.0137ZM12 8.26367C12.4142 8.26367 12.75 8.59946 12.75 9.01367V12.7637C12.75 13.1779 12.4142 13.5137 12 13.5137C11.5858 13.5137 11.25 13.1779 11.25 12.7637V9.01367C11.25 8.59946 11.5858 8.26367 12 8.26367ZM12 16.5137C12.4142 16.5137 12.75 16.1779 12.75 15.7637C12.75 15.3495 12.4142 15.0137 12 15.0137C11.5858 15.0137 11.25 15.3495 11.25 15.7637C11.25 16.1779 11.5858 16.5137 12 16.5137Z" fill="#868E96"/>
</svg>
