<svg width="24" height="25" viewBox="0 0 24 25" fill="none" xmlns="http://www.w3.org/2000/svg">
<path fill-rule="evenodd" clip-rule="evenodd" d="M13.2992 3.76653C12.7219 2.76597 11.2779 2.76597 10.7006 3.76653L3.34631 16.514C2.76938 17.514 3.4911 18.7636 4.64559 18.7636H19.3542C20.5087 18.7636 21.2304 17.514 20.6535 16.514L13.2992 3.76653ZM9.40136 3.01695C10.5558 1.01584 13.444 1.01584 14.5985 3.01695L21.9528 15.7644C23.1066 17.7644 21.6632 20.2636 19.3542 20.2636H4.64559C2.33661 20.2636 0.893183 17.7644 2.04703 15.7644L9.40136 3.01695ZM11.9999 8.26361C12.4141 8.26361 12.7499 8.5994 12.7499 9.01361V12.7636C12.7499 13.1778 12.4141 13.5136 11.9999 13.5136C11.5857 13.5136 11.2499 13.1778 11.2499 12.7636V9.01361C11.2499 8.5994 11.5857 8.26361 11.9999 8.26361ZM11.2499 15.7636C11.2499 15.3494 11.5857 15.0136 11.9999 15.0136H12.0074C12.4216 15.0136 12.7574 15.3494 12.7574 15.7636V15.7711C12.7574 16.1853 12.4216 16.5211 12.0074 16.5211H11.9999C11.5857 16.5211 11.2499 16.1853 11.2499 15.7711V15.7636Z" fill="#868E96"/>
</svg>
