<svg width="24" height="25" viewBox="0 0 24 25" fill="none" xmlns="http://www.w3.org/2000/svg">
<path fill-rule="evenodd" clip-rule="evenodd" d="M12 3.76367C7.44365 3.76367 3.75 7.45732 3.75 12.0137C3.75 16.57 7.44365 20.2637 12 20.2637C16.5563 20.2637 20.25 16.57 20.25 12.0137C20.25 7.45732 16.5563 3.76367 12 3.76367ZM2.25 12.0137C2.25 6.6289 6.61522 2.26367 12 2.26367C17.3848 2.26367 21.75 6.6289 21.75 12.0137C21.75 17.3984 17.3848 21.7637 12 21.7637C6.61522 21.7637 2.25 17.3984 2.25 12.0137ZM12 8.26367C12.4142 8.26367 12.75 8.59946 12.75 9.01367V12.7637C12.75 13.1779 12.4142 13.5137 12 13.5137C11.5858 13.5137 11.25 13.1779 11.25 12.7637V9.01367C11.25 8.59946 11.5858 8.26367 12 8.26367ZM11.25 15.7637C11.25 15.3495 11.5858 15.0137 12 15.0137H12.0075C12.4217 15.0137 12.7575 15.3495 12.7575 15.7637V15.7712C12.7575 16.1854 12.4217 16.5212 12.0075 16.5212H12C11.5858 16.5212 11.25 16.1854 11.25 15.7712V15.7637Z" fill="#868E96"/>
</svg>
