<svg width="24" height="25" viewBox="0 0 24 25" fill="none" xmlns="http://www.w3.org/2000/svg">
<path fill-rule="evenodd" clip-rule="evenodd" d="M20.3409 3.67268C19.4622 2.794 18.0376 2.794 17.1589 3.67268C16.8682 3.96337 16.6747 4.31183 16.5763 4.68039L15.9661 6.95777C15.8782 7.28566 15.5811 7.51366 15.2416 7.51366H12.3107L16.5 11.703V8.77165C16.5 8.4322 16.728 8.13507 17.0559 8.04721L19.3323 7.43725C19.7011 7.33878 20.0503 7.14522 20.3409 6.85466C21.2195 5.97598 21.2195 4.55136 20.3409 3.67268ZM16.0982 2.61202C17.5627 1.14755 19.9371 1.14756 21.4015 2.61202C22.866 4.07649 22.866 6.45085 21.4015 7.91532C20.9192 8.39762 20.3364 8.7217 19.7201 8.88626C19.72 8.88628 19.7201 8.88624 19.7201 8.88626L18 9.34715V12.0137C18 12.2126 17.921 12.4033 17.7803 12.544L17.0303 13.294C16.7374 13.5869 16.2626 13.5869 15.9697 13.294L15 12.3243L7.06066 20.2637C6.58044 20.7439 5.92913 21.0137 5.25 21.0137C4.96869 21.0137 4.69891 21.1254 4.5 21.3243L3.53033 22.294C3.38968 22.4347 3.19891 22.5137 3 22.5137C2.80109 22.5137 2.61032 22.4347 2.46967 22.294L1.71967 21.544C1.57902 21.4033 1.5 21.2126 1.5 21.0137C1.5 20.8148 1.57902 20.624 1.71967 20.4833L2.68934 19.5137C2.88825 19.3148 3 19.045 3 18.7637C3 18.0845 3.26978 17.4332 3.75 16.953L11.6893 9.01366L10.7197 8.04399C10.4268 7.75109 10.4268 7.27622 10.7197 6.98333L11.4697 6.23333C11.6103 6.09267 11.8011 6.01366 12 6.01366H14.6661L15.127 4.29344M12.75 10.0743L4.81066 18.0137C4.61175 18.2126 4.5 18.4824 4.5 18.7637C4.5 19.0819 4.44077 19.394 4.32841 19.6853C4.61967 19.5729 4.93178 19.5137 5.25 19.5137C5.5313 19.5137 5.80109 19.4019 6 19.203L13.9393 11.2637L12.75 10.0743Z" fill="#868E96"/>
</svg>
