<svg width="24" height="25" viewBox="0 0 24 25" fill="none" xmlns="http://www.w3.org/2000/svg">
<path fill-rule="evenodd" clip-rule="evenodd" d="M2.46988 2.48334C2.76278 2.19045 3.23765 2.19045 3.53054 2.48334L6.3378 5.29059C8.00137 4.31985 9.93676 3.76367 12.0002 3.76367C17.097 3.76367 21.4004 7.15246 22.7837 11.7981C22.8253 11.9377 22.8253 12.0864 22.7838 12.226C22.1095 14.4928 20.7412 16.4588 18.9261 17.8789L21.5305 20.4833C21.8234 20.7762 21.8234 21.2511 21.5305 21.544C21.2377 21.8369 20.7628 21.8369 20.4699 21.544L2.46988 3.544C2.17699 3.25111 2.17699 2.77623 2.46988 2.48334ZM17.8564 16.8091C19.4451 15.6134 20.6561 13.9439 21.2797 12.0123C20.0139 8.09545 16.3368 5.26367 12.0002 5.26367C10.3519 5.26367 8.80064 5.67212 7.44043 6.39323L9.93226 8.88505C10.525 8.49267 11.2362 8.26367 12.0002 8.26367C14.0713 8.26367 15.7502 9.9426 15.7502 12.0137C15.7502 12.7777 15.5212 13.4889 15.1288 14.0816L17.8564 16.8091ZM14.0311 12.9839C14.1717 12.6902 14.2502 12.3613 14.2502 12.0137C14.2502 10.771 13.2429 9.76367 12.0002 9.76367C11.6526 9.76367 11.3237 9.8422 11.03 9.98281L14.0311 12.9839ZM4.46452 7.66364C4.78076 7.93115 4.82027 8.40438 4.55275 8.72062C3.74229 9.67871 3.11382 10.7946 2.71979 12.015C3.98561 15.9319 7.66271 18.7637 11.9993 18.7637C12.9222 18.7637 13.814 18.6357 14.6584 18.3969C15.057 18.2842 15.4715 18.5159 15.5842 18.9145C15.6969 19.3131 15.4651 19.7276 15.0665 19.8403C14.0906 20.1162 13.0616 20.2637 11.9993 20.2637C6.9025 20.2637 2.59914 16.8749 1.21576 12.2292C1.17419 12.0896 1.17417 11.9409 1.2157 11.8013C1.66392 10.2945 2.41891 8.92057 3.40754 7.75187C3.67505 7.43562 4.14828 7.39612 4.46452 7.66364Z" fill="#868E96"/>
</svg>
