<svg width="24" height="25" viewBox="0 0 24 25" fill="none" xmlns="http://www.w3.org/2000/svg">
<path fill-rule="evenodd" clip-rule="evenodd" d="M12 2.26611C6.61522 2.26611 2.25 6.63134 2.25 12.0161C2.25 17.4009 6.61522 21.7661 12 21.7661C17.3848 21.7661 21.75 17.4009 21.75 12.0161C21.75 6.63134 17.3848 2.26611 12 2.26611ZM9.375 8.26611C8.83433 8.26611 8.54674 8.68492 8.43901 8.90037C8.30886 9.16069 8.25 9.46782 8.25 9.76611C8.25 10.0644 8.30886 10.3715 8.43901 10.6319C8.54674 10.8473 8.83433 11.2661 9.375 11.2661C9.91567 11.2661 10.2033 10.8473 10.311 10.6319C10.4411 10.3715 10.5 10.0644 10.5 9.76611C10.5 9.46782 10.4411 9.16069 10.311 8.90037C10.2033 8.68492 9.91567 8.26611 9.375 8.26611ZM13.689 8.90037C13.7967 8.68492 14.0843 8.26611 14.625 8.26611C15.1657 8.26611 15.4533 8.68492 15.561 8.90037C15.6911 9.16069 15.75 9.46782 15.75 9.76611C15.75 10.0644 15.6911 10.3715 15.561 10.6319C15.4533 10.8473 15.1657 11.2661 14.625 11.2661C14.0843 11.2661 13.7967 10.8473 13.689 10.6319C13.5589 10.3715 13.5 10.0644 13.5 9.76611C13.5 9.46782 13.5589 9.16069 13.689 8.90037ZM15.7123 15.7284C16.0052 15.4356 16.0052 14.9607 15.7123 14.6678C15.4194 14.3749 14.9445 14.3749 14.6517 14.6678C13.1872 16.1323 10.8128 16.1323 9.34835 14.6678C9.05546 14.3749 8.58058 14.3749 8.28769 14.6678C7.9948 14.9607 7.9948 15.4356 8.28769 15.7284C10.3379 17.7787 13.6621 17.7787 15.7123 15.7284Z" fill="#868E96"/>
</svg>
