<svg width="24" height="25" viewBox="0 0 24 25" fill="none" xmlns="http://www.w3.org/2000/svg">
<path fill-rule="evenodd" clip-rule="evenodd" d="M12 3.76611C7.44365 3.76611 3.75 7.45976 3.75 12.0161C3.75 16.5725 7.44365 20.2661 12 20.2661C16.5563 20.2661 20.25 16.5725 20.25 12.0161C20.25 7.45976 16.5563 3.76611 12 3.76611ZM2.25 12.0161C2.25 6.63134 6.61522 2.26611 12 2.26611C17.3848 2.26611 21.75 6.63134 21.75 12.0161C21.75 17.4009 17.3848 21.7661 12 21.7661C6.61522 21.7661 2.25 17.4009 2.25 12.0161ZM8.43901 8.90037C8.54674 8.68492 8.83433 8.26611 9.375 8.26611C9.91567 8.26611 10.2033 8.68492 10.311 8.90037C10.4411 9.16069 10.5 9.46782 10.5 9.76611C10.5 10.0644 10.4411 10.3715 10.311 10.6319C10.2033 10.8473 9.91567 11.2661 9.375 11.2661C8.83433 11.2661 8.54674 10.8473 8.43901 10.6319C8.30886 10.3715 8.25 10.0644 8.25 9.76611C8.25 9.46782 8.30886 9.16069 8.43901 8.90037ZM13.689 8.90037C13.7967 8.68492 14.0843 8.26611 14.625 8.26611C15.1657 8.26611 15.4533 8.68492 15.561 8.90037C15.6911 9.16069 15.75 9.46782 15.75 9.76611C15.75 10.0644 15.6911 10.3715 15.561 10.6319C15.4533 10.8473 15.1657 11.2661 14.625 11.2661C14.0843 11.2661 13.7967 10.8473 13.689 10.6319C13.5589 10.3715 13.5 10.0644 13.5 9.76611C13.5 9.46782 13.5589 9.16069 13.689 8.90037ZM8.28769 14.6678C8.58058 14.3749 9.05546 14.3749 9.34835 14.6678C10.8128 16.1322 13.1872 16.1322 14.6517 14.6678C14.9445 14.3749 15.4194 14.3749 15.7123 14.6678C16.0052 14.9607 16.0052 15.4355 15.7123 15.7284C13.6621 17.7787 10.3379 17.7787 8.28769 15.7284C7.9948 15.4355 7.9948 14.9607 8.28769 14.6678Z" fill="#868E96"/>
</svg>
