<svg width="24" height="25" viewBox="0 0 24 25" fill="none" xmlns="http://www.w3.org/2000/svg">
<path fill-rule="evenodd" clip-rule="evenodd" d="M1.49902 5.64111C1.49902 4.60558 2.33849 3.76611 3.37402 3.76611H20.624C21.6596 3.76611 22.499 4.60558 22.499 5.64111V18.3911C22.499 19.4266 21.6596 20.2661 20.624 20.2661H3.37402C2.33849 20.2661 1.49902 19.4266 1.49902 18.3911V5.64111ZM2.99902 5.64111V7.14111C2.99902 7.34822 3.16692 7.51611 3.37402 7.51611H4.87402C5.08113 7.51611 5.24902 7.34822 5.24902 7.14111V5.64111C5.24902 5.43401 5.08113 5.26611 4.87402 5.26611H3.37402C3.16692 5.26611 2.99902 5.43401 2.99902 5.64111ZM19.124 5.26611C18.9169 5.26611 18.749 5.43401 18.749 5.64111V7.14111C18.749 7.34822 18.9169 7.51611 19.124 7.51611H20.624C20.8311 7.51611 20.999 7.34822 20.999 7.14111V5.64111C20.999 5.43401 20.8311 5.26611 20.624 5.26611H19.124ZM20.999 9.39111C20.999 9.18401 20.8311 9.01611 20.624 9.01611H19.124C18.9169 9.01611 18.749 9.18401 18.749 9.39111V10.8911C18.749 11.0982 18.9169 11.2661 19.124 11.2661H20.624C20.8311 11.2661 20.999 11.0982 20.999 10.8911V9.39111ZM20.999 13.1411C20.999 12.934 20.8311 12.7661 20.624 12.7661H19.124C18.9169 12.7661 18.749 12.934 18.749 13.1411V14.6411C18.749 14.8482 18.9169 15.0161 19.124 15.0161H20.624C20.8311 15.0161 20.999 14.8482 20.999 14.6411V13.1411ZM20.999 16.8911C20.999 16.684 20.8311 16.5161 20.624 16.5161H19.124C18.9169 16.5161 18.749 16.684 18.749 16.8911V18.3911C18.749 18.5982 18.9169 18.7661 19.124 18.7661H20.624C20.8311 18.7661 20.999 18.5982 20.999 18.3911V16.8911ZM4.87402 18.7661C5.08113 18.7661 5.24902 18.5982 5.24902 18.3911V16.8911C5.24902 16.684 5.08113 16.5161 4.87402 16.5161H3.37402C3.16692 16.5161 2.99902 16.684 2.99902 16.8911V18.3911C2.99902 18.5982 3.16692 18.7661 3.37402 18.7661H4.87402ZM3.37402 15.0161H4.87402C5.08113 15.0161 5.24902 14.8482 5.24902 14.6411V13.1411C5.24902 12.934 5.08113 12.7661 4.87402 12.7661H3.37402C3.16692 12.7661 2.99902 12.934 2.99902 13.1411V14.6411C2.99902 14.8482 3.16692 15.0161 3.37402 15.0161ZM3.37402 11.2661H4.87402C5.08113 11.2661 5.24902 11.0982 5.24902 10.8911V9.39111C5.24902 9.18401 5.08113 9.01611 4.87402 9.01611H3.37402C3.16692 9.01611 2.99902 9.18401 2.99902 9.39111V10.8911C2.99902 11.0982 3.16692 11.2661 3.37402 11.2661ZM7.49902 11.2661C7.08481 11.2661 6.74902 11.6019 6.74902 12.0161C6.74902 12.4303 7.08481 12.7661 7.49902 12.7661H16.499C16.9132 12.7661 17.249 12.4303 17.249 12.0161C17.249 11.6019 16.9132 11.2661 16.499 11.2661H7.49902Z" fill="#868E96"/>
</svg>
