<svg width="24" height="25" viewBox="0 0 24 25" fill="none" xmlns="http://www.w3.org/2000/svg">
<path fill-rule="evenodd" clip-rule="evenodd" d="M11.9991 3.76611C10.6223 3.76611 9.34382 4.17754 8.27718 4.884C7.93184 5.11272 7.46647 5.01819 7.23775 4.67285C7.00902 4.32751 7.10356 3.86214 7.44889 3.63342C8.75356 2.76931 10.3187 2.26611 11.9991 2.26611C16.5555 2.26611 20.2491 5.95976 20.2491 10.5161C20.2491 13.5314 19.6751 16.4144 18.629 19.0603C18.4767 19.4455 18.041 19.6344 17.6558 19.4821C17.2706 19.3298 17.0818 18.8941 17.2341 18.5089C18.2118 16.0357 18.7491 13.3396 18.7491 10.5161C18.7491 6.78819 15.727 3.76611 11.9991 3.76611ZM6.15586 5.75474C6.5012 5.98346 6.59573 6.44883 6.36701 6.79417C5.66055 7.86081 5.24912 9.13927 5.24912 10.5161C5.24912 12.1293 4.78567 13.6365 3.98374 14.9091C3.7629 15.2595 3.29979 15.3646 2.94936 15.1437C2.59892 14.9229 2.49387 14.4598 2.7147 14.1094C3.37006 13.0694 3.74912 11.8383 3.74912 10.5161C3.74912 8.83571 4.25232 7.27055 5.11643 5.96589C5.34515 5.62055 5.81052 5.52601 6.15586 5.75474ZM11.9991 7.51611C10.3423 7.51611 8.99912 8.85926 8.99912 10.5161C8.99912 13.6159 7.82315 16.4427 5.89376 18.5717C5.61561 18.8787 5.14131 18.902 4.83438 18.6239C4.52745 18.3457 4.50412 17.8714 4.78226 17.5645C6.47132 15.7006 7.49912 13.2293 7.49912 10.5161C7.49912 8.03083 9.51384 6.01611 11.9991 6.01611C14.4844 6.01611 16.4991 8.03083 16.4991 10.5161C16.4991 11.0634 16.4769 11.6058 16.4325 12.1425C16.3984 12.5553 16.0361 12.8623 15.6233 12.8282C15.2105 12.7941 14.9035 12.4318 14.9376 12.019C14.9785 11.5239 14.9991 11.0227 14.9991 10.5161C14.9991 8.85926 13.656 7.51611 11.9991 7.51611ZM11.9994 9.76611C12.4136 9.76611 12.7494 10.1019 12.7494 10.5161C12.7494 14.4243 11.325 18.0016 8.96799 20.7545C8.69859 21.0692 8.22514 21.1058 7.9105 20.8364C7.59586 20.567 7.55918 20.0936 7.82858 19.7789C9.96172 17.2876 11.2494 14.0532 11.2494 10.5161C11.2494 10.1019 11.5852 9.76611 11.9994 9.76611ZM15.2379 14.9492C15.6362 15.0628 15.867 15.4778 15.7533 15.8762C15.1834 17.8737 14.3032 19.74 13.1685 21.4196C12.9366 21.7628 12.4704 21.8531 12.1272 21.6212C11.7839 21.3893 11.6937 20.9231 11.9256 20.5799C12.9732 19.0293 13.7852 17.3071 14.3109 15.4646C14.4245 15.0663 14.8395 14.8355 15.2379 14.9492Z" fill="#868E96"/>
</svg>
