<svg width="24" height="25" viewBox="0 0 24 25" fill="none" xmlns="http://www.w3.org/2000/svg">
<path fill-rule="evenodd" clip-rule="evenodd" d="M12.9614 2.30166C12.8396 2.13836 12.6567 2.03162 12.4546 2.00597C12.2525 1.98032 12.0487 2.03798 11.89 2.16568C10.0198 3.6705 8.71544 5.85363 8.35127 8.34224C7.6947 7.86628 7.11804 7.28639 6.64564 6.62668C6.51569 6.4452 6.31165 6.33103 6.089 6.31521C5.86634 6.2994 5.64822 6.38358 5.49391 6.54487C3.94852 8.16028 2.99805 10.3527 2.99805 12.7655C2.99805 17.7361 7.02748 21.7655 11.998 21.7655C16.9686 21.7655 20.998 17.7361 20.998 12.7655C20.998 9.10463 18.8123 5.95586 15.6778 4.54993C14.5686 4.00843 13.6527 3.22871 12.9614 2.30166ZM15.748 14.2659C15.748 16.337 14.0691 18.0159 11.998 18.0159C9.92698 18.0159 8.24805 16.337 8.24805 14.2659C8.24805 13.8566 8.31363 13.4626 8.43487 13.0938C9.06334 13.5584 9.78574 13.9032 10.5684 14.0945C10.7842 12.6937 11.4846 11.4528 12.4929 10.5483C14.3301 10.7905 15.748 12.3626 15.748 14.2659Z" fill="#868E96"/>
</svg>
