<svg width="24" height="25" viewBox="0 0 24 25" fill="none" xmlns="http://www.w3.org/2000/svg">
<path fill-rule="evenodd" clip-rule="evenodd" d="M12.4546 2.00597C12.6567 2.03162 12.8396 2.13836 12.9614 2.30166C13.6527 3.22871 14.5686 4.00843 15.6778 4.54992C18.8123 5.95585 20.998 9.10462 20.998 12.7655C20.998 17.7361 16.9686 21.7655 11.998 21.7655C7.02748 21.7655 2.99805 17.7361 2.99805 12.7655C2.99805 10.3527 3.94852 8.16028 5.49391 6.54487C5.64822 6.38358 5.86634 6.2994 6.089 6.31521C6.31165 6.33103 6.51569 6.4452 6.64564 6.62668C7.11804 7.28639 7.6947 7.86628 8.35127 8.34224C8.71544 5.85363 10.0198 3.6705 11.89 2.16568C12.0487 2.03798 12.2525 1.98032 12.4546 2.00597ZM12.2726 3.82583C10.7457 5.29782 9.78617 7.3511 9.74916 9.6287C9.74495 9.8876 9.6075 10.126 9.38555 10.2594C9.16361 10.3927 8.88857 10.4022 8.65799 10.2844C7.65348 9.77108 6.75855 9.0749 6.01684 8.23978C5.0632 9.49789 4.49805 11.0651 4.49805 12.7655C4.49805 16.9077 7.85591 20.2655 11.998 20.2655C16.1402 20.2655 19.498 16.9077 19.498 12.7655C19.498 9.71314 17.6745 7.08503 15.0543 5.91424C15.0469 5.91093 15.0395 5.9075 15.0323 5.90396C13.9556 5.38037 13.0283 4.6682 12.2726 3.82583ZM11.9921 9.99C12.1551 9.84378 12.3739 9.7761 12.591 9.80472C14.7963 10.0955 16.498 11.9814 16.498 14.2659C16.498 16.7512 14.4833 18.7659 11.998 18.7659C9.51277 18.7659 7.49805 16.7512 7.49805 14.2659C7.49805 13.776 7.57661 13.303 7.72238 12.8596C7.79756 12.6309 7.97793 12.4522 8.2073 12.3792C8.43667 12.3061 8.68715 12.3476 8.88072 12.4907C9.22883 12.7481 9.60959 12.9632 10.0155 13.1289C10.3722 11.9016 11.0675 10.8194 11.9921 9.99ZM12.7335 11.3566C11.9905 12.1207 11.4791 13.109 11.3096 14.2088C11.2776 14.4165 11.1598 14.6013 10.985 14.7181C10.8103 14.8349 10.5945 14.873 10.3903 14.8231C9.90333 14.7041 9.43725 14.5323 8.99843 14.3143C9.02426 15.9488 10.3573 17.2659 11.998 17.2659C13.6549 17.2659 14.998 15.9228 14.998 14.2659C14.998 12.8631 14.0346 11.6842 12.7335 11.3566Z" fill="#868E96"/>
</svg>
