<svg width="24" height="25" viewBox="0 0 24 25" fill="none" xmlns="http://www.w3.org/2000/svg">
<path fill-rule="evenodd" clip-rule="evenodd" d="M3 2.26855C3.41421 2.26855 3.75 2.60434 3.75 3.01855V3.55797L5.58819 3.09843C7.84613 2.53394 10.2315 2.79579 12.3132 3.83665L12.421 3.89051C14.1472 4.75362 16.1214 4.98422 18.0001 4.54218L21.1096 3.81051C21.3465 3.75477 21.5958 3.81744 21.7781 3.9786C21.9605 4.13977 22.0533 4.37939 22.0271 4.62134C21.844 6.31169 21.75 8.02901 21.75 9.76855C21.75 11.5226 21.8455 13.2541 22.0317 14.958C22.0728 15.3346 21.8266 15.6828 21.4579 15.7695L18.3436 16.5023C16.1234 17.0247 13.7902 16.7522 11.7501 15.7322L11.6424 15.6783C9.88097 14.7976 7.86256 14.576 5.95199 15.0536L3.75 15.6041V21.0186C3.75 21.4328 3.41421 21.7686 3 21.7686C2.58579 21.7686 2.25 21.4328 2.25 21.0186V3.01855C2.25 2.60434 2.58579 2.26855 3 2.26855ZM3.75 14.058L5.58819 13.5984C7.84613 13.0339 10.2315 13.2958 12.3132 14.3367L12.421 14.3905C14.1472 15.2536 16.1214 15.4842 18.0001 15.0422L20.4729 14.4603C20.3254 12.9161 20.25 11.351 20.25 9.76855C20.25 8.33408 20.312 6.9139 20.4334 5.51058L18.3436 6.00231C16.1234 6.52472 13.7902 6.25219 11.7501 5.23215L11.6424 5.17829C9.88097 4.29756 7.86256 4.076 5.95199 4.55364L3.75 5.10414V14.058Z" fill="#868E96"/>
</svg>
