<svg width="24" height="25" viewBox="0 0 24 25" fill="none" xmlns="http://www.w3.org/2000/svg">
<path fill-rule="evenodd" clip-rule="evenodd" d="M5.99909 4.51855C5.17066 4.51855 4.49909 5.19013 4.49909 6.01855V9.01855H19.4991C19.4991 8.19013 18.8275 7.51855 17.9991 7.51855H14.1204C13.5237 7.51855 12.9514 7.2815 12.5294 6.85955L10.4081 4.73822C10.2674 4.59757 10.0767 4.51855 9.87777 4.51855H5.99909ZM20.9991 9.22412V9.01855C20.9991 7.3617 19.6559 6.01855 17.9991 6.01855H14.1204C13.9215 6.01855 13.7307 5.93954 13.5901 5.79889L11.4688 3.67756C11.0468 3.25561 10.4745 3.01855 9.87777 3.01855H5.99909C4.34223 3.01855 2.99909 4.3617 2.99909 6.01855V9.22412C1.74667 9.71466 0.9201 11.0189 1.12351 12.4428L1.98065 18.4428C2.19179 19.9208 3.45755 21.0186 4.9505 21.0186H19.0477C20.5406 21.0186 21.8064 19.9208 22.0175 18.4428L22.8747 12.4428C23.0781 11.0189 22.2515 9.71466 20.9991 9.22412ZM4.09336 10.5186C4.01407 10.5186 3.937 10.5246 3.86239 10.536C3.06607 10.6577 2.49055 11.4055 2.60844 12.2307L3.46558 18.2307C3.57115 18.9697 4.20403 19.5186 4.9505 19.5186H19.0477C19.7941 19.5186 20.427 18.9697 20.5326 18.2307L21.3897 12.2307C21.5076 11.4055 20.9321 10.6577 20.1358 10.536C20.0612 10.5246 19.9841 10.5186 19.9048 10.5186H4.09336Z" fill="#868E96"/>
</svg>
