<svg width="24" height="25" viewBox="0 0 24 25" fill="none" xmlns="http://www.w3.org/2000/svg">
<path d="M19.9046 9.01855C20.2866 9.01855 20.6538 9.0752 20.9989 9.18011V9.01855C20.9989 7.3617 19.6558 6.01855 17.9989 6.01855H14.1202C13.9213 6.01855 13.7305 5.93954 13.5899 5.79889L11.4686 3.67756C11.0466 3.25561 10.4743 3.01855 9.87758 3.01855H5.9989C4.34205 3.01855 2.9989 4.3617 2.9989 6.01855V9.18008C3.34398 9.07518 3.71113 9.01855 4.09311 9.01855H19.9046Z" fill="#868E96"/>
<path d="M4.0932 10.5186C2.72396 10.5186 1.67217 11.7313 1.86581 13.0868L2.72295 19.0868C2.8813 20.1952 3.83063 21.0186 4.95034 21.0186H19.0475C20.1672 21.0186 21.1165 20.1952 21.2749 19.0868L22.132 13.0868C22.3257 11.7313 21.2739 10.5186 19.9047 10.5186H4.0932Z" fill="#868E96"/>
</svg>
