<svg width="24" height="25" viewBox="0 0 24 25" fill="none" xmlns="http://www.w3.org/2000/svg">
<path fill-rule="evenodd" clip-rule="evenodd" d="M19.5 21.0186C21.1569 21.0186 22.5 19.6754 22.5 18.0186V9.01855C22.5 7.3617 21.1569 6.01855 19.5 6.01855H14.1213C13.9224 6.01855 13.7316 5.93954 13.591 5.79889L11.4697 3.67756C11.0477 3.25561 10.4754 3.01855 9.87868 3.01855H4.5C2.84315 3.01855 1.5 4.3617 1.5 6.01855V18.0186C1.5 19.6754 2.84315 21.0186 4.5 21.0186H19.5ZM12.75 10.5186C12.75 10.1043 12.4142 9.76855 12 9.76855C11.5858 9.76855 11.25 10.1043 11.25 10.5186L11.25 14.7079L9.53033 12.9882C9.23744 12.6953 8.76256 12.6953 8.46967 12.9882C8.17678 13.2811 8.17678 13.756 8.46967 14.0489L11.4697 17.0489C11.6103 17.1895 11.8011 17.2686 12 17.2686C12.1989 17.2686 12.3897 17.1895 12.5303 17.0489L15.5303 14.0489C15.8232 13.756 15.8232 13.2811 15.5303 12.9882C15.2374 12.6953 14.7626 12.6953 14.4697 12.9882L12.75 14.7079L12.75 10.5186Z" fill="#868E96"/>
</svg>
