<svg width="24" height="25" viewBox="0 0 24 25" fill="none" xmlns="http://www.w3.org/2000/svg">
<path fill-rule="evenodd" clip-rule="evenodd" d="M19.499 21.0186C21.1559 21.0186 22.499 19.6754 22.499 18.0186V9.01855C22.499 7.3617 21.1559 6.01855 19.499 6.01855H14.1203C13.9214 6.01855 13.7307 5.93954 13.59 5.79889L11.4687 3.67756C11.0467 3.25561 10.4744 3.01855 9.8777 3.01855H4.49902C2.84217 3.01855 1.49902 4.3617 1.49902 6.01855V18.0186C1.49902 19.6754 2.84217 21.0186 4.49902 21.0186H19.499ZM12.749 10.5186C12.749 10.1043 12.4132 9.76855 11.999 9.76855C11.5848 9.76855 11.249 10.1043 11.249 10.5186V12.7686H8.99902C8.58481 12.7686 8.24902 13.1043 8.24902 13.5186C8.24902 13.9328 8.58481 14.2686 8.99902 14.2686H11.249V16.5186C11.249 16.9328 11.5848 17.2686 11.999 17.2686C12.4132 17.2686 12.749 16.9328 12.749 16.5186V14.2686H14.999C15.4132 14.2686 15.749 13.9328 15.749 13.5186C15.749 13.1043 15.4132 12.7686 14.999 12.7686H12.749V10.5186Z" fill="#868E96"/>
</svg>
