<svg width="24" height="25" viewBox="0 0 24 25" fill="none" xmlns="http://www.w3.org/2000/svg">
<path fill-rule="evenodd" clip-rule="evenodd" d="M3.79154 2.95924C6.46066 2.50661 9.20314 2.271 12.0001 2.271C14.7969 2.271 17.5394 2.50661 20.2085 2.95922C21.1108 3.11224 21.75 3.89775 21.75 4.79502V5.83902C21.75 6.63467 21.4339 7.39773 20.8713 7.96034L15.4393 13.3923C15.158 13.6736 15 14.0552 15 14.453V17.3804C15 18.5167 14.358 19.5555 13.3416 20.0637L10.0854 21.6918C9.85292 21.8081 9.57681 21.7956 9.3557 21.659C9.13459 21.5223 9 21.2809 9 21.021V14.453C9 14.0552 8.84197 13.6736 8.56066 13.3923L3.12868 7.96034C2.56607 7.39773 2.25 6.63466 2.25 5.83902V4.79504C2.25 3.89778 2.88917 3.11227 3.79154 2.95924ZM12.0001 3.771C9.28752 3.771 6.62893 3.99949 4.04233 4.43813C3.87899 4.46583 3.75 4.61136 3.75 4.79504V5.83902C3.75 6.23684 3.90804 6.61837 4.18934 6.89968L9.62132 12.3317C10.1839 12.8943 10.5 13.6573 10.5 14.453V19.8075L12.6708 18.7221C13.179 18.468 13.5 17.9486 13.5 17.3804V14.453C13.5 13.6573 13.8161 12.8943 14.3787 12.3317L19.8107 6.89968C20.092 6.61837 20.25 6.23684 20.25 5.83902V4.79502C20.25 4.61134 20.121 4.46581 19.9577 4.43811C17.3711 3.99948 14.7126 3.771 12.0001 3.771Z" fill="#868E96"/>
</svg>
