<svg width="24" height="25" viewBox="0 0 24 25" fill="none" xmlns="http://www.w3.org/2000/svg">
<path d="M15.7498 8.271C16.164 8.271 16.4998 8.60678 16.4998 9.021C16.4998 10.1411 16.0077 11.1473 15.2304 11.8333C14.9199 12.1074 14.4459 12.0778 14.1718 11.7673C13.8977 11.4567 13.9273 10.9828 14.2378 10.7087C14.7062 10.2953 14.9998 9.69291 14.9998 9.021C14.9998 8.60678 15.3356 8.271 15.7498 8.271Z" fill="#868E96"/>
<path fill-rule="evenodd" clip-rule="evenodd" d="M12 2.271C6.61522 2.271 2.25 6.63622 2.25 12.021C2.25 17.4058 6.61522 21.771 12 21.771C17.3848 21.771 21.75 17.4058 21.75 12.021C21.75 6.63622 17.3848 2.271 12 2.271ZM4.5749 15.6212C5.91195 18.3736 8.7344 20.271 12 20.271C12.6623 20.271 13.3063 20.193 13.9234 20.0456C13.6364 19.2813 12.9044 18.771 12.0828 18.771C11.6022 18.771 11.1921 18.4235 11.1131 17.9495L11.0401 17.5117C10.9461 16.9473 11.2906 16.4023 11.8408 16.2451L12.8295 15.9626C13.2567 15.8405 13.6131 15.5447 13.8119 15.1473L13.8484 15.0743C14.0945 14.582 14.5977 14.271 15.1481 14.271C15.5335 14.271 15.9031 14.4241 16.1756 14.6966L16.5 15.021H17.1283C17.9669 15.021 18.724 15.4856 19.1108 16.2067C19.8347 14.9796 20.25 13.5488 20.25 12.021C20.25 7.7228 16.963 4.19232 12.7656 3.80605C12.81 4.06902 12.9468 4.31 13.1548 4.48332L14.2234 5.37383C14.6651 5.74189 14.7582 6.38375 14.4393 6.86212L13.9282 7.62866C13.6507 8.04497 13.2423 8.3569 12.7676 8.51512L12.6254 8.56253C11.9327 8.79343 11.6492 9.61977 12.0542 10.2273C12.4237 10.7815 12.2238 11.5341 11.6281 11.832L9 13.146L9.4234 14.2045C9.608 14.666 9.40803 15.192 8.96343 15.4143C8.5503 15.6208 8.04855 15.5024 7.77142 15.1329L7.09217 14.2272C6.59039 13.5582 5.55995 13.6511 5.18594 14.3991L4.5749 15.6212Z" fill="#868E96"/>
</svg>
