<svg width="24" height="25" viewBox="0 0 24 25" fill="none" xmlns="http://www.w3.org/2000/svg">
<path fill-rule="evenodd" clip-rule="evenodd" d="M12 2.271C6.61522 2.271 2.25 6.63622 2.25 12.021C2.25 17.4058 6.61522 21.771 12 21.771C17.3848 21.771 21.75 17.4058 21.75 12.021C21.75 6.63622 17.3848 2.271 12 2.271ZM8.54688 4.52624C5.71517 5.83309 3.75 8.69755 3.75 12.021C3.75 16.5773 7.44365 20.271 12 20.271C16.3141 20.271 19.8548 16.9597 20.2191 12.7401L19.7582 12.2792C19.5872 12.1082 19.4449 11.9107 19.3367 11.6944L18.2567 9.5343C18.1304 9.28177 17.7939 9.22716 17.5942 9.4268C17.3818 9.63924 17.0709 9.71981 16.782 9.63727L15.5091 9.27359C15.0257 9.13547 14.524 9.42524 14.402 9.91299C14.3109 10.2776 14.4588 10.6602 14.7715 10.8686L15.3582 11.2598C15.9489 11.6536 16.0317 12.4893 15.5297 12.9913L15.3295 13.1915C15.1186 13.4025 15 13.6886 15 13.987V14.3978C15 14.8056 14.8892 15.2057 14.6794 15.5554L13.3648 17.7464C12.9834 18.3821 12.2965 18.771 11.5552 18.771C10.9724 18.771 10.5 18.2986 10.5 17.7158V16.5443C10.5 15.6243 9.93989 14.7969 9.08565 14.4552L8.43151 14.1936C7.44978 13.8009 6.87393 12.7776 7.04776 11.7346L7.05479 11.6924C7.1012 11.4139 7.19959 11.1467 7.34482 10.9047L7.43423 10.7557C7.92346 9.94028 8.87244 9.52048 9.80485 9.70696L10.9827 9.94253C11.5574 10.0575 12.124 9.71195 12.285 9.14844L12.4935 8.41874C12.6423 7.8982 12.3991 7.34555 11.9149 7.10345L11.25 6.771L11.159 6.86199C10.7371 7.28394 10.1648 7.521 9.56805 7.521H9.38712C9.13927 7.521 8.90098 7.62004 8.72572 7.7953C8.44225 8.07877 8.00817 8.15007 7.64961 7.97079C7.16435 7.72816 6.98836 7.12378 7.26749 6.65856L8.54688 4.52624Z" fill="#868E96"/>
</svg>
