<svg width="24" height="25" viewBox="0 0 24 25" fill="none" xmlns="http://www.w3.org/2000/svg">
<path fill-rule="evenodd" clip-rule="evenodd" d="M6.92606 5.51528L7.17369 7.00107C7.35358 8.0804 7.86622 9.07655 8.63995 9.85028L10.2803 11.4907C10.5086 11.7189 10.5652 12.0677 10.4208 12.3564L10.0334 13.1312C9.96126 13.2755 9.98956 13.4499 10.1037 13.564L11.4508 14.9112C11.8025 15.2628 12 15.7397 12 16.237V17.3257C12 17.4677 12.0803 17.5976 12.2073 17.6611L11.8719 18.3319L12.2073 17.6611L12.3602 17.7376C12.5045 17.8097 12.6789 17.7814 12.793 17.6673L13.5157 16.9446C14.5346 15.9258 15.2574 14.6492 15.6068 13.2513C15.6383 13.1256 15.595 12.9931 15.4955 12.9102L14.1662 11.8024C14.0823 11.7325 13.9721 11.7027 13.8644 11.7206L12.6944 11.9156C12.0971 12.0152 11.4885 11.8201 11.0603 11.392L10.7652 11.0968C10.0329 10.3646 10.0329 9.1774 10.7652 8.44517L10.8963 8.31403C11.467 7.74335 12.3388 7.60187 13.0607 7.9628L13.6646 8.26477C13.6728 8.26886 13.6818 8.271 13.691 8.271C13.707 8.271 13.7149 8.26746 13.7199 8.26458C13.7266 8.26071 13.7346 8.25368 13.7412 8.24301C13.7478 8.23234 13.7505 8.22204 13.751 8.21432C13.7513 8.20858 13.7509 8.1999 13.7438 8.18559L14.4146 7.85018L13.7438 8.18559L13.5792 7.85641C13.41 7.5181 13.5193 7.10677 13.834 6.89696L15.0896 6.05985C15.5372 5.76148 15.9142 5.37111 16.1963 4.91627C14.9672 4.18859 13.5332 3.771 12 3.771C10.086 3.771 8.32572 4.42193 6.92606 5.51528ZM17.4144 5.79611C17.0262 6.39479 16.5188 6.90985 15.9217 7.30792L15.1937 7.79324C15.4671 8.75763 14.7474 9.771 13.691 9.771C13.449 9.771 13.2102 9.71465 12.9938 9.60641L12.3898 9.30444C12.2455 9.23226 12.0711 9.26055 11.957 9.37469L11.8258 9.50583C11.6794 9.65228 11.6794 9.88971 11.8258 10.0362L12.121 10.3313C12.2066 10.4169 12.3283 10.4559 12.4478 10.436L13.6178 10.241C14.1563 10.1513 14.7071 10.3006 15.1264 10.6501L16.4558 11.7578C16.9975 12.2093 17.2331 12.931 17.0621 13.6151C16.6467 15.2767 15.7875 16.7942 14.5764 18.0053L13.8537 18.728C13.283 19.2986 12.4112 19.4401 11.6893 19.0792L11.5365 19.0028C10.9013 18.6851 10.5 18.0359 10.5 17.3257V16.237C10.5 16.1375 10.4605 16.0421 10.3902 15.9718L9.04303 14.6247C8.47235 14.054 8.33088 13.1822 8.6918 12.4603L8.83743 12.1691L7.57929 10.9109C6.58449 9.91615 5.92539 8.63538 5.6941 7.24767L5.61819 6.79222C4.45014 8.21594 3.75 10.0364 3.75 12.021C3.75 16.5773 7.44365 20.271 12 20.271C16.5563 20.271 20.25 16.5773 20.25 12.021C20.25 9.53713 19.1529 7.30946 17.4144 5.79611ZM5.62442 4.64419C7.33337 3.16598 9.56311 2.271 12 2.271C14.0883 2.271 16.0253 2.92839 17.6125 4.04746C20.1137 5.81103 21.75 8.72489 21.75 12.021C21.75 17.4058 17.3848 21.771 12 21.771C6.61522 21.771 2.25 17.4058 2.25 12.021C2.25 9.07352 3.55882 6.43088 5.62442 4.64419Z" fill="#868E96"/>
</svg>
