<svg width="24" height="25" viewBox="0 0 24 25" fill="none" xmlns="http://www.w3.org/2000/svg">
<path fill-rule="evenodd" clip-rule="evenodd" d="M12 2.271C6.61522 2.271 2.25 6.63622 2.25 12.021C2.25 17.4058 6.61522 21.771 12 21.771C17.3848 21.771 21.75 17.4058 21.75 12.021C21.75 6.63622 17.3848 2.271 12 2.271ZM6.26197 6.0933C4.71293 7.59307 3.75 9.69458 3.75 12.021C3.75 16.5773 7.44365 20.271 12 20.271C16.5563 20.271 20.25 16.5773 20.25 12.021C20.25 9.26561 18.8992 6.82571 16.8237 5.32739C16.4863 5.86645 16.0374 6.32931 15.5056 6.68388L14.2499 7.521L14.4145 7.85018C14.6835 8.38809 14.2923 9.021 13.6909 9.021C13.5653 9.021 13.4414 8.99175 13.3291 8.93559L12.7252 8.63362C12.2921 8.41706 11.769 8.50195 11.4266 8.84436L11.2954 8.9755C10.8561 9.41484 10.8561 10.1272 11.2954 10.5665L11.5905 10.8616C11.8474 11.1185 12.2126 11.2355 12.571 11.1758L13.7411 10.9808C14.0641 10.927 14.3946 11.0166 14.6462 11.2262L15.9755 12.334C16.2962 12.6012 16.4356 13.0283 16.3344 13.4332C15.9519 14.9629 15.1609 16.36 14.046 17.4749L13.3233 18.1976C12.9809 18.54 12.4578 18.6249 12.0247 18.4084L11.8718 18.3319C11.4907 18.1414 11.2499 17.7518 11.2499 17.3257V16.237C11.2499 15.9386 11.1314 15.6525 10.9204 15.4415L9.57328 14.0944C9.23087 13.752 9.14599 13.2289 9.36254 12.7957L9.74992 12.021L8.10954 10.3806C7.22527 9.49635 6.6394 8.35789 6.43381 7.12437L6.26197 6.0933Z" fill="#868E96"/>
</svg>
