<svg width="24" height="24" viewBox="0 0 24 24" fill="none" xmlns="http://www.w3.org/2000/svg">
<path fill-rule="evenodd" clip-rule="evenodd" d="M6.50377 4.75488C6.07917 4.75488 5.70853 4.92419 5.48312 5.20408C3.92945 7.13328 3 9.58452 3 12.2549C3 12.6625 3.02164 13.0647 3.06379 13.4606C3.12477 14.0334 3.65799 14.5049 4.37227 14.5049H9.7C10.1142 14.5049 10.45 14.8407 10.45 15.2549C10.45 15.6691 10.1142 16.0049 9.7 16.0049H9.0541C9.07813 16.2864 9.03299 16.5811 8.90066 16.8593C8.48371 17.7359 8.25 18.717 8.25 19.7549C8.25 20.5833 8.92157 21.2549 9.75 21.2549L9.75 20.6215C9.75 19.9536 9.87744 19.2918 10.1255 18.6717C10.5145 17.6993 11.2966 17.0122 12.1219 16.5727C13.1428 16.029 14.0366 15.2766 14.7458 14.3724C15.3315 13.6255 16.226 13.0372 17.2799 13.0062C17.7425 11.9764 18 10.834 18 9.62988C18 8.42614 17.7427 7.2843 17.2805 6.25488H16.4803C15.916 6.25488 15.3554 6.16391 14.8201 5.98547L11.7056 4.94732C11.3232 4.81986 10.9228 4.75488 10.5198 4.75488L6.50377 4.75488ZM17.159 4.75488L16.4803 4.75488C16.0772 4.75488 15.6768 4.6899 15.2944 4.56245L12.1799 3.5243C11.6446 3.34585 11.084 3.25488 10.5198 3.25488L6.50377 3.25488C5.69244 3.25488 4.86468 3.58054 4.31487 4.26324C2.55431 6.44933 1.5 9.23001 1.5 12.2549C1.5 12.7156 1.52447 13.1709 1.57222 13.6194C1.72862 15.0884 3.03329 16.0049 4.37227 16.0049H7.49999C7.4996 16.0046 7.50005 16.005 7.49999 16.0049C7.50458 16.0079 7.51961 16.0199 7.53425 16.0467C7.56755 16.1075 7.56555 16.1741 7.54609 16.215C7.03542 17.2886 6.75 18.4895 6.75 19.7549C6.75 21.4117 8.09315 22.7549 9.75 22.7549C10.5784 22.7549 11.25 22.0833 11.25 21.2549V20.6215C11.25 20.1444 11.341 19.6717 11.5182 19.2288C11.737 18.6819 12.208 18.2263 12.827 17.8966C14.0338 17.254 15.0889 16.3655 15.9261 15.2981C16.1267 15.0422 16.3622 14.841 16.6138 14.7053C16.6526 15.3708 17.1425 16.0049 17.9479 16.0049H19.0006C20.0899 16.0049 21.1807 15.408 21.6163 14.3028C22.1869 12.8548 22.5 11.278 22.5 9.62988C22.5 8.33482 22.3067 7.08354 21.9468 5.90405C21.5757 4.68771 20.4194 4.00488 19.2571 4.00488H18.3493C17.7823 4.00488 17.3658 4.33062 17.159 4.75488ZM18.5868 5.50488C19.1729 6.75852 19.5 8.15697 19.5 9.62988C19.5 11.2392 19.1095 12.7595 18.4175 14.0991C18.3466 14.2363 18.2726 14.3716 18.1955 14.5049H19.0006C19.5755 14.5049 20.0462 14.1957 20.2207 13.7528C20.7235 12.4771 21 11.0867 21 9.62988C21 8.4848 20.8292 7.38098 20.5121 6.3418C20.3645 5.85809 19.8722 5.50488 19.2571 5.50488H18.5868Z" fill="#868E96"/>
</svg>
