<svg width="24" height="24" viewBox="0 0 24 24" fill="none" xmlns="http://www.w3.org/2000/svg">
<path fill-rule="evenodd" clip-rule="evenodd" d="M12.75 2.75488C12.75 1.92646 13.4216 1.25488 14.25 1.25488C15.9069 1.25488 17.25 2.59803 17.25 4.25488C17.25 5.52031 16.9646 6.72116 16.4539 7.79475C16.4345 7.83566 16.4325 7.90223 16.4657 7.96308C16.4804 7.98984 16.4948 8.0014 16.4994 8.00439C16.4994 8.0043 16.4998 8.00464 16.4994 8.00439M14.9459 8.00488H14.25C13.8358 8.00488 13.5 8.34067 13.5 8.75488C13.5 9.1691 13.8358 9.50488 14.25 9.50488H19.6277C20.342 9.50488 20.8752 9.97639 20.9362 10.5491C20.9784 10.945 21 11.3473 21 11.7549C21 14.4252 20.0706 16.8765 18.5169 18.8057C18.2915 19.0856 17.9208 19.2549 17.4962 19.2549H13.4802C13.0772 19.2549 12.6768 19.1899 12.2944 19.0624L9.17995 18.0243C8.64462 17.8459 8.08403 17.7549 7.51975 17.7549H6.42618C6.1499 16.9311 6 16.0486 6 15.1299C6 13.6086 6.41107 12.1855 7.12781 10.9633C8.00421 10.8149 8.74562 10.2859 9.25425 9.63739C9.96344 8.73313 10.8571 7.98077 11.8781 7.43707C12.7034 6.99755 13.4855 6.31045 13.8745 5.33806C14.1226 4.71793 14.25 4.05616 14.25 3.38826V2.75488C15.0784 2.75488 15.75 3.42646 15.75 4.25488C15.75 5.29272 15.5163 6.27387 15.0993 7.15043C14.967 7.42862 14.9219 7.72334 14.9459 8.00488ZM5.80452 10.2549C4.97475 11.6895 4.5 13.3553 4.5 15.1299C4.5 16.4215 4.75154 17.6562 5.209 18.7863C5.27309 18.9446 5.3412 19.1008 5.41322 19.2549H4.74289C4.12775 19.2549 3.6355 18.9017 3.48791 18.418C3.17084 17.3788 3 16.275 3 15.1299C3 13.6731 3.27652 12.2827 3.77926 11.007C3.9538 10.5641 4.42454 10.2549 4.99936 10.2549H5.80452ZM7.18757 9.39665C6.96829 9.02451 6.57726 8.75488 6.05212 8.75488H4.99936C3.91013 8.75488 2.8193 9.35174 2.38372 10.457C1.81309 11.905 1.5 13.4818 1.5 15.1299C1.5 16.4249 1.69333 17.6762 2.05321 18.8557C2.42433 20.0721 3.5806 20.7549 4.74289 20.7549H5.65067C6.52506 20.7549 7.04452 19.9903 6.98004 19.2549H7.51975C7.92281 19.2549 8.32323 19.3199 8.7056 19.4473L11.8201 20.4855C12.3554 20.6639 12.916 20.7549 13.4802 20.7549H17.4962C18.3076 20.7549 19.1353 20.4292 19.6851 19.7465C21.4457 17.5604 22.5 14.7798 22.5 11.7549C22.5 11.2942 22.4755 10.8389 22.4278 10.3903C22.2714 8.92136 20.9667 8.00488 19.6277 8.00488H16.5019M7.18757 9.39665C7.51349 9.26935 7.82133 9.03381 8.07395 8.71171C8.91108 7.64431 9.96624 6.75578 11.173 6.11312C11.792 5.78347 12.263 5.32789 12.4818 4.78098C12.659 4.33803 12.75 3.86533 12.75 3.38826V2.75488" fill="#868E96"/>
</svg>
