<svg width="24" height="24" viewBox="0 0 24 24" fill="none" xmlns="http://www.w3.org/2000/svg">
<path d="M11.645 20.9155L11.6384 20.912L11.6158 20.8998C11.5965 20.8893 11.5689 20.8741 11.5336 20.8544C11.4629 20.815 11.3612 20.7573 11.233 20.6818C10.9765 20.5309 10.6132 20.3088 10.1785 20.0199C9.31074 19.443 8.15122 18.595 6.9886 17.5112C4.68781 15.3664 2.25 12.18 2.25 8.25488C2.25 5.32683 4.7136 3.00488 7.6875 3.00488C9.43638 3.00488 11.0023 3.80397 12 5.05648C12.9977 3.80397 14.5636 3.00488 16.3125 3.00488C19.2864 3.00488 21.75 5.32683 21.75 8.25488C21.75 12.18 19.3122 15.3664 17.0114 17.5112C15.8488 18.595 14.6893 19.443 13.8215 20.0199C13.3868 20.3088 13.0235 20.5309 12.767 20.6818C12.6388 20.7573 12.5371 20.815 12.4664 20.8544C12.4311 20.8741 12.4035 20.8893 12.3842 20.8998L12.3616 20.912L12.355 20.9155L12.3523 20.917C12.1323 21.0338 11.8677 21.0338 11.6477 20.917L11.645 20.9155Z" fill="#868E96"/>
</svg>
