<svg width="24" height="24" viewBox="0 0 24 24" fill="none" xmlns="http://www.w3.org/2000/svg">
<path fill-rule="evenodd" clip-rule="evenodd" d="M7.6875 4.50488C5.48373 4.50488 3.75 6.21238 3.75 8.25488C3.75 11.5503 5.81219 14.3639 8.0114 16.414C9.09878 17.4276 10.1893 18.2258 11.009 18.7707C11.4181 19.0427 11.7579 19.2503 11.9936 19.389C11.9957 19.3903 11.9979 19.3915 12 19.3928C12.0021 19.3915 12.0043 19.3903 12.0064 19.389C12.2421 19.2503 12.5819 19.0427 12.991 18.7707C13.8107 18.2258 14.9012 17.4276 15.9886 16.414C18.1878 14.3639 20.25 11.5503 20.25 8.25488C20.25 6.21238 18.5163 4.50488 16.3125 4.50488C14.6702 4.50488 13.2789 5.4594 12.6852 6.79326C12.5647 7.06392 12.2963 7.2383 12 7.2383C11.7037 7.2383 11.4353 7.06392 11.3148 6.79326C10.7211 5.4594 9.32976 4.50488 7.6875 4.50488ZM12 20.2549C11.6482 20.9173 11.648 20.9171 11.6477 20.917L11.645 20.9155L11.6384 20.912L11.6158 20.8998C11.5965 20.8893 11.5689 20.8741 11.5336 20.8544C11.4629 20.815 11.3612 20.7573 11.233 20.6818C10.9765 20.5309 10.6132 20.3088 10.1785 20.0199C9.31074 19.443 8.15122 18.595 6.9886 17.5112C4.68781 15.3664 2.25 12.18 2.25 8.25488C2.25 5.32683 4.7136 3.00488 7.6875 3.00488C9.43638 3.00488 11.0023 3.80397 12 5.05648C12.9977 3.80397 14.5636 3.00488 16.3125 3.00488C19.2864 3.00488 21.75 5.32683 21.75 8.25488C21.75 12.18 19.3122 15.3664 17.0114 17.5112C15.8488 18.595 14.6893 19.443 13.8215 20.0199C13.3868 20.3088 13.0235 20.5309 12.767 20.6818C12.6388 20.7573 12.5371 20.815 12.4664 20.8544C12.4311 20.8741 12.4035 20.8893 12.3842 20.8998L12.3616 20.912L12.355 20.9155L12.353 20.9166C12.3527 20.9168 12.3518 20.9173 12 20.2549ZM12 20.2549L12.3518 20.9173C12.1318 21.0341 11.8677 21.0338 11.6477 20.917L12 20.2549Z" fill="#868E96"/>
</svg>
