<svg width="24" height="24" viewBox="0 0 24 24" fill="none" xmlns="http://www.w3.org/2000/svg">
<path fill-rule="evenodd" clip-rule="evenodd" d="M4.49951 3.75488C2.84266 3.75488 1.49951 5.09803 1.49951 6.75488V17.2549C1.49951 18.9117 2.84266 20.2549 4.49951 20.2549H19.4995C21.1564 20.2549 22.4995 18.9117 22.4995 17.2549V6.75488C22.4995 5.09803 21.1564 3.75488 19.4995 3.75488H4.49951ZM8.62451 6.75488C7.38187 6.75488 6.37451 7.76224 6.37451 9.00488C6.37451 10.2475 7.38187 11.2549 8.62451 11.2549C9.86715 11.2549 10.8745 10.2475 10.8745 9.00488C10.8745 7.76224 9.86715 6.75488 8.62451 6.75488ZM4.75142 15.4577C5.33041 13.8814 6.84494 12.7549 8.62447 12.7549C10.404 12.7549 11.9185 13.8814 12.4975 15.4577C12.6266 15.8092 12.4766 16.2021 12.1461 16.3782C11.0953 16.938 9.89578 17.2549 8.62447 17.2549C7.35315 17.2549 6.15364 16.938 5.10282 16.3782C4.77229 16.2021 4.6223 15.8092 4.75142 15.4577ZM14.9995 8.25488C14.5853 8.25488 14.2495 8.59067 14.2495 9.00488C14.2495 9.4191 14.5853 9.75488 14.9995 9.75488H18.7495C19.1637 9.75488 19.4995 9.4191 19.4995 9.00488C19.4995 8.59067 19.1637 8.25488 18.7495 8.25488H14.9995ZM14.2495 12.0049C14.2495 11.5907 14.5853 11.2549 14.9995 11.2549H18.7495C19.1637 11.2549 19.4995 11.5907 19.4995 12.0049C19.4995 12.4191 19.1637 12.7549 18.7495 12.7549H14.9995C14.5853 12.7549 14.2495 12.4191 14.2495 12.0049ZM14.9995 14.2549C14.5853 14.2549 14.2495 14.5907 14.2495 15.0049C14.2495 15.4191 14.5853 15.7549 14.9995 15.7549H18.7495C19.1637 15.7549 19.4995 15.4191 19.4995 15.0049C19.4995 14.5907 19.1637 14.2549 18.7495 14.2549H14.9995Z" fill="#868E96"/>
</svg>
