<svg width="24" height="24" viewBox="0 0 24 24" fill="none" xmlns="http://www.w3.org/2000/svg">
<path fill-rule="evenodd" clip-rule="evenodd" d="M1.49951 6.75488C1.49951 5.09803 2.84266 3.75488 4.49951 3.75488H19.4995C21.1564 3.75488 22.4995 5.09803 22.4995 6.75488V17.2549C22.4995 18.9117 21.1564 20.2549 19.4995 20.2549H4.49951C2.84266 20.2549 1.49951 18.9117 1.49951 17.2549V6.75488ZM4.49951 5.25488C3.67108 5.25488 2.99951 5.92646 2.99951 6.75488V17.2549C2.99951 18.0833 3.67108 18.7549 4.49951 18.7549H19.4995C20.3279 18.7549 20.9995 18.0833 20.9995 17.2549V6.75488C20.9995 5.92646 20.3279 5.25488 19.4995 5.25488H4.49951ZM8.62451 8.25488C8.00319 8.25488 7.49951 8.75856 7.49951 9.37988C7.49951 10.0012 8.00319 10.5049 8.62451 10.5049C9.24583 10.5049 9.74951 10.0012 9.74951 9.37988C9.74951 8.75856 9.24583 8.25488 8.62451 8.25488ZM5.99951 9.37988C5.99951 7.93014 7.17476 6.75488 8.62451 6.75488C10.0743 6.75488 11.2495 7.93014 11.2495 9.37988C11.2495 10.8296 10.0743 12.0049 8.62451 12.0049C7.17476 12.0049 5.99951 10.8296 5.99951 9.37988ZM14.2495 9.00488C14.2495 8.59067 14.5853 8.25488 14.9995 8.25488H18.7495C19.1637 8.25488 19.4995 8.59067 19.4995 9.00488C19.4995 9.4191 19.1637 9.75488 18.7495 9.75488H14.9995C14.5853 9.75488 14.2495 9.4191 14.2495 9.00488ZM14.2495 12.0049C14.2495 11.5907 14.5853 11.2549 14.9995 11.2549H18.7495C19.1637 11.2549 19.4995 11.5907 19.4995 12.0049C19.4995 12.4191 19.1637 12.7549 18.7495 12.7549H14.9995C14.5853 12.7549 14.2495 12.4191 14.2495 12.0049ZM6.48256 15.3615C7.14715 15.6156 7.86887 15.7549 8.62435 15.7549C9.37983 15.7549 10.1016 15.6156 10.7661 15.3615C10.2901 14.6913 9.50761 14.2549 8.62435 14.2549C7.74109 14.2549 6.95861 14.6913 6.48256 15.3615ZM4.75131 15.4577C5.33029 13.8814 6.84482 12.7549 8.62435 12.7549C10.4039 12.7549 11.9184 13.8814 12.4974 15.4577C12.6265 15.8092 12.4765 16.2021 12.146 16.3782C11.0952 16.938 9.89567 17.2549 8.62435 17.2549C7.35304 17.2549 6.15353 16.938 5.10271 16.3782C4.77218 16.2021 4.62219 15.8092 4.75131 15.4577ZM14.2495 15.0049C14.2495 14.5907 14.5853 14.2549 14.9995 14.2549H18.7495C19.1637 14.2549 19.4995 14.5907 19.4995 15.0049C19.4995 15.4191 19.1637 15.7549 18.7495 15.7549H14.9995C14.5853 15.7549 14.2495 15.4191 14.2495 15.0049Z" fill="#868E96"/>
</svg>
