<svg width="24" height="24" viewBox="0 0 24 24" fill="none" xmlns="http://www.w3.org/2000/svg">
<path fill-rule="evenodd" clip-rule="evenodd" d="M4.04397 5.12263C4.43128 3.86385 5.59429 3.00488 6.9113 3.00488H17.0877C18.4047 3.00488 19.5677 3.86385 19.9551 5.12263L22.3668 12.961C22.3889 13.0328 22.4083 13.1053 22.4249 13.1784C22.4727 13.2771 22.4995 13.3879 22.4995 13.5049C22.4995 13.5433 22.4966 13.5811 22.491 13.618C22.4967 13.6928 22.4995 13.768 22.4995 13.8432V18.0049C22.4995 19.6617 21.1564 21.0049 19.4995 21.0049H4.49951C2.84266 21.0049 1.49951 19.6617 1.49951 18.0049V13.8432C1.49951 13.768 1.50234 13.6928 1.50798 13.618C1.5024 13.5811 1.49951 13.5433 1.49951 13.5049C1.49951 13.3879 1.52631 13.2771 1.57409 13.1784C1.59071 13.1053 1.61008 13.0328 1.63217 12.961L4.04397 5.12263ZM2.99951 14.2549V18.0049C2.99951 18.8333 3.67108 19.5049 4.49951 19.5049H19.4995C20.3279 19.5049 20.9995 18.8333 20.9995 18.0049V14.2549H17.8901C17.3219 14.2549 16.8025 14.5759 16.5484 15.0841L16.2922 15.5965C15.784 16.6129 14.7453 17.2549 13.6089 17.2549H10.3901C9.25377 17.2549 8.21498 16.6129 7.70681 15.5965L7.45058 15.0841C7.19649 14.5759 6.67709 14.2549 6.10894 14.2549H2.99951ZM20.734 12.7549H17.8901C16.7538 12.7549 15.715 13.3969 15.2068 14.4132L14.9506 14.9257C14.6965 15.4339 14.1771 15.7549 13.6089 15.7549H10.3901C9.82193 15.7549 9.30254 15.4339 9.04845 14.9257L8.79222 14.4132C8.28404 13.3969 7.24525 12.7549 6.10894 12.7549H3.26498L5.47764 5.56375C5.67129 4.93437 6.2528 4.50488 6.9113 4.50488H17.0877C17.7462 4.50488 18.3277 4.93437 18.5214 5.56375L20.734 12.7549Z" fill="#868E96"/>
</svg>
