<svg width="24" height="24" viewBox="0 0 24 24" fill="none" xmlns="http://www.w3.org/2000/svg">
<path fill-rule="evenodd" clip-rule="evenodd" d="M12 2.25684C12.4142 2.25684 12.75 2.59262 12.75 3.00684V9.44618L14.4697 7.72651C14.7626 7.43361 15.2374 7.43361 15.5303 7.72651C15.8232 8.0194 15.8232 8.49427 15.5303 8.78717L12.5303 11.7872C12.2374 12.0801 11.7626 12.0801 11.4697 11.7872L8.46967 8.78717C8.17678 8.49427 8.17678 8.0194 8.46967 7.72651C8.76256 7.43361 9.23744 7.43361 9.53033 7.72651L11.25 9.44618V3.00684C11.25 2.59262 11.5858 2.25684 12 2.25684ZM6.91179 4.50684C6.25329 4.50684 5.67178 4.93632 5.47812 5.56571L3.26547 12.7568H6.10942C7.24574 12.7568 8.28453 13.3988 8.79271 14.4152L9.04894 14.9277C9.30302 15.4358 9.82242 15.7568 10.3906 15.7568H13.6094C14.1776 15.7568 14.697 15.4358 14.9511 14.9277L15.2073 14.4152C15.7155 13.3988 16.7543 12.7568 17.8906 12.7568H20.7345L18.5219 5.56571C18.3282 4.93632 17.7467 4.50684 17.0882 4.50684H15C14.5858 4.50684 14.25 4.17105 14.25 3.75684C14.25 3.34262 14.5858 3.00684 15 3.00684H17.0882C18.4052 3.00684 19.5682 3.8658 19.9555 5.12458L22.3673 12.9629C22.3894 13.0347 22.4088 13.1073 22.4254 13.1804C22.4732 13.2791 22.5 13.3898 22.5 13.5068C22.5 13.5453 22.4971 13.583 22.4915 13.6199C22.4972 13.6948 22.5 13.7699 22.5 13.8452V18.0068C22.5 19.6637 21.1569 21.0068 19.5 21.0068H4.5C2.84315 21.0068 1.5 19.6637 1.5 18.0068V13.8452C1.5 13.7699 1.50283 13.6948 1.50847 13.6199C1.50289 13.583 1.5 13.5453 1.5 13.5068C1.5 13.3898 1.52679 13.2791 1.57458 13.1804C1.5912 13.1073 1.61056 13.0347 1.63266 12.9629L4.04446 5.12458C4.43177 3.8658 5.59478 3.00684 6.91179 3.00684H9C9.41421 3.00684 9.75 3.34262 9.75 3.75684C9.75 4.17105 9.41421 4.50684 9 4.50684H6.91179ZM3 14.2568V18.0068C3 18.8353 3.67157 19.5068 4.5 19.5068H19.5C20.3284 19.5068 21 18.8353 21 18.0068V14.2568H17.8906C17.3224 14.2568 16.803 14.5778 16.5489 15.086L16.2927 15.5985C15.7845 16.6148 14.7457 17.2568 13.6094 17.2568H10.3906C9.25426 17.2568 8.21547 16.6148 7.70729 15.5985L7.45106 15.086C7.19698 14.5778 6.67758 14.2568 6.10942 14.2568H3Z" fill="#868E96"/>
</svg>
