<svg width="24" height="24" viewBox="0 0 24 24" fill="none" xmlns="http://www.w3.org/2000/svg">
<path fill-rule="evenodd" clip-rule="evenodd" d="M5.47812 5.56571C5.67178 4.93632 6.25329 4.50684 6.91179 4.50684H9C9.41421 4.50684 9.75 4.17105 9.75 3.75684C9.75 3.34262 9.41421 3.00684 9 3.00684H6.91179C5.59478 3.00684 4.43177 3.8658 4.04446 5.12458L1.63266 12.9629C1.54472 13.2487 1.5 13.5461 1.5 13.8452V18.0068C1.5 19.6637 2.84315 21.0068 4.5 21.0068H19.5C21.1569 21.0068 22.5 19.6637 22.5 18.0068V13.8452C22.5 13.5461 22.4553 13.2487 22.3673 12.9629L19.9555 5.12458C19.5682 3.8658 18.4052 3.00684 17.0882 3.00684H15C14.5858 3.00684 14.25 3.34262 14.25 3.75684C14.25 4.17105 14.5858 4.50684 15 4.50684H17.0882C17.7467 4.50684 18.3282 4.93632 18.5219 5.56571L20.7345 12.7568H17.8906C16.7543 12.7568 15.7155 13.3988 15.2073 14.4152L14.9511 14.9277C14.697 15.4358 14.1776 15.7568 13.6094 15.7568H10.3906C9.82242 15.7568 9.30302 15.4358 9.04894 14.9277L8.79271 14.4152C8.28453 13.3988 7.24574 12.7568 6.10942 12.7568H3.26547L5.47812 5.56571Z" fill="#868E96"/>
<path fill-rule="evenodd" clip-rule="evenodd" d="M12 2.25684C12.4142 2.25684 12.75 2.59262 12.75 3.00684V9.44618L14.4697 7.72651C14.7626 7.43361 15.2374 7.43361 15.5303 7.72651C15.8232 8.0194 15.8232 8.49427 15.5303 8.78717L12.5303 11.7872C12.2374 12.0801 11.7626 12.0801 11.4697 11.7872L8.46967 8.78717C8.17678 8.49427 8.17678 8.0194 8.46967 7.72651C8.76256 7.43361 9.23744 7.43361 9.53033 7.72651L11.25 9.44618V3.00684C11.25 2.59262 11.5858 2.25684 12 2.25684Z" fill="#868E96"/>
</svg>
