<svg width="24" height="24" viewBox="0 0 24 24" fill="none" xmlns="http://www.w3.org/2000/svg">
<path fill-rule="evenodd" clip-rule="evenodd" d="M12 3.75684C7.44365 3.75684 3.75 7.45049 3.75 12.0068C3.75 16.5632 7.44365 20.2568 12 20.2568C16.5563 20.2568 20.25 16.5632 20.25 12.0068C20.25 7.45049 16.5563 3.75684 12 3.75684ZM2.25 12.0068C2.25 6.62206 6.61522 2.25684 12 2.25684C17.3848 2.25684 21.75 6.62206 21.75 12.0068C21.75 17.3916 17.3848 21.7568 12 21.7568C6.61522 21.7568 2.25 17.3916 2.25 12.0068ZM11.25 8.25684C11.25 7.84262 11.5858 7.50684 12 7.50684H12.0075C12.4217 7.50684 12.7575 7.84262 12.7575 8.25684V8.26434C12.7575 8.67855 12.4217 9.01434 12.0075 9.01434H12C11.5858 9.01434 11.25 8.67855 11.25 8.26434V8.25684ZM10.9561 10.5653C12.1023 9.99215 13.3929 11.0274 13.0821 12.2707L12.3731 15.1068L12.4146 15.086C12.7851 14.9008 13.2356 15.0509 13.4208 15.4214C13.6061 15.7919 13.4559 16.2424 13.0854 16.4277L13.0439 16.4484C11.8977 17.0215 10.6071 15.9862 10.9179 14.743L11.6269 11.9069L11.5854 11.9277C11.2149 12.1129 10.7644 11.9627 10.5792 11.5922C10.3939 11.2218 10.5441 10.7713 10.9146 10.586L10.9561 10.5653Z" fill="#868E96"/>
</svg>
