<svg width="24" height="24" viewBox="0 0 24 24" fill="none" xmlns="http://www.w3.org/2000/svg">
<path fill-rule="evenodd" clip-rule="evenodd" d="M10.4974 3.75098C10.4974 3.33676 10.8332 3.00098 11.2474 3.00098H18.7473C19.1615 3.00098 19.4973 3.33676 19.4973 3.75098C19.4973 4.16519 19.1615 4.50098 18.7473 4.50098H15.4724L10.1153 19.5026H12.7474C13.1616 19.5026 13.4974 19.8384 13.4974 20.2526C13.4974 20.6668 13.1616 21.0026 12.7474 21.0026H5.24756C4.83335 21.0026 4.49756 20.6668 4.49756 20.2526C4.49756 19.8384 4.83335 19.5026 5.24756 19.5026H8.5225L13.8796 4.50098H11.2474C10.8332 4.50098 10.4974 4.16519 10.4974 3.75098Z" fill="#868E96"/>
</svg>
