<svg width="24" height="24" viewBox="0 0 24 24" fill="none" xmlns="http://www.w3.org/2000/svg">
<path fill-rule="evenodd" clip-rule="evenodd" d="M19.447 8.45501L16.3858 11.006C16.5354 11.6643 16.5354 12.3494 16.3858 13.0077L19.447 15.5587C20.5151 13.3186 20.5151 10.6951 19.447 8.45501ZM15.5499 19.4558L12.9989 16.3946C12.3406 16.5442 11.6555 16.5442 10.9972 16.3946L8.44622 19.4558C10.6863 20.5238 13.3098 20.5238 15.5499 19.4558ZM4.54907 15.5587L7.61025 13.0077C7.46065 12.3494 7.46065 11.6643 7.61025 11.006L4.54907 8.45501C3.48104 10.6951 3.48104 13.3186 4.54907 15.5587ZM8.44622 4.55786L10.9972 7.61904C11.6555 7.46943 12.3406 7.46943 12.9989 7.61904L15.5499 4.55785C13.3098 3.48983 10.6863 3.48983 8.44622 4.55786ZM17.1036 3.69803C17.7405 4.09009 18.3416 4.56176 18.8923 5.11254C19.4431 5.66333 19.9148 6.26439 20.3069 6.90132C22.2284 10.0231 22.2284 13.9905 20.3068 17.1123C19.9148 17.7493 19.4431 18.3503 18.8923 18.9011C18.3416 19.4519 17.7405 19.9236 17.1036 20.3156C13.9817 22.2372 10.0144 22.2372 6.89253 20.3156C6.2556 19.9236 5.65454 19.4519 5.10376 18.9011C4.55297 18.3503 4.0813 17.7493 3.68925 17.1123C1.76765 13.9905 1.76765 10.0231 3.68924 6.90132C4.0813 6.26439 4.55297 5.66333 5.10376 5.11254C5.65454 4.56176 6.2556 4.09009 6.89253 3.69803C10.0144 1.77644 13.9817 1.77644 17.1036 3.69803ZM14.1194 9.88551C13.7938 9.55996 13.4138 9.3259 13.0095 9.18155C12.357 8.9486 11.639 8.9486 10.9866 9.18155C10.5823 9.3259 10.2023 9.55996 9.87673 9.88551C9.55117 10.2111 9.31711 10.5911 9.17276 10.9954C8.93981 11.6478 8.93981 12.3658 9.17276 13.0183C9.31711 13.4226 9.55117 13.8026 9.87673 14.1282C10.2023 14.4537 10.5823 14.6878 10.9866 14.8321C11.639 15.0651 12.357 15.0651 13.0095 14.8321C13.4138 14.6878 13.7938 14.4537 14.1194 14.1282C14.4449 13.8026 14.679 13.4226 14.8233 13.0183C15.0563 12.3658 15.0563 11.6478 14.8233 10.9954C14.679 10.5911 14.4449 10.2111 14.1194 9.88551Z" fill="#868E96"/>
</svg>
