<svg width="24" height="24" viewBox="0 0 24 24" fill="none" xmlns="http://www.w3.org/2000/svg">
<g clip-path="url(#clip0_394_22829)">
<path d="M12 0.759277C7.44365 0.759277 3.75 4.45293 3.75 9.00928C3.75 12.06 5.40631 14.7231 7.86516 16.1497C8.55062 16.5474 8.97985 17.1577 8.99928 17.7718C9.00999 18.1106 9.24656 18.4001 9.5764 18.478C9.92778 18.5611 10.2859 18.6264 10.6496 18.6732C10.9732 18.7147 11.2502 18.4555 11.2502 18.1293V13.4682C10.9309 13.4329 10.618 13.3753 10.3132 13.2968C9.9121 13.1936 9.67061 12.7847 9.77385 12.3836C9.8771 11.9824 10.286 11.7409 10.6871 11.8442C11.1059 11.952 11.5458 12.0095 12.0002 12.0095C12.4546 12.0095 12.8944 11.952 13.3132 11.8442C13.7144 11.7409 14.1233 11.9824 14.2265 12.3836C14.3298 12.7847 14.0883 13.1936 13.6871 13.2968C13.3823 13.3753 13.0695 13.4329 12.7502 13.4682V18.1292C12.7502 18.4555 13.0272 18.7147 13.3508 18.6731C13.7144 18.6264 14.0723 18.561 14.4236 18.478C14.7534 18.4001 14.99 18.1106 15.0007 17.7718C15.0201 17.1577 15.4494 16.5474 16.1348 16.1497C18.5937 14.7231 20.25 12.06 20.25 9.00928C20.25 4.45293 16.5563 0.759277 12 0.759277Z" fill="#868E96"/>
<path fill-rule="evenodd" clip-rule="evenodd" d="M9.01314 19.9089C9.09034 19.502 9.48282 19.2347 9.88978 19.3118C10.5727 19.4414 11.2781 19.5093 12 19.5093C12.7219 19.5093 13.4273 19.4414 14.1102 19.3118C14.5172 19.2347 14.9097 19.502 14.9869 19.9089C15.0641 20.3159 14.7967 20.7084 14.3898 20.7856C13.6151 20.9325 12.8162 21.0093 12 21.0093C11.1838 21.0093 10.3849 20.9325 9.61022 20.7856C9.20327 20.7084 8.93594 20.3159 9.01314 19.9089Z" fill="#868E96"/>
<path fill-rule="evenodd" clip-rule="evenodd" d="M9.75407 22.3532C9.79717 21.9413 10.1661 21.6423 10.578 21.6853C11.0451 21.7342 11.5195 21.7593 12 21.7593C12.4805 21.7593 12.9549 21.7342 13.422 21.6853C13.8339 21.6423 14.2028 21.9413 14.2459 22.3532C14.289 22.7652 13.99 23.1341 13.578 23.1772C13.0592 23.2315 12.5327 23.2593 12 23.2593C11.4673 23.2593 10.9408 23.2315 10.422 23.1772C10.01 23.1341 9.71097 22.7652 9.75407 22.3532Z" fill="#868E96"/>
</g>
<defs>
<clipPath id="clip0_394_22829">
<rect width="24" height="24" fill="white" transform="translate(0 0.00927734)"/>
</clipPath>
</defs>
</svg>
