<svg width="24" height="25" viewBox="0 0 24 25" fill="none" xmlns="http://www.w3.org/2000/svg">
<path fill-rule="evenodd" clip-rule="evenodd" d="M2.625 6.76172C2.625 6.1404 3.12868 5.63672 3.75 5.63672C4.37132 5.63672 4.875 6.1404 4.875 6.76172C4.875 7.38304 4.37132 7.88672 3.75 7.88672C3.12868 7.88672 2.625 7.38304 2.625 6.76172ZM7.5 6.76172C7.5 6.34751 7.83579 6.01172 8.25 6.01172H20.25C20.6642 6.01172 21 6.34751 21 6.76172C21 7.17593 20.6642 7.51172 20.25 7.51172H8.25C7.83579 7.51172 7.5 7.17593 7.5 6.76172ZM2.625 12.0117C2.625 11.3904 3.12868 10.8867 3.75 10.8867C4.37132 10.8867 4.875 11.3904 4.875 12.0117C4.875 12.633 4.37132 13.1367 3.75 13.1367C3.12868 13.1367 2.625 12.633 2.625 12.0117ZM7.5 12.0117C7.5 11.5975 7.83579 11.2617 8.25 11.2617H20.25C20.6642 11.2617 21 11.5975 21 12.0117C21 12.4259 20.6642 12.7617 20.25 12.7617H8.25C7.83579 12.7617 7.5 12.4259 7.5 12.0117ZM2.625 17.2617C2.625 16.6404 3.12868 16.1367 3.75 16.1367C4.37132 16.1367 4.875 16.6404 4.875 17.2617C4.875 17.883 4.37132 18.3867 3.75 18.3867C3.12868 18.3867 2.625 17.883 2.625 17.2617ZM7.5 17.2617C7.5 16.8475 7.83579 16.5117 8.25 16.5117H20.25C20.6642 16.5117 21 16.8475 21 17.2617C21 17.6759 20.6642 18.0117 20.25 18.0117H8.25C7.83579 18.0117 7.5 17.6759 7.5 17.2617Z" fill="#868E96"/>
</svg>
