<svg width="24" height="25" viewBox="0 0 24 25" fill="none" xmlns="http://www.w3.org/2000/svg">
<path fill-rule="evenodd" clip-rule="evenodd" d="M6.75 6.76172C6.75 3.86222 9.10051 1.51172 12 1.51172C14.8995 1.51172 17.25 3.86222 17.25 6.76172V9.76172C18.9069 9.76172 20.25 11.1049 20.25 12.7617V19.5117C20.25 21.1686 18.9069 22.5117 17.25 22.5117H6.75C5.09315 22.5117 3.75 21.1686 3.75 19.5117V12.7617C3.75 11.1049 5.09315 9.76172 6.75 9.76172V6.76172ZM6.75 11.2617C5.92157 11.2617 5.25 11.9333 5.25 12.7617V19.5117C5.25 20.3401 5.92157 21.0117 6.75 21.0117H17.25C18.0784 21.0117 18.75 20.3401 18.75 19.5117V12.7617C18.75 11.9333 18.0784 11.2617 17.25 11.2617H6.75ZM15.75 9.76172H8.25V6.76172C8.25 4.69065 9.92893 3.01172 12 3.01172C14.0711 3.01172 15.75 4.69065 15.75 6.76172V9.76172Z" fill="#868E96"/>
</svg>
