<svg width="24" height="25" viewBox="0 0 24 25" fill="none" xmlns="http://www.w3.org/2000/svg">
<path d="M18 1.51172C20.8995 1.51172 23.25 3.86222 23.25 6.76172V10.5117C23.25 10.9259 22.9142 11.2617 22.5 11.2617C22.0858 11.2617 21.75 10.9259 21.75 10.5117V6.76172C21.75 4.69065 20.0711 3.01172 18 3.01172C15.9289 3.01172 14.25 4.69065 14.25 6.76172V9.76172C15.9069 9.76172 17.25 11.1049 17.25 12.7617V19.5117C17.25 21.1686 15.9069 22.5117 14.25 22.5117H3.75C2.09315 22.5117 0.75 21.1686 0.75 19.5117V12.7617C0.75 11.1049 2.09315 9.76172 3.75 9.76172H12.75V6.76172C12.75 3.86222 15.1005 1.51172 18 1.51172Z" fill="#868E96"/>
</svg>
