<svg width="24" height="25" viewBox="0 0 24 25" fill="none" xmlns="http://www.w3.org/2000/svg">
<path fill-rule="evenodd" clip-rule="evenodd" d="M11.5397 22.3628C11.57 22.3803 11.5937 22.3938 11.6105 22.4032L11.6384 22.4188C11.8613 22.5412 12.1378 22.5402 12.3608 22.4192L12.3895 22.4032C12.4063 22.3938 12.43 22.3803 12.4603 22.3628C12.5207 22.3278 12.607 22.2767 12.7155 22.2099C12.9325 22.0763 13.2388 21.8793 13.6046 21.6208C14.3351 21.1048 15.3097 20.3392 16.2865 19.3391C18.2307 17.3485 20.25 14.3579 20.25 10.5117C20.25 5.95537 16.5563 2.26172 12 2.26172C7.44365 2.26172 3.75 5.95537 3.75 10.5117C3.75 14.3579 5.76932 17.3485 7.71346 19.3391C8.69025 20.3392 9.66491 21.1048 10.3954 21.6208C10.7612 21.8793 11.0675 22.0763 11.2845 22.2099C11.393 22.2767 11.4793 22.3278 11.5397 22.3628ZM12 13.5117C13.6569 13.5117 15 12.1686 15 10.5117C15 8.85486 13.6569 7.51172 12 7.51172C10.3431 7.51172 9 8.85486 9 10.5117C9 12.1686 10.3431 13.5117 12 13.5117Z" fill="#868E96"/>
</svg>
