<svg width="24" height="25" viewBox="0 0 24 25" fill="none" xmlns="http://www.w3.org/2000/svg">
<path d="M16.8802 4.35733C14.809 5.18591 12.5907 5.72511 10.275 5.92492C9.6075 5.98251 8.93179 6.01192 8.24902 6.01192H7.49902C4.59953 6.01192 2.24902 8.36243 2.24902 11.2619C2.24902 13.8615 4.13847 16.0198 6.61899 16.4385C6.95326 17.8075 7.41708 19.1257 7.99667 20.3793C8.46073 21.3831 9.67084 21.6994 10.5793 21.1749L11.2356 20.7959C12.1157 20.2878 12.4013 19.2032 12.0077 18.3278C11.7728 17.8054 11.5632 17.2693 11.3804 16.7209C13.2978 16.979 15.1409 17.4707 16.8802 18.1665C17.6059 15.9971 17.999 13.6754 17.999 11.2619C17.999 8.84838 17.6059 6.52668 16.8802 4.35733Z" fill="#868E96"/>
<path d="M18.2596 3.75262C19.0631 6.10832 19.499 8.6342 19.499 11.2619C19.499 13.8896 19.0631 16.4155 18.2596 18.7712C18.2045 18.933 18.1478 19.094 18.0891 19.2541C17.9468 19.6431 18.1467 20.0738 18.5356 20.2162C18.9246 20.3586 19.3554 20.1587 19.4977 19.7697C19.6378 19.3872 19.7686 19.0003 19.89 18.6092C20.4137 16.9225 20.7617 15.1588 20.913 13.3397C21.43 12.8012 21.749 12.0686 21.749 11.2619C21.749 10.4553 21.43 9.72263 20.913 9.18418C20.7617 7.36509 20.4137 5.60138 19.89 3.91464C19.7686 3.52355 19.6378 3.13662 19.4977 2.75412C19.3554 2.36514 18.9246 2.16524 18.5356 2.30762C18.1467 2.45001 17.9468 2.88076 18.0891 3.26973C18.1478 3.42985 18.2045 3.59088 18.2596 3.75262Z" fill="#868E96"/>
</svg>
