<svg width="24" height="25" viewBox="0 0 24 25" fill="none" xmlns="http://www.w3.org/2000/svg">
<path fill-rule="evenodd" clip-rule="evenodd" d="M9.52839 1.73141C9.74339 1.94641 9.80731 2.26995 9.69021 2.55056C9.2458 3.61559 9 4.78498 9 6.01368C9 10.9842 13.0294 15.0137 18 15.0137C19.2287 15.0137 20.3981 14.7679 21.4631 14.3235C21.7437 14.2064 22.0673 14.2703 22.2823 14.4853C22.4973 14.7003 22.5612 15.0238 22.4441 15.3044C20.8618 19.0963 17.1183 21.7637 12.75 21.7637C6.95101 21.7637 2.25 17.0627 2.25 11.2637C2.25 6.89539 4.91735 3.15184 8.70924 1.56958C8.98985 1.45249 9.31338 1.51641 9.52839 1.73141ZM7.7365 3.7881C5.33138 5.40433 3.75 8.14994 3.75 11.2637C3.75 16.2342 7.77944 20.2637 12.75 20.2637C15.8637 20.2637 18.6094 18.6823 20.2256 16.2772C19.5079 16.4321 18.7632 16.5137 18 16.5137C12.201 16.5137 7.5 11.8127 7.5 6.01368C7.5 5.2505 7.58154 4.50582 7.7365 3.7881Z" fill="#868E96"/>
</svg>
