<svg width="24" height="25" viewBox="0 0 24 25" fill="none" xmlns="http://www.w3.org/2000/svg">
<path fill-rule="evenodd" clip-rule="evenodd" d="M19.9516 1.66492C20.1395 1.80664 20.25 2.02834 20.25 2.26368V5.99711C20.2503 6.00843 20.2503 6.01973 20.25 6.03099V16.3165C20.25 17.6559 19.3621 18.8331 18.0742 19.2011L16.7542 19.5782C15.1234 20.0442 13.5 18.8196 13.5 17.1236C13.5 15.9838 14.2556 14.9821 15.3515 14.6689L17.6621 14.0088C18.306 13.8248 18.75 13.2362 18.75 12.5665V7.00798L9.75 9.5794V19.3165C9.75 20.6559 8.86207 21.8331 7.57416 22.2011L6.25418 22.5782C4.62337 23.0442 3 21.8196 3 20.1236C3 18.9838 3.75559 17.9821 4.85153 17.6689L7.16208 17.0088C7.80603 16.8248 8.25 16.2362 8.25 15.5665V9.03026C8.24974 9.01893 8.24974 9.00762 8.25 8.99635V5.26368C8.25 4.92882 8.47198 4.63453 8.79396 4.54254L19.294 1.54254C19.5202 1.47788 19.7638 1.52319 19.9516 1.66492Z" fill="#868E96"/>
</svg>
