<svg width="24" height="25" viewBox="0 0 24 25" fill="none" xmlns="http://www.w3.org/2000/svg">
<path fill-rule="evenodd" clip-rule="evenodd" d="M4.12402 3.01367C3.08849 3.01367 2.24902 3.85314 2.24902 4.88867V18.0137C2.24902 19.6705 3.59217 21.0137 5.24902 21.0137H20.249C18.5922 21.0137 17.249 19.6705 17.249 18.0137V4.88867C17.249 3.85314 16.4096 3.01367 15.374 3.01367H4.12402ZM11.999 9.76367C11.5848 9.76367 11.249 10.0995 11.249 10.5137C11.249 10.9279 11.5848 11.2637 11.999 11.2637H13.499C13.9132 11.2637 14.249 10.9279 14.249 10.5137C14.249 10.0995 13.9132 9.76367 13.499 9.76367H11.999ZM11.249 7.51367C11.249 7.09946 11.5848 6.76367 11.999 6.76367H13.499C13.9132 6.76367 14.249 7.09946 14.249 7.51367C14.249 7.92789 13.9132 8.26367 13.499 8.26367H11.999C11.5848 8.26367 11.249 7.92789 11.249 7.51367ZM5.99902 12.7637C5.58481 12.7637 5.24902 13.0995 5.24902 13.5137C5.24902 13.9279 5.58481 14.2637 5.99902 14.2637H13.499C13.9132 14.2637 14.249 13.9279 14.249 13.5137C14.249 13.0995 13.9132 12.7637 13.499 12.7637H5.99902ZM5.24902 16.5137C5.24902 16.0995 5.58481 15.7637 5.99902 15.7637H13.499C13.9132 15.7637 14.249 16.0995 14.249 16.5137C14.249 16.9279 13.9132 17.2637 13.499 17.2637H5.99902C5.58481 17.2637 5.24902 16.9279 5.24902 16.5137ZM5.99902 6.76367C5.58481 6.76367 5.24902 7.09946 5.24902 7.51367V10.5137C5.24902 10.9279 5.58481 11.2637 5.99902 11.2637H8.99902C9.41324 11.2637 9.74902 10.9279 9.74902 10.5137V7.51367C9.74902 7.09946 9.41324 6.76367 8.99902 6.76367H5.99902Z" fill="#868E96"/>
<path d="M18.749 6.76367H20.624C21.2453 6.76367 21.749 7.26735 21.749 7.88867V18.0137C21.749 18.8421 21.0775 19.5137 20.249 19.5137C19.4206 19.5137 18.749 18.8421 18.749 18.0137V6.76367Z" fill="#868E96"/>
</svg>
