<svg width="24" height="25" viewBox="0 0 24 25" fill="none" xmlns="http://www.w3.org/2000/svg">
<path fill-rule="evenodd" clip-rule="evenodd" d="M7.49136 6.00794C7.49136 5.59371 7.82715 5.2579 8.24138 5.2579H20.2411C20.6554 5.2579 20.9912 5.59371 20.9912 6.00794C20.9912 6.42218 20.6554 6.75798 20.2411 6.75798H8.24138C7.82715 6.75798 7.49136 6.42218 7.49136 6.00794Z" fill="#868E96"/>
<path fill-rule="evenodd" clip-rule="evenodd" d="M7.49069 12.0107C7.49069 11.5964 7.82649 11.2606 8.24071 11.2606H20.2405C20.6547 11.2606 20.9905 11.5964 20.9905 12.0107C20.9905 12.4249 20.6547 12.7607 20.2405 12.7607H8.24071C7.82649 12.7607 7.49069 12.4249 7.49069 12.0107Z" fill="#868E96"/>
<path fill-rule="evenodd" clip-rule="evenodd" d="M7.49136 18.0097C7.49136 17.5955 7.82715 17.2597 8.24138 17.2597H20.2411C20.6554 17.2597 20.9912 17.5955 20.9912 18.0097C20.9912 18.424 20.6554 18.7598 20.2411 18.7598H8.24138C7.82715 18.7598 7.49136 18.424 7.49136 18.0097Z" fill="#868E96"/>
<path fill-rule="evenodd" clip-rule="evenodd" d="M2.24023 3.76127C2.24023 3.34703 2.57603 3.01123 2.99025 3.01123H4.11523C4.52945 3.01123 4.86525 3.34703 4.86525 3.76127V6.76159H5.24021C5.65443 6.76159 5.99023 7.0974 5.99023 7.51163C5.99023 7.92587 5.65443 8.26167 5.24021 8.26167H2.99025C2.57603 8.26167 2.24023 7.92587 2.24023 7.51163C2.24023 7.0974 2.57603 6.76159 2.99025 6.76159H3.36521V4.51131H2.99025C2.57603 4.51131 2.24023 4.17551 2.24023 3.76127Z" fill="#868E96"/>
<path fill-rule="evenodd" clip-rule="evenodd" d="M2.79049 10.6181C2.4976 10.3251 2.4976 9.85022 2.79049 9.5573C3.5227 8.82499 4.70987 8.82499 5.44208 9.5573C6.1743 10.2896 6.1743 11.4769 5.44208 12.2092L4.89284 12.7585L5.24142 12.7585C5.65562 12.7586 5.99137 13.0944 5.99133 13.5087C5.9913 13.9229 5.65548 14.2587 5.24128 14.2587L3.08231 14.2585C2.77898 14.2585 2.50554 14.0757 2.38947 13.7954C2.2734 13.5152 2.33757 13.1925 2.55206 12.978L4.38144 11.1484C4.52789 11.002 4.52789 10.7645 4.38144 10.6181C4.235 10.4716 3.99757 10.4716 3.85113 10.6181C3.55824 10.911 3.08337 10.911 2.79049 10.6181Z" fill="#868E96"/>
<path fill-rule="evenodd" clip-rule="evenodd" d="M2.24023 15.7608C2.24023 15.3466 2.57603 15.0107 2.99025 15.0107H4.11513C5.15072 15.0107 5.99023 15.8503 5.99023 16.8859C5.99023 17.3076 5.85103 17.6968 5.61609 18.01C5.85103 18.3232 5.99023 18.7124 5.99023 19.1341C5.99023 20.1697 5.15072 21.0092 4.11513 21.0092H2.99025C2.57603 21.0092 2.24023 20.6734 2.24023 20.2592C2.24023 19.845 2.57603 19.5092 2.99025 19.5092H4.11513C4.32227 19.5092 4.49019 19.3412 4.49019 19.1341C4.49019 18.939 4.3413 18.7788 4.15098 18.7607C4.13906 18.7609 4.12711 18.761 4.11513 18.761H3.74024C3.32601 18.761 2.99022 18.4252 2.99022 18.011L2.99022 18.01L2.99022 18.009C2.99022 17.5947 3.32601 17.2589 3.74024 17.2589H4.11513C4.12711 17.2589 4.13906 17.2591 4.15098 17.2593C4.3413 17.2412 4.49019 17.0809 4.49019 16.8859C4.49019 16.6788 4.32227 16.5108 4.11513 16.5108H2.99025C2.57603 16.5108 2.24023 16.175 2.24023 15.7608Z" fill="#868E96"/>
</svg>
