<svg width="24" height="25" viewBox="0 0 24 25" fill="none" xmlns="http://www.w3.org/2000/svg">
<path fill-rule="evenodd" clip-rule="evenodd" d="M19.5432 1.83545C19.8555 1.62723 20.2225 1.51611 20.5979 1.51611C21.648 1.51611 22.4992 2.36739 22.4992 3.4175C22.4992 3.79288 22.3881 4.15987 22.1799 4.4722L21.5559 4.05618L22.1799 4.4722L18.3039 10.2862C16.9903 12.2566 15.2861 13.9085 13.3175 15.1528C12.4106 15.7261 11.4477 16.2128 10.4409 16.6044C10.4793 16.8195 10.4992 17.0407 10.4992 17.2661L10.4992 17.2907M7.41097 13.5743C7.80257 12.5676 8.28933 11.6047 8.86253 10.6979C10.1069 8.72929 11.7588 7.02503 13.7292 5.71144L19.5432 1.83545M7.50611 15.1466C7.26949 15.0621 7.01467 15.0161 6.74925 15.0161C5.50661 15.0161 4.49925 16.0235 4.49925 17.2661C4.49925 18.4961 3.759 19.5532 2.69971 20.0163C3.36923 20.6373 4.26521 21.0161 5.24922 21.0161C7.31439 21.0161 8.98969 19.3467 8.99918 17.2838L8.99919 17.2821L8.99925 17.2661C8.99925 16.9656 8.94073 16.6806 8.83517 16.4206C8.61852 15.8868 8.20344 15.4558 7.68215 15.218C7.66561 15.2136 7.64911 15.2086 7.63268 15.203C7.58805 15.1878 7.54578 15.1689 7.50611 15.1466ZM8.80464 14.1291C9.23504 14.4118 9.60369 14.7806 9.88612 15.2108C10.5927 14.9365 11.2757 14.6108 11.9299 14.2373C11.4093 13.3489 10.6664 12.6061 9.77811 12.0855C9.40456 12.7396 9.07886 13.4226 8.80464 14.1291ZM10.5856 10.8203C11.6573 11.4594 12.5559 12.358 13.195 13.4298C14.7014 12.3605 16.0136 11.0174 17.0558 9.45414L20.9318 3.64015C20.9758 3.57422 20.9992 3.49674 20.9992 3.4175C20.9992 3.19582 20.8195 3.01611 20.5979 3.01611C20.5186 3.01611 20.4411 3.03957 20.3752 3.08353L19.9592 2.45949L20.3752 3.08353L14.5612 6.95952C12.9979 8.00171 11.6549 9.31399 10.5856 10.8203Z" fill="#868E96"/>
</svg>
