<svg width="24" height="25" viewBox="0 0 24 25" fill="none" xmlns="http://www.w3.org/2000/svg">
<path fill-rule="evenodd" clip-rule="evenodd" d="M2.7331 2.61452C2.92649 2.41805 3.21208 2.34351 3.47682 2.42042C10.1754 4.36632 16.3962 7.43428 21.922 11.4069C22.118 11.5478 22.2342 11.7745 22.2342 12.0159C22.2343 12.2573 22.1181 12.4839 21.922 12.6248C16.3962 16.5975 10.1755 19.6656 3.47692 21.6115C3.21218 21.6884 2.92659 21.6139 2.73319 21.4174C2.5398 21.221 2.46978 20.9342 2.55085 20.6708L5.21381 12.0161L2.55076 3.36121C2.46969 3.09772 2.5397 2.81099 2.7331 2.61452ZM6.55245 12.7661L4.39919 19.7642C10.0783 17.9665 15.3874 15.3361 20.1833 12.0159C15.3874 8.69573 10.0782 6.06534 4.39909 4.26773L6.55245 11.2661L13.4988 11.2661C13.913 11.2661 14.2488 11.6019 14.2488 12.0161C14.2488 12.4303 13.913 12.7661 13.4988 12.7661L6.55245 12.7661Z" fill="#868E96"/>
</svg>
