<svg width="24" height="25" viewBox="0 0 24 25" fill="none" xmlns="http://www.w3.org/2000/svg">
<path d="M3.47682 2.42042C3.21208 2.34351 2.92649 2.41805 2.7331 2.61452C2.5397 2.81099 2.46969 3.09772 2.55076 3.36121L4.98304 11.2661H13.4988C13.913 11.2661 14.2488 11.6019 14.2488 12.0161C14.2488 12.4303 13.913 12.7661 13.4988 12.7661H4.98305L2.55085 20.6708C2.46978 20.9342 2.5398 21.221 2.73319 21.4174C2.92659 21.6139 3.21218 21.6884 3.47692 21.6115C10.1755 19.6656 16.3962 16.5975 21.922 12.6248C22.1181 12.4839 22.2342 12.2573 22.2342 12.0159C22.2342 11.7745 22.118 11.5478 21.922 11.4069C16.3962 7.43428 10.1754 4.36632 3.47682 2.42042Z" fill="#868E96"/>
</svg>
