<svg width="24" height="25" viewBox="0 0 24 25" fill="none" xmlns="http://www.w3.org/2000/svg">
<path fill-rule="evenodd" clip-rule="evenodd" d="M12 3.76855C7.44365 3.76855 3.75 7.46221 3.75 12.0186C3.75 16.5749 7.44365 20.2686 12 20.2686C16.5563 20.2686 20.25 16.5749 20.25 12.0186C20.25 7.46221 16.5563 3.76855 12 3.76855ZM2.25 12.0186C2.25 6.63378 6.61522 2.26855 12 2.26855C17.3848 2.26855 21.75 6.63378 21.75 12.0186C21.75 17.4033 17.3848 21.7686 12 21.7686C6.61522 21.7686 2.25 17.4033 2.25 12.0186ZM9.75 8.26855C10.1642 8.26855 10.5 8.60434 10.5 9.01855V15.0186C10.5 15.4328 10.1642 15.7686 9.75 15.7686C9.33579 15.7686 9 15.4328 9 15.0186V9.01855C9 8.60434 9.33579 8.26855 9.75 8.26855ZM14.25 8.26855C14.6642 8.26855 15 8.60434 15 9.01855V15.0186C15 15.4328 14.6642 15.7686 14.25 15.7686C13.8358 15.7686 13.5 15.4328 13.5 15.0186V9.01855C13.5 8.60434 13.8358 8.26855 14.25 8.26855Z" fill="#868E96"/>
</svg>
