<svg width="24" height="25" viewBox="0 0 24 25" fill="none" xmlns="http://www.w3.org/2000/svg">
<path fill-rule="evenodd" clip-rule="evenodd" d="M2.25 12.0186C2.25 6.63378 6.61522 2.26855 12 2.26855C17.3848 2.26855 21.75 6.63378 21.75 12.0186C21.75 17.4033 17.3848 21.7686 12 21.7686C6.61522 21.7686 2.25 17.4033 2.25 12.0186ZM9 8.26855C8.58579 8.26855 8.25 8.60434 8.25 9.01855V15.0186C8.25 15.4328 8.58579 15.7686 9 15.7686H9.75C10.1642 15.7686 10.5 15.4328 10.5 15.0186V9.01855C10.5 8.60434 10.1642 8.26855 9.75 8.26855H9ZM14.25 8.26855C13.8358 8.26855 13.5 8.60434 13.5 9.01855V15.0186C13.5 15.4328 13.8358 15.7686 14.25 15.7686H15C15.4142 15.7686 15.75 15.4328 15.75 15.0186V9.01855C15.75 8.60434 15.4142 8.26855 15 8.26855H14.25Z" fill="#868E96"/>
</svg>
