<svg width="24" height="25" viewBox="0 0 24 25" fill="none" xmlns="http://www.w3.org/2000/svg">
<path fill-rule="evenodd" clip-rule="evenodd" d="M6.75 5.26855C6.75 4.85434 7.08579 4.51855 7.5 4.51855H9C9.41421 4.51855 9.75 4.85434 9.75 5.26855V18.7686C9.75 19.1828 9.41421 19.5186 9 19.5186H7.5C7.30109 19.5186 7.11032 19.4395 6.96967 19.2989C6.82902 19.1582 6.75 18.9675 6.75 18.7686L6.75 5.26855ZM14.25 5.26855C14.25 4.85434 14.5858 4.51855 15 4.51855H16.5C16.6989 4.51855 16.8897 4.59757 17.0303 4.73822C17.171 4.87888 17.25 5.06964 17.25 5.26855V18.7686C17.25 19.1828 16.9142 19.5186 16.5 19.5186H15C14.5858 19.5186 14.25 19.1828 14.25 18.7686V5.26855Z" fill="#868E96"/>
</svg>
