<svg width="24" height="25" viewBox="0 0 24 25" fill="none" xmlns="http://www.w3.org/2000/svg">
<path d="M21.7312 2.2874C20.706 1.26227 19.044 1.26227 18.0188 2.2874L16.8617 3.44455L20.574 7.15686L21.7312 5.99971C22.7563 4.97458 22.7563 3.31253 21.7312 2.2874Z" fill="#868E96"/>
<path d="M19.5133 8.21752L15.801 4.50521L7.40019 12.9061C6.78341 13.5228 6.33002 14.2836 6.081 15.1196L5.28122 17.8044C5.2026 18.0684 5.27494 18.3541 5.46967 18.5489C5.6644 18.7436 5.95019 18.816 6.21412 18.7373L8.89901 17.9375C9.73498 17.6885 10.4957 17.2351 11.1125 16.6184L19.5133 8.21752Z" fill="#868E96"/>
<path d="M5.25 5.26855C3.59315 5.26855 2.25 6.61169 2.25 8.26855V18.7685C2.25 20.4254 3.59315 21.7685 5.25 21.7685H15.75C17.4069 21.7685 18.75 20.4254 18.75 18.7685V13.5185C18.75 13.1043 18.4142 12.7685 18 12.7685C17.5858 12.7685 17.25 13.1043 17.25 13.5185V18.7685C17.25 19.597 16.5784 20.2685 15.75 20.2685H5.25C4.42157 20.2685 3.75 19.597 3.75 18.7685V8.26855C3.75 7.44012 4.42157 6.76855 5.25 6.76855H10.5C10.9142 6.76855 11.25 6.43276 11.25 6.01855C11.25 5.60433 10.9142 5.26855 10.5 5.26855H5.25Z" fill="#868E96"/>
</svg>
