<svg width="24" height="25" viewBox="0 0 24 25" fill="none" xmlns="http://www.w3.org/2000/svg">
<path fill-rule="evenodd" clip-rule="evenodd" d="M20.6705 3.34806C20.2312 2.90872 19.5188 2.90872 19.0795 3.34806L17.9223 4.50523L19.5133 6.09622L20.6705 4.93905C21.1098 4.49971 21.1098 3.7874 20.6705 3.34806ZM18.4527 7.15688L16.8617 5.56589L8.46085 13.9667C8.02029 14.4073 7.69644 14.9507 7.51857 15.5478L7.11458 16.904L8.47078 16.5C9.0679 16.3221 9.61129 15.9983 10.0519 15.5577L18.4527 7.15688ZM18.0188 2.2874C19.044 1.26227 20.706 1.26227 21.7312 2.2874C22.7563 3.31253 22.7563 4.97458 21.7312 5.99971L11.1125 16.6184C10.4957 17.2351 9.73498 17.6885 8.899 17.9376L6.21411 18.7373C5.95019 18.816 5.6644 18.7436 5.46967 18.5489C5.27494 18.3541 5.20259 18.0684 5.28121 17.8044L6.08099 15.1196C6.33001 14.2836 6.7834 13.5228 7.40019 12.9061L18.0188 2.2874ZM5.25 6.76855C4.42157 6.76855 3.75 7.44012 3.75 8.26855V18.7685C3.75 19.597 4.42157 20.2685 5.25 20.2685H15.75C16.5784 20.2685 17.25 19.597 17.25 18.7685V14.0185C17.25 13.6043 17.5858 13.2685 18 13.2685C18.4142 13.2685 18.75 13.6043 18.75 14.0185V18.7685C18.75 20.4254 17.4069 21.7685 15.75 21.7685H5.25C3.59315 21.7685 2.25 20.4254 2.25 18.7685V8.26855C2.25 6.61169 3.59315 5.26855 5.25 5.26855H10C10.4142 5.26855 10.75 5.60433 10.75 6.01855C10.75 6.43276 10.4142 6.76855 10 6.76855H5.25Z" fill="#868E96"/>
</svg>
