<svg width="24" height="25" viewBox="0 0 24 25" fill="none" xmlns="http://www.w3.org/2000/svg">
<path fill-rule="evenodd" clip-rule="evenodd" d="M1.5 4.521C1.5 2.86414 2.84315 1.521 4.5 1.521H5.87163C6.732 1.521 7.48197 2.10655 7.69064 2.94124L8.79644 7.36443C8.97941 8.0963 8.70594 8.86654 8.10242 9.31918L6.8088 10.2894C6.67447 10.3901 6.64527 10.5377 6.683 10.6407C7.81851 13.7405 10.2805 16.2025 13.3803 17.338C13.4833 17.3757 13.6309 17.3465 13.7316 17.2122L14.7018 15.9186C15.1545 15.3151 15.9247 15.0416 16.6566 15.2246L21.0798 16.3304C21.9144 16.539 22.5 17.289 22.5 18.1494V19.521C22.5 21.1779 21.1569 22.521 19.5 22.521H17.25C8.55152 22.521 1.5 15.4695 1.5 6.771V4.521ZM4.5 3.021C3.67157 3.021 3 3.69257 3 4.521V6.771C3 14.6411 9.37994 21.021 17.25 21.021H19.5C20.3284 21.021 21 20.3494 21 19.521V18.1494C21 17.9773 20.8829 17.8273 20.716 17.7856L16.2928 16.6798C16.1464 16.6432 15.9923 16.6979 15.9018 16.8186L14.9316 18.1122C14.4692 18.7288 13.6427 19.0316 12.8644 18.7465C9.35027 17.4592 6.5618 14.6707 5.27453 11.1566C4.98941 10.3783 5.29225 9.55181 5.9088 9.08939L7.20242 8.11918C7.32313 8.02865 7.37782 7.8746 7.34123 7.72823L6.23543 3.30505C6.1937 3.13811 6.0437 3.021 5.87163 3.021H4.5ZM15 3.771C15 3.35678 15.3358 3.021 15.75 3.021H20.25C20.6642 3.021 21 3.35678 21 3.771V8.271C21 8.68521 20.6642 9.021 20.25 9.021C19.8358 9.021 19.5 8.68521 19.5 8.271V5.58166L14.7803 10.3013C14.4874 10.5942 14.0126 10.5942 13.7197 10.3013C13.4268 10.0084 13.4268 9.53356 13.7197 9.24067L18.4393 4.521H15.75C15.3358 4.521 15 4.18521 15 3.771Z" fill="#868E96"/>
</svg>
