<svg width="24" height="25" viewBox="0 0 24 25" fill="none" xmlns="http://www.w3.org/2000/svg">
<path fill-rule="evenodd" clip-rule="evenodd" d="M1.49902 4.51855C1.49902 2.8617 2.84217 1.51855 4.49902 1.51855H5.87065C6.73103 1.51855 7.481 2.10411 7.68967 2.9388L8.79546 7.36198C8.97843 8.09385 8.70496 8.8641 8.10145 9.31674L6.80783 10.287C6.67349 10.3877 6.64429 10.5352 6.68202 10.6382C7.81753 13.738 10.2795 16.2 13.3793 17.3356C13.4823 17.3733 13.6299 17.3441 13.7306 17.2098L14.7008 15.9161C15.1535 15.3126 15.9237 15.0391 16.6556 15.2221L21.0788 16.3279C21.9135 16.5366 22.499 17.2866 22.499 18.1469V19.5186C22.499 21.1754 21.1559 22.5186 19.499 22.5186H17.249C8.55054 22.5186 1.49902 15.467 1.49902 6.76855V4.51855Z" fill="#868E96"/>
</svg>
