<svg width="24" height="25" viewBox="0 0 24 25" fill="none" xmlns="http://www.w3.org/2000/svg">
<path fill-rule="evenodd" clip-rule="evenodd" d="M1.49902 4.51855C1.49902 2.8617 2.84217 1.51855 4.49902 1.51855H5.87065C6.73103 1.51855 7.48099 2.10411 7.68967 2.9388L8.79546 7.36198C8.97843 8.09385 8.70496 8.8641 8.10145 9.31674L6.80783 10.287C6.67349 10.3877 6.64429 10.5352 6.68202 10.6382C7.81753 13.738 10.2795 16.2 13.3793 17.3356C13.4823 17.3733 13.6299 17.3441 13.7306 17.2098L14.7008 15.9161C15.1535 15.3126 15.9237 15.0391 16.6556 15.2221L21.0788 16.3279C21.9135 16.5366 22.499 17.2866 22.499 18.1469V19.5186C22.499 21.1754 21.1559 22.5186 19.499 22.5186H17.249C8.55054 22.5186 1.49902 15.467 1.49902 6.76855V4.51855ZM4.49902 3.01855C3.6706 3.01855 2.99902 3.69013 2.99902 4.51855V6.76855C2.99902 14.6386 9.37897 21.0186 17.249 21.0186H19.499C20.3275 21.0186 20.999 20.347 20.999 19.5186V18.1469C20.999 17.9749 20.8819 17.8249 20.715 17.7831L16.2918 16.6773C16.1454 16.6407 15.9914 16.6954 15.9008 16.8161L14.9306 18.1098C14.4682 18.7263 13.6417 19.0291 12.8634 18.744C9.34929 17.4568 6.56082 14.6683 5.27355 11.1542C4.98843 10.3759 5.29127 9.54937 5.90783 9.08695L7.20145 8.11674C7.32215 8.02621 7.37684 7.87216 7.34025 7.72579L6.23445 3.3026C6.19272 3.13567 6.04273 3.01855 5.87065 3.01855H4.49902ZM20.7794 3.23822C21.0722 3.53112 21.0722 4.00599 20.7794 4.29888L16.0597 9.01855L18.749 9.01855C19.1632 9.01855 19.499 9.35434 19.499 9.76855C19.499 10.1828 19.1632 10.5186 18.749 10.5186L14.249 10.5186C13.8348 10.5186 13.499 10.1828 13.499 9.76855V5.26855C13.499 4.85434 13.8348 4.51855 14.249 4.51855C14.6632 4.51855 14.999 4.85434 14.999 5.26855V7.95789L19.7187 3.23822C20.0116 2.94533 20.4865 2.94533 20.7794 3.23822Z" fill="#868E96"/>
</svg>
