<svg width="24" height="25" viewBox="0 0 24 25" fill="none" xmlns="http://www.w3.org/2000/svg">
<path d="M15 6.771C14.5858 6.771 14.25 7.10678 14.25 7.521V18.021C14.25 18.2199 14.329 18.4107 14.4697 18.5513C14.6103 18.692 14.8011 18.771 15 18.771H15.75C16.1642 18.771 16.5 18.4352 16.5 18.021V7.521C16.5 7.10678 16.1642 6.771 15.75 6.771H15Z" fill="#868E96"/>
<path d="M20.25 6.771C19.8358 6.771 19.5 7.10678 19.5 7.521V18.021C19.5 18.4352 19.8358 18.771 20.25 18.771H21C21.4142 18.771 21.75 18.4352 21.75 18.021L21.75 7.521C21.75 7.32208 21.671 7.13132 21.5303 6.99067C21.3897 6.85001 21.1989 6.771 21 6.771H20.25Z" fill="#868E96"/>
<path d="M5.05526 7.0816C3.80528 6.36733 2.25 7.26989 2.25 8.70956V16.8324C2.25 18.2721 3.80528 19.1746 5.05526 18.4604L12.1628 14.3989C13.4224 13.6791 13.4224 11.8628 12.1628 11.143L5.05526 7.0816Z" fill="#868E96"/>
</svg>
