<svg width="24" height="25" viewBox="0 0 24 25" fill="none" xmlns="http://www.w3.org/2000/svg">
<path fill-rule="evenodd" clip-rule="evenodd" d="M12 3.771C12.4142 3.771 12.75 4.10678 12.75 4.521V11.271H19.5C19.9142 11.271 20.25 11.6068 20.25 12.021C20.25 12.4352 19.9142 12.771 19.5 12.771H12.75V19.521C12.75 19.9352 12.4142 20.271 12 20.271C11.5858 20.271 11.25 19.9352 11.25 19.521V12.771H4.5C4.08579 12.771 3.75 12.4352 3.75 12.021C3.75 11.6068 4.08579 11.271 4.5 11.271H11.25V4.521C11.25 4.10678 11.5858 3.771 12 3.771Z" fill="#868E96"/>
</svg>
