<svg width="24" height="25" viewBox="0 0 24 25" fill="none" xmlns="http://www.w3.org/2000/svg">
<path fill-rule="evenodd" clip-rule="evenodd" d="M12 2.271C12.4142 2.271 12.75 2.60678 12.75 3.021V12.021C12.75 12.4352 12.4142 12.771 12 12.771C11.5858 12.771 11.25 12.4352 11.25 12.021V3.021C11.25 2.60678 11.5858 2.271 12 2.271ZM6.16637 5.1267C6.45926 5.4196 6.45926 5.89447 6.16637 6.18737C2.94454 9.40919 2.94454 14.6328 6.16637 17.8546C9.38819 21.0765 14.6118 21.0765 17.8336 17.8546C21.0555 14.6328 21.0555 9.40919 17.8336 6.18737C17.5407 5.89447 17.5407 5.4196 17.8336 5.1267C18.1265 4.83381 18.6014 4.83381 18.8943 5.1267C22.7019 8.93432 22.7019 15.1077 18.8943 18.9153C15.0867 22.7229 8.91332 22.7229 5.10571 18.9153C1.2981 15.1077 1.2981 8.93432 5.10571 5.1267C5.3986 4.83381 5.87348 4.83381 6.16637 5.1267Z" fill="#868E96"/>
</svg>
