<svg width="24" height="25" viewBox="0 0 24 25" fill="none" xmlns="http://www.w3.org/2000/svg">
<path fill-rule="evenodd" clip-rule="evenodd" d="M2.25 2.271C1.83579 2.271 1.5 2.60678 1.5 3.021C1.5 3.43521 1.83579 3.771 2.25 3.771H3V14.271C3 15.9279 4.34315 17.271 6 17.271H7.20943L6.03849 20.7838C5.9075 21.1768 6.11987 21.6015 6.51283 21.7325C6.90579 21.8635 7.33053 21.6511 7.46151 21.2582L7.79057 20.271H16.2094L16.5385 21.2582C16.6695 21.6511 17.0942 21.8635 17.4872 21.7325C17.8801 21.6015 18.0925 21.1768 17.9615 20.7838L16.7906 17.271H18C19.6569 17.271 21 15.9279 21 14.271V3.771H21.75C22.1642 3.771 22.5 3.43521 22.5 3.021C22.5 2.60678 22.1642 2.271 21.75 2.271H2.25ZM8.79057 17.271H15.2094L15.7094 18.771H8.29057L8.79057 17.271ZM16.8755 8.27567C17.2341 8.06826 17.3566 7.60947 17.1492 7.25092C16.9418 6.89237 16.483 6.76985 16.1245 6.97726C14.7577 7.76788 13.5517 8.8047 12.5667 10.0271L11.0303 8.49075C10.7374 8.19786 10.2626 8.19786 9.96967 8.49075L6.96967 11.4907C6.67678 11.7836 6.67678 12.2585 6.96967 12.5514C7.26256 12.8443 7.73744 12.8443 8.03033 12.5514L10.5 10.0817L12.1173 11.699C12.2742 11.856 12.4927 11.9353 12.7138 11.9157C12.9349 11.8961 13.136 11.7796 13.2629 11.5975C14.207 10.2427 15.4414 9.10527 16.8755 8.27567Z" fill="#868E96"/>
</svg>
