<svg width="24" height="25" viewBox="0 0 24 25" fill="none" xmlns="http://www.w3.org/2000/svg">
<path fill-rule="evenodd" clip-rule="evenodd" d="M12.75 3.021C11.7877 3.021 11.25 3.6469 11.25 4.146C11.25 4.33568 11.3145 4.52274 11.4455 4.69484C11.6828 5.00649 12 5.49538 12 6.10793C12 6.88523 11.3617 7.52301 10.5714 7.50025C9.46249 7.46831 8.36273 7.39932 7.27336 7.29447C7.40195 8.6308 7.47657 9.98275 7.49505 11.3481C7.50574 12.1388 6.86451 12.7709 6.08703 12.771L6.08694 12.02V12.771C5.47438 12.771 4.98549 12.4538 4.67384 12.2165L5.1282 11.6198L4.67384 12.2165C4.50174 12.0855 4.31469 12.021 4.125 12.021C3.62591 12.021 3 12.5587 3 13.521C3 14.4833 3.62591 15.021 4.125 15.021C4.31469 15.021 4.50174 14.9565 4.67384 14.8255C4.98549 14.5882 5.47438 14.271 6.08694 14.271C6.82607 14.271 7.42193 14.8962 7.36688 15.6451C7.25895 17.1135 7.08595 18.564 6.85074 19.9936C8.04785 20.1233 9.25849 20.2084 10.4809 20.247C10.4515 20.1531 10.3841 20.0268 10.2522 19.8536C9.94147 19.4455 9.75011 18.9444 9.75011 18.396C9.75011 16.8241 11.2271 15.771 12.7501 15.771C14.2731 15.771 15.7501 16.8241 15.7501 18.396C15.7501 18.9444 15.5588 19.4455 15.248 19.8536C15.1475 19.9856 15.0845 20.0904 15.0471 20.1743C16.5986 20.0756 18.1296 19.902 19.6366 19.6572C19.8405 18.4024 19.9949 17.131 20.0979 15.845C20.0244 15.8834 19.937 15.9395 19.8327 16.019L19.3783 15.4222L19.8327 16.019C19.4246 16.3297 18.9234 16.521 18.3751 16.521C16.8031 16.521 15.7501 15.0441 15.7501 13.521C15.7501 11.998 16.8031 10.521 18.3751 10.521C18.9234 10.521 19.4246 10.7124 19.8327 11.0231C20.0174 11.1638 20.1488 11.2311 20.2443 11.2572C20.2209 9.77784 20.1295 8.31509 19.9731 6.87203C18.3102 7.14561 16.619 7.33501 14.9043 7.43576C14.1349 7.48096 13.5 6.86598 13.5 6.10793C13.5 5.49538 13.8172 5.00648 14.0545 4.69484L14.6512 5.14919L14.0545 4.69484C14.1855 4.52274 14.25 4.33568 14.25 4.146C14.25 3.6469 13.7123 3.021 12.75 3.021ZM5.99355 11.257C5.96829 9.6631 5.86413 8.08855 5.68485 6.53709C5.65857 6.30961 5.73764 6.08258 5.89957 5.92066C6.0615 5.75873 6.28852 5.67966 6.51601 5.70595C7.82199 5.8569 9.14432 5.95461 10.4808 5.99683C10.4513 5.903 10.3839 5.77667 10.2521 5.60355C9.94136 5.19546 9.75 4.69431 9.75 4.146C9.75 2.57402 11.227 1.521 12.75 1.521C14.273 1.521 15.75 2.57402 15.75 4.146C15.75 4.69431 15.5586 5.19546 15.2479 5.60355C15.1474 5.73552 15.0844 5.8403 15.047 5.92422C16.8931 5.80679 18.7102 5.58337 20.4922 5.26002C20.695 5.22323 20.9039 5.27149 21.07 5.39345C21.2361 5.51541 21.3447 5.70034 21.3703 5.90481C21.5939 7.69103 21.7209 9.50715 21.7458 11.3476C21.7565 12.1386 21.1149 12.771 20.3371 12.771C19.7245 12.771 19.2356 12.4538 18.924 12.2166C18.7519 12.0855 18.5648 12.021 18.3751 12.021C17.876 12.021 17.2501 12.5588 17.2501 13.521C17.2501 14.4833 17.876 15.021 18.3751 15.021C18.5648 15.021 18.7519 14.9566 18.924 14.8255C19.2356 14.5882 19.7245 14.271 20.3371 14.271C21.0765 14.271 21.6727 14.8965 21.6176 15.6458C21.4985 17.266 21.3002 18.8642 21.0265 20.4368C20.9722 20.7486 20.728 20.9928 20.4162 21.0471C18.6109 21.3613 16.7717 21.5761 14.9045 21.6859C14.1351 21.7311 13.5001 21.1161 13.5001 20.358C13.5001 19.7454 13.8173 19.2565 14.0546 18.9449C14.1857 18.7728 14.2501 18.5857 14.2501 18.396C14.2501 17.897 13.7124 17.271 12.7501 17.271C11.7878 17.271 11.2501 17.897 11.2501 18.396C11.2501 18.5857 11.3146 18.7728 11.4456 18.9449C11.6829 19.2565 12.0001 19.7454 12.0001 20.358C12.0001 21.1353 11.3618 21.7732 10.5715 21.7504C8.98893 21.7048 7.42511 21.5838 5.8835 21.3908C5.67904 21.3652 5.49411 21.2566 5.37215 21.0905C5.25019 20.9244 5.20194 20.7155 5.23873 20.5127C5.51658 18.9815 5.72065 17.4244 5.8471 15.8453C5.77375 15.8837 5.68661 15.9397 5.58255 16.0189L5.1282 15.4222L5.58255 16.0189C5.17446 16.3296 4.67331 16.521 4.125 16.521C2.55302 16.521 1.5 15.044 1.5 13.521C1.5 11.998 2.55302 10.521 4.125 10.521C4.67331 10.521 5.17446 10.7124 5.58255 11.0231C5.76682 11.1634 5.89806 11.2307 5.99355 11.257Z" fill="#868E96"/>
</svg>
