<svg width="24" height="24" viewBox="0 0 24 24" fill="none" xmlns="http://www.w3.org/2000/svg">
<path fill-rule="evenodd" clip-rule="evenodd" d="M2.25 12.0049C2.25 6.62011 6.61522 2.25488 12 2.25488C17.3848 2.25488 21.75 6.62011 21.75 12.0049C21.75 17.3897 17.3848 21.7549 12 21.7549C6.61522 21.7549 2.25 17.3897 2.25 12.0049ZM13.6277 8.08816C12.7389 7.31046 11.2616 7.31046 10.3728 8.08816C10.0611 8.36092 9.58723 8.32933 9.31447 8.01761C9.04171 7.70588 9.0733 7.23206 9.38503 6.9593C10.8394 5.68675 13.1611 5.68675 14.6154 6.9593C16.1285 8.28323 16.1285 10.4765 14.6154 11.8005C14.3588 12.025 14.0761 12.209 13.778 12.3532C13.1018 12.6805 12.7502 13.1271 12.7502 13.5049V14.2549C12.7502 14.6691 12.4144 15.0049 12.0002 15.0049C11.586 15.0049 11.2502 14.6691 11.2502 14.2549V13.5049C11.2502 12.2259 12.3095 11.3975 13.1246 11.003C13.3073 10.9147 13.4765 10.8039 13.6277 10.6716C14.4577 9.94529 14.4577 8.81448 13.6277 8.08816ZM12 18.0049C12.4142 18.0049 12.75 17.6691 12.75 17.2549C12.75 16.8407 12.4142 16.5049 12 16.5049C11.5858 16.5049 11.25 16.8407 11.25 17.2549C11.25 17.6691 11.5858 18.0049 12 18.0049Z" fill="#868E96"/>
</svg>
