<svg width="24" height="24" viewBox="0 0 24 24" fill="none" xmlns="http://www.w3.org/2000/svg">
<path d="M5.625 3.75488C4.17525 3.75488 3 4.93014 3 6.37988C3 7.82963 4.17525 9.00488 5.625 9.00488H18.375C19.8247 9.00488 21 7.82963 21 6.37988C21 4.93014 19.8247 3.75488 18.375 3.75488H5.625Z" fill="#868E96"/>
<path d="M3.75 11.2549C3.33579 11.2549 3 11.5907 3 12.0049C3 12.4191 3.33579 12.7549 3.75 12.7549H20.25C20.6642 12.7549 21 12.4191 21 12.0049C21 11.5907 20.6642 11.2549 20.25 11.2549H3.75Z" fill="#868E96"/>
<path d="M3 15.7549C3 15.3407 3.33579 15.0049 3.75 15.0049H20.25C20.6642 15.0049 21 15.3407 21 15.7549C21 16.1691 20.6642 16.5049 20.25 16.5049H3.75C3.33579 16.5049 3 16.1691 3 15.7549Z" fill="#868E96"/>
<path d="M3.75 18.7549C3.33579 18.7549 3 19.0907 3 19.5049C3 19.9191 3.33579 20.2549 3.75 20.2549H20.25C20.6642 20.2549 21 19.9191 21 19.5049C21 19.0907 20.6642 18.7549 20.25 18.7549H3.75Z" fill="#868E96"/>
</svg>
