<svg width="24" height="24" viewBox="0 0 24 24" fill="none" xmlns="http://www.w3.org/2000/svg">
<path fill-rule="evenodd" clip-rule="evenodd" d="M1.5 7.12988C1.5 6.09435 2.33947 5.25488 3.375 5.25488H9.375C10.4105 5.25488 11.25 6.09435 11.25 7.12988V10.8799C11.25 11.9154 10.4105 12.7549 9.375 12.7549H3.375C2.33947 12.7549 1.5 11.9154 1.5 10.8799V7.12988ZM13.5 8.62988C13.5 7.59435 14.3395 6.75488 15.375 6.75488H20.625C21.6605 6.75488 22.5 7.59435 22.5 8.62988V16.8799C22.5 17.9154 21.6605 18.7549 20.625 18.7549H15.375C14.3395 18.7549 13.5 17.9154 13.5 16.8799V8.62988ZM3 16.1299C3 15.0943 3.83947 14.2549 4.875 14.2549H10.125C11.1605 14.2549 12 15.0943 12 16.1299V18.3799C12 19.4154 11.1605 20.2549 10.125 20.2549H4.875C3.83947 20.2549 3 19.4154 3 18.3799V16.1299Z" fill="#868E96"/>
</svg>
