<svg width="24" height="24" viewBox="0 0 24 24" fill="none" xmlns="http://www.w3.org/2000/svg">
<path d="M5.56641 4.66212C5.9435 4.5596 6.34029 4.50488 6.74986 4.50488H17.2499C17.6594 4.50488 18.0562 4.5596 18.4333 4.66212C17.9406 3.67942 16.924 3.00488 15.7499 3.00488H8.24986C7.0757 3.00488 6.0591 3.67942 5.56641 4.66212Z" fill="#868E96"/>
<path d="M2.25 12.0049C2.25 10.348 3.59315 9.00488 5.25 9.00488H18.75C20.4069 9.00488 21.75 10.348 21.75 12.0049V18.0049C21.75 19.6617 20.4069 21.0049 18.75 21.0049H5.25C3.59315 21.0049 2.25 19.6617 2.25 18.0049V12.0049Z" fill="#868E96"/>
<path d="M5.24986 7.50488C4.84029 7.50488 4.4435 7.5596 4.06641 7.66212C4.5591 6.67942 5.5757 6.00488 6.74986 6.00488H17.2499C18.424 6.00488 19.4406 6.67942 19.9333 7.66212C19.5562 7.5596 19.1594 7.50488 18.7499 7.50488H5.24986Z" fill="#868E96"/>
</svg>
