<svg width="24" height="24" viewBox="0 0 24 24" fill="none" xmlns="http://www.w3.org/2000/svg">
<path fill-rule="evenodd" clip-rule="evenodd" d="M3.75 4.50488C3.75 4.09067 4.08579 3.75488 4.5 3.75488H5.25C13.5343 3.75488 20.25 10.4706 20.25 18.7549V19.5049C20.25 19.9191 19.9142 20.2549 19.5 20.2549C19.0858 20.2549 18.75 19.9191 18.75 19.5049V18.7549C18.75 11.299 12.7058 5.25488 5.25 5.25488H4.5C4.08579 5.25488 3.75 4.9191 3.75 4.50488ZM3.75 11.2549C3.75 10.8407 4.08579 10.5049 4.5 10.5049H5.25C9.80635 10.5049 13.5 14.1985 13.5 18.7549V19.5049C13.5 19.9191 13.1642 20.2549 12.75 20.2549C12.3358 20.2549 12 19.9191 12 19.5049V18.7549C12 15.027 8.97792 12.0049 5.25 12.0049H4.5C4.08579 12.0049 3.75 11.6691 3.75 11.2549ZM3.75 18.7549C3.75 17.9265 4.42157 17.2549 5.25 17.2549C6.07843 17.2549 6.75 17.9265 6.75 18.7549C6.75 19.5833 6.07843 20.2549 5.25 20.2549C4.42157 20.2549 3.75 19.5833 3.75 18.7549Z" fill="#868E96"/>
</svg>
