<svg width="24" height="24" viewBox="0 0 24 24" fill="none" xmlns="http://www.w3.org/2000/svg">
<path d="M4.07993 5.23385C4.43013 3.92059 5.61948 3.00684 6.97863 3.00684H17.0214C18.3805 3.00684 19.5699 3.92059 19.9201 5.23385L22.0338 13.1604C21.1346 12.4386 19.9927 12.0068 18.75 12.0068H5.25C4.00727 12.0068 2.86538 12.4386 1.96619 13.1604L4.07993 5.23385Z" fill="#868E96"/>
<path fill-rule="evenodd" clip-rule="evenodd" d="M5.25 13.5068C3.17893 13.5068 1.5 15.1858 1.5 17.2568C1.5 19.3279 3.17893 21.0068 5.25 21.0068H18.75C20.8211 21.0068 22.5 19.3279 22.5 17.2568C22.5 15.1858 20.8211 13.5068 18.75 13.5068H5.25ZM15.75 18.0068C16.1642 18.0068 16.5 17.671 16.5 17.2568C16.5 16.8426 16.1642 16.5068 15.75 16.5068C15.3358 16.5068 15 16.8426 15 17.2568C15 17.671 15.3358 18.0068 15.75 18.0068ZM19.5 17.2568C19.5 17.671 19.1642 18.0068 18.75 18.0068C18.3358 18.0068 18 17.671 18 17.2568C18 16.8426 18.3358 16.5068 18.75 16.5068C19.1642 16.5068 19.5 16.8426 19.5 17.2568Z" fill="#868E96"/>
</svg>
