<svg width="24" height="24" viewBox="0 0 24 24" fill="none" xmlns="http://www.w3.org/2000/svg">
<path d="M5.50701 4.05446C6.07695 3.38952 6.909 3.00684 7.78478 3.00684H16.2151C17.0908 3.00684 17.9229 3.38952 18.4928 4.05446L20.2147 6.06329C19.9819 6.02614 19.7432 6.00684 19.4999 6.00684H4.49992C4.25668 6.00684 4.01794 6.02614 3.78516 6.06329L5.50701 4.05446Z" fill="#868E96"/>
<path fill-rule="evenodd" clip-rule="evenodd" d="M1.5 10.5068C1.5 8.84998 2.84315 7.50684 4.5 7.50684H19.5C21.1569 7.50684 22.5 8.84998 22.5 10.5068C22.5 12.1637 21.1569 13.5068 19.5 13.5068H4.5C2.84315 13.5068 1.5 12.1637 1.5 10.5068ZM16.5 10.5068C16.5 10.921 16.1642 11.2568 15.75 11.2568C15.3358 11.2568 15 10.921 15 10.5068C15 10.0926 15.3358 9.75684 15.75 9.75684C16.1642 9.75684 16.5 10.0926 16.5 10.5068ZM18.75 11.2568C19.1642 11.2568 19.5 10.921 19.5 10.5068C19.5 10.0926 19.1642 9.75684 18.75 9.75684C18.3358 9.75684 18 10.0926 18 10.5068C18 10.921 18.3358 11.2568 18.75 11.2568Z" fill="#868E96"/>
<path fill-rule="evenodd" clip-rule="evenodd" d="M4.5 15.0068C2.84315 15.0068 1.5 16.35 1.5 18.0068C1.5 19.6637 2.84315 21.0068 4.5 21.0068H19.5C21.1569 21.0068 22.5 19.6637 22.5 18.0068C22.5 16.35 21.1569 15.0068 19.5 15.0068H4.5ZM15.75 18.7568C16.1642 18.7568 16.5 18.421 16.5 18.0068C16.5 17.5926 16.1642 17.2568 15.75 17.2568C15.3358 17.2568 15 17.5926 15 18.0068C15 18.421 15.3358 18.7568 15.75 18.7568ZM19.5 18.0068C19.5 18.421 19.1642 18.7568 18.75 18.7568C18.3358 18.7568 18 18.421 18 18.0068C18 17.5926 18.3358 17.2568 18.75 17.2568C19.1642 17.2568 19.5 17.5926 19.5 18.0068Z" fill="#868E96"/>
</svg>
