<svg width="24" height="24" viewBox="0 0 24 24" fill="none" xmlns="http://www.w3.org/2000/svg">
<path fill-rule="evenodd" clip-rule="evenodd" d="M18.75 3.00684C17.9216 3.00684 17.25 3.67841 17.25 4.50684C17.25 4.77254 17.3184 5.02001 17.4381 5.2349C17.6953 5.69697 18.187 6.00684 18.75 6.00684C19.5784 6.00684 20.25 5.33526 20.25 4.50684C20.25 3.67841 19.5784 3.00684 18.75 3.00684ZM15.75 4.50684C15.75 2.84998 17.0931 1.50684 18.75 1.50684C20.4069 1.50684 21.75 2.84998 21.75 4.50684C21.75 6.16369 20.4069 7.50684 18.75 7.50684C17.8933 7.50684 17.1212 7.14758 16.5751 6.57307L8.15392 11.2515C8.21665 11.4932 8.25 11.7464 8.25 12.0068C8.25 12.2673 8.21665 12.5205 8.15392 12.7622L16.5751 17.4406C17.1212 16.8661 17.8933 16.5068 18.75 16.5068C20.4069 16.5068 21.75 17.85 21.75 19.5068C21.75 21.1637 20.4069 22.5068 18.75 22.5068C17.0931 22.5068 15.75 21.1637 15.75 19.5068C15.75 19.2464 15.7833 18.9932 15.8461 18.7515L7.42488 14.0731C6.87885 14.6476 6.10667 15.0068 5.25 15.0068C3.59315 15.0068 2.25 13.6637 2.25 12.0068C2.25 10.35 3.59315 9.00684 5.25 9.00684C6.10667 9.00684 6.87885 9.36609 7.42488 9.9406L15.8461 5.26216C15.7833 5.0205 15.75 4.76729 15.75 4.50684ZM5.25 10.5068C4.42157 10.5068 3.75 11.1784 3.75 12.0068C3.75 12.8353 4.42157 13.5068 5.25 13.5068C5.81301 13.5068 6.30467 13.197 6.56192 12.7349C6.68157 12.52 6.75 12.2725 6.75 12.0068C6.75 11.7411 6.68157 11.4937 6.56192 11.2788C6.30467 10.8167 5.81301 10.5068 5.25 10.5068ZM18.75 18.0068C18.187 18.0068 17.6953 18.3167 17.4381 18.7788C17.3184 18.9937 17.25 19.2411 17.25 19.5068C17.25 20.3353 17.9216 21.0068 18.75 21.0068C19.5784 21.0068 20.25 20.3353 20.25 19.5068C20.25 18.6784 19.5784 18.0068 18.75 18.0068Z" fill="#868E96"/>
</svg>
