<svg width="24" height="24" viewBox="0 0 24 24" fill="none" xmlns="http://www.w3.org/2000/svg">
<path fill-rule="evenodd" clip-rule="evenodd" d="M11.4843 2.17615C11.7735 1.90222 12.2265 1.90222 12.5157 2.17615C14.5325 4.08612 17.2538 5.25645 20.25 5.25645C20.2977 5.25645 20.3453 5.25616 20.3928 5.25557C20.7202 5.2515 21.0123 5.46025 21.1146 5.77126C21.5271 7.02602 21.75 8.36598 21.75 9.7565C21.75 15.6985 17.6859 20.6894 12.1869 22.1048C12.0643 22.1363 11.9357 22.1363 11.8131 22.1048C6.31406 20.6894 2.25 15.6985 2.25 9.7565C2.25 8.36598 2.47287 7.02602 2.88541 5.77126C2.98767 5.46025 3.27984 5.2515 3.60721 5.25557C3.65473 5.25616 3.70233 5.25645 3.75 5.25645C6.74624 5.25645 9.46752 4.08612 11.4843 2.17615ZM4.15599 6.75011C3.8915 7.70635 3.75 8.71437 3.75 9.7565C3.75 14.93 7.2428 19.2895 12 20.6023C16.7572 19.2895 20.25 14.93 20.25 9.7565C20.25 8.71436 20.1085 7.70636 19.844 6.75011C16.8566 6.6566 14.1272 5.53476 12 3.72787C9.87276 5.53476 7.14341 6.6566 4.15599 6.75011ZM15.4359 9.14614C15.773 9.3869 15.8511 9.85531 15.6103 10.1924L11.8603 15.4424C11.7322 15.6218 11.5316 15.7357 11.3119 15.7539C11.0921 15.7721 10.8756 15.6927 10.7197 15.5368L8.46967 13.2868C8.17678 12.9939 8.17678 12.519 8.46967 12.2261C8.76256 11.9332 9.23744 11.9332 9.53033 12.2261L11.1543 13.8501L14.3897 9.32051C14.6305 8.98345 15.0989 8.90538 15.4359 9.14614Z" fill="#868E96"/>
</svg>
