<svg width="24" height="24" viewBox="0 0 24 24" fill="none" xmlns="http://www.w3.org/2000/svg">
<path fill-rule="evenodd" clip-rule="evenodd" d="M11.4833 2.17664C11.7726 1.90271 12.2255 1.90271 12.5147 2.17664C14.5315 4.08661 17.2528 5.25694 20.249 5.25694C20.2967 5.25694 20.3443 5.25665 20.3918 5.25606C20.7192 5.25199 21.0114 5.46074 21.1136 5.77175C21.5262 7.02651 21.749 8.36647 21.749 9.75699C21.749 15.699 17.685 20.6899 12.186 22.1053C12.0633 22.1368 11.9347 22.1368 11.8121 22.1053C6.31308 20.6899 2.24902 15.699 2.24902 9.75699C2.24902 8.36647 2.4719 7.02651 2.88444 5.77175C2.98669 5.46074 3.27887 5.25199 3.60623 5.25606C3.65376 5.25665 3.70135 5.25694 3.74902 5.25694C6.74527 5.25694 9.46655 4.08661 11.4833 2.17664ZM4.15502 6.7506C3.89053 7.70684 3.74902 8.71485 3.74902 9.75699C3.74902 14.9305 7.24182 19.29 11.999 20.6028C16.7562 19.29 20.249 14.9305 20.249 9.75699C20.249 8.71485 20.1075 7.70684 19.843 6.7506C16.8556 6.65708 14.1263 5.53525 11.999 3.72836C9.87179 5.53525 7.14243 6.65708 4.15502 6.7506ZM11.999 8.25693C12.4132 8.25693 12.749 8.59272 12.749 9.00693V12.7569C12.749 13.1711 12.4132 13.5069 11.999 13.5069C11.5848 13.5069 11.249 13.1711 11.249 12.7569V9.00693C11.249 8.59272 11.5848 8.25693 11.999 8.25693ZM11.249 15.7569C11.249 15.3427 11.5848 15.0069 11.999 15.0069H12.0065C12.4207 15.0069 12.7565 15.3427 12.7565 15.7569V15.7644C12.7565 16.1786 12.4207 16.5144 12.0065 16.5144H11.999C11.5848 16.5144 11.249 16.1786 11.249 15.7644V15.7569Z" fill="#868E96"/>
</svg>
