<svg width="24" height="24" viewBox="0 0 24 24" fill="none" xmlns="http://www.w3.org/2000/svg">
<path fill-rule="evenodd" clip-rule="evenodd" d="M1.49805 3.00684C1.49805 2.59262 1.83383 2.25684 2.24805 2.25684H3.63373C4.4832 2.25684 5.22655 2.82792 5.44543 3.64872L5.67673 4.5161C6.0331 4.50993 6.39022 4.50684 6.74805 4.50684C11.9517 4.50684 17.0035 5.16126 21.8254 6.39266C22.0274 6.44426 22.1989 6.57766 22.2985 6.76083C22.3982 6.944 22.4171 7.1604 22.3508 7.35809C21.5163 9.84287 20.5257 12.2559 19.3905 14.5854C19.2649 14.8432 19.0031 15.0068 18.7163 15.0068H7.49805C6.51838 15.0068 5.68495 15.6329 5.37608 16.5068H20.248C20.6623 16.5068 20.998 16.8426 20.998 17.2568C20.998 17.671 20.6623 18.0068 20.248 18.0068H4.49805C4.08383 18.0068 3.74805 17.671 3.74805 17.2568C3.74805 15.5119 4.93983 14.0453 6.55381 13.6267L4.37927 5.47218L4.37927 5.47218L3.99607 4.03521L3.99607 4.03521C3.9523 3.87106 3.80363 3.75684 3.63373 3.75684H2.24805C1.83383 3.75684 1.49805 3.42105 1.49805 3.00684ZM6.07526 6.01058L8.07426 13.5068H18.2454C19.1521 11.6082 19.9606 9.65378 20.6644 7.65013C16.2019 6.57601 11.5419 6.00684 6.74805 6.00684C6.52349 6.00684 6.29922 6.00809 6.07526 6.01058ZM3.74805 20.2568C3.74805 19.4284 4.41962 18.7568 5.24805 18.7568C6.07647 18.7568 6.74805 19.4284 6.74805 20.2568C6.74805 21.0853 6.07647 21.7568 5.24805 21.7568C4.41962 21.7568 3.74805 21.0853 3.74805 20.2568ZM16.498 20.2568C16.498 19.4284 17.1696 18.7568 17.998 18.7568C18.8265 18.7568 19.498 19.4284 19.498 20.2568C19.498 21.0853 18.8265 21.7568 17.998 21.7568C17.1696 21.7568 16.498 21.0853 16.498 20.2568Z" fill="#868E96"/>
</svg>
