<svg width="24" height="24" viewBox="0 0 24 24" fill="none" xmlns="http://www.w3.org/2000/svg">
<path d="M2.24805 2.25684C1.83383 2.25684 1.49805 2.59262 1.49805 3.00684C1.49805 3.42105 1.83383 3.75684 2.24805 3.75684H3.63373C3.80363 3.75684 3.9523 3.87106 3.99607 4.03521L6.55381 13.6267C4.93983 14.0453 3.74805 15.5119 3.74805 17.2568C3.74805 17.671 4.08383 18.0068 4.49805 18.0068H20.248C20.6623 18.0068 20.998 17.671 20.998 17.2568C20.998 16.8426 20.6623 16.5068 20.248 16.5068H5.37608C5.68495 15.6329 6.51838 15.0068 7.49805 15.0068H18.7163C19.0031 15.0068 19.2649 14.8432 19.3905 14.5854C20.5257 12.2559 21.5163 9.84287 22.3508 7.35809C22.4171 7.1604 22.3982 6.944 22.2985 6.76083C22.1989 6.57766 22.0274 6.44426 21.8254 6.39266C17.0035 5.16126 11.9517 4.50684 6.74805 4.50684C6.39022 4.50684 6.0331 4.50993 5.67673 4.5161L5.44543 3.64872C5.22655 2.82792 4.4832 2.25684 3.63373 2.25684H2.24805Z" fill="#868E96"/>
<path d="M3.74805 20.2568C3.74805 19.4284 4.41962 18.7568 5.24805 18.7568C6.07647 18.7568 6.74805 19.4284 6.74805 20.2568C6.74805 21.0853 6.07647 21.7568 5.24805 21.7568C4.41962 21.7568 3.74805 21.0853 3.74805 20.2568Z" fill="#868E96"/>
<path d="M16.498 20.2568C16.498 19.4284 17.1696 18.7568 17.998 18.7568C18.8265 18.7568 19.498 19.4284 19.498 20.2568C19.498 21.0853 18.8265 21.7568 17.998 21.7568C17.1696 21.7568 16.498 21.0853 16.498 20.2568Z" fill="#868E96"/>
</svg>
