<svg width="24" height="24" viewBox="0 0 24 24" fill="none" xmlns="http://www.w3.org/2000/svg">
<path fill-rule="evenodd" clip-rule="evenodd" d="M11.9981 3.00684C10.3413 3.00684 8.99812 4.34998 8.99812 6.00684V6.75684H14.9981V6.00684C14.9981 4.34998 13.655 3.00684 11.9981 3.00684ZM16.4981 6.75684V6.00684C16.4981 3.52155 14.4834 1.50684 11.9981 1.50684C9.51284 1.50684 7.49812 3.52155 7.49812 6.00684V6.75684H5.51092C4.55137 6.75684 3.74667 7.48128 3.64622 8.43555L2.38306 20.4356C2.26653 21.5426 3.13457 22.5068 4.24776 22.5068H19.7485C20.8617 22.5068 21.7297 21.5426 21.6132 20.4356L20.35 8.43555C20.2496 7.48128 19.4449 6.75684 18.4853 6.75684H16.4981ZM14.9981 8.25684H8.99812V9.6683C9.22828 9.87429 9.37312 10.1736 9.37312 10.5068C9.37312 11.1282 8.86944 11.6318 8.24812 11.6318C7.6268 11.6318 7.12312 11.1282 7.12312 10.5068C7.12312 10.1736 7.26797 9.87429 7.49812 9.6683V8.25684H5.51092C5.31901 8.25684 5.15807 8.40172 5.13798 8.59258L3.87482 20.5926C3.85151 20.814 4.02512 21.0068 4.24776 21.0068H19.7485C19.9711 21.0068 20.1447 20.814 20.1214 20.5926L18.8583 8.59258C18.8382 8.40172 18.6772 8.25684 18.4853 8.25684H16.4981V9.6683C16.7283 9.87429 16.8731 10.1736 16.8731 10.5068C16.8731 11.1282 16.3694 11.6318 15.7481 11.6318C15.1268 11.6318 14.6231 11.1282 14.6231 10.5068C14.6231 10.1736 14.768 9.87429 14.9981 9.6683V8.25684Z" fill="#868E96"/>
</svg>
