<svg width="24" height="24" viewBox="0 0 24 24" fill="none" xmlns="http://www.w3.org/2000/svg">
<path fill-rule="evenodd" clip-rule="evenodd" d="M5.63604 4.58442C5.92893 4.87731 5.92893 5.35218 5.63604 5.64508C2.12132 9.1598 2.12132 14.8583 5.63604 18.373C5.92893 18.6659 5.92893 19.1408 5.63604 19.4337C5.34315 19.7266 4.86827 19.7266 4.57538 19.4337C0.474874 15.3332 0.474873 8.68492 4.57538 4.58442C4.86827 4.29152 5.34315 4.29152 5.63604 4.58442ZM18.364 4.58442C18.6569 4.29152 19.1317 4.29152 19.4246 4.58442C23.5251 8.68492 23.5251 15.3332 19.4246 19.4337C19.1317 19.7266 18.6569 19.7266 18.364 19.4337C18.0711 19.1408 18.0711 18.6659 18.364 18.373C21.8787 14.8583 21.8787 9.1598 18.364 5.64508C18.0711 5.35218 18.0711 4.87731 18.364 4.58442ZM7.75736 6.70574C8.05025 6.99863 8.05025 7.4735 7.75736 7.7664C5.41421 10.1095 5.41421 13.9085 7.75736 16.2517C8.05025 16.5446 8.05025 17.0194 7.75736 17.3123C7.46447 17.6052 6.98959 17.6052 6.6967 17.3123C3.76777 14.3834 3.76777 9.63467 6.6967 6.70574C6.98959 6.41284 7.46447 6.41284 7.75736 6.70574ZM16.2426 6.70574C16.5355 6.41284 17.0104 6.41284 17.3033 6.70574C20.2322 9.63467 20.2322 14.3834 17.3033 17.3123C17.0104 17.6052 16.5355 17.6052 16.2426 17.3123C15.9497 17.0194 15.9497 16.5446 16.2426 16.2517C18.5858 13.9085 18.5858 10.1095 16.2426 7.7664C15.9497 7.4735 15.9497 6.99863 16.2426 6.70574ZM9.87868 8.82706C10.1716 9.11995 10.1716 9.59482 9.87868 9.88772C8.70711 11.0593 8.70711 12.9588 9.87868 14.1304C10.1716 14.4233 10.1716 14.8981 9.87868 15.191C9.58579 15.4839 9.11091 15.4839 8.81802 15.191C7.06066 13.4337 7.06066 10.5844 8.81802 8.82706C9.11091 8.53416 9.58579 8.53416 9.87868 8.82706ZM14.1213 8.82706C14.4142 8.53416 14.8891 8.53416 15.182 8.82706C16.9393 10.5844 16.9393 13.4337 15.182 15.191C14.8891 15.4839 14.4142 15.4839 14.1213 15.191C13.8284 14.8981 13.8284 14.4233 14.1213 14.1304C15.2929 12.9588 15.2929 11.0593 14.1213 9.88772C13.8284 9.59482 13.8284 9.11995 14.1213 8.82706ZM10.875 12.009C10.875 11.3877 11.3787 10.884 12 10.884C12.6213 10.884 13.125 11.3877 13.125 12.009C13.125 12.6304 12.6213 13.134 12 13.134C11.3787 13.134 10.875 12.6304 10.875 12.009Z" fill="#868E96"/>
</svg>
