<svg width="24" height="24" viewBox="0 0 24 24" fill="none" xmlns="http://www.w3.org/2000/svg">
<path fill-rule="evenodd" clip-rule="evenodd" d="M2.46956 2.47895C2.76245 2.18605 3.23732 2.18605 3.53022 2.47895L11.9373 10.886C11.958 10.8849 11.9789 10.8843 11.9999 10.8843C12.6212 10.8843 13.1249 11.388 13.1249 12.0093C13.1249 12.0303 13.1243 12.0512 13.1232 12.0719L14.5847 13.5334C15.2642 12.383 15.1097 10.8764 14.1212 9.88796C13.8283 9.59506 13.8283 9.12019 14.1212 8.8273C14.4141 8.5344 14.889 8.5344 15.1819 8.8273C16.7585 10.404 16.9206 12.8595 15.6682 14.6169L16.74 15.6888C18.5719 13.3349 18.4061 9.93018 16.2425 7.76664C15.9496 7.47374 15.9496 6.99887 16.2425 6.70598C16.5354 6.41308 17.0103 6.41308 17.3032 6.70598C20.0531 9.45592 20.2212 13.8101 17.8073 16.7561L18.8724 17.8211C21.8695 14.2851 21.7 8.98144 18.3638 5.64532C18.071 5.35242 18.071 4.87755 18.3638 4.58466C18.6567 4.29176 19.1316 4.29176 19.4245 4.58466C23.3467 8.50685 23.5173 14.76 19.9362 18.8849L21.5302 20.4789C21.8231 20.7718 21.8231 21.2467 21.5302 21.5396C21.2373 21.8325 20.7624 21.8325 20.4696 21.5396L11.5365 12.6065C11.4895 12.5696 11.4471 12.5271 11.4102 12.4802L2.46956 3.53961C2.17666 3.24671 2.17666 2.77184 2.46956 2.47895ZM3.65842 6.90115C4.02716 7.08982 4.17314 7.5417 3.98447 7.91045C2.25339 11.2937 2.80522 15.5425 5.63592 18.3732C5.92882 18.6661 5.92882 19.141 5.63592 19.4339C5.34303 19.7268 4.86816 19.7268 4.57526 19.4339C1.27102 16.1297 0.630314 11.1728 2.64911 7.2272C2.83779 6.85845 3.28967 6.71247 3.65842 6.90115ZM5.84063 9.14283C6.23327 9.27477 6.4446 9.70003 6.31266 10.0927C5.60928 12.1858 6.09221 14.5869 7.75725 16.2519C8.05014 16.5448 8.05014 17.0197 7.75725 17.3126C7.46435 17.6055 6.98948 17.6055 6.69659 17.3126C4.61354 15.2295 4.01302 12.227 4.8908 9.61486C5.02274 9.22222 5.448 9.01089 5.84063 9.14283ZM8.18188 11.7968C8.59198 11.7386 8.97164 12.0238 9.02987 12.4339C9.11803 13.0548 9.40031 13.6523 9.87857 14.1306C10.1715 14.4235 10.1715 14.8984 9.87857 15.1913C9.58567 15.4841 9.1108 15.4841 8.81791 15.1913C8.10205 14.4754 7.67704 13.5763 7.54477 12.6448C7.48653 12.2347 7.77178 11.855 8.18188 11.7968Z" fill="#868E96"/>
</svg>
