<svg width="24" height="24" viewBox="0 0 24 24" fill="none" xmlns="http://www.w3.org/2000/svg">
<path fill-rule="evenodd" clip-rule="evenodd" d="M8.99805 4.50928C9.33291 4.50928 9.6272 4.73126 9.71919 5.05324L10.5324 7.89943C10.8883 9.14521 11.8621 10.119 13.1079 10.4749L15.9541 11.2881C16.2761 11.3801 16.498 11.6744 16.498 12.0093C16.498 12.3441 16.2761 12.6384 15.9541 12.7304L13.1079 13.5436C11.8621 13.8996 10.8883 14.8733 10.5324 16.1191L9.71919 18.9653C9.6272 19.2873 9.33291 19.5093 8.99805 19.5093C8.66319 19.5093 8.3689 19.2873 8.2769 18.9653L7.46371 16.1191C7.10777 14.8733 6.13397 13.8996 4.88819 13.5436L2.04201 12.7304C1.72003 12.6384 1.49805 12.3441 1.49805 12.0093C1.49805 11.6744 1.72003 11.3801 2.04201 11.2881L4.8882 10.4749C6.13398 10.119 7.10777 9.1452 7.46371 7.89943L8.2769 5.05324C8.3689 4.73126 8.66319 4.50928 8.99805 4.50928Z" fill="#868E96"/>
<path fill-rule="evenodd" clip-rule="evenodd" d="M17.998 1.50928C18.3422 1.50928 18.6422 1.7435 18.7257 2.07738L18.9845 3.11284C19.2196 4.05334 19.954 4.78768 20.8945 5.0228L21.9299 5.28167C22.2638 5.36514 22.498 5.66513 22.498 6.00928C22.498 6.35343 22.2638 6.65342 21.9299 6.73688L20.8945 6.99575C19.954 7.23087 19.2196 7.96522 18.9845 8.90572L18.7257 9.94118C18.6422 10.2751 18.3422 10.5093 17.998 10.5093C17.6539 10.5093 17.3539 10.2751 17.2704 9.94118L17.0116 8.90572C16.7765 7.96522 16.0421 7.23087 15.1016 6.99575L14.0661 6.73688C13.7323 6.65342 13.498 6.35343 13.498 6.00928C13.498 5.66513 13.7323 5.36514 14.0661 5.28167L15.1016 5.02281C16.0421 4.78768 16.7765 4.05334 17.0116 3.11284L17.2704 2.07738C17.3539 1.7435 17.6539 1.50928 17.998 1.50928Z" fill="#868E96"/>
<path fill-rule="evenodd" clip-rule="evenodd" d="M16.498 15.0093C16.8209 15.0093 17.1075 15.2159 17.2096 15.5221L17.6038 16.7048C17.7531 17.1527 18.1046 17.5042 18.5525 17.6535L19.7352 18.0478C20.0415 18.1499 20.248 18.4365 20.248 18.7593C20.248 19.0821 20.0415 19.3687 19.7352 19.4708L18.5525 19.865C18.1046 20.0143 17.7531 20.3658 17.6038 20.8137L17.2096 21.9964C17.1075 22.3027 16.8209 22.5093 16.498 22.5093C16.1752 22.5093 15.8886 22.3027 15.7865 21.9964L15.3923 20.8137C15.243 20.3658 14.8915 20.0143 14.4436 19.865L13.2609 19.4708C12.9546 19.3687 12.748 19.0821 12.748 18.7593C12.748 18.4365 12.9546 18.1499 13.2609 18.0478L14.4436 17.6535C14.8915 17.5042 15.243 17.1527 15.3923 16.7048L15.7865 15.5221C15.8886 15.2159 16.1752 15.0093 16.498 15.0093Z" fill="#868E96"/>
</svg>
