<svg width="24" height="25" viewBox="0 0 24 25" fill="none" xmlns="http://www.w3.org/2000/svg">
<path fill-rule="evenodd" clip-rule="evenodd" d="M3 6.01172C3 4.35486 4.34315 3.01172 6 3.01172H14.25C15.9069 3.01172 17.25 4.35486 17.25 6.01172V7.51172H18C19.6569 7.51172 21 8.85486 21 10.5117V18.0117C21 19.6686 19.6569 21.0117 18 21.0117H10.5C8.84315 21.0117 7.5 19.6686 7.5 18.0117V17.2617H6C4.34315 17.2617 3 15.9186 3 14.2617V6.01172ZM7.5 15.7617V10.5117C7.5 8.85486 8.84315 7.51172 10.5 7.51172H15.75V6.01172C15.75 5.18329 15.0784 4.51172 14.25 4.51172H6C5.17157 4.51172 4.5 5.18329 4.5 6.01172V14.2617C4.5 15.0901 5.17157 15.7617 6 15.7617H7.5ZM10.5 9.01172C9.67157 9.01172 9 9.68329 9 10.5117V18.0117C9 18.8401 9.67157 19.5117 10.5 19.5117H18C18.8284 19.5117 19.5 18.8401 19.5 18.0117V10.5117C19.5 9.68329 18.8284 9.01172 18 9.01172H10.5Z" fill="#868E96"/>
</svg>
