<svg width="24" height="25" viewBox="0 0 24 25" fill="none" xmlns="http://www.w3.org/2000/svg">
<path fill-rule="evenodd" clip-rule="evenodd" d="M11.6444 1.60137C11.8664 1.48184 12.1336 1.48184 12.3556 1.60137L22.1056 6.85137C22.3485 6.98218 22.5 7.23581 22.5 7.51172C22.5 7.78763 22.3485 8.04126 22.1056 8.17207L19.1534 9.76172L22.1056 11.3514C22.3485 11.4822 22.5 11.7358 22.5 12.0117C22.5 12.2876 22.3485 12.5413 22.1056 12.6721L19.1534 14.2617L22.1056 15.8514C22.3485 15.9822 22.5 16.2358 22.5 16.5117C22.5 16.7876 22.3485 17.0413 22.1056 17.1721L12.3556 22.4221C12.1336 22.5416 11.8664 22.5416 11.6444 22.4221L1.89443 17.1721C1.65149 17.0413 1.5 16.7876 1.5 16.5117C1.5 16.2358 1.65149 15.9822 1.89443 15.8514L4.84663 14.2617L1.89443 12.6721C1.65149 12.5413 1.5 12.2876 1.5 12.0117C1.5 11.7358 1.65149 11.4822 1.89443 11.3514L4.84663 9.76172L1.89443 8.17207C1.65149 8.04126 1.5 7.78763 1.5 7.51172C1.5 7.23581 1.65149 6.98218 1.89443 6.85137L11.6444 1.60137ZM6.42857 10.6135L3.83195 12.0117L12 16.4099L20.1681 12.0117L17.5714 10.6135L12.3556 13.4221C12.1336 13.5416 11.8664 13.5416 11.6444 13.4221L6.42857 10.6135ZM6.42857 15.1135L3.83195 16.5117L12 20.9099L20.1681 16.5117L17.5714 15.1135L12.3556 17.9221C12.1336 18.0416 11.8664 18.0416 11.6444 17.9221L6.42857 15.1135ZM3.83194 7.51172L12 11.9099L20.1681 7.51172L12 3.11354L3.83194 7.51172Z" fill="#868E96"/>
</svg>
