<svg width="24" height="25" viewBox="0 0 24 25" fill="none" xmlns="http://www.w3.org/2000/svg">
<path d="M16.5 6.01172C16.5 4.35486 15.1569 3.01172 13.5 3.01172H6C4.34315 3.01172 3 4.35486 3 6.01172V13.5117C3 15.1686 4.34315 16.5117 6 16.5117V10.5117C6 8.02644 8.01472 6.01172 10.5 6.01172H16.5Z" fill="#868E96"/>
<path d="M18 7.51172C19.6569 7.51172 21 8.85486 21 10.5117V18.0117C21 19.6686 19.6569 21.0117 18 21.0117H10.5C8.84315 21.0117 7.5 19.6686 7.5 18.0117V10.5117C7.5 8.85486 8.84315 7.51172 10.5 7.51172H18Z" fill="#868E96"/>
</svg>
