<svg width="24" height="25" viewBox="0 0 24 25" fill="none" xmlns="http://www.w3.org/2000/svg">
<path fill-rule="evenodd" clip-rule="evenodd" d="M3 6.01172C3 4.35486 4.34315 3.01172 6 3.01172H8.25C9.90685 3.01172 11.25 4.35486 11.25 6.01172V8.26172C11.25 9.91857 9.90685 11.2617 8.25 11.2617H6C4.34315 11.2617 3 9.91857 3 8.26172V6.01172ZM12.75 6.01172C12.75 4.35486 14.0931 3.01172 15.75 3.01172H18C19.6569 3.01172 21 4.35486 21 6.01172V8.26172C21 9.91857 19.6569 11.2617 18 11.2617H15.75C14.0931 11.2617 12.75 9.91857 12.75 8.26172V6.01172ZM3 15.7617C3 14.1049 4.34315 12.7617 6 12.7617H8.25C9.90685 12.7617 11.25 14.1049 11.25 15.7617V18.0117C11.25 19.6686 9.90685 21.0117 8.25 21.0117H6C4.34315 21.0117 3 19.6686 3 18.0117V15.7617ZM12.75 15.7617C12.75 14.1049 14.0931 12.7617 15.75 12.7617H18C19.6569 12.7617 21 14.1049 21 15.7617V18.0117C21 19.6686 19.6569 21.0117 18 21.0117H15.75C14.0931 21.0117 12.75 19.6686 12.75 18.0117V15.7617Z" fill="#868E96"/>
</svg>
