<svg width="24" height="25" viewBox="0 0 24 25" fill="none" xmlns="http://www.w3.org/2000/svg">
<path d="M11.6444 1.60137C11.8664 1.48184 12.1336 1.48184 12.3556 1.60137L22.1056 6.85137C22.3485 6.98218 22.5 7.23581 22.5 7.51172C22.5 7.78763 22.3485 8.04126 22.1056 8.17207L12.3556 13.4221C12.1336 13.5416 11.8664 13.5416 11.6444 13.4221L1.89443 8.17207C1.65149 8.04126 1.5 7.78763 1.5 7.51172C1.5 7.23581 1.65149 6.98218 1.89443 6.85137L11.6444 1.60137Z" fill="#868E96"/>
<path d="M3.26468 10.6135L10.9333 14.7428C11.5992 15.1014 12.4008 15.1014 13.0667 14.7428L20.7353 10.6135L22.1056 11.3514C22.3485 11.4822 22.5 11.7358 22.5 12.0117C22.5 12.2876 22.3485 12.5413 22.1056 12.6721L12.3556 17.9221C12.1336 18.0416 11.8664 18.0416 11.6444 17.9221L1.89443 12.6721C1.65149 12.5413 1.5 12.2876 1.5 12.0117C1.5 11.7358 1.65149 11.4822 1.89443 11.3514L3.26468 10.6135Z" fill="#868E96"/>
<path d="M10.9333 19.2428L3.26468 15.1135L1.89443 15.8514C1.65149 15.9822 1.5 16.2358 1.5 16.5117C1.5 16.7876 1.65149 17.0413 1.89443 17.1721L11.6444 22.4221C11.8664 22.5416 12.1336 22.5416 12.3556 22.4221L22.1056 17.1721C22.3485 17.0413 22.5 16.7876 22.5 16.5117C22.5 16.2358 22.3485 15.9822 22.1056 15.8514L20.7353 15.1135L13.0667 19.2428C12.4008 19.6014 11.5992 19.6014 10.9333 19.2428Z" fill="#868E96"/>
</svg>
