<svg width="24" height="25" viewBox="0 0 24 25" fill="none" xmlns="http://www.w3.org/2000/svg">
<path fill-rule="evenodd" clip-rule="evenodd" d="M12 3.76172C7.44365 3.76172 3.75 7.45537 3.75 12.0117C3.75 16.5681 7.44365 20.2617 12 20.2617C16.5563 20.2617 20.25 16.5681 20.25 12.0117C20.25 7.45537 16.5563 3.76172 12 3.76172ZM2.25 12.0117C2.25 6.62694 6.61522 2.26172 12 2.26172C17.3848 2.26172 21.75 6.62694 21.75 12.0117C21.75 17.3965 17.3848 21.7617 12 21.7617C6.61522 21.7617 2.25 17.3965 2.25 12.0117ZM8.25 9.57422C8.25 8.84935 8.83763 8.26172 9.5625 8.26172H14.4375C15.1624 8.26172 15.75 8.84935 15.75 9.57422V14.4492C15.75 15.1741 15.1624 15.7617 14.4375 15.7617H9.5625C8.83763 15.7617 8.25 15.1741 8.25 14.4492V9.57422ZM9.75 9.76172V14.2617H14.25V9.76172H9.75Z" fill="#868E96"/>
</svg>
