<svg width="24" height="25" viewBox="0 0 24 25" fill="none" xmlns="http://www.w3.org/2000/svg">
<path fill-rule="evenodd" clip-rule="evenodd" d="M4.5 7.51172C4.5 5.85487 5.84315 4.51172 7.5 4.51172H16.5C18.1569 4.51172 19.5 5.85486 19.5 7.51172V16.5117C19.5 18.1686 18.1569 19.5117 16.5 19.5117H7.5C5.84315 19.5117 4.5 18.1686 4.5 16.5117V7.51172ZM7.5 6.01172C6.67157 6.01172 6 6.68329 6 7.51172V16.5117C6 17.3401 6.67157 18.0117 7.5 18.0117H16.5C17.3284 18.0117 18 17.3401 18 16.5117V7.51172C18 6.68329 17.3284 6.01172 16.5 6.01172H7.5Z" fill="#868E96"/>
</svg>
