<svg width="24" height="25" viewBox="0 0 24 25" fill="none" xmlns="http://www.w3.org/2000/svg">
<path fill-rule="evenodd" clip-rule="evenodd" d="M9.65714 4.73985C8.57177 5.1244 7.89122 5.7966 7.67873 6.58967C7.46425 7.39012 7.72445 8.32294 8.48845 9.20562C9.23497 10.0681 10.4178 10.8178 11.8763 11.2086C11.9465 11.2274 12.0167 11.2452 12.0867 11.262H20.2499C20.6641 11.262 20.9999 11.5978 20.9999 12.012C20.9999 12.4262 20.6641 12.762 20.2499 12.762H12.0103C12.0037 12.7621 11.997 12.7621 11.9903 12.762H3.75C3.33579 12.762 3 12.4262 3 12.012C3 11.5978 3.33579 11.262 3.75 11.262H8.52924C8.085 10.9365 7.69008 10.5752 7.3543 10.1873C6.3727 9.05322 5.84907 7.62253 6.22984 6.20145C6.60697 4.79391 7.75761 3.82149 9.15621 3.32597C10.5586 2.82911 12.2835 2.77649 14.0116 3.23953C15.1187 3.53618 16.1146 4.0141 16.9404 4.6132C17.2756 4.85644 17.3502 5.32542 17.107 5.66069C16.8637 5.99596 16.3948 6.07056 16.0595 5.82731C15.3886 5.34056 14.561 4.93967 13.6233 4.68841C12.1506 4.29378 10.7387 4.35666 9.65714 4.73985ZM16.1904 14.3712C16.5443 14.1559 17.0057 14.2684 17.2209 14.6223C17.8126 15.5953 18.0662 16.716 17.7697 17.8223C17.3926 19.2299 16.242 20.2023 14.8434 20.6978C13.441 21.1947 11.7161 21.2473 9.98802 20.7843C8.27622 20.3256 6.82044 19.4303 5.85425 18.3141C5.58317 18.0009 5.6173 17.5272 5.93049 17.2561C6.24368 16.9851 6.71732 17.0192 6.98841 17.3324C7.73492 18.1948 8.91772 18.9445 10.3763 19.3354C11.849 19.73 13.2609 19.6671 14.3424 19.2839C15.4278 18.8994 16.1083 18.2272 16.3208 17.4341C16.4893 16.8053 16.3665 16.1042 15.9393 15.4017C15.7241 15.0478 15.8365 14.5864 16.1904 14.3712Z" fill="#868E96"/>
</svg>
