<svg width="24" height="25" viewBox="0 0 24 25" fill="none" xmlns="http://www.w3.org/2000/svg">
<path fill-rule="evenodd" clip-rule="evenodd" d="M12 2.26367C12.4142 2.26367 12.75 2.59946 12.75 3.01367V5.26367C12.75 5.67789 12.4142 6.01367 12 6.01367C11.5858 6.01367 11.25 5.67789 11.25 5.26367V3.01367C11.25 2.59946 11.5858 2.26367 12 2.26367ZM5.10571 5.11938C5.3986 4.82649 5.87348 4.82649 6.16637 5.11938L7.75736 6.71037C8.05025 7.00326 8.05025 7.47814 7.75736 7.77103C7.46447 8.06392 6.98959 8.06392 6.6967 7.77103L5.10571 6.18004C4.81282 5.88715 4.81282 5.41227 5.10571 5.11938ZM18.8943 5.11938C19.1872 5.41227 19.1872 5.88715 18.8943 6.18004L17.3033 7.77103C17.0104 8.06392 16.5355 8.06392 16.2426 7.77103C15.9497 7.47814 15.9497 7.00326 16.2426 6.71037L17.8336 5.11938C18.1265 4.82649 18.6014 4.82649 18.8943 5.11938ZM12 9.01367C10.3431 9.01367 9 10.3568 9 12.0137C9 13.6705 10.3431 15.0137 12 15.0137C13.6569 15.0137 15 13.6705 15 12.0137C15 10.3568 13.6569 9.01367 12 9.01367ZM7.5 12.0137C7.5 9.52839 9.51472 7.51367 12 7.51367C14.4853 7.51367 16.5 9.52839 16.5 12.0137C16.5 14.499 14.4853 16.5137 12 16.5137C9.51472 16.5137 7.5 14.499 7.5 12.0137ZM2.25 12.0137C2.25 11.5995 2.58579 11.2637 3 11.2637H5.25C5.66421 11.2637 6 11.5995 6 12.0137C6 12.4279 5.66421 12.7637 5.25 12.7637H3C2.58579 12.7637 2.25 12.4279 2.25 12.0137ZM18 12.0137C18 11.5995 18.3358 11.2637 18.75 11.2637H21C21.4142 11.2637 21.75 11.5995 21.75 12.0137C21.75 12.4279 21.4142 12.7637 21 12.7637H18.75C18.3358 12.7637 18 12.4279 18 12.0137ZM7.75736 16.2563C8.05025 16.5492 8.05025 17.0241 7.75736 17.317L6.16637 18.908C5.87348 19.2009 5.3986 19.2009 5.10571 18.908C4.81282 18.6151 4.81282 18.1402 5.10571 17.8473L6.6967 16.2563C6.98959 15.9634 7.46447 15.9634 7.75736 16.2563ZM16.2426 16.2563C16.5355 15.9634 17.0104 15.9634 17.3033 16.2563L18.8943 17.8473C19.1872 18.1402 19.1872 18.6151 18.8943 18.908C18.6014 19.2009 18.1265 19.2009 17.8336 18.908L16.2426 17.317C15.9497 17.0241 15.9497 16.5492 16.2426 16.2563ZM12 18.0137C12.4142 18.0137 12.75 18.3495 12.75 18.7637V21.0137C12.75 21.4279 12.4142 21.7637 12 21.7637C11.5858 21.7637 11.25 21.4279 11.25 21.0137V18.7637C11.25 18.3495 11.5858 18.0137 12 18.0137Z" fill="#868E96"/>
</svg>
