<svg width="24" height="25" viewBox="0 0 24 25" fill="none" xmlns="http://www.w3.org/2000/svg">
<path fill-rule="evenodd" clip-rule="evenodd" d="M2.25 4.13867C2.25 3.10314 3.08947 2.26367 4.125 2.26367H9.375C10.4105 2.26367 11.25 3.10314 11.25 4.13867V6.39971L12.8488 4.80092C13.581 4.06868 14.7682 4.06868 15.5004 4.80092L19.2128 8.51323C19.945 9.24546 19.945 10.4326 19.2128 11.1649L17.614 12.7637H19.875C20.9105 12.7637 21.75 13.6031 21.75 14.6387V19.8887C21.75 20.9242 20.9105 21.7637 19.875 21.7637H6.75208C6.74446 21.7637 6.73684 21.7637 6.72923 21.7636C5.50229 21.7581 4.39133 21.2615 3.58274 20.4603C2.75976 19.6448 2.25 18.5138 2.25 17.2637V4.13867ZM4.62868 19.385C4.63194 19.3883 4.63522 19.3915 4.6385 19.3948C4.92384 19.6775 5.25183 19.8913 5.60165 20.036C5.95537 20.1827 6.34323 20.2637 6.75 20.2637V21.7637C6.74307 21.7637 6.73615 21.7637 6.72923 21.7636C5.59093 21.7584 4.45424 21.324 3.58274 20.4603C3.57783 20.4554 3.57292 20.4506 3.56802 20.4457M10.114 20.2637H19.875C20.0821 20.2637 20.25 20.0958 20.25 19.8887V14.6387C20.25 14.4316 20.0821 14.2637 19.875 14.2637H16.114L10.114 20.2637ZM10.1042 20.2637H6.75C7.15677 20.2637 7.54463 20.1827 7.89835 20.036C8.25219 19.8896 8.58369 19.6726 8.87132 19.385L11.25 17.0063V17.2637C11.25 18.4162 10.8167 19.4675 10.1042 20.2637ZM6 17.2637C6 16.8495 6.33579 16.5137 6.75 16.5137H6.7575C7.17171 16.5137 7.5075 16.8495 7.5075 17.2637V17.2712C7.5075 17.6854 7.17171 18.0212 6.7575 18.0212H6.75C6.33579 18.0212 6 17.6854 6 17.2712V17.2637Z" fill="#868E96"/>
</svg>
