<svg width="24" height="25" viewBox="0 0 24 25" fill="none" xmlns="http://www.w3.org/2000/svg">
<path fill-rule="evenodd" clip-rule="evenodd" d="M2.25 4.13867C2.25 3.10314 3.08947 2.26367 4.125 2.26367H9.375C10.4105 2.26367 11.25 3.10314 11.25 4.13867V17.2637C11.25 19.749 9.23528 21.7637 6.75 21.7637C4.26472 21.7637 2.25 19.749 2.25 17.2637V4.13867ZM6.75 18.3887C7.37132 18.3887 7.875 17.885 7.875 17.2637C7.875 16.6424 7.37132 16.1387 6.75 16.1387C6.12868 16.1387 5.625 16.6424 5.625 17.2637C5.625 17.885 6.12868 18.3887 6.75 18.3887Z" fill="#868E96"/>
<path d="M10.719 21.7637H19.8751C20.9106 21.7637 21.7501 20.9242 21.7501 19.8887V14.6387C21.7501 13.6031 20.9106 12.7637 19.8751 12.7637H19.7353L10.9927 21.5063C10.9035 21.5955 10.8122 21.6813 10.719 21.7637Z" fill="#868E96"/>
<path d="M12.7383 17.6391L19.2125 11.1649C19.9448 10.4326 19.9448 9.24546 19.2125 8.51322L15.5002 4.80091C14.768 4.06868 13.5808 4.06868 12.8486 4.80091L12.7498 4.89965V17.2637C12.7498 17.3898 12.7459 17.515 12.7383 17.6391Z" fill="#868E96"/>
</svg>
