<svg width="24" height="25" viewBox="0 0 24 25" fill="none" xmlns="http://www.w3.org/2000/svg">
<path fill-rule="evenodd" clip-rule="evenodd" d="M1.5 6.38867C1.5 5.35314 2.33947 4.51367 3.375 4.51367H20.625C21.6605 4.51367 22.5 5.35314 22.5 6.38867V9.41502C22.5 9.68274 22.3573 9.93017 22.1255 10.0642C21.4511 10.4544 21 11.1818 21 12.0137C21 12.8455 21.4511 13.573 22.1255 13.9631C22.3573 14.0972 22.5 14.3446 22.5 14.6123V17.6387C22.5 18.6742 21.6605 19.5137 20.625 19.5137H3.375C2.33947 19.5137 1.5 18.6742 1.5 17.6387V14.6123C1.5 14.3446 1.64271 14.0972 1.87446 13.9631C2.54894 13.573 3 12.8455 3 12.0137C3 11.1818 2.54894 10.4544 1.87446 10.0642C1.64271 9.93017 1.5 9.68274 1.5 9.41502V6.38867ZM3.375 6.01367C3.16789 6.01367 3 6.18157 3 6.38867V9.0135C3.90974 9.69684 4.5 10.786 4.5 12.0137C4.5 13.2414 3.90974 14.3305 3 15.0138V17.6387C3 17.8458 3.16789 18.0137 3.375 18.0137H15.75V17.2637C15.75 16.8495 16.0858 16.5137 16.5 16.5137C16.9142 16.5137 17.25 16.8495 17.25 17.2637V18.0137H20.625C20.8321 18.0137 21 17.8458 21 17.6387V15.0138C20.0903 14.3305 19.5 13.2414 19.5 12.0137C19.5 10.786 20.0903 9.69684 21 9.0135V6.38867C21 6.18156 20.8321 6.01367 20.625 6.01367H17.25V6.76367C17.25 7.17789 16.9142 7.51367 16.5 7.51367C16.0858 7.51367 15.75 7.17789 15.75 6.76367V6.01367H3.375ZM16.5 9.01367C16.9142 9.01367 17.25 9.34946 17.25 9.76367V10.5137C17.25 10.9279 16.9142 11.2637 16.5 11.2637C16.0858 11.2637 15.75 10.9279 15.75 10.5137V9.76367C15.75 9.34946 16.0858 9.01367 16.5 9.01367ZM6.75 12.7637C6.75 12.3495 7.08579 12.0137 7.5 12.0137H12.75C13.1642 12.0137 13.5 12.3495 13.5 12.7637C13.5 13.1779 13.1642 13.5137 12.75 13.5137H7.5C7.08579 13.5137 6.75 13.1779 6.75 12.7637ZM16.5 12.7637C16.9142 12.7637 17.25 13.0995 17.25 13.5137V14.2637C17.25 14.6779 16.9142 15.0137 16.5 15.0137C16.0858 15.0137 15.75 14.6779 15.75 14.2637V13.5137C15.75 13.0995 16.0858 12.7637 16.5 12.7637ZM6.75 15.0137C6.75 14.5995 7.08579 14.2637 7.5 14.2637H10.5C10.9142 14.2637 11.25 14.5995 11.25 15.0137C11.25 15.4279 10.9142 15.7637 10.5 15.7637H7.5C7.08579 15.7637 6.75 15.4279 6.75 15.0137Z" fill="#868E96"/>
</svg>
