<svg width="24" height="25" viewBox="0 0 24 25" fill="none" xmlns="http://www.w3.org/2000/svg">
<path fill-rule="evenodd" clip-rule="evenodd" d="M16.4991 4.49186V4.71865C17.4539 4.80605 18.4007 4.92098 19.3388 5.06265C19.6861 5.1151 20.0323 5.17122 20.3772 5.23097C20.7853 5.30167 21.0588 5.68984 20.9881 6.09797C20.9174 6.50611 20.5293 6.77966 20.1211 6.70896C20.0515 6.6969 19.9819 6.685 19.9122 6.67324L18.9067 19.7438C18.7865 21.3068 17.4832 22.5137 15.9156 22.5137H8.08272C6.51511 22.5137 5.21178 21.3068 5.09155 19.7438L4.08613 6.67324C4.01642 6.685 3.94676 6.6969 3.87716 6.70896C3.46902 6.77966 3.08085 6.50611 3.01015 6.09797C2.93945 5.68984 3.213 5.30167 3.62114 5.23097C3.96603 5.17122 4.31217 5.1151 4.6595 5.06265C5.5976 4.92098 6.54442 4.80605 7.49915 4.71865V4.49186C7.49915 2.92739 8.71168 1.59185 10.3146 1.54058C10.8739 1.52269 11.4355 1.51367 11.9991 1.51367C12.5628 1.51367 13.1244 1.52269 13.6837 1.54058C15.2866 1.59185 16.4991 2.92739 16.4991 4.49186ZM10.3625 3.03981C10.9059 3.02243 11.4515 3.01367 11.9991 3.01367C12.5468 3.01367 13.0924 3.02243 13.6358 3.03981C14.3904 3.06395 14.9991 3.69761 14.9991 4.49186V4.6045C14.0068 4.54424 13.0065 4.51367 11.9991 4.51367C10.9918 4.51367 9.99151 4.54424 8.99915 4.6045V4.49186C8.99915 3.69761 9.60792 3.06395 10.3625 3.03981ZM10.0077 8.98485C9.99183 8.57094 9.64338 8.24831 9.22948 8.26423C8.81557 8.28015 8.49294 8.62859 8.50885 9.0425L8.85501 18.0425C8.87093 18.4564 9.21937 18.779 9.63328 18.7631C10.0472 18.7472 10.3698 18.3988 10.3539 17.9848L10.0077 8.98485ZM15.4885 9.0425C15.5044 8.62859 15.1818 8.28015 14.7679 8.26423C14.354 8.24831 14.0055 8.57094 13.9896 8.98485L13.6435 17.9848C13.6276 18.3988 13.9502 18.7472 14.3641 18.7631C14.778 18.779 15.1264 18.4564 15.1424 18.0425L15.4885 9.0425Z" fill="#868E96"/>
</svg>
