<svg width="24" height="25" viewBox="0 0 24 25" fill="none" xmlns="http://www.w3.org/2000/svg">
<path fill-rule="evenodd" clip-rule="evenodd" d="M11.9991 3.01367C11.4515 3.01367 10.9059 3.02243 10.3625 3.03981C9.60793 3.06395 8.99915 3.69761 8.99915 4.49186V4.60449C9.99151 4.54423 10.9918 4.51367 11.9991 4.51367C13.0065 4.51367 14.0068 4.54423 14.9991 4.60449V4.49186C14.9991 3.69761 14.3904 3.06395 13.6358 3.03981C13.0924 3.02243 12.5468 3.01367 11.9991 3.01367ZM16.4991 4.71865V4.49186C16.4991 2.92739 15.2866 1.59185 13.6837 1.54058C13.1244 1.52269 12.5628 1.51367 11.9991 1.51367C11.4355 1.51367 10.8739 1.52269 10.3146 1.54058C8.71168 1.59185 7.49915 2.92739 7.49915 4.49186V4.71865C6.54442 4.80605 5.5976 4.92098 4.6595 5.06265C4.31217 5.1151 3.96603 5.17122 3.62114 5.23097C3.213 5.30167 2.93945 5.68984 3.01015 6.09797C3.08085 6.50611 3.46902 6.77966 3.87716 6.70896C3.94676 6.6969 4.01642 6.685 4.08613 6.67324L5.09155 19.7438C5.21178 21.3068 6.51511 22.5137 8.08272 22.5137H15.9156C17.4832 22.5137 18.7865 21.3068 18.9067 19.7438L19.9122 6.67324C19.9819 6.685 20.0515 6.6969 20.1211 6.70896C20.5293 6.77966 20.9174 6.50611 20.9881 6.09797C21.0588 5.68984 20.7853 5.30167 20.3772 5.23097C20.0323 5.17122 19.6861 5.1151 19.3388 5.06265C18.4007 4.92098 17.4539 4.80605 16.4991 4.71865ZM18.4251 6.44688C17.5218 6.32407 16.6103 6.22678 15.6914 6.15577C14.4731 6.06163 13.2418 6.01367 11.9991 6.01367C10.7565 6.01367 9.52517 6.06163 8.30693 6.15577C7.388 6.22678 6.47649 6.32407 5.57315 6.44688L6.58713 19.6287C6.64725 20.4102 7.29891 21.0137 8.08272 21.0137H15.9156C16.6994 21.0137 17.351 20.4102 17.4112 19.6287L18.4251 6.44688ZM9.22994 8.26423C9.64385 8.24831 9.99229 8.57094 10.0082 8.98485L10.3544 17.9848C10.3703 18.3988 10.0476 18.7472 9.63374 18.7631C9.21983 18.779 8.87139 18.4564 8.85547 18.0425L8.50932 9.0425C8.4934 8.62859 8.81603 8.28015 9.22994 8.26423ZM14.7684 8.26423C15.1823 8.28015 15.5049 8.62859 15.489 9.0425L15.1428 18.0425C15.1269 18.4564 14.7785 18.779 14.3646 18.7631C13.9506 18.7472 13.628 18.3988 13.6439 17.9848L13.9901 8.98485C14.006 8.57094 14.3545 8.24831 14.7684 8.26423Z" fill="#868E96"/>
</svg>
