<svg width="24" height="25" viewBox="0 0 24 25" fill="none" xmlns="http://www.w3.org/2000/svg">
<path fill-rule="evenodd" clip-rule="evenodd" d="M8.24902 6.01611C6.58202 6.01611 4.93542 6.10241 3.31342 6.27074C3.14079 6.28865 2.99902 6.43788 2.99902 6.6309V13.5166H13.499V6.6309C13.499 6.43788 13.3573 6.28865 13.1846 6.27074C11.5626 6.10241 9.91603 6.01611 8.24902 6.01611ZM13.499 15.0166H2.99902V17.6411C2.99902 17.8482 3.16692 18.0161 3.37402 18.0161H4.62705C4.93593 17.1422 5.76936 16.5161 6.74902 16.5161C7.72869 16.5161 8.56212 17.1422 8.87099 18.0161H13.499V15.0166ZM14.999 18.0161H15.8771C16.1859 17.1422 17.0194 16.5161 17.999 16.5161C18.9787 16.5161 19.8121 17.1422 20.121 18.0161L20.624 18.0161C20.8443 18.0161 20.9756 17.8458 20.9659 17.6878C20.7646 14.4224 19.6551 11.4036 17.8864 8.87933C17.6675 8.56691 17.3061 8.36688 16.899 8.33926H14.999V18.0161ZM14.999 6.83926V6.6309C14.999 5.68895 14.2958 4.87799 13.3395 4.77875C11.6661 4.60509 9.96783 4.51611 8.24902 4.51611C6.53021 4.51611 4.83194 4.60509 3.15858 4.77875C2.20229 4.87799 1.49902 5.68895 1.49902 6.6309V17.6411C1.49902 18.6766 2.33849 19.5161 3.37402 19.5161H4.62705C4.93593 20.39 5.76936 21.0161 6.74902 21.0161C7.72869 21.0161 8.56212 20.39 8.87099 19.5161H15.8771C16.1859 20.39 17.0194 21.0161 17.999 21.0161C18.9787 21.0161 19.8121 20.39 20.121 19.5161L20.624 19.5161C21.6464 19.5161 22.5298 18.6778 22.463 17.5955C22.2442 14.0458 21.0375 10.7624 19.1149 8.01857C18.6126 7.30184 17.8086 6.88681 16.9628 6.84039C16.9491 6.83964 16.9354 6.83926 16.9217 6.83926H14.999ZM6.74902 18.0161C6.33481 18.0161 5.99902 18.3519 5.99902 18.7661C5.99902 19.1803 6.33481 19.5161 6.74902 19.5161C7.16324 19.5161 7.49902 19.1803 7.49902 18.7661C7.49902 18.3519 7.16324 18.0161 6.74902 18.0161ZM17.999 18.0161C17.5848 18.0161 17.249 18.3519 17.249 18.7661C17.249 19.1803 17.5848 19.5161 17.999 19.5161C18.4132 19.5161 18.749 19.1803 18.749 18.7661C18.749 18.3519 18.4132 18.0161 17.999 18.0161Z" fill="#868E96"/>
</svg>
