<svg width="24" height="25" viewBox="0 0 24 25" fill="none" xmlns="http://www.w3.org/2000/svg">
<path d="M3.37402 4.51611C2.33849 4.51611 1.49902 5.35558 1.49902 6.39111V13.5161H13.499V6.39111C13.499 5.35558 12.6596 4.51611 11.624 4.51611H3.37402Z" fill="#868E96"/>
<path d="M13.499 15.0161H1.49902V17.6411C1.49902 18.6766 2.33849 19.5161 3.37402 19.5161H3.74902C3.74902 17.8593 5.09217 16.5161 6.74902 16.5161C8.40588 16.5161 9.74902 17.8593 9.74902 19.5161H12.749C13.1632 19.5161 13.499 19.1803 13.499 18.7661V15.0161Z" fill="#868E96"/>
<path d="M8.24902 19.5161C8.24902 18.6877 7.57745 18.0161 6.74902 18.0161C5.9206 18.0161 5.24902 18.6877 5.24902 19.5161C5.24902 20.3445 5.9206 21.0161 6.74902 21.0161C7.57745 21.0161 8.24902 20.3445 8.24902 19.5161Z" fill="#868E96"/>
<path d="M15.749 6.76611C15.3348 6.76611 14.999 7.1019 14.999 7.51611V18.7661C14.999 18.8529 15.0138 18.9363 15.0409 19.0138C15.2799 17.5961 16.5133 16.5161 17.999 16.5161C19.6432 16.5161 20.9784 17.8388 20.9988 19.4781C21.8521 19.303 22.5214 18.5427 22.463 17.5955C22.23 13.8152 20.8766 10.3371 18.7315 7.49101C18.377 7.02074 17.8256 6.76611 17.2611 6.76611H15.749Z" fill="#868E96"/>
<path d="M19.499 19.5161C19.499 18.6877 18.8274 18.0161 17.999 18.0161C17.1706 18.0161 16.499 18.6877 16.499 19.5161C16.499 20.3445 17.1706 21.0161 17.999 21.0161C18.8275 21.0161 19.499 20.3445 19.499 19.5161Z" fill="#868E96"/>
</svg>
