<svg width="24" height="25" viewBox="0 0 24 25" fill="none" xmlns="http://www.w3.org/2000/svg">
<path fill-rule="evenodd" clip-rule="evenodd" d="M1.49902 4.89111C1.49902 3.85558 2.33849 3.01611 3.37402 3.01611H20.624C21.6596 3.01611 22.499 3.85558 22.499 4.89111V16.1411C22.499 17.1766 21.6596 18.0161 20.624 18.0161H14.249V19.5161H17.999C18.4132 19.5161 18.749 19.8519 18.749 20.2661C18.749 20.6803 18.4132 21.0161 17.999 21.0161H5.99902C5.58481 21.0161 5.24902 20.6803 5.24902 20.2661C5.24902 19.8519 5.58481 19.5161 5.99902 19.5161H9.74902V18.0161H3.37402C2.33849 18.0161 1.49902 17.1766 1.49902 16.1411V4.89111ZM11.249 18.0161V19.5161H12.749V18.0161H11.249ZM3.37402 16.5161C3.16692 16.5161 2.99902 16.3482 2.99902 16.1411V4.89111C2.99902 4.68401 3.16692 4.51611 3.37402 4.51611H20.624C20.8311 4.51611 20.999 4.68401 20.999 4.89111V16.1411C20.999 16.3482 20.8311 16.5161 20.624 16.5161H3.37402Z" fill="#868E96"/>
</svg>
