<svg width="24" height="25" viewBox="0 0 24 25" fill="none" xmlns="http://www.w3.org/2000/svg">
<path fill-rule="evenodd" clip-rule="evenodd" d="M5.99458 3.01025C6.4088 3.01025 6.74458 3.34604 6.74458 3.76025V11.261C6.74458 14.1609 9.09512 16.5116 11.9945 16.5116C14.8938 16.5116 17.2443 14.1609 17.2443 11.261V3.76025C17.2443 3.34604 17.5801 3.01025 17.9943 3.01025C18.4086 3.01025 18.7443 3.34604 18.7443 3.76025V11.261C18.7443 14.9891 15.7224 18.0116 11.9945 18.0116C8.26653 18.0116 5.24458 14.9891 5.24458 11.261V3.76025C5.24458 3.34604 5.58037 3.01025 5.99458 3.01025ZM2.99463 20.2618C2.99463 19.8476 3.33042 19.5118 3.74463 19.5118H20.2443C20.6585 19.5118 20.9943 19.8476 20.9943 20.2618C20.9943 20.6761 20.6585 21.0118 20.2443 21.0118H3.74463C3.33042 21.0118 2.99463 20.6761 2.99463 20.2618Z" fill="#868E96"/>
</svg>
