<svg width="24" height="25" viewBox="0 0 24 25" fill="none" xmlns="http://www.w3.org/2000/svg">
<path fill-rule="evenodd" clip-rule="evenodd" d="M10.375 3.771C8.92525 3.771 7.75 4.94625 7.75 6.396C7.75 7.84574 8.92525 9.021 10.375 9.021C11.8247 9.021 13 7.84574 13 6.396C13 4.94625 11.8247 3.771 10.375 3.771ZM6.25 6.396C6.25 4.11782 8.09683 2.271 10.375 2.271C12.6532 2.271 14.5 4.11782 14.5 6.396C14.5 8.67417 12.6532 10.521 10.375 10.521C8.09683 10.521 6.25 8.67417 6.25 6.396ZM15.25 10.521C15.25 10.1068 15.5858 9.771 16 9.771H22C22.4142 9.771 22.75 10.1068 22.75 10.521C22.75 10.9352 22.4142 11.271 22 11.271H16C15.5858 11.271 15.25 10.9352 15.25 10.521ZM4.75889 18.827C6.42309 19.7471 8.33687 20.271 10.375 20.271C12.4131 20.271 14.3269 19.7471 15.9911 18.827C15.8257 15.8688 13.3745 13.521 10.375 13.521C7.37545 13.521 4.92427 15.8688 4.75889 18.827ZM3.25 19.146C3.25 15.211 6.43997 12.021 10.375 12.021C14.31 12.021 17.5 15.211 17.5 19.146V19.1485C17.5 19.1884 17.4996 19.2283 17.499 19.2679C17.4946 19.5264 17.3574 19.7645 17.1359 19.8978C15.1607 21.0871 12.8466 21.771 10.375 21.771C7.90343 21.771 5.5893 21.0871 3.61406 19.8978C3.39256 19.7645 3.25537 19.5264 3.25103 19.2679C3.25034 19.2274 3.25 19.1867 3.25 19.146Z" fill="#868E96"/>
</svg>
