<svg width="24" height="25" viewBox="0 0 24 25" fill="none" xmlns="http://www.w3.org/2000/svg">
<path fill-rule="evenodd" clip-rule="evenodd" d="M8.625 3.771C7.17525 3.771 6 4.94625 6 6.396C6 7.84574 7.17525 9.021 8.625 9.021C10.0747 9.021 11.25 7.84574 11.25 6.396C11.25 4.94625 10.0747 3.771 8.625 3.771ZM4.5 6.396C4.5 4.11782 6.34683 2.271 8.625 2.271C10.9032 2.271 12.75 4.11782 12.75 6.396C12.75 8.67417 10.9032 10.521 8.625 10.521C6.34683 10.521 4.5 8.67417 4.5 6.396ZM17.625 6.771C16.5895 6.771 15.75 7.61046 15.75 8.646C15.75 9.68153 16.5895 10.521 17.625 10.521C18.6605 10.521 19.5 9.68153 19.5 8.646C19.5 7.61046 18.6605 6.771 17.625 6.771ZM14.25 8.646C14.25 6.78203 15.761 5.271 17.625 5.271C19.489 5.271 21 6.78203 21 8.646C21 10.51 19.489 12.021 17.625 12.021C15.761 12.021 14.25 10.51 14.25 8.646ZM3.00889 18.827C4.67308 19.7471 6.58687 20.271 8.625 20.271C10.6631 20.271 12.5769 19.7471 14.2411 18.827C14.1929 17.9633 13.9502 17.1531 13.5565 16.4379C12.5985 14.6975 10.7486 13.521 8.625 13.521C5.62545 13.521 3.17427 15.8688 3.00889 18.827ZM15.2353 19.9872C13.2934 21.1213 11.034 21.771 8.625 21.771C6.15343 21.771 3.8393 21.0871 1.86406 19.8978C1.64256 19.7645 1.50537 19.5264 1.50103 19.2679C1.50034 19.2274 1.5 19.1867 1.5 19.146C1.5 15.211 4.68997 12.021 8.625 12.021C10.94 12.021 12.9963 13.1253 14.2971 14.8336C15.1678 14.02 16.338 13.521 17.625 13.521C20.3173 13.521 22.5 15.7036 22.5 18.396C22.5 18.4642 22.4985 18.5321 22.4958 18.5997C22.4844 18.8746 22.3235 19.1212 22.0765 19.2422C20.7322 19.9013 19.2207 20.271 17.625 20.271C16.8025 20.271 16.0022 20.1728 15.2353 19.9872ZM15.7263 18.5615C16.3366 18.6986 16.9719 18.771 17.625 18.771C18.8187 18.771 19.9542 18.5289 20.9864 18.0916C20.8326 16.3703 19.3863 15.021 17.625 15.021C16.6189 15.021 15.7153 15.4607 15.0961 16.1607C15.4384 16.9015 15.6572 17.7108 15.7263 18.5615Z" fill="#868E96"/>
</svg>
