<svg width="24" height="25" viewBox="0 0 24 25" fill="none" xmlns="http://www.w3.org/2000/svg">
<path fill-rule="evenodd" clip-rule="evenodd" d="M7.49984 6.021C7.49984 3.53571 9.51456 1.521 11.9998 1.521C14.4851 1.521 16.4998 3.53571 16.4998 6.021C16.4998 8.50628 14.4851 10.521 11.9998 10.521C9.51456 10.521 7.49984 8.50628 7.49984 6.021Z" fill="#868E96"/>
<path fill-rule="evenodd" clip-rule="evenodd" d="M3.75109 20.1263C3.82843 15.6366 7.49183 12.021 11.9998 12.021C16.508 12.021 20.1714 15.6367 20.2486 20.1266C20.2537 20.4244 20.0822 20.697 19.8115 20.8212C17.4326 21.9128 14.7864 22.521 12.0002 22.521C9.2137 22.521 6.56728 21.9127 4.18816 20.8209C3.91749 20.6967 3.74596 20.4241 3.75109 20.1263Z" fill="#868E96"/>
</svg>
