<svg width="24" height="25" viewBox="0 0 24 25" fill="none" xmlns="http://www.w3.org/2000/svg">
<path d="M10.375 2.271C8.09683 2.271 6.25 4.11782 6.25 6.396C6.25 8.67417 8.09683 10.521 10.375 10.521C12.6532 10.521 14.5 8.67417 14.5 6.396C14.5 4.11782 12.6532 2.271 10.375 2.271Z" fill="#868E96"/>
<path d="M10.375 12.021C6.43997 12.021 3.25 15.211 3.25 19.146C3.25 19.1867 3.25034 19.2274 3.25103 19.2679C3.25537 19.5264 3.39256 19.7645 3.61406 19.8978C5.5893 21.0871 7.90343 21.771 10.375 21.771C12.8466 21.771 15.1607 21.0871 17.1359 19.8978C17.3574 19.7645 17.4946 19.5264 17.499 19.2679C17.4996 19.2283 17.5 19.1884 17.5 19.1485V19.146C17.5 15.211 14.31 12.021 10.375 12.021Z" fill="#868E96"/>
<path d="M16 9.771C15.5858 9.771 15.25 10.1068 15.25 10.521C15.25 10.9352 15.5858 11.271 16 11.271H22C22.4142 11.271 22.75 10.9352 22.75 10.521C22.75 10.1068 22.4142 9.771 22 9.771H16Z" fill="#868E96"/>
</svg>
