<svg width="24" height="25" viewBox="0 0 24 25" fill="none" xmlns="http://www.w3.org/2000/svg">
<path fill-rule="evenodd" clip-rule="evenodd" d="M18.6854 19.1181C20.5721 17.3401 21.75 14.8181 21.75 12.021C21.75 6.63622 17.3848 2.271 12 2.271C6.61522 2.271 2.25 6.63622 2.25 12.021C2.25 14.8181 3.42785 17.3401 5.31463 19.1181C7.06012 20.7629 9.41234 21.771 12 21.771C14.5877 21.771 16.9399 20.7629 18.6854 19.1181ZM6.14512 17.8333C7.51961 16.1188 9.63161 15.021 12 15.021C14.3684 15.021 16.4804 16.1188 17.8549 17.8333C16.3603 19.3388 14.289 20.271 12 20.271C9.711 20.271 7.63973 19.3388 6.14512 17.8333ZM15.75 9.021C15.75 11.0921 14.0711 12.771 12 12.771C9.92893 12.771 8.25 11.0921 8.25 9.021C8.25 6.94993 9.92893 5.271 12 5.271C14.0711 5.271 15.75 6.94993 15.75 9.021Z" fill="#868E96"/>
</svg>
