<svg width="24" height="25" viewBox="0 0 24 25" fill="none" xmlns="http://www.w3.org/2000/svg">
<path fill-rule="evenodd" clip-rule="evenodd" d="M12.0002 4.521C10.7576 4.521 9.75024 5.52836 9.75024 6.771C9.75024 8.01364 10.7576 9.021 12.0002 9.021C13.2429 9.021 14.2502 8.01364 14.2502 6.771C14.2502 5.52836 13.2429 4.521 12.0002 4.521ZM8.25024 6.771C8.25024 4.69993 9.92918 3.021 12.0002 3.021C14.0713 3.021 15.7502 4.69993 15.7502 6.771C15.7502 8.84206 14.0713 10.521 12.0002 10.521C9.92918 10.521 8.25024 8.84206 8.25024 6.771ZM5.25024 8.271C4.42182 8.271 3.75024 8.94257 3.75024 9.771C3.75024 10.5994 4.42182 11.271 5.25024 11.271C6.07867 11.271 6.75024 10.5994 6.75024 9.771C6.75024 8.94257 6.07867 8.271 5.25024 8.271ZM2.25024 9.771C2.25024 8.11414 3.59339 6.771 5.25024 6.771C6.9071 6.771 8.25024 8.11414 8.25024 9.771C8.25024 11.4279 6.9071 12.771 5.25024 12.771C3.59339 12.771 2.25024 11.4279 2.25024 9.771ZM18.7502 8.271C17.9218 8.271 17.2502 8.94257 17.2502 9.771C17.2502 10.5994 17.9218 11.271 18.7502 11.271C19.5787 11.271 20.2502 10.5994 20.2502 9.771C20.2502 8.94257 19.5787 8.271 18.7502 8.271ZM15.7502 9.771C15.7502 8.11414 17.0934 6.771 18.7502 6.771C20.4071 6.771 21.7502 8.11414 21.7502 9.771C21.7502 11.4279 20.4071 12.771 18.7502 12.771C17.0934 12.771 15.7502 11.4279 15.7502 9.771ZM12.0002 13.521C10.1415 13.521 8.50772 14.4864 7.57376 15.9467C7.05698 16.7547 6.75548 17.7132 6.75031 18.744L6.75024 18.771C6.75024 18.8396 6.75155 18.9078 6.75415 18.9757C8.31985 19.8026 10.1044 20.271 12.0002 20.271C13.8961 20.271 15.6806 19.8026 17.2463 18.9757C17.2489 18.9078 17.2502 18.8396 17.2502 18.771L17.2502 18.7439C17.245 17.7134 16.9436 16.7551 16.4271 15.9472C15.4932 14.4866 13.8592 13.521 12.0002 13.521ZM18.709 19.5209C18.6822 19.7581 18.5441 19.9683 18.337 20.0872C16.4697 21.1586 14.3053 21.771 12.0002 21.771C9.69516 21.771 7.53083 21.1586 5.66349 20.0872C5.45642 19.9683 5.31832 19.7581 5.2915 19.5209C5.278 19.521 5.26449 19.521 5.25098 19.521C4.11662 19.521 3.02597 19.327 2.0114 18.9697C1.73179 18.8712 1.53641 18.6173 1.5129 18.3217C1.50499 18.2224 1.50098 18.1221 1.50098 18.021C1.50098 15.9499 3.17991 14.271 5.25098 14.271C5.77072 14.271 6.26667 14.3771 6.71754 14.5688C7.95335 13.0173 9.86025 12.021 12.0002 12.021C14.1404 12.021 16.0475 13.0175 17.2833 14.5692C17.7344 14.3772 18.2307 14.271 18.7508 14.271C20.8219 14.271 22.5008 15.9499 22.5008 18.021C22.5008 18.1221 22.4968 18.2224 22.4889 18.3217C22.4654 18.6173 22.27 18.8712 21.9904 18.9697C20.9758 19.327 19.8852 19.521 18.7508 19.521C18.7369 19.521 18.7229 19.521 18.709 19.5209ZM18.0955 15.8677C18.4128 16.5328 18.6245 17.258 18.709 18.0209C18.7229 18.021 18.7369 18.021 18.7508 18.021C19.5243 18.021 20.2719 17.9148 20.9804 17.7164C20.8317 16.6178 19.8902 15.771 18.7508 15.771C18.5225 15.771 18.3026 15.8048 18.0955 15.8677ZM5.90515 15.8674C5.69842 15.8047 5.4789 15.771 5.25098 15.771C4.11164 15.771 3.1701 16.6178 3.02142 17.7164C3.7299 17.9148 4.47751 18.021 5.25098 18.021C5.2645 18.021 5.27801 18.021 5.29151 18.0209C5.37597 17.2578 5.58775 16.5326 5.90515 15.8674Z" fill="#868E96"/>
</svg>
