<svg width="24" height="25" viewBox="0 0 24 25" fill="none" xmlns="http://www.w3.org/2000/svg">
<path d="M5.25 6.396C5.25 4.11782 7.09683 2.271 9.375 2.271C11.6532 2.271 13.5 4.11782 13.5 6.396C13.5 8.67417 11.6532 10.521 9.375 10.521C7.09683 10.521 5.25 8.67417 5.25 6.396Z" fill="#868E96"/>
<path d="M2.25 19.146C2.25 15.211 5.43997 12.021 9.375 12.021C13.31 12.021 16.5 15.211 16.5 19.146V19.1485C16.5 19.1884 16.4996 19.2283 16.499 19.2679C16.4946 19.5264 16.3574 19.7645 16.1359 19.8978C14.1607 21.0871 11.8466 21.771 9.375 21.771C6.90343 21.771 4.5893 21.0871 2.61406 19.8978C2.39256 19.7645 2.25537 19.5264 2.25103 19.2679C2.25034 19.2274 2.25 19.1867 2.25 19.146Z" fill="#868E96"/>
<path d="M18.75 7.521C18.75 7.10678 18.4142 6.771 18 6.771C17.5858 6.771 17.25 7.10678 17.25 7.521V9.771H15C14.5858 9.771 14.25 10.1068 14.25 10.521C14.25 10.9352 14.5858 11.271 15 11.271H17.25V13.521C17.25 13.9352 17.5858 14.271 18 14.271C18.4142 14.271 18.75 13.9352 18.75 13.521V11.271H21C21.4142 11.271 21.75 10.9352 21.75 10.521C21.75 10.1068 21.4142 9.771 21 9.771H18.75V7.521Z" fill="#868E96"/>
</svg>
