<svg width="24" height="25" viewBox="0 0 24 25" fill="none" xmlns="http://www.w3.org/2000/svg">
<path d="M0.96967 3.99067C1.26256 3.69777 1.73744 3.69777 2.03033 3.99067L17.0303 18.9907C17.3232 19.2836 17.3232 19.7584 17.0303 20.0513C16.7374 20.3442 16.2626 20.3442 15.9697 20.0513L0.96967 5.05133C0.676777 4.75843 0.676777 4.28356 0.96967 3.99067Z" fill="#868E96"/>
<path d="M17.25 16.0816L19.9393 18.771C20.8843 19.7159 22.5 19.0467 22.5 17.7103V6.33162C22.5 4.99527 20.8843 4.32601 19.9393 5.27096L17.25 7.9603V16.0816Z" fill="#868E96"/>
<path d="M15.75 7.521V15.589L4.68198 4.521H12.75C14.4069 4.521 15.75 5.86414 15.75 7.521Z" fill="#868E96"/>
<path d="M1.5 16.521V7.70298L13.2727 19.4756C13.1029 19.5054 12.9283 19.521 12.75 19.521H4.5C2.84315 19.521 1.5 18.1779 1.5 16.521Z" fill="#868E96"/>
</svg>
