<svg width="24" height="25" viewBox="0 0 24 25" fill="none" xmlns="http://www.w3.org/2000/svg">
<path d="M6 3.021C4.34315 3.021 3 4.36414 3 6.021V7.521C3 7.93521 3.33579 8.271 3.75 8.271C4.16421 8.271 4.5 7.93521 4.5 7.521V6.021C4.5 5.19257 5.17157 4.521 6 4.521H7.5C7.91421 4.521 8.25 4.18521 8.25 3.771C8.25 3.35678 7.91421 3.021 7.5 3.021H6Z" fill="#868E96"/>
<path d="M16.5 3.021C16.0858 3.021 15.75 3.35678 15.75 3.771C15.75 4.18521 16.0858 4.521 16.5 4.521H18C18.8284 4.521 19.5 5.19257 19.5 6.021V7.521C19.5 7.93521 19.8358 8.271 20.25 8.271C20.6642 8.271 21 7.93521 21 7.521V6.021C21 4.36414 19.6569 3.021 18 3.021H16.5Z" fill="#868E96"/>
<path d="M12 8.271C9.92893 8.271 8.25 9.94993 8.25 12.021C8.25 14.0921 9.92893 15.771 12 15.771C14.0711 15.771 15.75 14.0921 15.75 12.021C15.75 9.94993 14.0711 8.271 12 8.271Z" fill="#868E96"/>
<path d="M4.5 16.521C4.5 16.1068 4.16421 15.771 3.75 15.771C3.33579 15.771 3 16.1068 3 16.521V18.021C3 19.6779 4.34315 21.021 6 21.021H7.5C7.91421 21.021 8.25 20.6852 8.25 20.271C8.25 19.8568 7.91421 19.521 7.5 19.521H6C5.17157 19.521 4.5 18.8494 4.5 18.021V16.521Z" fill="#868E96"/>
<path d="M21 16.521C21 16.1068 20.6642 15.771 20.25 15.771C19.8358 15.771 19.5 16.1068 19.5 16.521V18.021C19.5 18.8494 18.8284 19.521 18 19.521H16.5C16.0858 19.521 15.75 19.8568 15.75 20.271C15.75 20.6852 16.0858 21.021 16.5 21.021H18C19.6569 21.021 21 19.6779 21 18.021V16.521Z" fill="#868E96"/>
</svg>
