<svg width="24" height="25" viewBox="0 0 24 25" fill="none" xmlns="http://www.w3.org/2000/svg">
<path d="M2.27307 5.64623C3.06638 4.94593 4.10851 4.521 5.24989 4.521H18.7499C19.8913 4.521 20.9334 4.94594 21.7267 5.64623C21.5423 4.16625 20.2798 3.021 18.7499 3.021H5.24989C3.71995 3.021 2.4575 4.16625 2.27307 5.64623Z" fill="#868E96"/>
<path d="M2.27307 8.64623C3.06638 7.94593 4.10851 7.521 5.24989 7.521H18.7499C19.8913 7.521 20.9334 7.94594 21.7267 8.64623C21.5423 7.16625 20.2798 6.021 18.7499 6.021H5.24989C3.71995 6.021 2.4575 7.16625 2.27307 8.64623Z" fill="#868E96"/>
<path d="M5.25 9.021C3.59315 9.021 2.25 10.3641 2.25 12.021V18.021C2.25 19.6779 3.59315 21.021 5.25 21.021H18.75C20.4069 21.021 21.75 19.6778 21.75 18.021V12.021C21.75 10.3641 20.4069 9.021 18.75 9.021H15C14.5858 9.021 14.25 9.35678 14.25 9.771C14.25 11.0136 13.2426 12.021 12 12.021C10.7574 12.021 9.75 11.0136 9.75 9.771C9.75 9.35678 9.41421 9.021 9 9.021H5.25Z" fill="#868E96"/>
</svg>
