<svg width="24" height="25" viewBox="0 0 24 25" fill="none" xmlns="http://www.w3.org/2000/svg">
<path fill-rule="evenodd" clip-rule="evenodd" d="M21.546 9.22505C16.274 3.95298 7.72624 3.95298 2.45416 9.22505C2.16127 9.51795 1.68639 9.51795 1.3935 9.22505C1.1006 8.93216 1.1006 8.45729 1.3935 8.16439C7.25136 2.30653 16.7488 2.30653 22.6067 8.16439C22.8996 8.45729 22.8996 8.93216 22.6067 9.22505C22.3138 9.51795 21.8389 9.51795 21.546 9.22505ZM18.3641 12.4071C14.8493 8.89237 9.15086 8.89237 5.63614 12.4071C5.34325 12.7 4.86837 12.7 4.57548 12.4071C4.28259 12.1142 4.28259 11.6393 4.57548 11.3464C8.67598 7.24592 15.3242 7.24592 19.4247 11.3464C19.7176 11.6393 19.7176 12.1142 19.4247 12.4071C19.1318 12.7 18.657 12.7 18.3641 12.4071ZM15.1821 15.5891C13.4247 13.8318 10.5755 13.8318 8.81812 15.5891C8.52523 15.882 8.05035 15.882 7.75746 15.5891C7.46457 15.2962 7.46457 14.8214 7.75746 14.5285C10.1006 12.1853 13.8996 12.1853 16.2427 14.5285C16.5356 14.8214 16.5356 15.2962 16.2427 15.5891C15.9498 15.882 15.475 15.882 15.1821 15.5891ZM10.9394 17.7104C11.5252 17.1246 12.475 17.1246 13.0608 17.7104C13.3537 18.0033 13.3537 18.4782 13.0608 18.7711L12.5304 19.3014C12.3898 19.442 12.199 19.5211 12.0001 19.5211C11.8012 19.5211 11.6104 19.442 11.4698 19.3014L10.9394 18.7711C10.6465 18.4782 10.6465 18.0033 10.9394 17.7104Z" fill="#868E96"/>
</svg>
