<svg width="24" height="25" viewBox="0 0 24 25" fill="none" xmlns="http://www.w3.org/2000/svg">
<path fill-rule="evenodd" clip-rule="evenodd" d="M3.21969 1.74068C3.46304 1.49733 3.84078 1.45083 4.13589 1.62789L7.88589 3.87789C8.11179 4.01343 8.25002 4.25756 8.25002 4.52101V5.61936L11.7331 9.10248C11.9972 8.63117 12.0824 7.96993 12.0188 7.21829C12.0064 7.07069 12 6.92151 12 6.77101C12 3.87152 14.3505 1.52101 17.25 1.52101C18.019 1.52101 18.7514 1.68683 19.4115 1.98539C19.6358 2.08686 19.7961 2.29199 19.8403 2.53423C19.8844 2.77648 19.8069 3.02496 19.6327 3.19908L16.6793 6.15257C16.9068 6.68608 17.3351 7.11438 17.8686 7.34191L20.822 4.38847C20.9962 4.21435 21.2447 4.1368 21.4869 4.18097C21.7291 4.22514 21.9343 4.38541 22.0357 4.60977C22.3342 5.26984 22.5 6.00208 22.5 6.77101C22.5 9.67051 20.1495 12.021 17.25 12.021C17.0995 12.021 16.9503 12.0147 16.8027 12.0022C16.7988 12.0018 16.7948 12.0015 16.7909 12.0012L21.5303 16.7407C22.8588 18.0691 22.8588 20.2229 21.5303 21.5513C20.2019 22.8798 18.0481 22.8798 16.7197 21.5513L11.4732 16.3048L7.34328 21.3197C6.71686 22.0803 5.7831 22.521 4.7977 22.521C2.97644 22.521 1.50002 21.0446 1.50002 19.2233C1.50002 18.2379 1.94068 17.3042 2.70134 16.6777L8.90017 11.5728L5.59837 8.27101H4.50002C4.23657 8.27101 3.99244 8.13279 3.8569 7.90688L1.6069 4.15688C1.42983 3.86178 1.47634 3.48403 1.71969 3.24068L3.21969 1.74068ZM10.0635 10.6148L10.6451 10.1358L6.96969 6.46035C6.82903 6.3197 6.75002 6.12893 6.75002 5.93002V4.94565L3.86628 3.21541L3.19442 3.88727L4.92466 6.77101H5.90903C6.10794 6.77101 6.2987 6.85003 6.43936 6.99068L10.0635 10.6148ZM12.4312 15.1415L17.7803 20.4907C18.523 21.2333 19.727 21.2333 20.4697 20.4907C21.2123 19.748 21.2123 18.544 20.4697 17.8013L14.9421 12.2738C14.7641 12.3699 14.6147 12.4901 14.4944 12.6361L12.4312 15.1415ZM17.25 3.02101C15.1789 3.02101 13.5 4.69994 13.5 6.77101C13.5 6.87928 13.5046 6.98632 13.5135 7.09195C13.6093 8.2256 13.4712 9.75161 12.3385 10.6845L3.6549 17.8356C3.24024 18.1771 3.00002 18.6861 3.00002 19.2233C3.00002 20.2162 3.80487 21.021 4.7977 21.021C5.33488 21.021 5.8439 20.7808 6.18539 20.3661L13.3365 11.6826C13.768 11.1587 14.3316 10.8478 14.9089 10.6756C15.5778 10.4761 16.2921 10.4537 16.9291 10.5075C17.0347 10.5164 17.1417 10.521 17.25 10.521C19.3211 10.521 21 8.84208 21 6.77101C21 6.63015 20.9923 6.49122 20.9772 6.35461L18.6065 8.72531C18.4239 8.90795 18.1601 8.98376 17.9084 8.92597C16.5126 8.60554 15.4156 7.50858 15.0952 6.11279C15.0374 5.86105 15.1132 5.59729 15.2959 5.41465L17.6667 3.04383C17.53 3.02876 17.391 3.02101 17.25 3.02101ZM15.2197 15.2407C15.5126 14.9478 15.9875 14.9478 16.2803 15.2407L18.9053 17.8657C19.1982 18.1586 19.1982 18.6334 18.9053 18.9263C18.6125 19.2192 18.1376 19.2192 17.8447 18.9263L15.2197 16.3013C14.9268 16.0084 14.9268 15.5336 15.2197 15.2407ZM4.11725 19.1461C4.11725 18.7318 4.45304 18.3961 4.86725 18.3961H4.87475C5.28896 18.3961 5.62475 18.7318 5.62475 19.1461V19.1536C5.62475 19.5678 5.28896 19.9036 4.87475 19.9036H4.86725C4.45304 19.9036 4.11725 19.5678 4.11725 19.1536V19.1461Z" fill="#868E96"/>
</svg>
