<svg width="24" height="25" viewBox="0 0 24 25" fill="none" xmlns="http://www.w3.org/2000/svg">
<path fill-rule="evenodd" clip-rule="evenodd" d="M12 3.771C7.44365 3.771 3.75 7.46465 3.75 12.021C3.75 16.5773 7.44365 20.271 12 20.271C16.5563 20.271 20.25 16.5773 20.25 12.021C20.25 7.46465 16.5563 3.771 12 3.771ZM2.25 12.021C2.25 6.63622 6.61522 2.271 12 2.271C17.3848 2.271 21.75 6.63622 21.75 12.021C21.75 17.4058 17.3848 21.771 12 21.771C6.61522 21.771 2.25 17.4058 2.25 12.021ZM9.21967 9.24067C9.51256 8.94777 9.98744 8.94777 10.2803 9.24067L12 10.9603L13.7197 9.24067C14.0126 8.94777 14.4874 8.94777 14.7803 9.24067C15.0732 9.53356 15.0732 10.0084 14.7803 10.3013L13.0607 12.021L14.7803 13.7407C15.0732 14.0336 15.0732 14.5084 14.7803 14.8013C14.4874 15.0942 14.0126 15.0942 13.7197 14.8013L12 13.0817L10.2803 14.8013C9.98744 15.0942 9.51256 15.0942 9.21967 14.8013C8.92678 14.5084 8.92678 14.0336 9.21967 13.7407L10.9393 12.021L9.21967 10.3013C8.92678 10.0084 8.92678 9.53356 9.21967 9.24067Z" fill="#868E96"/>
</svg>
